<?xml version="1.0" encoding="UTF-8" standalone="no"?>
<!DOCTYPE svg PUBLIC "-//W3C//DTD SVG 1.1//EN" "http://www.w3.org/Graphics/SVG/1.1/DTD/svg11.dtd">
<svg width="100%" height="100%" viewBox="0 0 2014 5047" version="1.1" xmlns="http://www.w3.org/2000/svg" xmlns:xlink="http://www.w3.org/1999/xlink" xml:space="preserve" xmlns:serif="http://www.serif.com/" style="fill-rule:evenodd;clip-rule:evenodd;stroke-linejoin:round;stroke-miterlimit:2;">
    <g transform="matrix(4.16667,0,0,4.16667,0.00021028,-2843.15)">
        <path d="M229.216,1003.91L204.614,1003.91C198.375,1003.91 193.318,998.848 193.318,992.609L193.318,947.737C193.318,941.498 198.375,936.441 204.614,936.441L229.216,936.441C232.741,936.441 235.599,939.299 235.599,942.824L235.599,997.522C235.599,1001.05 232.741,1003.91 229.216,1003.91Z" style="fill:rgb(237,26,82);fill-rule:nonzero;"/>
    </g>
    <g transform="matrix(4.16667,0,0,4.16667,0.00021028,-2843.15)">
        <path d="M230.524,1011.17L206.93,1011.17C200.368,1011.17 195.048,1016.49 195.048,1023.05L195.048,1044.11C195.048,1076.34 202.793,1108.1 217.632,1136.71L226.018,1152.88C228.465,1157.6 235.599,1155.86 235.599,1150.54L235.599,1016.25C235.599,1013.44 233.327,1011.17 230.524,1011.17Z" style="fill:rgb(237,26,82);fill-rule:nonzero;"/>
    </g>
    <g transform="matrix(4.16667,0,0,4.16667,0.00021028,-2843.15)">
        <path d="M254.042,1003.91L278.644,1003.91C284.883,1003.91 289.94,998.848 289.94,992.609L289.94,947.737C289.94,941.498 284.883,936.441 278.644,936.441L254.042,936.441C250.517,936.441 247.659,939.299 247.659,942.824L247.659,997.522C247.659,1001.05 250.517,1003.91 254.042,1003.91Z" style="fill:rgb(237,26,82);fill-rule:nonzero;"/>
    </g>
    <g transform="matrix(4.16667,0,0,4.16667,0.00021028,-2843.15)">
        <path d="M252.734,1011.17L276.327,1011.17C282.89,1011.17 288.21,1016.49 288.21,1023.05L288.21,1044.11C288.21,1076.34 280.464,1108.1 265.625,1136.71L257.239,1152.88C254.793,1157.6 247.659,1155.86 247.659,1150.54L247.659,1016.25C247.659,1013.44 249.931,1011.17 252.734,1011.17Z" style="fill:rgb(237,26,82);fill-rule:nonzero;"/>
    </g>
</svg>
