<?xml version="1.0" encoding="UTF-8" standalone="no"?>
<!DOCTYPE svg PUBLIC "-//W3C//DTD SVG 1.1//EN" "http://www.w3.org/Graphics/SVG/1.1/DTD/svg11.dtd">
<svg width="100%" height="100%" viewBox="0 0 2014 2084" version="1.1" xmlns="http://www.w3.org/2000/svg" xmlns:xlink="http://www.w3.org/1999/xlink" xml:space="preserve" xmlns:serif="http://www.serif.com/" style="fill-rule:evenodd;clip-rule:evenodd;stroke-linejoin:round;stroke-miterlimit:2;">
    <g transform="matrix(4.16667,0,0,4.16667,-6394.48,-2843.15)">
        <path d="M1906.35,682.355C1905.92,682.355 1905.49,682.389 1905.06,682.458L1828.47,694.913C1811.27,697.709 1793.72,699.126 1776.3,699.126C1758.88,699.126 1741.33,697.709 1724.14,694.913L1647.54,682.458C1647.12,682.389 1646.69,682.355 1646.26,682.355C1645.45,682.355 1644.64,682.478 1643.86,682.722C1641.66,683.414 1589.73,700.152 1575.01,741.868C1562.64,776.891 1569.21,813.824 1572.45,827.61C1561.54,836.418 1536.47,861.994 1534.68,912.188C1534.63,913.625 1534.96,915.049 1535.65,916.311L1588.3,1012.64C1589.68,1015.17 1592.32,1016.76 1595.21,1016.8L1595.32,1016.8C1598.16,1016.8 1600.8,1015.29 1602.23,1012.83C1621.75,979.366 1622.02,949.312 1621.44,939.286L1636.63,919.659C1638.92,923.47 1641.96,927.918 1645.91,932.668C1654.16,942.565 1657.66,955.704 1655.53,968.714L1646.78,1022.22C1646.7,1022.69 1646.67,1023.17 1646.68,1023.66L1648.14,1104.58C1648.17,1106.07 1648.61,1107.52 1649.42,1108.77C1649.9,1109.53 1661.58,1127.44 1682.65,1145.47C1695.08,1156.11 1708.24,1164.6 1721.77,1170.72C1738.86,1178.44 1756.55,1182.35 1774.35,1182.35C1792.13,1182.35 1810.01,1178.45 1827.48,1170.75C1841.3,1164.66 1854.88,1156.19 1867.87,1145.59C1889.86,1127.62 1902.49,1109.78 1903.02,1109.03C1903.93,1107.72 1904.44,1106.17 1904.47,1104.58L1905.93,1023.66C1905.94,1023.17 1905.91,1022.69 1905.83,1022.22L1897.07,968.714C1894.94,955.704 1898.45,942.565 1906.69,932.668C1910.65,927.918 1913.68,923.47 1915.97,919.659L1931.16,939.286C1930.59,949.312 1930.86,979.366 1950.38,1012.83C1951.81,1015.29 1954.44,1016.8 1957.29,1016.8L1957.4,1016.8C1960.28,1016.76 1962.92,1015.17 1964.31,1012.64L2016.95,916.311C2017.64,915.049 2017.98,913.625 2017.93,912.188C2016.13,861.994 1991.07,836.418 1980.15,827.61C1983.4,813.824 1989.96,776.891 1977.6,741.868C1962.87,700.153 1910.95,683.414 1908.75,682.722C1907.97,682.478 1907.16,682.355 1906.35,682.355Z" style="fill:rgb(72,80,106);fill-rule:nonzero;"/>
    </g>
    <g transform="matrix(4.16667,0,0,4.16667,-6394.48,-2843.15)">
        <path d="M1690.56,710.417C1690.56,710.417 1653.32,691.797 1627.14,703.434C1600.96,715.071 1570.12,734.854 1585.83,825.041C1585.83,825.041 1627.14,794.203 1632.96,771.511C1638.78,748.819 1663.79,712.162 1690.56,710.417Z" style="fill:rgb(159,171,206);fill-rule:nonzero;"/>
    </g>
    <g transform="matrix(4.16667,0,0,4.16667,-6394.48,-2843.15)">
        <path d="M1762.75,732.568C1767.42,735.322 1770.27,740.335 1770.27,745.753L1770.27,792.473C1770.27,801.177 1764.23,808.468 1756.1,810.374C1751.41,811.475 1746.72,812.594 1742.15,814.128L1692.3,830.86C1682.69,830.86 1673.62,826.371 1667.83,818.691C1661.68,810.519 1651.06,800.804 1634.36,798.304C1630.85,797.779 1629.13,793.764 1631.23,790.905C1636.89,783.194 1645.44,770.26 1648.08,759.292C1652.16,742.418 1684.16,713.326 1706.27,711.58C1722.59,710.292 1749.68,724.85 1762.75,732.568Z" style="fill:rgb(159,171,206);fill-rule:nonzero;"/>
    </g>
    <g transform="matrix(4.16667,0,0,4.16667,-6394.48,-2843.15)">
        <path d="M1630.32,819.492L1630.32,848.315C1630.32,848.315 1617.23,918.859 1581.95,945.623C1576.82,949.516 1569.4,946.325 1568.66,939.929L1564.56,904.792C1563.63,896.747 1564.7,888.595 1567.68,881.064L1587.57,830.86C1587.57,830.86 1609.68,816.313 1618.99,808.167C1625.25,808.167 1630.32,813.238 1630.32,819.492Z" style="fill:rgb(159,171,206);fill-rule:nonzero;"/>
    </g>
    <g transform="matrix(4.16667,0,0,4.16667,-6394.48,-2843.15)">
        <path d="M1568.73,853.156C1570.35,851.872 1572.56,853.778 1571.56,855.586C1566.9,863.953 1559.86,878.475 1558.73,891.433C1557.63,904.203 1557.96,922.248 1558.33,933.29C1558.41,935.636 1555.26,936.466 1554.17,934.386L1548.76,924.036C1546.46,919.626 1545.33,914.695 1545.54,909.724C1546.1,895.997 1549.7,868.227 1568.73,853.156Z" style="fill:rgb(159,171,206);fill-rule:nonzero;"/>
    </g>
    <g transform="matrix(4.16667,0,0,4.16667,-6394.48,-2843.15)">
        <path d="M1632.5,874.091L1632.5,882.877C1632.5,886.663 1631.84,890.416 1630.51,893.961C1627.66,901.556 1621.64,914.758 1611.77,923.582C1610.72,924.518 1609.14,923.321 1609.76,922.059C1614.41,912.546 1624.4,891.316 1629.83,873.681C1630.29,872.18 1632.5,872.52 1632.5,874.091Z" style="fill:rgb(159,171,206);fill-rule:nonzero;"/>
    </g>
    <g transform="matrix(4.16667,0,0,4.16667,-6394.48,-2843.15)">
        <path d="M1770.27,883.212L1770.27,921.821C1770.27,924.736 1767.91,927.1 1764.99,927.1L1730.38,927.1C1726.98,927.1 1723.83,925.283 1722.12,922.333L1718.1,915.369C1714.33,908.85 1715.88,900.564 1721.75,895.847C1730.76,888.603 1745.64,879.444 1764.52,877.951C1767.61,877.707 1770.27,880.11 1770.27,883.212Z" style="fill:rgb(237,25,82);fill-rule:nonzero;"/>
    </g>
    <g transform="matrix(4.16667,0,0,4.16667,-6394.48,-2843.15)">
        <path d="M1763.89,1003.91L1739.29,1003.91C1733.05,1003.91 1727.99,998.848 1727.99,992.609L1727.99,947.737C1727.99,941.498 1733.05,936.441 1739.29,936.441L1763.89,936.441C1767.42,936.441 1770.27,939.299 1770.27,942.824L1770.27,997.522C1770.27,1001.05 1767.42,1003.91 1763.89,1003.91Z" style="fill:rgb(237,25,82);fill-rule:nonzero;"/>
    </g>
    <g transform="matrix(4.16667,0,0,4.16667,-6394.48,-2843.15)">
        <path d="M1765.2,1011.17L1741.6,1011.17C1735.04,1011.17 1729.72,1016.49 1729.72,1023.05L1729.72,1044.11C1729.72,1076.34 1737.47,1108.1 1752.31,1136.71L1760.69,1152.88C1763.14,1157.6 1770.27,1155.86 1770.27,1150.54L1770.27,1016.25C1770.27,1013.44 1768,1011.17 1765.2,1011.17Z" style="fill:rgb(237,25,82);fill-rule:nonzero;"/>
    </g>
    <g transform="matrix(4.16667,0,0,4.16667,-6394.48,-2843.15)">
        <path d="M1677.86,906.548L1693.78,924.624C1700.49,932.24 1704.19,942.039 1704.19,952.187L1704.19,974.249C1704.19,975.984 1702.15,976.917 1700.84,975.786L1686.94,963.821C1678.93,956.918 1674.32,946.865 1674.32,936.287L1674.32,907.887C1674.32,906.019 1676.63,905.145 1677.86,906.548Z" style="fill:rgb(245,132,102);fill-rule:nonzero;"/>
    </g>
    <g transform="matrix(4.16667,0,0,4.16667,-6394.48,-2843.15)">
        <path d="M1680.46,969.007L1696.22,983.614C1701.3,988.318 1704.19,994.927 1704.19,1001.85L1704.19,1018.36C1704.19,1021.68 1700.14,1023.28 1697.87,1020.87L1681.64,1003.63C1676.94,998.63 1674.32,992.024 1674.32,985.159L1674.32,971.689C1674.32,968.499 1678.12,966.839 1680.46,969.007Z" style="fill:rgb(245,132,102);fill-rule:nonzero;"/>
    </g>
    <g transform="matrix(4.16667,0,0,4.16667,-6394.48,-2843.15)">
        <path d="M1675.83,1009.81L1688.44,1023.29C1706.23,1042.31 1716.49,1067.15 1717.28,1093.18L1717.6,1103.33C1717.73,1107.75 1712.24,1109.88 1709.36,1106.53L1678.15,1070.19C1670.2,1060.94 1666.27,1048.89 1667.24,1036.73L1669.2,1012.13C1669.47,1008.81 1673.55,1007.38 1675.83,1009.81Z" style="fill:rgb(245,132,102);fill-rule:nonzero;"/>
    </g>
    <g transform="matrix(4.16667,0,0,4.16667,-6394.48,-2843.15)">
        <path d="M1862.05,710.417C1862.05,710.417 1899.28,691.797 1925.47,703.434C1951.65,715.071 1982.49,734.854 1966.78,825.041C1966.78,825.041 1925.47,794.203 1919.65,771.511C1913.83,748.819 1888.81,712.162 1862.05,710.417Z" style="fill:rgb(159,171,206);fill-rule:nonzero;"/>
    </g>
    <g transform="matrix(4.16667,0,0,4.16667,-6394.48,-2843.15)">
        <path d="M1789.85,732.568C1785.19,735.322 1782.33,740.335 1782.33,745.753L1782.33,792.473C1782.33,801.177 1788.38,808.468 1796.5,810.374C1801.2,811.475 1805.89,812.594 1810.46,814.128L1860.31,830.86C1869.92,830.86 1878.99,826.371 1884.77,818.691C1890.92,810.519 1901.55,800.804 1918.25,798.304C1921.76,797.779 1923.47,793.764 1921.38,790.905C1915.72,783.194 1907.17,770.26 1904.52,759.292C1900.45,742.418 1868.45,713.326 1846.34,711.58C1830.02,710.292 1802.93,724.85 1789.85,732.568Z" style="fill:rgb(159,171,206);fill-rule:nonzero;"/>
    </g>
    <g transform="matrix(4.16667,0,0,4.16667,-6394.48,-2843.15)">
        <path d="M1922.29,819.492L1922.29,848.315C1922.29,848.315 1935.38,918.859 1970.65,945.623C1975.78,949.516 1983.2,946.325 1983.95,939.929L1988.04,904.792C1988.98,896.747 1987.91,888.595 1984.93,881.064L1965.03,830.86C1965.03,830.86 1942.92,816.313 1933.61,808.167C1927.36,808.167 1922.29,813.238 1922.29,819.492Z" style="fill:rgb(159,171,206);fill-rule:nonzero;"/>
    </g>
    <g transform="matrix(4.16667,0,0,4.16667,-6394.48,-2843.15)">
        <path d="M1983.88,853.156C1982.26,851.872 1980.04,853.778 1981.05,855.586C1985.7,863.953 1992.75,878.475 1993.87,891.433C1994.98,904.203 1994.64,922.248 1994.28,933.29C1994.2,935.636 1997.35,936.466 1998.44,934.386L2003.84,924.036C2006.15,919.626 2007.27,914.695 2007.07,909.724C2006.5,895.997 2002.91,868.227 1983.88,853.156Z" style="fill:rgb(159,171,206);fill-rule:nonzero;"/>
    </g>
    <g transform="matrix(4.16667,0,0,4.16667,-6394.48,-2843.15)">
        <path d="M1920.1,874.091L1920.1,882.877C1920.1,886.663 1920.77,890.416 1922.1,893.961C1924.95,901.556 1930.96,914.758 1940.84,923.582C1941.89,924.518 1943.46,923.321 1942.85,922.059C1938.19,912.546 1928.21,891.316 1922.78,873.681C1922.31,872.18 1920.1,872.52 1920.1,874.091Z" style="fill:rgb(159,171,206);fill-rule:nonzero;"/>
    </g>
    <g transform="matrix(4.16667,0,0,4.16667,-6394.48,-2843.15)">
        <path d="M1782.33,883.212L1782.33,921.821C1782.33,924.736 1784.7,927.1 1787.61,927.1L1822.22,927.1C1825.63,927.1 1828.78,925.283 1830.48,922.333L1834.51,915.369C1838.28,908.85 1836.73,900.564 1830.86,895.847C1821.84,888.603 1806.96,879.444 1788.08,877.951C1784.99,877.707 1782.33,880.11 1782.33,883.212Z" style="fill:rgb(237,25,82);fill-rule:nonzero;"/>
    </g>
    <g transform="matrix(4.16667,0,0,4.16667,-6394.48,-2843.15)">
        <path d="M1788.72,1003.91L1813.32,1003.91C1819.56,1003.91 1824.61,998.848 1824.61,992.609L1824.61,947.737C1824.61,941.498 1819.56,936.441 1813.32,936.441L1788.72,936.441C1785.19,936.441 1782.33,939.299 1782.33,942.824L1782.33,997.522C1782.33,1001.05 1785.19,1003.91 1788.72,1003.91Z" style="fill:rgb(237,25,82);fill-rule:nonzero;"/>
    </g>
    <g transform="matrix(4.16667,0,0,4.16667,-6394.48,-2843.15)">
        <path d="M1787.41,1011.17L1811,1011.17C1817.56,1011.17 1822.88,1016.49 1822.88,1023.05L1822.88,1044.11C1822.88,1076.34 1815.14,1108.1 1800.3,1136.71L1791.91,1152.88C1789.47,1157.6 1782.33,1155.86 1782.33,1150.54L1782.33,1016.25C1782.33,1013.44 1784.61,1011.17 1787.41,1011.17Z" style="fill:rgb(237,25,82);fill-rule:nonzero;"/>
    </g>
    <g transform="matrix(4.16667,0,0,4.16667,-6394.48,-2843.15)">
        <path d="M1874.74,906.548L1858.83,924.624C1852.12,932.24 1848.42,942.039 1848.42,952.187L1848.42,974.249C1848.42,975.984 1850.46,976.917 1851.77,975.786L1865.67,963.821C1873.68,956.918 1878.29,946.865 1878.29,936.287L1878.29,907.887C1878.29,906.019 1875.98,905.145 1874.74,906.548Z" style="fill:rgb(245,132,102);fill-rule:nonzero;"/>
    </g>
    <g transform="matrix(4.16667,0,0,4.16667,-6394.48,-2843.15)">
        <path d="M1872.15,969.007L1856.38,983.614C1851.31,988.318 1848.42,994.927 1848.42,1001.85L1848.42,1018.36C1848.42,1021.68 1852.47,1023.28 1854.74,1020.87L1870.97,1003.63C1875.67,998.63 1878.29,992.024 1878.29,985.159L1878.29,971.689C1878.29,968.499 1874.49,966.839 1872.15,969.007Z" style="fill:rgb(245,132,102);fill-rule:nonzero;"/>
    </g>
    <g transform="matrix(4.16667,0,0,4.16667,-6394.48,-2843.15)">
        <path d="M1876.78,1009.81L1864.17,1023.29C1846.37,1042.31 1836.12,1067.15 1835.32,1093.18L1835.01,1103.33C1834.88,1107.75 1840.37,1109.88 1843.25,1106.53L1874.46,1070.19C1882.41,1060.94 1886.33,1048.89 1885.36,1036.73L1883.4,1012.13C1883.14,1008.81 1879.06,1007.38 1876.78,1009.81Z" style="fill:rgb(245,132,102);fill-rule:nonzero;"/>
    </g>
    <g transform="matrix(4.16667,0,0,4.16667,-6394.48,-2843.15)">
        <path d="M1770.03,825.922L1770.03,862.041C1770.03,864.784 1768.02,867.174 1765.16,867.835L1744.28,872.667C1733.5,875.159 1716.33,883.244 1716.33,883.244C1710.36,889.407 1680.22,839.952 1703.86,839.952L1763.62,819.952C1767.16,819.952 1770.03,822.625 1770.03,825.922Z" style="fill:rgb(237,25,82);fill-rule:nonzero;"/>
    </g>
    <g transform="matrix(4.16667,0,0,4.16667,-6394.48,-2843.15)">
        <path d="M1782.09,825.922L1782.09,862.041C1782.09,864.784 1784.09,867.174 1786.95,867.835L1807.84,872.667C1818.61,875.159 1835.78,883.244 1835.78,883.244C1841.76,889.407 1873.03,839.952 1848.26,839.952L1788.49,819.952C1784.96,819.952 1782.09,822.625 1782.09,825.922Z" style="fill:rgb(237,25,82);fill-rule:nonzero;"/>
    </g>
</svg>
