<?xml version="1.0" encoding="UTF-8" standalone="no"?>
<!DOCTYPE svg PUBLIC "-//W3C//DTD SVG 1.1//EN" "http://www.w3.org/Graphics/SVG/1.1/DTD/svg11.dtd">
<svg width="100%" height="100%" viewBox="0 0 2014 2084" version="1.1" xmlns="http://www.w3.org/2000/svg" xmlns:xlink="http://www.w3.org/1999/xlink" xml:space="preserve" xmlns:serif="http://www.serif.com/" style="fill-rule:evenodd;clip-rule:evenodd;stroke-linejoin:round;stroke-miterlimit:2;">
    <g transform="matrix(4.16667,0,0,4.16667,-3196.73,-2843.15)">
        <path d="M1138.89,682.355C1138.46,682.355 1138.03,682.389 1137.61,682.458L1061.01,694.913C1043.81,697.709 1026.26,699.126 1008.84,699.126C991.425,699.126 973.874,697.709 956.681,694.913L880.082,682.458C879.657,682.389 879.227,682.355 878.798,682.355C877.988,682.355 877.179,682.478 876.401,682.722C874.198,683.414 822.275,700.153 807.549,741.868C795.185,776.891 801.747,813.824 804.993,827.61C794.077,836.418 769.013,861.994 767.22,912.188C767.169,913.625 767.506,915.049 768.195,916.311L820.841,1012.64C822.225,1015.17 824.865,1016.76 827.749,1016.8L827.861,1016.8C830.704,1016.8 833.336,1015.29 834.771,1012.83C854.292,979.366 854.56,949.312 853.983,939.286L869.173,919.659C871.462,923.47 874.5,927.918 878.455,932.668C886.698,942.565 890.204,955.704 888.075,968.714L879.32,1022.22C879.242,1022.69 879.207,1023.17 879.216,1023.66L880.679,1104.58C880.706,1106.07 881.149,1107.52 881.958,1108.77C882.445,1109.53 894.124,1127.44 915.19,1145.47C927.624,1156.11 940.786,1164.6 954.311,1170.72C971.396,1178.44 989.088,1182.35 1006.89,1182.35C1024.67,1182.35 1042.55,1178.45 1060.02,1170.75C1073.84,1164.66 1087.42,1156.19 1100.41,1145.59C1122.41,1127.62 1135.03,1109.78 1135.56,1109.03C1136.48,1107.72 1136.98,1106.17 1137.01,1104.58L1138.47,1023.66C1138.48,1023.17 1138.45,1022.69 1138.37,1022.22L1129.61,968.714C1127.48,955.704 1130.99,942.565 1139.23,932.668C1143.19,927.918 1146.23,923.47 1148.52,919.659L1163.71,939.286C1163.13,949.312 1163.4,979.366 1182.92,1012.83C1184.35,1015.29 1186.98,1016.8 1189.83,1016.8L1189.94,1016.8C1192.82,1016.76 1195.46,1015.17 1196.85,1012.64L1249.49,916.311C1250.18,915.049 1250.52,913.625 1250.47,912.188C1248.68,861.994 1223.61,836.418 1212.69,827.61C1215.94,813.824 1222.5,776.891 1210.14,741.868C1195.41,700.152 1143.49,683.414 1141.29,682.722C1140.51,682.478 1139.7,682.355 1138.89,682.355Z" style="fill:rgb(72,80,106);fill-rule:nonzero;"/>
    </g>
    <g transform="matrix(4.16667,0,0,4.16667,-3196.73,-2843.15)">
        <path d="M923.101,710.417C923.101,710.417 885.862,691.797 859.679,703.434C833.496,715.071 802.658,734.854 818.368,825.041C818.368,825.041 859.679,794.203 865.498,771.511C871.316,748.819 896.336,712.162 923.101,710.417Z" style="fill:rgb(159,171,206);fill-rule:nonzero;"/>
    </g>
    <g transform="matrix(4.16667,0,0,4.16667,-3196.73,-2843.15)">
        <path d="M995.295,732.568C999.961,735.322 1002.81,740.335 1002.81,745.753L1002.81,792.473C1002.81,801.177 996.766,808.468 988.643,810.374C983.95,811.475 979.26,812.594 974.69,814.128L924.84,830.86C915.226,830.86 906.158,826.371 900.376,818.691C894.222,810.519 883.601,800.804 866.897,798.304C863.39,797.779 861.674,793.764 863.772,790.905C869.431,783.194 877.978,770.26 880.626,759.292C884.699,742.418 916.701,713.326 938.811,711.58C955.128,710.292 982.218,724.85 995.295,732.568Z" style="fill:rgb(159,171,206);fill-rule:nonzero;"/>
    </g>
    <g transform="matrix(4.16667,0,0,4.16667,-3196.73,-2843.15)">
        <path d="M862.858,819.492L862.858,848.315C862.858,848.315 849.768,918.859 814.495,945.623C809.365,949.516 801.942,946.325 801.197,939.929L797.103,904.792C796.166,896.747 797.237,888.595 800.221,881.064L820.113,830.86C820.113,830.86 842.224,816.313 851.533,808.167C857.788,808.167 862.858,813.238 862.858,819.492Z" style="fill:rgb(159,171,206);fill-rule:nonzero;"/>
    </g>
    <g transform="matrix(4.16667,0,0,4.16667,-3196.73,-2843.15)">
        <path d="M801.268,853.156C802.89,851.872 805.104,853.778 804.098,855.586C799.443,863.953 792.396,878.475 791.274,891.433C790.169,904.203 790.503,922.248 790.87,933.29C790.948,935.636 787.798,936.466 786.711,934.386L781.305,924.036C779.001,919.626 777.876,914.695 778.08,909.724C778.646,895.997 782.241,868.227 801.268,853.156Z" style="fill:rgb(159,171,206);fill-rule:nonzero;"/>
    </g>
    <g transform="matrix(4.16667,0,0,4.16667,-3196.73,-2843.15)">
        <path d="M865.045,874.091L865.045,882.877C865.045,886.663 864.379,890.416 863.048,893.961C860.197,901.556 854.183,914.758 844.31,923.582C843.262,924.518 841.682,923.321 842.3,922.059C846.954,912.546 856.942,891.316 862.37,873.681C862.832,872.18 865.045,872.52 865.045,874.091Z" style="fill:rgb(159,171,206);fill-rule:nonzero;"/>
    </g>
    <g transform="matrix(4.16667,0,0,4.16667,-3196.73,-2843.15)">
        <path d="M1002.81,883.212L1002.81,921.821C1002.81,924.736 1000.45,927.1 997.535,927.1L962.925,927.1C959.518,927.1 956.369,925.283 954.663,922.333L950.637,915.369C946.868,908.85 948.419,900.564 954.289,895.847C963.304,888.603 978.185,879.444 997.063,877.951C1000.15,877.707 1002.81,880.11 1002.81,883.212Z" style="fill:rgb(245,132,102);fill-rule:nonzero;"/>
    </g>
    <g transform="matrix(4.16667,0,0,4.16667,-3196.73,-2843.15)">
        <path d="M996.431,1003.91L971.829,1003.91C965.59,1003.91 960.533,998.848 960.533,992.609L960.533,947.737C960.533,941.498 965.59,936.441 971.829,936.441L996.431,936.441C999.956,936.441 1002.81,939.299 1002.81,942.824L1002.81,997.522C1002.81,1001.05 999.956,1003.91 996.431,1003.91Z" style="fill:rgb(245,132,102);fill-rule:nonzero;"/>
    </g>
    <g transform="matrix(4.16667,0,0,4.16667,-3196.73,-2843.15)">
        <path d="M997.739,1011.17L974.146,1011.17C967.583,1011.17 962.263,1016.49 962.263,1023.05L962.263,1044.11C962.263,1076.34 970.008,1108.1 984.848,1136.71L993.233,1152.88C995.68,1157.6 1002.81,1155.86 1002.81,1150.54L1002.81,1016.25C1002.81,1013.44 1000.54,1011.17 997.739,1011.17Z" style="fill:rgb(237,25,82);fill-rule:nonzero;"/>
    </g>
    <g transform="matrix(4.16667,0,0,4.16667,-3196.73,-2843.15)">
        <path d="M910.405,906.548L926.322,924.624C933.028,932.24 936.727,942.039 936.727,952.187L936.727,974.249C936.727,975.984 934.691,976.917 933.377,975.786L919.482,963.821C911.466,956.918 906.857,946.865 906.857,936.287L906.857,907.887C906.857,906.019 909.17,905.145 910.405,906.548Z" style="fill:rgb(245,132,102);fill-rule:nonzero;"/>
    </g>
    <g transform="matrix(4.16667,0,0,4.16667,-3196.73,-2843.15)">
        <path d="M912.997,969.007L928.763,983.614C933.841,988.318 936.727,994.927 936.727,1001.85L936.727,1018.36C936.727,1021.68 932.678,1023.28 930.409,1020.87L914.181,1003.63C909.476,998.63 906.857,992.024 906.857,985.159L906.857,971.689C906.857,968.499 910.657,966.839 912.997,969.007Z" style="fill:rgb(245,132,102);fill-rule:nonzero;"/>
    </g>
    <g transform="matrix(4.16667,0,0,4.16667,-3196.73,-2843.15)">
        <path d="M908.366,1009.81L920.98,1023.29C938.773,1042.31 949.028,1067.15 949.825,1093.18L950.136,1103.33C950.271,1107.75 944.778,1109.88 941.898,1106.53L910.688,1070.19C902.74,1060.94 898.814,1048.89 899.784,1036.73L901.746,1012.13C902.01,1008.81 906.09,1007.38 908.366,1009.81Z" style="fill:rgb(237,25,82);fill-rule:nonzero;"/>
    </g>
    <g transform="matrix(4.16667,0,0,4.16667,-3196.73,-2843.15)">
        <path d="M1094.59,710.417C1094.59,710.417 1131.83,691.797 1158.01,703.434C1184.19,715.071 1215.03,734.854 1199.32,825.041C1199.32,825.041 1158.01,794.203 1152.19,771.511C1146.37,748.819 1121.35,712.162 1094.59,710.417Z" style="fill:rgb(159,171,206);fill-rule:nonzero;"/>
    </g>
    <g transform="matrix(4.16667,0,0,4.16667,-3196.73,-2843.15)">
        <path d="M1022.39,732.568C1017.73,735.322 1014.87,740.335 1014.87,745.753L1014.87,792.473C1014.87,801.177 1020.92,808.468 1029.04,810.374C1033.74,811.475 1038.43,812.594 1043,814.128L1092.85,830.86C1102.46,830.86 1111.53,826.371 1117.31,818.691C1123.47,810.519 1134.09,800.804 1150.79,798.304C1154.3,797.779 1156.01,793.764 1153.92,790.905C1148.26,783.194 1139.71,770.26 1137.06,759.292C1132.99,742.418 1100.99,713.326 1078.88,711.58C1062.56,710.292 1035.47,724.85 1022.39,732.568Z" style="fill:rgb(159,171,206);fill-rule:nonzero;"/>
    </g>
    <g transform="matrix(4.16667,0,0,4.16667,-3196.73,-2843.15)">
        <path d="M1154.83,819.492L1154.83,848.315C1154.83,848.315 1167.92,918.859 1203.19,945.623C1208.32,949.516 1215.75,946.325 1216.49,939.929L1220.58,904.792C1221.52,896.747 1220.45,888.595 1217.47,881.064L1197.57,830.86C1197.57,830.86 1175.46,816.313 1166.15,808.167C1159.9,808.167 1154.83,813.238 1154.83,819.492Z" style="fill:rgb(159,171,206);fill-rule:nonzero;"/>
    </g>
    <g transform="matrix(4.16667,0,0,4.16667,-3196.73,-2843.15)">
        <path d="M1216.42,853.156C1214.8,851.872 1212.58,853.778 1213.59,855.586C1218.25,863.953 1225.29,878.475 1226.41,891.433C1227.52,904.203 1227.19,922.248 1226.82,933.29C1226.74,935.636 1229.89,936.466 1230.98,934.386L1236.38,924.036C1238.69,919.626 1239.81,914.695 1239.61,909.724C1239.04,895.997 1235.45,868.227 1216.42,853.156Z" style="fill:rgb(159,171,206);fill-rule:nonzero;"/>
    </g>
    <g transform="matrix(4.16667,0,0,4.16667,-3196.73,-2843.15)">
        <path d="M1152.64,874.091L1152.64,882.877C1152.64,886.663 1153.31,890.416 1154.64,893.961C1157.49,901.556 1163.51,914.758 1173.38,923.582C1174.43,924.518 1176.01,923.321 1175.39,922.059C1170.73,912.546 1160.75,891.316 1155.32,873.681C1154.86,872.18 1152.64,872.52 1152.64,874.091Z" style="fill:rgb(159,171,206);fill-rule:nonzero;"/>
    </g>
    <g transform="matrix(4.16667,0,0,4.16667,-3196.73,-2843.15)">
        <path d="M1014.87,883.212L1014.87,921.821C1014.87,924.736 1017.24,927.1 1020.15,927.1L1054.76,927.1C1058.17,927.1 1061.32,925.283 1063.03,922.333L1067.05,915.369C1070.82,908.85 1069.27,900.564 1063.4,895.847C1054.38,888.603 1039.5,879.444 1020.63,877.951C1017.53,877.707 1014.87,880.11 1014.87,883.212Z" style="fill:rgb(245,132,102);fill-rule:nonzero;"/>
    </g>
    <g transform="matrix(4.16667,0,0,4.16667,-3196.73,-2843.15)">
        <path d="M1021.26,1003.91L1045.86,1003.91C1052.1,1003.91 1057.16,998.848 1057.16,992.609L1057.16,947.737C1057.16,941.498 1052.1,936.441 1045.86,936.441L1021.26,936.441C1017.73,936.441 1014.87,939.299 1014.87,942.824L1014.87,997.522C1014.87,1001.05 1017.73,1003.91 1021.26,1003.91Z" style="fill:rgb(245,132,102);fill-rule:nonzero;"/>
    </g>
    <g transform="matrix(4.16667,0,0,4.16667,-3196.73,-2843.15)">
        <path d="M1019.95,1011.17L1043.54,1011.17C1050.11,1011.17 1055.43,1016.49 1055.43,1023.05L1055.43,1044.11C1055.43,1076.34 1047.68,1108.1 1032.84,1136.71L1024.45,1152.88C1022.01,1157.6 1014.87,1155.86 1014.87,1150.54L1014.87,1016.25C1014.87,1013.44 1017.15,1011.17 1019.95,1011.17Z" style="fill:rgb(237,25,82);fill-rule:nonzero;"/>
    </g>
    <g transform="matrix(4.16667,0,0,4.16667,-3196.73,-2843.15)">
        <path d="M1107.28,906.548L1091.37,924.624C1084.66,932.24 1080.96,942.039 1080.96,952.187L1080.96,974.249C1080.96,975.984 1083,976.917 1084.31,975.786L1098.21,963.821C1106.22,956.918 1110.83,946.865 1110.83,936.287L1110.83,907.887C1110.83,906.019 1108.52,905.145 1107.28,906.548Z" style="fill:rgb(245,132,102);fill-rule:nonzero;"/>
    </g>
    <g transform="matrix(4.16667,0,0,4.16667,-3196.73,-2843.15)">
        <path d="M1104.69,969.007L1088.92,983.614C1083.85,988.318 1080.96,994.927 1080.96,1001.85L1080.96,1018.36C1080.96,1021.68 1085.01,1023.28 1087.28,1020.87L1103.51,1003.63C1108.21,998.63 1110.83,992.024 1110.83,985.159L1110.83,971.689C1110.83,968.499 1107.03,966.839 1104.69,969.007Z" style="fill:rgb(245,132,102);fill-rule:nonzero;"/>
    </g>
    <g transform="matrix(4.16667,0,0,4.16667,-3196.73,-2843.15)">
        <path d="M1109.32,1009.81L1096.71,1023.29C1078.92,1042.31 1068.66,1067.15 1067.86,1093.18L1067.55,1103.33C1067.42,1107.75 1072.91,1109.88 1075.79,1106.53L1107,1070.19C1114.95,1060.94 1118.87,1048.89 1117.9,1036.73L1115.94,1012.13C1115.68,1008.81 1111.6,1007.38 1109.32,1009.81Z" style="fill:rgb(237,25,82);fill-rule:nonzero;"/>
    </g>
    <g transform="matrix(4.16667,0,0,4.16667,-3196.73,-2843.15)">
        <path d="M1002.57,825.736L1002.57,861.855C1002.57,864.598 1000.56,866.989 997.705,867.649L976.817,872.481C966.042,874.974 948.872,883.058 948.872,883.058C942.899,889.222 912.764,839.766 936.398,839.766L996.161,819.766C999.7,819.766 1002.57,822.439 1002.57,825.736Z" style="fill:rgb(245,132,102);fill-rule:nonzero;"/>
    </g>
    <g transform="matrix(4.16667,0,0,4.16667,-3196.73,-2843.15)">
        <path d="M1014.63,825.736L1014.63,861.855C1014.63,864.598 1016.63,866.989 1019.49,867.649L1040.38,872.481C1051.15,874.974 1068.32,883.058 1068.32,883.058C1074.3,889.222 1105.57,839.766 1080.8,839.766L1021.03,819.766C1017.5,819.766 1014.63,822.439 1014.63,825.736Z" style="fill:rgb(245,132,102);fill-rule:nonzero;"/>
    </g>
</svg>
