<?xml version="1.0" encoding="UTF-8" standalone="no"?>
<!DOCTYPE svg PUBLIC "-//W3C//DTD SVG 1.1//EN" "http://www.w3.org/Graphics/SVG/1.1/DTD/svg11.dtd">
<svg width="100%" height="100%" viewBox="0 0 2014 2084" version="1.1" xmlns="http://www.w3.org/2000/svg" xmlns:xlink="http://www.w3.org/1999/xlink" xml:space="preserve" xmlns:serif="http://www.serif.com/" style="fill-rule:evenodd;clip-rule:evenodd;stroke-linejoin:round;stroke-miterlimit:2;">
    <g transform="matrix(4.16667,0,0,4.16667,-9584.18,-2843.15)">
        <path d="M2671.88,682.355C2671.45,682.355 2671.02,682.389 2670.59,682.458L2593.99,694.913C2576.8,697.709 2559.25,699.126 2541.83,699.126C2524.41,699.126 2506.86,697.709 2489.67,694.913L2413.07,682.458C2412.64,682.389 2412.21,682.355 2411.78,682.355C2410.97,682.355 2410.16,682.478 2409.39,682.722C2407.18,683.415 2355.26,700.153 2340.53,741.868C2328.17,776.891 2334.73,813.824 2337.98,827.61C2327.06,836.418 2302,861.994 2300.21,912.188C2300.15,913.625 2300.49,915.049 2301.18,916.311L2353.83,1012.64C2355.21,1015.17 2357.85,1016.76 2360.74,1016.8L2360.85,1016.8C2363.69,1016.8 2366.32,1015.29 2367.76,1012.83C2387.28,979.366 2387.55,949.312 2386.97,939.286L2402.16,919.659C2404.45,923.47 2407.49,927.918 2411.44,932.668C2419.68,942.565 2423.19,955.704 2421.06,968.714L2412.31,1022.22C2412.23,1022.69 2412.19,1023.17 2412.2,1023.66L2413.66,1104.58C2413.69,1106.07 2414.13,1107.52 2414.94,1108.77C2415.43,1109.53 2427.11,1127.44 2448.18,1145.47C2460.61,1156.11 2473.77,1164.6 2487.3,1170.72C2504.38,1178.44 2522.07,1182.35 2539.88,1182.35C2557.66,1182.35 2575.53,1178.45 2593,1170.75C2606.82,1164.66 2620.41,1156.19 2633.39,1145.59C2655.39,1127.62 2668.02,1109.78 2668.54,1109.03C2669.46,1107.72 2669.97,1106.17 2669.99,1104.58L2671.46,1023.66C2671.47,1023.17 2671.43,1022.69 2671.35,1022.22L2662.6,968.714C2660.47,955.704 2663.98,942.565 2672.22,932.668C2676.17,927.918 2679.21,923.47 2681.5,919.659L2696.69,939.286C2696.11,949.312 2696.38,979.366 2715.9,1012.83C2717.34,1015.29 2719.97,1016.8 2722.81,1016.8L2722.92,1016.8C2725.81,1016.76 2728.45,1015.17 2729.83,1012.64L2782.48,916.311C2783.17,915.049 2783.5,913.625 2783.45,912.188C2781.66,861.994 2756.6,836.418 2745.68,827.61C2748.93,813.824 2755.49,776.891 2743.13,741.868C2728.4,700.152 2676.48,683.414 2674.27,682.722C2673.49,682.478 2672.69,682.355 2671.88,682.355Z" style="fill:rgb(72,80,106);fill-rule:nonzero;"/>
    </g>
    <g transform="matrix(4.16667,0,0,4.16667,-9584.18,-2843.15)">
        <path d="M2456.09,710.417C2456.09,710.417 2418.85,691.797 2392.66,703.434C2366.48,715.071 2335.64,734.854 2351.35,825.041C2351.35,825.041 2392.66,794.203 2398.48,771.511C2404.3,748.819 2429.32,712.162 2456.09,710.417Z" style="fill:rgb(159,171,206);fill-rule:nonzero;"/>
    </g>
    <g transform="matrix(4.16667,0,0,4.16667,-9584.18,-2843.15)">
        <path d="M2528.28,732.568C2532.95,735.322 2535.8,740.335 2535.8,745.753L2535.8,792.473C2535.8,801.177 2529.75,808.468 2521.63,810.374C2516.94,811.475 2512.25,812.594 2507.68,814.128L2457.83,830.86C2448.21,830.86 2439.14,826.371 2433.36,818.691C2427.21,810.519 2416.59,800.804 2399.88,798.304C2396.38,797.779 2394.66,793.764 2396.76,790.905C2402.42,783.194 2410.96,770.26 2413.61,759.292C2417.68,742.418 2449.69,713.326 2471.8,711.58C2488.11,710.292 2515.2,724.85 2528.28,732.568Z" style="fill:rgb(159,171,206);fill-rule:nonzero;"/>
    </g>
    <g transform="matrix(4.16667,0,0,4.16667,-9584.18,-2843.15)">
        <path d="M2395.84,819.492L2395.84,848.315C2395.84,848.315 2382.75,918.859 2347.48,945.623C2342.35,949.516 2334.93,946.325 2334.18,939.929L2330.09,904.792C2329.15,896.747 2330.22,888.595 2333.21,881.064L2353.1,830.86C2353.1,830.86 2375.21,816.313 2384.52,808.167C2390.77,808.167 2395.84,813.238 2395.84,819.492Z" style="fill:rgb(159,171,206);fill-rule:nonzero;"/>
    </g>
    <g transform="matrix(4.16667,0,0,4.16667,-9584.18,-2843.15)">
        <path d="M2334.25,853.156C2335.88,851.872 2338.09,853.778 2337.08,855.586C2332.43,863.953 2325.38,878.475 2324.26,891.433C2323.15,904.203 2323.49,922.248 2323.86,933.29C2323.93,935.636 2320.78,936.466 2319.7,934.386L2314.29,924.036C2311.99,919.626 2310.86,914.695 2311.07,909.724C2311.63,895.997 2315.23,868.227 2334.25,853.156Z" style="fill:rgb(159,171,206);fill-rule:nonzero;"/>
    </g>
    <g transform="matrix(4.16667,0,0,4.16667,-9584.18,-2843.15)">
        <path d="M2398.03,874.091L2398.03,882.877C2398.03,886.663 2397.36,890.416 2396.03,893.961C2393.18,901.556 2387.17,914.758 2377.3,923.582C2376.25,924.518 2374.67,923.321 2375.29,922.059C2379.94,912.546 2389.93,891.316 2395.36,873.681C2395.82,872.18 2398.03,872.52 2398.03,874.091Z" style="fill:rgb(159,171,206);fill-rule:nonzero;"/>
    </g>
    <g transform="matrix(4.16667,0,0,4.16667,-9584.18,-2843.15)">
        <path d="M2535.8,883.212L2535.8,921.821C2535.8,924.736 2533.44,927.1 2530.52,927.1L2495.91,927.1C2492.5,927.1 2489.35,925.283 2487.65,922.333L2483.62,915.369C2479.85,908.85 2481.4,900.564 2487.27,895.847C2496.29,888.603 2511.17,879.444 2530.05,877.951C2533.14,877.707 2535.8,880.11 2535.8,883.212Z" style="fill:rgb(245,132,102);fill-rule:nonzero;"/>
    </g>
    <g transform="matrix(4.16667,0,0,4.16667,-9584.18,-2843.15)">
        <path d="M2529.42,1003.91L2504.81,1003.91C2498.58,1003.91 2493.52,998.848 2493.52,992.609L2493.52,947.737C2493.52,941.498 2498.58,936.441 2504.81,936.441L2529.42,936.441C2532.94,936.441 2535.8,939.299 2535.8,942.824L2535.8,997.522C2535.8,1001.05 2532.94,1003.91 2529.42,1003.91Z" style="fill:rgb(245,132,102);fill-rule:nonzero;"/>
    </g>
    <g transform="matrix(4.16667,0,0,4.16667,-9584.18,-2843.15)">
        <path d="M2530.72,1011.17L2507.13,1011.17C2500.57,1011.17 2495.25,1016.49 2495.25,1023.05L2495.25,1044.11C2495.25,1076.34 2502.99,1108.1 2517.83,1136.71L2526.22,1152.88C2528.67,1157.6 2535.8,1155.86 2535.8,1150.54L2535.8,1016.25C2535.8,1013.44 2533.53,1011.17 2530.72,1011.17Z" style="fill:rgb(245,132,102);fill-rule:nonzero;"/>
    </g>
    <g transform="matrix(4.16667,0,0,4.16667,-9584.18,-2843.15)">
        <path d="M2443.39,906.548L2459.31,924.624C2466.01,932.24 2469.71,942.039 2469.71,952.187L2469.71,974.249C2469.71,975.984 2467.68,976.917 2466.36,975.786L2452.47,963.821C2444.45,956.918 2439.84,946.865 2439.84,936.287L2439.84,907.887C2439.84,906.019 2442.16,905.145 2443.39,906.548Z" style="fill:rgb(237,25,82);fill-rule:nonzero;"/>
    </g>
    <g transform="matrix(4.16667,0,0,4.16667,-9584.18,-2843.15)">
        <path d="M2445.98,969.007L2461.75,983.614C2466.83,988.318 2469.71,994.927 2469.71,1001.85L2469.71,1018.36C2469.71,1021.68 2465.66,1023.28 2463.39,1020.87L2447.17,1003.63C2442.46,998.63 2439.84,992.024 2439.84,985.159L2439.84,971.689C2439.84,968.499 2443.64,966.839 2445.98,969.007Z" style="fill:rgb(237,25,82);fill-rule:nonzero;"/>
    </g>
    <g transform="matrix(4.16667,0,0,4.16667,-9584.18,-2843.15)">
        <path d="M2441.35,1009.81L2453.97,1023.29C2471.76,1042.31 2482.01,1067.15 2482.81,1093.18L2483.12,1103.33C2483.26,1107.75 2477.76,1109.88 2474.88,1106.53L2443.67,1070.19C2435.73,1060.94 2431.8,1048.89 2432.77,1036.73L2434.73,1012.13C2435,1008.81 2439.08,1007.38 2441.35,1009.81Z" style="fill:rgb(237,25,82);fill-rule:nonzero;"/>
    </g>
    <g transform="matrix(4.16667,0,0,4.16667,-9584.18,-2843.15)">
        <path d="M2627.57,710.417C2627.57,710.417 2664.81,691.797 2690.99,703.434C2717.18,715.071 2748.02,734.854 2732.31,825.041C2732.31,825.041 2690.99,794.203 2685.18,771.511C2679.36,748.819 2654.34,712.162 2627.57,710.417Z" style="fill:rgb(159,171,206);fill-rule:nonzero;"/>
    </g>
    <g transform="matrix(4.16667,0,0,4.16667,-9584.18,-2843.15)">
        <path d="M2555.38,732.568C2550.71,735.322 2547.86,740.335 2547.86,745.753L2547.86,792.473C2547.86,801.177 2553.91,808.468 2562.03,810.374C2566.72,811.475 2571.41,812.594 2575.98,814.128L2625.83,830.86C2635.45,830.86 2644.52,826.371 2650.3,818.691C2656.45,810.519 2667.07,800.804 2683.78,798.304C2687.28,797.779 2689,793.764 2686.9,790.905C2681.24,783.194 2672.7,770.26 2670.05,759.292C2665.97,742.418 2633.97,713.326 2611.86,711.58C2595.55,710.292 2568.46,724.85 2555.38,732.568Z" style="fill:rgb(159,171,206);fill-rule:nonzero;"/>
    </g>
    <g transform="matrix(4.16667,0,0,4.16667,-9584.18,-2843.15)">
        <path d="M2687.82,819.492L2687.82,848.315C2687.82,848.315 2700.91,918.859 2736.18,945.623C2741.31,949.516 2748.73,946.325 2749.48,939.929L2753.57,904.792C2754.51,896.747 2753.44,888.595 2750.45,881.064L2730.56,830.86C2730.56,830.86 2708.45,816.313 2699.14,808.167C2692.89,808.167 2687.82,813.238 2687.82,819.492Z" style="fill:rgb(159,171,206);fill-rule:nonzero;"/>
    </g>
    <g transform="matrix(4.16667,0,0,4.16667,-9584.18,-2843.15)">
        <path d="M2749.41,853.156C2747.78,851.872 2745.57,853.778 2746.58,855.586C2751.23,863.953 2758.28,878.475 2759.4,891.433C2760.5,904.203 2760.17,922.248 2759.8,933.29C2759.73,935.636 2762.88,936.466 2763.96,934.386L2769.37,924.036C2771.67,919.626 2772.8,914.695 2772.59,909.724C2772.03,895.997 2768.43,868.227 2749.41,853.156Z" style="fill:rgb(159,171,206);fill-rule:nonzero;"/>
    </g>
    <g transform="matrix(4.16667,0,0,4.16667,-9584.18,-2843.15)">
        <path d="M2685.63,874.091L2685.63,882.877C2685.63,886.663 2686.29,890.416 2687.63,893.961C2690.48,901.556 2696.49,914.758 2706.36,923.582C2707.41,924.518 2708.99,923.321 2708.37,922.059C2703.72,912.546 2693.73,891.316 2688.3,873.681C2687.84,872.18 2685.63,872.52 2685.63,874.091Z" style="fill:rgb(159,171,206);fill-rule:nonzero;"/>
    </g>
    <g transform="matrix(4.16667,0,0,4.16667,-9584.18,-2843.15)">
        <path d="M2547.86,883.212L2547.86,921.821C2547.86,924.736 2550.22,927.1 2553.14,927.1L2587.75,927.1C2591.16,927.1 2594.3,925.283 2596.01,922.333L2600.04,915.369C2603.81,908.85 2602.25,900.564 2596.38,895.847C2587.37,888.603 2572.49,879.444 2553.61,877.951C2550.52,877.707 2547.86,880.11 2547.86,883.212Z" style="fill:rgb(245,132,102);fill-rule:nonzero;"/>
    </g>
    <g transform="matrix(4.16667,0,0,4.16667,-9584.18,-2843.15)">
        <path d="M2554.24,1003.91L2578.84,1003.91C2585.08,1003.91 2590.14,998.848 2590.14,992.609L2590.14,947.737C2590.14,941.498 2585.08,936.441 2578.84,936.441L2554.24,936.441C2550.72,936.441 2547.86,939.299 2547.86,942.824L2547.86,997.522C2547.86,1001.05 2550.72,1003.91 2554.24,1003.91Z" style="fill:rgb(245,132,102);fill-rule:nonzero;"/>
    </g>
    <g transform="matrix(4.16667,0,0,4.16667,-9584.18,-2843.15)">
        <path d="M2552.93,1011.17L2576.53,1011.17C2583.09,1011.17 2588.41,1016.49 2588.41,1023.05L2588.41,1044.11C2588.41,1076.34 2580.67,1108.1 2565.83,1136.71L2557.44,1152.88C2554.99,1157.6 2547.86,1155.86 2547.86,1150.54L2547.86,1016.25C2547.86,1013.44 2550.13,1011.17 2552.93,1011.17Z" style="fill:rgb(245,132,102);fill-rule:nonzero;"/>
    </g>
    <g transform="matrix(4.16667,0,0,4.16667,-9584.18,-2843.15)">
        <path d="M2640.27,906.548L2624.35,924.624C2617.65,932.24 2613.95,942.039 2613.95,952.187L2613.95,974.249C2613.95,975.984 2615.98,976.917 2617.3,975.786L2631.19,963.821C2639.21,956.918 2643.82,946.865 2643.82,936.287L2643.82,907.887C2643.82,906.019 2641.5,905.145 2640.27,906.548Z" style="fill:rgb(237,25,82);fill-rule:nonzero;"/>
    </g>
    <g transform="matrix(4.16667,0,0,4.16667,-9584.18,-2843.15)">
        <path d="M2637.68,969.007L2621.91,983.614C2616.83,988.318 2613.95,994.927 2613.95,1001.85L2613.95,1018.36C2613.95,1021.68 2618,1023.28 2620.27,1020.87L2636.49,1003.63C2641.2,998.63 2643.82,992.024 2643.82,985.159L2643.82,971.689C2643.82,968.499 2640.02,966.839 2637.68,969.007Z" style="fill:rgb(237,25,82);fill-rule:nonzero;"/>
    </g>
    <g transform="matrix(4.16667,0,0,4.16667,-9584.18,-2843.15)">
        <path d="M2642.31,1009.81L2629.69,1023.29C2611.9,1042.31 2601.65,1067.15 2600.85,1093.18L2600.54,1103.33C2600.4,1107.75 2605.9,1109.88 2608.78,1106.53L2639.99,1070.19C2647.93,1060.94 2651.86,1048.89 2650.89,1036.73L2648.93,1012.13C2648.66,1008.81 2644.58,1007.38 2642.31,1009.81Z" style="fill:rgb(237,25,82);fill-rule:nonzero;"/>
    </g>
    <g transform="matrix(4.16667,0,0,4.16667,-9584.18,-2843.15)">
        <path d="M2535.55,826.644L2535.55,862.763C2535.55,865.506 2533.55,867.896 2530.69,868.557L2509.8,873.389C2499.03,875.881 2481.86,883.966 2481.86,883.966C2475.89,890.129 2445.75,840.674 2469.38,840.674L2529.15,820.674C2532.69,820.674 2535.55,823.347 2535.55,826.644Z" style="fill:rgb(245,132,102);fill-rule:nonzero;"/>
    </g>
    <g transform="matrix(4.16667,0,0,4.16667,-9584.18,-2843.15)">
        <path d="M2547.61,826.644L2547.61,862.763C2547.61,865.506 2549.62,867.896 2552.48,868.557L2573.36,873.389C2584.14,875.881 2601.31,883.966 2601.31,883.966C2607.28,890.129 2638.55,840.674 2613.78,840.674L2554.02,820.674C2550.48,820.674 2547.61,823.347 2547.61,826.644Z" style="fill:rgb(245,132,102);fill-rule:nonzero;"/>
    </g>
</svg>
