<?xml version="1.0" encoding="UTF-8" standalone="no"?>
<!DOCTYPE svg PUBLIC "-//W3C//DTD SVG 1.1//EN" "http://www.w3.org/Graphics/SVG/1.1/DTD/svg11.dtd">
<svg width="100%" height="100%" viewBox="0 0 2014 5047" version="1.1" xmlns="http://www.w3.org/2000/svg" xmlns:xlink="http://www.w3.org/1999/xlink" xml:space="preserve" xmlns:serif="http://www.serif.com/" style="fill-rule:evenodd;clip-rule:evenodd;stroke-linejoin:round;stroke-miterlimit:2;">
    <g transform="matrix(4.16667,0,0,4.16667,0.00021028,-2843.15)">
        <path d="M235.599,883.212L235.599,921.821C235.599,924.736 233.236,927.1 230.32,927.1L195.71,927.1C192.303,927.1 189.154,925.283 187.448,922.333L183.422,915.369C179.653,908.85 181.204,900.564 187.074,895.847C196.089,888.603 210.97,879.444 229.848,877.951C232.94,877.707 235.599,880.11 235.599,883.212Z" style="fill:rgb(237,26,82);fill-rule:nonzero;"/>
    </g>
    <g transform="matrix(4.16667,0,0,4.16667,0.00021028,-2843.15)">
        <path d="M247.659,883.212L247.659,921.821C247.659,924.736 250.022,927.1 252.938,927.1L287.547,927.1C290.955,927.1 294.104,925.283 295.81,922.333L299.835,915.369C303.604,908.85 302.054,900.564 296.184,895.847C287.168,888.603 272.288,879.444 253.41,877.951C250.318,877.707 247.659,880.11 247.659,883.212Z" style="fill:rgb(237,26,82);fill-rule:nonzero;"/>
    </g>
    <g transform="matrix(4.16667,0,0,4.16667,0.00021028,-2843.15)">
        <path d="M235.353,826.383L235.353,862.502C235.353,865.245 233.347,867.635 230.49,868.296L209.602,873.128C198.827,875.62 181.657,883.704 181.657,883.704C175.684,889.868 145.549,840.412 169.183,840.412L228.946,820.412C232.484,820.412 235.353,823.085 235.353,826.383Z" style="fill:rgb(237,26,82);fill-rule:nonzero;"/>
    </g>
    <g transform="matrix(4.16667,0,0,4.16667,0.00021028,-2843.15)">
        <path d="M247.412,826.383L247.412,862.502C247.412,865.245 249.418,867.635 252.276,868.296L273.164,873.128C283.938,875.62 301.108,883.704 301.108,883.704C307.081,889.868 338.352,840.412 313.582,840.412L253.819,820.412C250.281,820.412 247.412,823.085 247.412,826.383Z" style="fill:rgb(237,26,82);fill-rule:nonzero;"/>
    </g>
</svg>
