<?xml version="1.0" encoding="UTF-8" standalone="no"?>
<!DOCTYPE svg PUBLIC "-//W3C//DTD SVG 1.1//EN" "http://www.w3.org/Graphics/SVG/1.1/DTD/svg11.dtd">
<svg width="100%" height="100%" viewBox="0 0 1918 2093" version="1.1" xmlns="http://www.w3.org/2000/svg" xmlns:xlink="http://www.w3.org/1999/xlink" xml:space="preserve" xmlns:serif="http://www.serif.com/" style="fill-rule:evenodd;clip-rule:evenodd;stroke-linejoin:round;stroke-miterlimit:2;">
    <g transform="matrix(4.16667,0,0,4.16667,-16014.6,-5784.75)">
        <path d="M4073.56,1890.51C4020.51,1890.51 3960.35,1854.74 3957.82,1853.22C3956.66,1852.52 3955.93,1851.28 3955.88,1849.92L3954.49,1806.33C3954.48,1806.07 3954.5,1805.81 3954.54,1805.56L3962.88,1754.6C3965.08,1741.18 3961.45,1727.6 3952.93,1717.37C3947.47,1710.82 3943.94,1704.94 3941.79,1700.76L3923.13,1724.86C3923.73,1732.17 3924.61,1761.31 3905.41,1794.21C3904.8,1795.26 3903.74,1795.98 3902.53,1796.15C3901.33,1796.33 3900.11,1795.94 3899.22,1795.11L3844.76,1743.96C3843.95,1743.2 3843.5,1742.15 3843.5,1741.04L3843.5,1700.04C3845.29,1649.77 3871.7,1625.56 3879.61,1619.41C3878.08,1609.65 3873.76,1573.91 3886.03,1539.17C3898.92,1502.66 3943.46,1487 3948.81,1485.24L4020.48,1442.58L4027.26,1397.99C4027.52,1396.31 4028.8,1394.98 4030.46,1394.66L4053.03,1390.33C4066.65,1387.72 4080.46,1387.68 4094.09,1390.2L4118.17,1394.66C4119.84,1394.97 4121.14,1396.3 4121.39,1397.99L4128.17,1442.58L4199.84,1485.24C4205.19,1487 4249.74,1502.66 4262.63,1539.17C4275,1574.22 4269.17,1609 4267.27,1618.14C4274.48,1625.5 4301.8,1656.69 4303.62,1707.69C4303.62,1707.74 4303.63,1707.78 4303.63,1707.83L4303.63,1741.04C4303.63,1742.13 4303.18,1743.17 4302.4,1743.92L4249.48,1795.07C4248.59,1795.92 4247.37,1796.32 4246.15,1796.16C4244.93,1795.99 4243.86,1795.27 4243.24,1794.21C4224.05,1761.31 4224.93,1732.17 4225.52,1724.86L4206.87,1700.76C4204.72,1704.94 4201.19,1710.82 4195.73,1717.37C4187.21,1727.6 4183.58,1741.17 4185.78,1754.6L4194.12,1805.56C4194.16,1805.81 4194.17,1806.07 4194.17,1806.33L4192.77,1849.92C4192.73,1851.29 4191.98,1852.55 4190.8,1853.24C4188.2,1854.77 4126.59,1890.51 4073.56,1890.51Z" style="fill:rgb(72,80,106);fill-rule:nonzero;"/>
    </g>
    <g transform="matrix(4.16667,0,0,4.16667,-16014.6,-5784.75)">
        <path d="M4069.2,1409.64L4069.2,1450.21C4069.2,1461.32 4064.68,1471.91 4056.73,1479.41L4049.95,1485.81L4056.96,1491.74C4064.71,1498.3 4069.2,1508.1 4069.2,1518.43L4069.2,1686.61C4069.2,1689.7 4065.21,1690.78 4063.73,1688.08L4010.59,1611.08C4008.68,1607.58 4007.9,1603.55 4008.34,1599.56C4010.51,1579.79 4011.65,1516.41 3966.04,1497.66C3961.41,1495.76 3961.05,1489.17 3965.48,1486.81L4025.01,1455.11L4059.68,1406.43C4062.7,1402.2 4069.2,1404.39 4069.2,1409.64Z" style="fill:rgb(159,171,206);fill-rule:nonzero;"/>
    </g>
    <g transform="matrix(4.16667,0,0,4.16667,-16014.6,-5784.75)">
        <path d="M3933,1498C3939.03,1495.12 3945.99,1494.91 3952.24,1497.25C3962.66,1501.15 3978.6,1507.52 3986.31,1524.05C3991.32,1534.79 3938.27,1530.64 3933.12,1570.85C3932.41,1576.34 3929.58,1581.34 3925.22,1584.76C3921.75,1587.48 3920.97,1587.48 3897.44,1608.64C3894.06,1611.68 3888.66,1610.03 3887.58,1605.61C3882.04,1582.82 3874.96,1525.68 3933,1498Z" style="fill:rgb(159,171,206);fill-rule:nonzero;"/>
    </g>
    <g transform="matrix(4.16667,0,0,4.16667,-16014.6,-5784.75)">
        <path d="M3938.74,1582.17C3938.7,1564.63 3949.72,1548.98 3966.24,1543.11L3985.64,1536.23C3990.28,1534.02 3994.88,1537.31 3996,1542.34C3999.08,1556.24 4002.93,1573.63 3999.48,1600.94C3999.01,1604.66 3996.46,1607.79 3992.92,1608.99L3947.04,1624.53C3942.81,1625.96 3938.46,1622.71 3938.63,1618.25C3938.78,1614.52 3938.78,1597.77 3938.74,1582.17Z" style="fill:rgb(159,171,206);fill-rule:nonzero;"/>
    </g>
    <g transform="matrix(4.16667,0,0,4.16667,-16014.6,-5784.75)">
        <path d="M3949.41,1629.67C3944.66,1630.71 3941.34,1635 3941.43,1639.86C3941.62,1650.58 3942.77,1669.18 3947.94,1684.5C3959.59,1718.98 3986.72,1744 3989.34,1770.05C3989.5,1771.65 3991.36,1772.47 3992.67,1771.53L4052.3,1704.23C4056.66,1701.13 4057.91,1695.2 4055.18,1690.6L4005.67,1619.64C4002.82,1615.97 3997.93,1614.54 3993.55,1616.11C3983.08,1619.86 3963.51,1626.57 3949.41,1629.67Z" style="fill:rgb(159,171,206);fill-rule:nonzero;"/>
    </g>
    <g transform="matrix(4.16667,0,0,4.16667,-16014.6,-5784.75)">
        <path d="M3906.09,1616.87C3900.86,1628.43 3893.59,1646.86 3891.66,1663.51C3890.8,1670.9 3887.99,1677.93 3883.25,1683.67C3880.34,1687.2 3877.39,1692.2 3875.82,1699.02C3873.68,1708.3 3867.1,1716.78 3861.77,1722.41C3858.67,1725.69 3853.14,1723.84 3852.64,1719.34C3850.28,1698.05 3850.82,1647.5 3900.67,1612.37C3903.7,1610.24 3907.62,1613.5 3906.09,1616.87Z" style="fill:rgb(159,171,206);fill-rule:nonzero;"/>
    </g>
    <g transform="matrix(4.16667,0,0,4.16667,-16014.6,-5784.75)">
        <path d="M3928.32,1595.7C3930.28,1593.33 3934.12,1594.89 3933.88,1597.95C3932.7,1612.72 3931.12,1641.25 3934.75,1658.5C3938.94,1678.39 3913.31,1713.57 3893.97,1727.54C3890.35,1730.16 3885.56,1726.44 3887.15,1722.27L3892.81,1707.47C3897.08,1696.31 3899.41,1684.48 3899.48,1672.53C3899.59,1655.28 3903.95,1625.22 3928.32,1595.7Z" style="fill:rgb(159,171,206);fill-rule:nonzero;"/>
    </g>
    <g transform="matrix(4.16667,0,0,4.16667,-16014.6,-5784.75)">
        <path d="M4069.2,1709.78L4069.2,1868.88C4069.2,1873.09 4064.44,1875.4 4061.29,1872.71L4043.82,1857.8C4033.24,1848.77 4019.95,1843.84 4006.22,1843.84C4000.19,1843.84 3995.21,1839 3994.86,1832.8L3992.36,1789.31C3992.06,1784.15 3994.36,1779.2 3998.44,1776.19L4061.57,1705.73C4064.76,1703.38 4069.2,1705.73 4069.2,1709.78Z" style="fill:rgb(159,171,206);fill-rule:nonzero;"/>
    </g>
    <g transform="matrix(4.16667,0,0,4.16667,-16014.6,-5784.75)">
        <path d="M3973.55,1748.08C3973.55,1748.08 3984.64,1793.35 3988.64,1836.62C3988.94,1839.95 3985.77,1842.63 3982.43,1842.9L3973.86,1843.77C3970.29,1844.06 3967.12,1841.52 3966.61,1837.97L3964.79,1825.08C3963.18,1813.68 3963.72,1802.08 3966.38,1790.88L3973.55,1748.08Z" style="fill:rgb(237,25,82);fill-rule:nonzero;"/>
    </g>
    <g transform="matrix(4.16667,0,0,4.16667,-16014.6,-5784.75)">
        <path d="M4077.66,1409.64L4077.66,1450.21C4077.66,1461.32 4082.18,1471.91 4090.13,1479.41L4096.9,1485.81L4089.9,1491.74C4082.15,1498.3 4077.66,1508.1 4077.66,1518.43L4077.66,1686.61C4077.66,1689.7 4081.65,1690.78 4083.12,1688.08L4136.27,1611.08C4138.18,1607.58 4138.96,1603.55 4138.52,1599.56C4136.35,1579.79 4135.21,1516.41 4180.81,1497.66C4185.45,1495.76 4185.81,1489.17 4181.38,1486.81L4121.84,1455.11L4087.17,1406.43C4084.16,1402.2 4077.66,1404.39 4077.66,1409.64Z" style="fill:rgb(159,171,206);fill-rule:nonzero;"/>
    </g>
    <g transform="matrix(4.16667,0,0,4.16667,-16014.6,-5784.75)">
        <path d="M4213.85,1498C4207.83,1495.12 4200.87,1494.91 4194.62,1497.25C4184.19,1501.15 4168.26,1507.52 4160.55,1524.05C4155.55,1534.76 4209.93,1531.23 4213.97,1570.7C4214.55,1576.31 4217.38,1581.45 4221.83,1584.91C4225.14,1587.48 4226.33,1587.87 4249.41,1608.64C4252.79,1611.68 4258.2,1610.03 4259.27,1605.61C4264.81,1582.82 4271.9,1525.68 4213.85,1498Z" style="fill:rgb(159,171,206);fill-rule:nonzero;"/>
    </g>
    <g transform="matrix(4.16667,0,0,4.16667,-16014.6,-5784.75)">
        <path d="M4208.12,1582.17C4208.16,1564.63 4197.14,1548.98 4180.61,1543.11L4161.22,1536.23C4156.58,1534.02 4151.97,1537.31 4150.86,1542.34C4147.77,1556.24 4143.93,1573.63 4147.38,1600.94C4147.84,1604.66 4150.39,1607.79 4153.94,1608.99L4199.82,1624.53C4204.05,1625.96 4208.4,1622.71 4208.22,1618.25C4208.07,1614.52 4208.08,1597.77 4208.12,1582.17Z" style="fill:rgb(159,171,206);fill-rule:nonzero;"/>
    </g>
    <g transform="matrix(4.16667,0,0,4.16667,-16014.6,-5784.75)">
        <path d="M4197.45,1629.67C4202.2,1630.71 4205.52,1635 4205.43,1639.86C4205.24,1650.58 4204.09,1669.18 4198.92,1684.5C4187.27,1718.98 4160.14,1744 4157.51,1770.05C4157.35,1771.65 4155.5,1772.47 4154.19,1771.53L4094.56,1705.23C4090.2,1702.13 4088.95,1696.2 4091.68,1691.6L4141.19,1619.64C4144.04,1615.97 4148.92,1614.54 4153.31,1616.11C4163.78,1619.86 4183.35,1626.57 4197.45,1629.67Z" style="fill:rgb(159,171,206);fill-rule:nonzero;"/>
    </g>
    <g transform="matrix(4.16667,0,0,4.16667,-16014.6,-5784.75)">
        <path d="M4240.76,1616.87C4245.99,1628.43 4253.27,1646.86 4255.2,1663.51C4256.05,1670.9 4258.87,1677.93 4263.6,1683.67C4266.52,1687.2 4269.46,1692.2 4271.04,1699.02C4273.18,1708.3 4279.76,1716.78 4285.08,1722.41C4288.19,1725.69 4293.72,1723.84 4294.22,1719.34C4296.58,1698.05 4296.04,1647.5 4246.18,1612.37C4243.16,1610.24 4239.24,1613.5 4240.76,1616.87Z" style="fill:rgb(159,171,206);fill-rule:nonzero;"/>
    </g>
    <g transform="matrix(4.16667,0,0,4.16667,-16014.6,-5784.75)">
        <path d="M4218.53,1595.7C4216.58,1593.33 4212.73,1594.89 4212.98,1597.95C4214.16,1612.72 4215.74,1641.25 4212.1,1658.5C4207.92,1678.39 4233.55,1713.57 4252.89,1727.54C4256.5,1730.16 4261.3,1726.44 4259.7,1722.27L4254.04,1707.47C4249.78,1696.31 4247.44,1684.48 4247.37,1672.53C4247.27,1655.28 4242.91,1625.22 4218.53,1595.7Z" style="fill:rgb(159,171,206);fill-rule:nonzero;"/>
    </g>
    <g transform="matrix(4.16667,0,0,4.16667,-16014.6,-5784.75)">
        <path d="M4077.66,1709.78L4077.66,1868.88C4077.66,1873.09 4082.42,1875.4 4085.56,1872.71L4103.04,1857.8C4113.61,1848.77 4126.91,1843.84 4140.64,1843.84C4146.66,1843.84 4151.64,1839 4152,1832.8L4154.5,1789.31C4154.8,1784.15 4152.5,1779.2 4148.42,1776.19L4085.29,1705.73C4082.1,1703.38 4077.66,1705.73 4077.66,1709.78Z" style="fill:rgb(159,171,206);fill-rule:nonzero;"/>
    </g>
    <g transform="matrix(4.16667,0,0,4.16667,-16014.6,-5784.75)">
        <path d="M4173.31,1748.08C4173.31,1748.08 4162.21,1793.35 4158.22,1836.62C4157.91,1839.95 4161.09,1842.63 4164.42,1842.9L4172.99,1843.77C4176.56,1844.06 4179.74,1841.52 4180.24,1837.97L4182.07,1825.08C4183.68,1813.68 4183.14,1802.08 4180.48,1790.88L4173.31,1748.08Z" style="fill:rgb(237,25,82);fill-rule:nonzero;"/>
    </g>
</svg>
