<?xml version="1.0" encoding="UTF-8" standalone="no"?>
<!DOCTYPE svg PUBLIC "-//W3C//DTD SVG 1.1//EN" "http://www.w3.org/Graphics/SVG/1.1/DTD/svg11.dtd">
<svg width="100%" height="100%" viewBox="0 0 1398 2059" version="1.1" xmlns="http://www.w3.org/2000/svg" xmlns:xlink="http://www.w3.org/1999/xlink" xml:space="preserve" xmlns:serif="http://www.serif.com/" style="fill-rule:evenodd;clip-rule:evenodd;stroke-linejoin:round;stroke-miterlimit:2;">
    <g transform="matrix(4.16667,0,0,4.16667,-13082.7,-2855.73)">
        <path d="M3445.69,685.374L3169.34,685.374C3164.92,685.374 3161.34,688.956 3161.34,693.374L3161.34,768.75C3161.34,769.591 3161.47,770.426 3161.73,771.225C3161.89,771.698 3165.63,782.958 3177.13,796.763C3185.37,806.66 3188.88,819.799 3186.75,832.81L3177.99,886.314C3177.91,886.785 3177.88,887.262 3177.89,887.739L3179.31,973.407C3176.5,978.721 3168.62,994.436 3160.58,1017.95C3151.55,1044.35 3140.63,1086.04 3139.85,1134.69C3139.82,1137 3140.78,1139.21 3142.49,1140.75C3144.24,1142.33 3186.44,1179.33 3292.53,1179.33C3296.44,1179.33 3299.77,1176.51 3300.42,1172.65L3307.52,1130.23L3314.61,1172.65C3315.26,1176.51 3318.6,1179.33 3322.5,1179.33C3428.6,1179.33 3470.79,1142.33 3472.54,1140.75C3474.25,1139.21 3475.21,1137 3475.18,1134.69C3474.4,1086.04 3463.48,1044.35 3454.45,1017.95C3446.41,994.436 3438.53,978.721 3435.72,973.407L3437.14,887.739C3437.15,887.262 3437.12,886.785 3437.04,886.314L3428.28,832.809C3426.16,819.799 3429.66,806.661 3437.9,796.763C3449.4,782.958 3453.14,771.698 3453.3,771.225C3453.56,770.426 3453.69,769.591 3453.69,768.75L3453.69,693.374C3453.69,688.956 3450.11,685.374 3445.69,685.374Z" style="fill:rgb(72,80,106);fill-rule:nonzero;"/>
    </g>
    <g transform="matrix(4.16667,0,0,4.16667,-13082.7,-2855.73)">
        <path d="M3301.49,747.307L3301.49,785.916C3301.49,788.831 3299.12,791.195 3296.21,791.195L3261.6,791.195C3258.19,791.195 3255.04,789.378 3253.33,786.428L3249.31,779.465C3245.54,772.945 3247.09,764.659 3252.96,759.942C3261.98,752.699 3276.86,743.539 3295.73,742.047C3298.83,741.802 3301.49,744.205 3301.49,747.307Z" style="fill:rgb(159,171,206);fill-rule:nonzero;"/>
    </g>
    <g transform="matrix(4.16667,0,0,4.16667,-13082.7,-2855.73)">
        <path d="M3295.1,868L3270.5,868C3264.26,868 3259.2,862.943 3259.2,856.704L3259.2,811.832C3259.2,805.594 3264.26,800.536 3270.5,800.536L3295.1,800.536C3298.63,800.536 3301.49,803.394 3301.49,806.92L3301.49,861.617C3301.49,865.142 3298.63,868 3295.1,868Z" style="fill:rgb(159,171,206);fill-rule:nonzero;"/>
    </g>
    <g transform="matrix(4.16667,0,0,4.16667,-13082.7,-2855.73)">
        <path d="M3296.41,875.266L3272.82,875.266C3266.25,875.266 3260.93,880.586 3260.93,887.149L3260.93,908.205C3260.93,940.436 3268.68,972.196 3283.52,1000.81L3291.9,1016.98C3294.35,1021.69 3301.49,1019.95 3301.49,1014.64L3301.49,880.341C3301.49,877.538 3299.21,875.266 3296.41,875.266Z" style="fill:rgb(159,171,206);fill-rule:nonzero;"/>
    </g>
    <g transform="matrix(4.16667,0,0,4.16667,-13082.7,-2855.73)">
        <path d="M3209.08,770.643L3224.99,788.719C3231.7,796.335 3235.4,806.134 3235.4,816.282L3235.4,838.345C3235.4,840.079 3233.36,841.012 3232.05,839.881L3218.15,827.916C3210.14,821.014 3205.53,810.961 3205.53,800.383L3205.53,771.983C3205.53,770.114 3207.84,769.24 3209.08,770.643Z" style="fill:rgb(159,171,206);fill-rule:nonzero;"/>
    </g>
    <g transform="matrix(4.16667,0,0,4.16667,-13082.7,-2855.73)">
        <path d="M3211.67,833.103L3227.43,847.709C3232.51,852.413 3235.4,859.022 3235.4,865.944L3235.4,882.46C3235.4,885.77 3231.35,887.376 3229.08,884.965L3212.85,867.724C3208.15,862.725 3205.53,856.119 3205.53,849.254L3205.53,835.785C3205.53,832.594 3209.33,830.934 3211.67,833.103Z" style="fill:rgb(159,171,206);fill-rule:nonzero;"/>
    </g>
    <g transform="matrix(4.16667,0,0,4.16667,-13082.7,-2855.73)">
        <path d="M3207.04,868.908L3219.65,882.387C3237.44,901.401 3247.7,926.246 3248.5,952.274L3248.81,962.429C3248.94,966.846 3243.45,968.978 3240.57,965.626L3209.36,929.288C3201.41,920.033 3197.49,907.988 3198.46,895.827L3200.42,871.222C3200.68,867.903 3204.76,866.476 3207.04,868.908Z" style="fill:rgb(159,171,206);fill-rule:nonzero;"/>
    </g>
    <g transform="matrix(4.16667,0,0,4.16667,-13082.7,-2855.73)">
        <path d="M3256.27,1018.9L3286.63,1062.05C3290.92,1068.15 3292.98,1075.55 3292.44,1082.98L3286.79,1162.21C3286.26,1169.63 3275.85,1170.83 3273.64,1163.73L3259.2,1117.22L3250.04,1021.21C3249.71,1017.7 3254.24,1016.02 3256.27,1018.9Z" style="fill:rgb(159,171,206);fill-rule:nonzero;"/>
    </g>
    <g transform="matrix(4.16667,0,0,4.16667,-13082.7,-2855.73)">
        <path d="M3313.54,747.307L3313.54,785.916C3313.54,788.831 3315.91,791.195 3318.82,791.195L3353.43,791.195C3356.84,791.195 3359.99,789.378 3361.7,786.428L3365.72,779.465C3369.49,772.945 3367.94,764.659 3362.07,759.942C3353.05,752.699 3338.17,743.539 3319.3,742.047C3316.2,741.802 3313.54,744.205 3313.54,747.307Z" style="fill:rgb(159,171,206);fill-rule:nonzero;"/>
    </g>
    <g transform="matrix(4.16667,0,0,4.16667,-13082.7,-2855.73)">
        <path d="M3319.93,868L3344.53,868C3350.77,868 3355.83,862.943 3355.83,856.704L3355.83,811.832C3355.83,805.594 3350.77,800.536 3344.53,800.536L3319.93,800.536C3316.4,800.536 3313.54,803.394 3313.54,806.92L3313.54,861.617C3313.54,865.142 3316.4,868 3319.93,868Z" style="fill:rgb(159,171,206);fill-rule:nonzero;"/>
    </g>
    <g transform="matrix(4.16667,0,0,4.16667,-13082.7,-2855.73)">
        <path d="M3318.62,875.266L3342.21,875.266C3348.78,875.266 3354.1,880.586 3354.1,887.149L3354.1,908.205C3354.1,940.436 3346.35,972.196 3331.51,1000.81L3323.13,1016.98C3320.68,1021.69 3313.54,1019.95 3313.54,1014.64L3313.54,880.341C3313.54,877.538 3315.82,875.266 3318.62,875.266Z" style="fill:rgb(159,171,206);fill-rule:nonzero;"/>
    </g>
    <g transform="matrix(4.16667,0,0,4.16667,-13082.7,-2855.73)">
        <path d="M3405.95,770.643L3390.04,788.719C3383.33,796.335 3379.63,806.134 3379.63,816.282L3379.63,838.345C3379.63,840.079 3381.67,841.012 3382.98,839.881L3396.88,827.916C3404.89,821.014 3409.5,810.961 3409.5,800.383L3409.5,771.983C3409.5,770.114 3407.19,769.24 3405.95,770.643Z" style="fill:rgb(159,171,206);fill-rule:nonzero;"/>
    </g>
    <g transform="matrix(4.16667,0,0,4.16667,-13082.7,-2855.73)">
        <path d="M3403.36,833.103L3387.6,847.709C3382.52,852.413 3379.63,859.022 3379.63,865.944L3379.63,882.46C3379.63,885.77 3383.68,887.376 3385.95,884.965L3402.18,867.724C3406.88,862.725 3409.5,856.119 3409.5,849.254L3409.5,835.785C3409.5,832.594 3405.7,830.934 3403.36,833.103Z" style="fill:rgb(159,171,206);fill-rule:nonzero;"/>
    </g>
    <g transform="matrix(4.16667,0,0,4.16667,-13082.7,-2855.73)">
        <path d="M3407.99,868.908L3395.38,882.387C3377.59,901.401 3367.33,926.246 3366.53,952.274L3366.22,962.429C3366.09,966.846 3371.58,968.978 3374.46,965.626L3405.67,929.288C3413.62,920.033 3417.55,907.988 3416.58,895.827L3414.61,871.222C3414.35,867.903 3410.27,866.476 3407.99,868.908Z" style="fill:rgb(159,171,206);fill-rule:nonzero;"/>
    </g>
    <g transform="matrix(4.16667,0,0,4.16667,-13082.7,-2855.73)">
        <path d="M3358.76,1018.9L3328.4,1062.05C3324.11,1068.15 3322.05,1075.55 3322.59,1082.98L3328.25,1162.21C3328.78,1169.63 3339.18,1170.83 3341.39,1163.73L3355.83,1117.22L3364.99,1021.21C3365.32,1017.7 3360.79,1016.02 3358.76,1018.9Z" style="fill:rgb(159,171,206);fill-rule:nonzero;"/>
    </g>
    <g transform="matrix(4.16667,0,0,4.16667,-13082.7,-2855.73)">
        <path d="M3201.92,928.241L3214.83,947.045C3217.56,951.029 3218.01,956.15 3216.01,960.546C3206.72,980.902 3180.03,1040.29 3169.95,1072.34C3169.12,1074.96 3165.27,1074.56 3165.04,1071.82C3164.32,1063.45 3165.23,1049.62 3172.85,1029.59C3182.84,1003.33 3191.71,980.092 3195.84,969.26C3197.48,964.983 3198.31,960.449 3198.31,955.871L3198.31,929.361C3198.31,927.417 3200.82,926.638 3201.92,928.241Z" style="fill:rgb(237,25,82);fill-rule:nonzero;"/>
    </g>
    <g transform="matrix(4.16667,0,0,4.16667,-13082.7,-2855.73)">
        <path d="M3415.86,928.241L3402.95,947.045C3400.22,951.029 3399.77,956.15 3401.77,960.546C3411.06,980.902 3437.75,1040.29 3447.84,1072.34C3448.66,1074.96 3452.51,1074.56 3452.74,1071.82C3453.46,1063.45 3452.55,1049.62 3444.93,1029.59C3434.94,1003.33 3426.07,980.092 3421.94,969.26C3420.31,964.983 3419.47,960.449 3419.47,955.871L3419.47,929.361C3419.47,927.417 3416.96,926.638 3415.86,928.241Z" style="fill:rgb(237,25,82);fill-rule:nonzero;"/>
    </g>
    <g transform="matrix(4.16667,0,0,4.16667,-13082.7,-2855.73)">
        <path d="M3247.26,1163.95C3249.2,1133.01 3246.72,1101.79 3239.76,1071.37L3225.58,1009.45C3223.75,1001.46 3213.42,1000.62 3210.47,1008.23C3198.87,1038.17 3180.53,1090.03 3178.74,1122.7C3178.34,1129.97 3178.11,1136.55 3178.02,1142.56C3188.45,1148.95 3211.55,1160.41 3247.26,1163.95Z" style="fill:rgb(159,171,206);fill-rule:nonzero;"/>
    </g>
    <g transform="matrix(4.16667,0,0,4.16667,-13082.7,-2855.73)">
        <path d="M3367.77,1163.95C3365.83,1133.01 3368.31,1101.79 3375.27,1071.37L3389.45,1009.45C3391.28,1001.46 3401.61,1000.62 3404.56,1008.23C3416.16,1038.17 3434.51,1090.03 3436.29,1122.7C3436.69,1129.97 3436.92,1136.55 3437.01,1142.56C3426.58,1148.95 3403.49,1160.41 3367.77,1163.95Z" style="fill:rgb(159,171,206);fill-rule:nonzero;"/>
    </g>
    <g transform="matrix(4.16667,0,0,4.16667,-13082.7,-2855.73)">
        <path d="M3301.24,708.311L3301.24,724.43C3301.24,727.173 3299.23,729.563 3296.38,730.224L3275.49,735.056C3264.71,737.548 3247.54,745.633 3247.54,745.633C3241.57,751.796 3211.44,702.341 3235.07,702.341L3294.83,702.341C3298.37,702.341 3301.24,705.014 3301.24,708.311Z" style="fill:rgb(159,171,206);fill-rule:nonzero;"/>
    </g>
    <g transform="matrix(4.16667,0,0,4.16667,-13082.7,-2855.73)">
        <path d="M3313.3,708.311L3313.3,724.43C3313.3,727.173 3315.3,729.563 3318.16,730.224L3339.05,735.056C3349.82,737.548 3366.99,745.633 3366.99,745.633C3372.97,751.796 3404.24,702.341 3379.47,702.341L3319.71,702.341C3316.17,702.341 3313.3,705.014 3313.3,708.311Z" style="fill:rgb(159,171,206);fill-rule:nonzero;"/>
    </g>
</svg>
