<?xml version="1.0" encoding="UTF-8" standalone="no"?>
<!DOCTYPE svg PUBLIC "-//W3C//DTD SVG 1.1//EN" "http://www.w3.org/Graphics/SVG/1.1/DTD/svg11.dtd">
<svg width="100%" height="100%" viewBox="0 0 2014 5047" version="1.1" xmlns="http://www.w3.org/2000/svg" xmlns:xlink="http://www.w3.org/1999/xlink" xml:space="preserve" xmlns:serif="http://www.serif.com/" style="fill-rule:evenodd;clip-rule:evenodd;stroke-linejoin:round;stroke-miterlimit:2;">
    <g transform="matrix(4.16667,0,0,4.16667,2.10671,-7418.88)">
        <path d="M190.385,2250.16L220.743,2293.31C225.035,2299.41 227.089,2306.8 226.557,2314.24L218.913,2421.26C218.796,2422.89 216.504,2423.16 216.018,2421.59L193.317,2348.47L184.154,2252.46C183.819,2248.95 188.356,2247.28 190.385,2250.16Z" style="fill:rgb(237,26,82);fill-rule:nonzero;"/>
    </g>
    <g transform="matrix(4.16667,0,0,4.16667,2.10671,-7418.88)">
        <path d="M292.871,2250.16L262.513,2293.31C258.221,2299.41 256.167,2306.8 256.699,2314.24L264.343,2421.26C264.459,2422.89 266.752,2423.16 267.238,2421.59L289.939,2348.47L299.101,2252.46C299.436,2248.95 294.9,2247.28 292.871,2250.16Z" style="fill:rgb(237,26,82);fill-rule:nonzero;"/>
    </g>
</svg>
