<?xml version="1.0" encoding="UTF-8" standalone="no"?>
<!DOCTYPE svg PUBLIC "-//W3C//DTD SVG 1.1//EN" "http://www.w3.org/Graphics/SVG/1.1/DTD/svg11.dtd">
<svg width="100%" height="100%" viewBox="0 0 1398 2059" version="1.1" xmlns="http://www.w3.org/2000/svg" xmlns:xlink="http://www.w3.org/1999/xlink" xml:space="preserve" xmlns:serif="http://www.serif.com/" style="fill-rule:evenodd;clip-rule:evenodd;stroke-linejoin:round;stroke-miterlimit:2;">
    <g transform="matrix(4.16667,0,0,4.16667,-16274.6,-2855.73)">
        <path d="M4211.74,685.374L3935.39,685.374C3930.97,685.374 3927.39,688.956 3927.39,693.374L3927.39,768.75C3927.39,769.591 3927.52,770.426 3927.78,771.225C3927.93,771.698 3931.68,782.959 3943.17,796.763C3951.41,806.66 3954.92,819.799 3952.79,832.81L3944.04,886.314C3943.96,886.785 3943.92,887.262 3943.93,887.739L3945.36,973.407C3942.55,978.721 3934.66,994.436 3926.63,1017.95C3917.6,1044.35 3906.67,1086.04 3905.9,1134.69C3905.86,1137 3906.82,1139.21 3908.54,1140.75C3910.28,1142.33 3952.48,1179.33 4058.57,1179.33C4062.48,1179.33 4065.82,1176.51 4066.46,1172.65L4073.56,1130.23L4080.66,1172.65C4081.3,1176.51 4084.64,1179.33 4088.55,1179.33C4194.64,1179.33 4236.84,1142.33 4238.58,1140.75C4240.3,1139.21 4241.26,1137 4241.22,1134.69C4240.45,1086.04 4229.52,1044.35 4220.5,1017.95C4212.46,994.436 4204.57,978.721 4201.76,973.407L4203.19,887.739C4203.2,887.262 4203.16,886.785 4203.08,886.314L4194.33,832.809C4192.2,819.799 4195.71,806.66 4203.95,796.763C4215.45,782.959 4219.19,771.698 4219.34,771.225C4219.6,770.426 4219.74,769.591 4219.74,768.75L4219.74,693.374C4219.74,688.956 4216.15,685.374 4211.74,685.374Z" style="fill:rgb(72,80,106);fill-rule:nonzero;"/>
    </g>
    <g transform="matrix(4.16667,0,0,4.16667,-16274.6,-2855.73)">
        <path d="M4067.53,747.307L4067.53,785.916C4067.53,788.831 4065.17,791.195 4062.25,791.195L4027.64,791.195C4024.23,791.195 4021.09,789.378 4019.38,786.428L4015.35,779.465C4011.58,772.945 4013.14,764.659 4019.01,759.942C4028.02,752.699 4042.9,743.539 4061.78,742.047C4064.87,741.802 4067.53,744.205 4067.53,747.307Z" style="fill:rgb(159,171,206);fill-rule:nonzero;"/>
    </g>
    <g transform="matrix(4.16667,0,0,4.16667,-16274.6,-2855.73)">
        <path d="M4061.15,868L4036.55,868C4030.31,868 4025.25,862.943 4025.25,856.704L4025.25,811.832C4025.25,805.594 4030.31,800.536 4036.55,800.536L4061.15,800.536C4064.67,800.536 4067.53,803.394 4067.53,806.92L4067.53,861.617C4067.53,865.142 4064.67,868 4061.15,868Z" style="fill:rgb(159,171,206);fill-rule:nonzero;"/>
    </g>
    <g transform="matrix(4.16667,0,0,4.16667,-16274.6,-2855.73)">
        <path d="M4062.46,875.266L4038.86,875.266C4032.3,875.266 4026.98,880.586 4026.98,887.149L4026.98,908.205C4026.98,940.436 4034.72,972.196 4049.56,1000.81L4057.95,1016.98C4060.4,1021.69 4067.53,1019.95 4067.53,1014.64L4067.53,880.341C4067.53,877.538 4065.26,875.266 4062.46,875.266Z" style="fill:rgb(159,171,206);fill-rule:nonzero;"/>
    </g>
    <g transform="matrix(4.16667,0,0,4.16667,-16274.6,-2855.73)">
        <path d="M3975.12,770.643L3991.04,788.719C3997.74,796.335 4001.44,806.134 4001.44,816.282L4001.44,838.345C4001.44,840.079 3999.41,841.012 3998.09,839.881L3984.2,827.916C3976.18,821.014 3971.57,810.961 3971.57,800.383L3971.57,771.983C3971.57,770.114 3973.89,769.24 3975.12,770.643Z" style="fill:rgb(159,171,206);fill-rule:nonzero;"/>
    </g>
    <g transform="matrix(4.16667,0,0,4.16667,-16274.6,-2855.73)">
        <path d="M3977.71,833.103L3993.48,847.709C3998.56,852.413 4001.44,859.022 4001.44,865.944L4001.44,882.46C4001.44,885.77 3997.39,887.376 3995.13,884.965L3978.9,867.724C3974.19,862.725 3971.57,856.119 3971.57,849.254L3971.57,835.785C3971.57,832.594 3975.37,830.934 3977.71,833.103Z" style="fill:rgb(159,171,206);fill-rule:nonzero;"/>
    </g>
    <g transform="matrix(4.16667,0,0,4.16667,-16274.6,-2855.73)">
        <path d="M3973.08,868.908L3985.7,882.387C4003.49,901.401 4013.74,926.246 4014.54,952.274L4014.85,962.429C4014.99,966.846 4009.49,968.978 4006.61,965.626L3975.4,929.288C3967.46,920.033 3963.53,907.988 3964.5,895.827L3966.46,871.222C3966.73,867.903 3970.81,866.476 3973.08,868.908Z" style="fill:rgb(159,171,206);fill-rule:nonzero;"/>
    </g>
    <g transform="matrix(4.16667,0,0,4.16667,-16274.6,-2855.73)">
        <path d="M4022.32,1018.9L4052.68,1062.05C4056.97,1068.15 4059.02,1075.55 4058.49,1082.98L4052.83,1162.21C4052.3,1169.63 4041.9,1170.83 4039.69,1163.73L4025.25,1117.22L4016.09,1021.21C4015.75,1017.7 4020.29,1016.02 4022.32,1018.9Z" style="fill:rgb(237,25,82);fill-rule:nonzero;"/>
    </g>
    <g transform="matrix(4.16667,0,0,4.16667,-16274.6,-2855.73)">
        <path d="M4079.59,747.307L4079.59,785.916C4079.59,788.831 4081.95,791.195 4084.87,791.195L4119.48,791.195C4122.89,791.195 4126.04,789.378 4127.74,786.428L4131.77,779.465C4135.54,772.945 4133.99,764.659 4128.12,759.942C4119.1,752.699 4104.22,743.539 4085.34,742.047C4082.25,741.802 4079.59,744.205 4079.59,747.307Z" style="fill:rgb(159,171,206);fill-rule:nonzero;"/>
    </g>
    <g transform="matrix(4.16667,0,0,4.16667,-16274.6,-2855.73)">
        <path d="M4085.97,868L4110.58,868C4116.81,868 4121.87,862.943 4121.87,856.704L4121.87,811.832C4121.87,805.594 4116.81,800.536 4110.58,800.536L4085.97,800.536C4082.45,800.536 4079.59,803.394 4079.59,806.92L4079.59,861.617C4079.59,865.142 4082.45,868 4085.97,868Z" style="fill:rgb(159,171,206);fill-rule:nonzero;"/>
    </g>
    <g transform="matrix(4.16667,0,0,4.16667,-16274.6,-2855.73)">
        <path d="M4084.67,875.266L4108.26,875.266C4114.82,875.266 4120.14,880.586 4120.14,887.149L4120.14,908.205C4120.14,940.436 4112.4,972.196 4097.56,1000.81L4089.17,1016.98C4086.72,1021.69 4079.59,1019.95 4079.59,1014.64L4079.59,880.341C4079.59,877.538 4081.86,875.266 4084.67,875.266Z" style="fill:rgb(159,171,206);fill-rule:nonzero;"/>
    </g>
    <g transform="matrix(4.16667,0,0,4.16667,-16274.6,-2855.73)">
        <path d="M4172,770.643L4156.08,788.719C4149.38,796.335 4145.68,806.134 4145.68,816.282L4145.68,838.345C4145.68,840.079 4147.71,841.012 4149.03,839.881L4162.92,827.916C4170.94,821.014 4175.55,810.961 4175.55,800.383L4175.55,771.983C4175.55,770.114 4173.23,769.24 4172,770.643Z" style="fill:rgb(159,171,206);fill-rule:nonzero;"/>
    </g>
    <g transform="matrix(4.16667,0,0,4.16667,-16274.6,-2855.73)">
        <path d="M4169.41,833.103L4153.64,847.709C4148.56,852.413 4145.68,859.022 4145.68,865.944L4145.68,882.46C4145.68,885.77 4149.73,887.376 4152,884.965L4168.22,867.724C4172.93,862.725 4175.55,856.119 4175.55,849.254L4175.55,835.785C4175.55,832.594 4171.75,830.934 4169.41,833.103Z" style="fill:rgb(159,171,206);fill-rule:nonzero;"/>
    </g>
    <g transform="matrix(4.16667,0,0,4.16667,-16274.6,-2855.73)">
        <path d="M4174.04,868.908L4161.42,882.387C4143.63,901.401 4133.38,926.246 4132.58,952.274L4132.27,962.429C4132.13,966.846 4137.63,968.978 4140.51,965.626L4171.72,929.288C4179.67,920.033 4183.59,907.988 4182.62,895.827L4180.66,871.222C4180.39,867.903 4176.31,866.476 4174.04,868.908Z" style="fill:rgb(159,171,206);fill-rule:nonzero;"/>
    </g>
    <g transform="matrix(4.16667,0,0,4.16667,-16274.6,-2855.73)">
        <path d="M4124.8,1018.9L4094.45,1062.05C4090.15,1068.15 4088.1,1075.55 4088.63,1082.98L4094.29,1162.21C4094.82,1169.63 4105.22,1170.83 4107.43,1163.73L4121.87,1117.22L4131.03,1021.21C4131.37,1017.7 4126.83,1016.02 4124.8,1018.9Z" style="fill:rgb(237,25,82);fill-rule:nonzero;"/>
    </g>
    <g transform="matrix(4.16667,0,0,4.16667,-16274.6,-2855.73)">
        <path d="M3967.97,928.241L3980.87,947.045C3983.61,951.029 3984.06,956.15 3982.05,960.546C3972.76,980.902 3946.08,1040.29 3935.99,1072.34C3935.17,1074.96 3931.32,1074.56 3931.09,1071.82C3930.37,1063.45 3931.27,1049.62 3938.9,1029.59C3948.89,1003.33 3957.75,980.092 3961.89,969.26C3963.52,964.983 3964.36,960.449 3964.36,955.871L3964.36,929.361C3964.36,927.417 3966.87,926.638 3967.97,928.241Z" style="fill:rgb(159,171,206);fill-rule:nonzero;"/>
    </g>
    <g transform="matrix(4.16667,0,0,4.16667,-16274.6,-2855.73)">
        <path d="M4181.91,928.241L4169,947.045C4166.26,951.029 4165.81,956.15 4167.82,960.546C4177.11,980.902 4203.79,1040.29 4213.88,1072.34C4214.71,1074.96 4218.55,1074.56 4218.79,1071.82C4219.5,1063.45 4218.6,1049.62 4210.98,1029.59C4200.98,1003.33 4192.12,980.092 4187.98,969.26C4186.35,964.983 4185.52,960.449 4185.52,955.871L4185.52,929.361C4185.52,927.417 4183.01,926.638 4181.91,928.241Z" style="fill:rgb(159,171,206);fill-rule:nonzero;"/>
    </g>
    <g transform="matrix(4.16667,0,0,4.16667,-16274.6,-2855.73)">
        <path d="M4013.3,1163.95C4015.24,1133.01 4012.76,1101.79 4005.8,1071.37L3991.63,1009.45C3989.8,1001.46 3979.46,1000.62 3976.52,1008.23C3964.92,1038.17 3946.57,1090.03 3944.78,1122.7C3944.39,1129.97 3944.15,1136.55 3944.06,1142.56C3954.5,1148.95 3977.59,1160.41 4013.3,1163.95Z" style="fill:rgb(159,171,206);fill-rule:nonzero;"/>
    </g>
    <g transform="matrix(4.16667,0,0,4.16667,-16274.6,-2855.73)">
        <path d="M4133.82,1163.95C4131.88,1133.01 4134.36,1101.79 4141.32,1071.37L4155.5,1009.45C4157.32,1001.46 4167.66,1000.62 4170.6,1008.23C4182.2,1038.17 4200.55,1090.03 4202.34,1122.7C4202.74,1129.97 4202.97,1136.55 4203.06,1142.56C4192.62,1148.95 4169.53,1160.41 4133.82,1163.95Z" style="fill:rgb(159,171,206);fill-rule:nonzero;"/>
    </g>
    <g transform="matrix(4.16667,0,0,4.16667,-16274.6,-2855.73)">
        <path d="M4067.28,708.311L4067.28,724.43C4067.28,727.173 4065.28,729.563 4062.42,730.224L4041.53,735.056C4030.76,737.548 4013.59,745.633 4013.59,745.633C4007.62,751.796 3977.48,702.341 4001.11,702.341L4060.88,702.341C4064.42,702.341 4067.28,705.014 4067.28,708.311Z" style="fill:rgb(159,171,206);fill-rule:nonzero;"/>
    </g>
    <g transform="matrix(4.16667,0,0,4.16667,-16274.6,-2855.73)">
        <path d="M4079.34,708.311L4079.34,724.43C4079.34,727.173 4081.35,729.563 4084.21,730.224L4105.1,735.056C4115.87,737.548 4133.04,745.633 4133.04,745.633C4139.01,751.796 4170.28,702.341 4145.51,702.341L4085.75,702.341C4082.21,702.341 4079.34,705.014 4079.34,708.311Z" style="fill:rgb(159,171,206);fill-rule:nonzero;"/>
    </g>
</svg>
