<?xml version="1.0" encoding="UTF-8" standalone="no"?>
<!DOCTYPE svg PUBLIC "-//W3C//DTD SVG 1.1//EN" "http://www.w3.org/Graphics/SVG/1.1/DTD/svg11.dtd">
<svg width="100%" height="100%" viewBox="0 0 1918 5047" version="1.1" xmlns="http://www.w3.org/2000/svg" xmlns:xlink="http://www.w3.org/1999/xlink" xml:space="preserve" xmlns:serif="http://www.serif.com/" style="fill-rule:evenodd;clip-rule:evenodd;stroke-linejoin:round;stroke-miterlimit:2;">
    <g transform="matrix(4.16667,0,0,4.16667,-6444.55,-7051.02)">
        <path d="M1890.48,2099.93L1897.93,2099.69L1662.81,2107.39C1660.67,2107.39 1659.9,2107.5 1658.97,2109.43C1652.4,2122.94 1653.78,2159.41 1649.58,2185.24C1646.77,2190.56 1637.41,2214.52 1629.37,2238.04C1620.34,2264.44 1609.41,2306.13 1608.64,2354.78C1607.62,2419.42 1620.55,2494.65 1628.28,2539.59C1631.58,2558.77 1639.02,2569.08 1639.02,2574.43C1639.02,2578.84 1637.75,2587.26 1642.16,2587.27L1731.71,2587.6L1731.74,2587.6C1734.58,2587.6 1732.3,2581.18 1733.74,2578.72C1748.13,2554.01 1764.46,2521.75 1772.57,2473.16C1773.91,2465.1 1775.16,2456.71 1776.3,2448.07C1777.45,2456.71 1778.69,2465.1 1780.04,2473.16C1788.14,2521.75 1804.48,2558.92 1818.89,2583.63C1820.32,2586.09 1818.02,2587.6 1820.87,2587.6L1820.9,2587.6L1910.45,2587.27C1914.86,2587.26 1913.03,2583.68 1913.03,2579.27C1913.03,2573.92 1921.02,2558.77 1924.32,2539.59C1928.16,2517.26 1933.42,2486.68 1937.47,2454.37C1942.29,2415.88 1944.42,2383.3 1943.96,2354.78C1943.19,2306.13 1932.27,2264.44 1923.24,2238.04C1915.2,2214.52 1903.94,2192.88 1901.12,2187.56C1899.36,2168.85 1900.51,2152.96 1896.81,2121.64C1894.68,2123.76 1892.74,2116.75 1893.77,2108.81C1894.34,2104.43 1894.89,2099.93 1890.48,2099.93Z" style="fill:rgb(72,80,106);fill-rule:nonzero;"/>
    </g>
    <g transform="matrix(4.16667,0,0,4.16667,-48.8337,-5782.13)">
        <path d="M241.629,1890.51C188.574,1890.51 128.423,1854.74 125.888,1853.22C124.724,1852.52 123.994,1851.28 123.95,1849.92L122.557,1806.33C122.549,1806.07 122.566,1805.81 122.608,1805.56L130.947,1754.6C133.144,1741.17 129.516,1727.6 120.994,1717.37C115.535,1710.82 112.007,1704.94 109.857,1700.76L91.203,1724.86C91.797,1732.17 92.674,1761.31 73.481,1794.21C72.867,1795.26 71.807,1795.98 70.601,1796.15C69.395,1796.33 68.176,1795.94 67.288,1795.11L12.825,1743.96C12.02,1743.2 11.564,1742.15 11.564,1741.04L11.564,1700.18C11.564,1700.14 11.565,1700.09 11.566,1700.04C13.362,1649.77 39.768,1625.56 47.678,1619.41C46.145,1609.65 41.83,1573.91 54.093,1539.17C66.984,1502.66 111.53,1487 116.88,1485.24L188.548,1442.58L195.329,1397.99C195.584,1396.31 196.866,1394.98 198.531,1394.66L221.1,1390.33C234.714,1387.72 248.527,1387.68 262.156,1390.2L286.235,1394.66C287.91,1394.97 289.205,1396.3 289.462,1397.99L296.243,1442.58L367.911,1485.24C373.261,1487 417.807,1502.66 430.697,1539.17C443.071,1574.22 437.24,1609 435.341,1618.14C442.547,1625.5 469.87,1656.69 471.691,1707.69C471.693,1707.74 471.694,1707.78 471.694,1707.83L471.694,1741.04C471.694,1742.13 471.253,1743.17 470.473,1743.92L417.545,1795.07C416.662,1795.92 415.439,1796.32 414.218,1796.16C413.001,1795.99 411.929,1795.27 411.31,1794.21C392.117,1761.31 392.994,1732.17 393.588,1724.86L374.934,1700.76C372.784,1704.94 369.256,1710.81 363.797,1717.37C355.275,1727.6 351.648,1741.17 353.844,1754.6L362.183,1805.56C362.225,1805.81 362.242,1806.07 362.234,1806.33L360.84,1849.92C360.797,1851.29 360.051,1852.55 358.865,1853.24C356.268,1854.77 294.66,1890.51 241.629,1890.51Z" style="fill:rgb(72,80,106);fill-rule:nonzero;"/>
    </g>
    <g transform="matrix(4.16667,0,0,4.16667,-48.8337,-5782.13)">
        <path d="M237.27,1409.64L237.27,1450.21C237.27,1461.32 232.745,1471.91 224.799,1479.41L218.022,1485.81L225.026,1491.74C232.778,1498.3 237.27,1508.1 237.27,1518.43L237.27,1686.61C237.27,1689.7 233.275,1690.78 231.801,1688.08L178.656,1611.08C176.746,1607.58 175.966,1603.55 176.404,1599.56C178.574,1579.79 179.72,1516.41 134.11,1497.66C129.479,1495.76 129.118,1489.17 133.547,1486.81L193.08,1455.11L227.753,1406.43C230.765,1402.2 237.27,1404.39 237.27,1409.64Z" style="fill:rgb(159,171,206);fill-rule:nonzero;"/>
    </g>
    <g transform="matrix(4.16667,0,0,4.16667,-48.8337,-5782.13)">
        <path d="M101.073,1498C107.1,1495.12 114.055,1494.91 120.308,1497.25C130.731,1501.15 146.665,1507.52 154.378,1524.05C159.389,1534.79 106.335,1530.64 101.184,1570.85C100.482,1576.34 97.644,1581.34 93.29,1584.76C89.819,1587.48 89.036,1587.48 65.51,1608.64C62.132,1611.68 56.725,1610.03 55.651,1605.61C50.113,1582.82 43.024,1525.68 101.073,1498Z" style="fill:rgb(159,171,206);fill-rule:nonzero;"/>
    </g>
    <g transform="matrix(4.16667,0,0,4.16667,-48.8337,-5782.13)">
        <path d="M106.808,1582.17C106.764,1564.63 117.787,1548.98 134.311,1543.11L153.703,1536.23C158.347,1534.02 162.951,1537.31 164.066,1542.34C167.152,1556.24 170.996,1573.63 167.549,1600.94C167.08,1604.66 164.531,1607.79 160.985,1608.99L115.109,1624.53C110.877,1625.96 106.525,1622.71 106.703,1618.25C106.851,1614.52 106.848,1597.77 106.808,1582.17Z" style="fill:rgb(159,171,206);fill-rule:nonzero;"/>
    </g>
    <g transform="matrix(4.16667,0,0,4.16667,-48.8337,-5782.13)">
        <path d="M117.473,1629.67C112.725,1630.71 109.409,1635 109.495,1639.86C109.685,1650.58 110.834,1669.18 116.01,1684.5C127.66,1718.98 154.787,1744 157.411,1770.05C157.573,1771.65 159.424,1772.47 160.739,1771.53L220.367,1704.23C224.725,1701.13 225.977,1695.2 223.247,1690.6L173.738,1619.64C170.885,1615.97 166,1614.54 161.62,1616.11C151.148,1619.86 131.58,1626.57 117.473,1629.67Z" style="fill:rgb(159,171,206);fill-rule:nonzero;"/>
    </g>
    <g transform="matrix(4.16667,0,0,4.16667,-48.8337,-5782.13)">
        <path d="M74.16,1616.87C68.932,1628.43 61.655,1646.86 59.728,1663.51C58.873,1670.9 56.058,1677.93 51.32,1683.67C48.406,1687.2 45.46,1692.2 43.888,1699.02C41.745,1708.3 35.168,1716.78 29.842,1722.41C26.737,1725.69 21.204,1723.84 20.706,1719.34C18.344,1698.05 18.887,1647.5 68.742,1612.37C71.769,1610.24 75.686,1613.5 74.16,1616.87Z" style="fill:rgb(159,171,206);fill-rule:nonzero;"/>
    </g>
    <g transform="matrix(4.16667,0,0,4.16667,-48.8337,-5782.13)">
        <path d="M96.393,1595.7C98.346,1593.33 102.193,1594.89 101.948,1597.95C100.765,1612.72 99.189,1641.25 102.821,1658.5C107.008,1678.39 81.375,1713.57 62.036,1727.54C58.423,1730.16 53.627,1726.44 55.22,1722.27L60.88,1707.47C65.148,1696.31 67.481,1684.48 67.551,1672.53C67.653,1655.28 72.016,1625.22 96.393,1595.7Z" style="fill:rgb(159,171,206);fill-rule:nonzero;"/>
    </g>
    <g transform="matrix(4.16667,0,0,4.16667,-48.8337,-5782.13)">
        <path d="M237.27,1709.78L237.27,1868.88C237.27,1873.09 232.509,1875.4 229.362,1872.71L211.887,1857.8C201.313,1848.77 188.014,1843.84 174.285,1843.84C168.262,1843.84 163.283,1839 162.927,1832.8L160.426,1789.31C160.129,1784.15 162.426,1779.2 166.508,1776.19L229.634,1705.73C232.83,1703.38 237.27,1705.73 237.27,1709.78Z" style="fill:rgb(159,171,206);fill-rule:nonzero;"/>
    </g>
    <g transform="matrix(4.16667,0,0,4.16667,-48.8337,-5782.13)">
        <path d="M141.617,1748.08C141.617,1748.08 152.71,1793.35 156.704,1836.62C157.012,1839.95 153.839,1842.63 150.501,1842.9L141.933,1843.77C138.362,1844.06 135.184,1841.52 134.682,1837.97L132.86,1825.08C131.247,1813.68 131.785,1802.08 134.447,1790.88L141.617,1748.08Z" style="fill:rgb(159,171,206);fill-rule:nonzero;"/>
    </g>
    <g transform="matrix(4.16667,0,0,4.16667,-48.8337,-5782.13)">
        <path d="M245.723,1409.64L245.723,1450.21C245.723,1461.32 250.248,1471.91 258.195,1479.41L264.972,1485.81L257.967,1491.74C250.216,1498.3 245.723,1508.1 245.723,1518.43L245.723,1686.61C245.723,1689.7 249.718,1690.78 251.193,1688.08L304.337,1611.08C306.248,1607.58 307.027,1603.55 306.59,1599.56C304.42,1579.79 303.274,1516.41 348.883,1497.66C353.513,1495.76 353.875,1489.17 349.447,1486.81L289.913,1455.11L255.241,1406.43C252.229,1402.2 245.723,1404.39 245.723,1409.64Z" style="fill:rgb(159,171,206);fill-rule:nonzero;"/>
    </g>
    <g transform="matrix(4.16667,0,0,4.16667,-48.8337,-5782.13)">
        <path d="M381.921,1498C375.893,1495.12 368.939,1494.91 362.685,1497.25C352.262,1501.15 336.329,1507.52 328.615,1524.05C323.614,1534.76 377.995,1531.23 382.041,1570.7C382.615,1576.31 385.444,1581.45 389.894,1584.91C393.211,1587.48 394.396,1587.87 417.483,1608.64C420.861,1611.68 426.268,1610.03 427.342,1605.61C432.88,1582.82 439.969,1525.68 381.921,1498Z" style="fill:rgb(159,171,206);fill-rule:nonzero;"/>
    </g>
    <g transform="matrix(4.16667,0,0,4.16667,-48.8337,-5782.13)">
        <path d="M376.185,1582.17C376.229,1564.63 365.207,1548.98 348.683,1543.11L329.29,1536.23C324.646,1534.02 320.043,1537.31 318.928,1542.34C315.841,1556.24 311.998,1573.63 315.444,1600.94C315.913,1604.66 318.462,1607.79 322.008,1608.99L367.884,1624.53C372.116,1625.96 376.469,1622.71 376.291,1618.25C376.142,1614.52 376.146,1597.77 376.185,1582.17Z" style="fill:rgb(159,171,206);fill-rule:nonzero;"/>
    </g>
    <g transform="matrix(4.16667,0,0,4.16667,-48.8337,-5782.13)">
        <path d="M365.52,1629.67C370.268,1630.71 373.585,1635 373.499,1639.86C373.309,1650.58 372.159,1669.18 366.983,1684.5C355.334,1718.98 328.207,1744 325.583,1770.05C325.421,1771.65 323.569,1772.47 322.254,1771.53L262.626,1705.23C258.268,1702.13 257.015,1696.2 259.746,1691.6L309.256,1619.64C312.108,1615.97 316.993,1614.54 321.374,1616.11C331.845,1619.86 351.414,1626.57 365.52,1629.67Z" style="fill:rgb(159,171,206);fill-rule:nonzero;"/>
    </g>
    <g transform="matrix(4.16667,0,0,4.16667,-48.8337,-5782.13)">
        <path d="M408.833,1616.87C414.061,1628.43 421.338,1646.86 423.265,1663.51C424.12,1670.9 426.935,1677.93 431.673,1683.67C434.586,1687.2 437.533,1692.2 439.105,1699.02C441.249,1708.3 447.825,1716.78 453.151,1722.41C456.256,1725.69 461.789,1723.84 462.287,1719.34C464.649,1698.05 464.106,1647.5 414.251,1612.37C411.224,1610.24 407.307,1613.5 408.833,1616.87Z" style="fill:rgb(159,171,206);fill-rule:nonzero;"/>
    </g>
    <g transform="matrix(4.16667,0,0,4.16667,-48.8337,-5782.13)">
        <path d="M386.6,1595.7C384.647,1593.33 380.8,1594.89 381.045,1597.95C382.228,1612.72 383.804,1641.25 380.172,1658.5C375.985,1678.39 401.618,1713.57 420.957,1727.54C424.57,1730.16 429.366,1726.44 427.773,1722.27L422.113,1707.47C417.845,1696.31 415.512,1684.48 415.442,1672.53C415.339,1655.28 410.977,1625.22 386.6,1595.7Z" style="fill:rgb(159,171,206);fill-rule:nonzero;"/>
    </g>
    <g transform="matrix(4.16667,0,0,4.16667,-48.8337,-5782.13)">
        <path d="M245.723,1709.78L245.723,1868.88C245.723,1873.09 250.484,1875.4 253.632,1872.71L271.106,1857.8C281.68,1848.77 294.979,1843.84 308.708,1843.84C314.731,1843.84 319.711,1839 320.067,1832.8L322.568,1789.31C322.865,1784.15 320.568,1779.2 316.486,1776.19L253.36,1705.73C250.164,1703.38 245.723,1705.73 245.723,1709.78Z" style="fill:rgb(159,171,206);fill-rule:nonzero;"/>
    </g>
    <g transform="matrix(4.16667,0,0,4.16667,-48.8337,-5782.13)">
        <path d="M341.376,1748.08C341.376,1748.08 330.283,1793.35 326.289,1836.62C325.981,1839.95 329.155,1842.63 332.492,1842.9L341.061,1843.77C344.631,1844.06 347.81,1841.52 348.311,1837.97L350.134,1825.08C351.746,1813.68 351.208,1802.08 348.546,1790.88L341.376,1748.08Z" style="fill:rgb(159,171,206);fill-rule:nonzero;"/>
    </g>
    <g transform="matrix(4.16667,0,0,4.16667,-6444.55,-7051.02)">
        <path d="M1676.63,2155.11C1697.1,2154.6 1743.45,2158.65 1770.92,2201.83L1770.92,2289.47C1770.92,2289.47 1746.26,2338.09 1699.06,2318.32C1659.49,2301.75 1663.3,2198.81 1665.56,2165.95C1665.98,2159.93 1670.77,2155.26 1676.63,2155.11Z" style="fill:rgb(159,171,206);fill-rule:nonzero;"/>
    </g>
    <g transform="matrix(4.16667,0,0,4.16667,-6444.55,-7051.02)">
        <path d="M1735.53,2332.51C1742.22,2329.82 1750.75,2326.11 1757.29,2322.3C1760.27,2320.57 1763.93,2322.98 1763.49,2326.4L1751.79,2455.84C1751.43,2459.74 1745.75,2459.79 1745.32,2455.9C1741.7,2422.85 1735.48,2373.73 1728.16,2347.33C1726.47,2341.24 1729.66,2334.86 1735.53,2332.51Z" style="fill:rgb(159,171,206);fill-rule:nonzero;"/>
    </g>
    <g transform="matrix(4.16667,0,0,4.16667,-6444.55,-7051.02)">
        <path d="M1715.98,2341.73L1741.27,2480.63C1743.5,2492.87 1742.19,2505.5 1737.5,2517.03L1715.96,2569.97C1713.61,2575.75 1705.14,2574.76 1704.19,2568.6C1697.51,2525.26 1684.74,2424.52 1695.26,2342.25C1696.1,2335.64 1702.84,2331.51 1709.13,2333.71C1712.69,2334.96 1715.31,2338.02 1715.98,2341.73Z" style="fill:rgb(159,171,206);fill-rule:nonzero;"/>
    </g>
    <g transform="matrix(4.16667,0,0,4.16667,-6444.55,-7051.02)">
        <path d="M1686.75,2327.11C1688.02,2328.64 1688.62,2330.61 1688.43,2332.58C1686.74,2350.07 1678.52,2437.68 1679.31,2481.59C1679.87,2512.43 1668.77,2543.26 1660.49,2561.84C1657.91,2567.62 1649.42,2566.55 1648.34,2560.32C1643.45,2532.09 1635.1,2480.34 1635.73,2459.8C1636.44,2436.73 1663.2,2359.59 1673.99,2329.36C1675.93,2323.91 1683.06,2322.66 1686.75,2327.11Z" style="fill:rgb(159,171,206);fill-rule:nonzero;"/>
    </g>
    <g transform="matrix(4.16667,0,0,4.16667,-6444.55,-7051.02)">
        <path d="M1647.52,2252.03C1648.67,2249.36 1652.5,2249.52 1653.39,2252.28C1658.64,2268.52 1670.25,2305.79 1669.55,2315.62C1668.82,2325.91 1643.74,2387.92 1633.98,2419.16C1633.01,2422.25 1628.49,2421.79 1628.18,2418.56C1625.05,2386.19 1621.69,2311.93 1647.52,2252.03Z" style="fill:rgb(159,171,206);fill-rule:nonzero;"/>
    </g>
    <g transform="matrix(4.16667,0,0,4.16667,-6444.55,-7051.02)">
        <path d="M1874.09,2155.11C1853.61,2154.6 1807.27,2158.65 1779.8,2201.83L1779.8,2289.47C1779.8,2289.47 1804.45,2338.09 1851.66,2318.32C1891.23,2301.75 1887.42,2198.81 1885.15,2165.95C1884.74,2159.93 1879.94,2155.26 1874.09,2155.11Z" style="fill:rgb(159,171,206);fill-rule:nonzero;"/>
    </g>
    <g transform="matrix(4.16667,0,0,4.16667,-6444.55,-7051.02)">
        <path d="M1815.19,2332.51C1808.5,2329.82 1799.97,2326.11 1793.43,2322.3C1790.45,2320.57 1786.78,2322.98 1787.22,2326.4L1798.93,2455.84C1799.28,2459.74 1804.97,2459.79 1805.39,2455.9C1809.02,2422.85 1815.23,2373.73 1822.56,2347.33C1824.25,2341.24 1821.06,2334.86 1815.19,2332.51Z" style="fill:rgb(159,171,206);fill-rule:nonzero;"/>
    </g>
    <g transform="matrix(4.16667,0,0,4.16667,-6444.55,-7051.02)">
        <path d="M1834.73,2341.73L1809.45,2480.63C1807.22,2492.87 1808.52,2505.5 1813.21,2517.03L1834.76,2569.97C1837.11,2575.75 1845.58,2574.76 1846.53,2568.6C1853.21,2525.26 1865.98,2424.52 1855.46,2342.25C1854.62,2335.64 1847.87,2331.51 1841.59,2333.71C1838.03,2334.96 1835.41,2338.02 1834.73,2341.73Z" style="fill:rgb(159,171,206);fill-rule:nonzero;"/>
    </g>
    <g transform="matrix(4.16667,0,0,4.16667,-6444.55,-7051.02)">
        <path d="M1863.96,2327.11C1862.7,2328.64 1862.1,2330.61 1862.29,2332.58C1863.98,2350.07 1872.2,2437.68 1871.4,2481.59C1870.84,2512.43 1881.95,2543.26 1890.23,2561.84C1892.8,2567.62 1901.3,2566.55 1902.38,2560.32C1907.26,2532.09 1915.61,2480.34 1914.98,2459.8C1914.27,2436.73 1887.52,2359.59 1876.73,2329.36C1874.79,2323.91 1867.65,2322.66 1863.96,2327.11Z" style="fill:rgb(159,171,206);fill-rule:nonzero;"/>
    </g>
    <g transform="matrix(4.16667,0,0,4.16667,-6444.55,-7051.02)">
        <path d="M1903.2,2252.03C1902.05,2249.36 1898.22,2249.52 1897.33,2252.28C1892.08,2268.52 1880.47,2305.79 1881.17,2315.62C1881.9,2325.91 1906.98,2387.92 1916.74,2419.16C1917.71,2422.25 1922.23,2421.79 1922.54,2418.56C1925.67,2386.19 1929.02,2311.93 1903.2,2252.03Z" style="fill:rgb(159,171,206);fill-rule:nonzero;"/>
    </g>
    <g transform="matrix(4.18744,0,0,3.37155,-16102.9,-3398.83)">
        <path d="M4019.28,2098.55C4024.6,2098.57 4029.09,2102.49 4029.82,2107.76C4033.74,2136.17 4050.35,2204.02 4051.09,2259.96C4051.94,2323.41 4022.33,2375.87 4022.33,2420.7C4022.33,2450.07 4024.02,2523.91 4029.8,2551.95C4032.48,2564.99 4030.51,2589 4013.41,2589C3950.7,2589 3886.55,2566.04 3879.08,2564.69C3871.6,2563.35 3866.66,2559.69 3866.66,2552.94C3866.66,2543.38 3871.85,2534.57 3880.21,2529.94L3947.85,2509.9C3963.93,2503.41 3954.42,2466.54 3954.42,2466.54C3951.26,2427.54 3945.52,2388.78 3937.41,2350.5C3908.91,2215.97 3926.48,2154.04 3937.56,2106.55C3938.69,2101.7 3943.02,2098.27 3948,2098.29L4019.28,2098.55Z" style="fill:rgb(72,80,106);fill-rule:nonzero;"/>
    </g>
    <g transform="matrix(4.18744,0,0,3.37155,-16102.9,-3398.83)">
        <path d="M4199.12,2098.29C4204.1,2098.27 4208.43,2101.7 4209.56,2106.55C4220.64,2154.04 4238.21,2215.97 4209.71,2350.5C4201.6,2388.78 4195.86,2427.54 4192.71,2466.54C4192.71,2466.54 4186.95,2503.41 4209.64,2514.83L4266.91,2529.94C4275.27,2534.57 4280.46,2543.38 4280.46,2552.94C4280.46,2559.69 4274.79,2565.06 4268.04,2564.69C4268.04,2564.69 4174.45,2589 4159.49,2589C4144.52,2589 4123.14,2581.16 4123.51,2553.12C4129.29,2525.08 4124.79,2450.07 4124.79,2420.7C4124.79,2375.87 4095.18,2323.41 4096.03,2259.96C4096.78,2204.02 4113.38,2136.17 4117.3,2107.76C4118.03,2102.49 4122.52,2098.57 4127.84,2098.55L4199.12,2098.29Z" style="fill:rgb(72,80,106);fill-rule:nonzero;"/>
    </g>
    <g transform="matrix(4.18744,0,0,3.37155,-16102.9,-3398.83)">
        <path d="M3981.67,2126.95C3981.67,2126.95 3965.59,2332.75 4002.02,2367.84C4028.43,2393.27 4034.14,2264.91 4024.97,2226.96C4014.98,2185.63 3990.79,2073.67 3981.67,2126.95Z" style="fill:rgb(159,171,206);fill-rule:nonzero;"/>
    </g>
    <g transform="matrix(4.18744,0,0,3.37155,-16102.9,-3398.83)">
        <path d="M3972.82,2126.95C3972.82,2126.95 3968.09,2228.52 3972.82,2286.81C3976.58,2333.11 3982.94,2371.34 3962.42,2364.19C3941.9,2357.04 3922.29,2267.1 3932.96,2212.36C3943.63,2157.61 3970.63,2089.72 3972.82,2126.95Z" style="fill:rgb(159,171,206);fill-rule:nonzero;"/>
    </g>
    <g transform="matrix(4.18744,0,0,3.37155,-16102.9,-3398.83)">
        <path d="M4163.56,2126.95C4163.56,2126.95 4179.99,2333.11 4143.21,2367.84C4118.27,2391.39 4111.09,2264.91 4120.27,2226.96C4130.25,2185.63 4154.45,2073.67 4163.56,2126.95Z" style="fill:rgb(159,171,206);fill-rule:nonzero;"/>
    </g>
    <g transform="matrix(4.18744,0,0,3.37155,-16102.9,-3398.83)">
        <path d="M4172.41,2126.95C4172.41,2126.95 4177.14,2228.52 4172.41,2286.81C4168.65,2333.11 4161.65,2371.34 4182.17,2364.19C4202.69,2357.04 4222.94,2267.1 4212.27,2212.36C4201.61,2157.61 4174.6,2089.72 4172.41,2126.95Z" style="fill:rgb(159,171,206);fill-rule:nonzero;"/>
    </g>
</svg>
