<?xml version="1.0" encoding="UTF-8" standalone="no"?>
<!DOCTYPE svg PUBLIC "-//W3C//DTD SVG 1.1//EN" "http://www.w3.org/Graphics/SVG/1.1/DTD/svg11.dtd">
<svg width="100%" height="100%" viewBox="0 0 2054 1827" version="1.1" xmlns="http://www.w3.org/2000/svg" xmlns:xlink="http://www.w3.org/1999/xlink" xml:space="preserve" xmlns:serif="http://www.serif.com/" style="fill-rule:evenodd;clip-rule:evenodd;stroke-linejoin:round;stroke-miterlimit:2;">
    <g transform="matrix(4.16667,0,0,4.16667,-9564.3,-40.5375)">
        <path d="M2588.48,9.729C2587.38,9.729 2586.29,9.953 2585.26,10.406L2565.28,19.196C2558.12,22.343 2550.53,23.938 2542.72,23.938C2534.52,23.938 2526.6,22.191 2519.16,18.745L2501.31,10.471C2500.24,9.975 2499.09,9.729 2497.95,9.729C2496.44,9.729 2494.95,10.153 2493.64,10.987C2491.34,12.457 2489.95,14.999 2489.95,17.729L2489.95,40.283L2410.16,79.177C2403.9,81.255 2355.97,98.318 2341.92,138.126C2329.55,173.149 2336.12,210.082 2339.36,223.868C2328.57,232.577 2303.94,257.686 2301.66,306.777C2298.77,313.197 2290.13,335.985 2300.12,360.06C2309.08,381.626 2330.09,397.689 2362.58,407.803C2363.37,408.048 2364.17,408.166 2364.96,408.166C2368.09,408.166 2371.04,406.308 2372.32,403.28C2382.92,378.209 2386.92,345.307 2387.86,336.178L2403.54,315.917C2405.83,319.728 2408.87,324.176 2412.82,328.926C2421.07,338.823 2424.57,351.962 2422.44,364.972L2413.69,418.477C2412.99,422.71 2415.77,426.737 2419.97,427.604L2496.48,443.384C2511.58,446.497 2527.05,448.076 2542.46,448.076C2557.58,448.076 2572.76,446.556 2587.59,443.557L2666.43,427.61C2670.64,426.757 2673.43,422.722 2672.74,418.477L2663.98,364.972C2661.85,351.962 2665.36,338.823 2673.6,328.926C2677.56,324.176 2680.59,319.728 2682.88,315.917L2698.16,335.654C2697.96,340.602 2697.81,350.814 2699.12,362.445C2701.66,384.95 2708.27,401.266 2718.77,410.941C2720.27,412.32 2722.21,413.058 2724.2,413.058C2724.93,413.058 2725.68,412.956 2726.4,412.747C2751.12,405.647 2768.76,392.551 2778.84,373.824C2794.13,345.428 2786.56,313.8 2784.8,307.442C2782.71,257.907 2757.91,232.617 2747.06,223.868C2750.31,210.082 2756.87,173.149 2744.51,138.126C2730.45,98.318 2682.53,81.255 2676.26,79.177L2596.48,40.283L2596.48,17.729C2596.48,15.027 2595.11,12.507 2592.85,11.03C2591.53,10.168 2590.01,9.729 2588.48,9.729Z" style="fill:rgb(72,80,106);fill-rule:nonzero;"/>
    </g>
    <g transform="matrix(4.16667,0,0,4.16667,-9564.3,-40.5375)">
        <path d="M2508.23,32.68L2520.76,49.001C2523.16,52.128 2525.01,55.641 2526.23,59.389L2541.76,107.017C2541.94,107.561 2542.03,108.13 2542.03,108.702C2542.03,114.004 2535.22,116.164 2532.16,111.834C2519.78,94.317 2500.58,61.927 2504.27,33.717C2504.52,31.768 2507.03,31.121 2508.23,32.68Z" style="fill:rgb(159,171,206);fill-rule:nonzero;"/>
    </g>
    <g transform="matrix(4.16667,0,0,4.16667,-9564.3,-40.5375)">
        <path d="M2433.99,81.854L2484.85,56.823C2490.24,54.17 2496.69,57.185 2498.12,63.021C2499.99,70.69 2503.28,81.25 2508.83,91.877C2511.67,97.309 2507.05,103.628 2501.02,102.532L2435.21,90.568C2430.82,89.769 2429.99,83.826 2433.99,81.854Z" style="fill:rgb(159,171,206);fill-rule:nonzero;"/>
    </g>
    <g transform="matrix(4.16667,0,0,4.16667,-9564.3,-40.5375)">
        <path d="M2457.47,106.674C2457.47,106.674 2420.23,88.056 2394.05,99.693C2367.86,111.329 2337.03,131.112 2352.74,221.299C2352.74,221.299 2394.05,190.461 2399.87,167.769C2405.68,145.077 2430.7,108.42 2457.47,106.674Z" style="fill:rgb(159,171,206);fill-rule:nonzero;"/>
    </g>
    <g transform="matrix(4.16667,0,0,4.16667,-9564.3,-40.5375)">
        <path d="M2529.66,128.826C2534.33,131.58 2537.18,136.592 2537.18,142.011L2537.18,188.731C2537.18,197.435 2531.13,204.726 2523.01,206.632C2518.32,207.733 2513.63,208.852 2509.06,210.386L2459.21,227.117C2449.59,227.117 2440.53,222.629 2434.74,214.949C2428.59,206.777 2417.97,197.061 2401.27,194.562C2397.76,194.037 2396.04,190.022 2398.14,187.163C2403.8,179.452 2412.35,166.518 2414.99,155.55C2419.07,138.676 2451.07,109.584 2473.18,107.838C2489.5,106.55 2516.59,121.108 2529.66,128.826Z" style="fill:rgb(159,171,206);fill-rule:nonzero;"/>
    </g>
    <g transform="matrix(4.16667,0,0,4.16667,-9564.3,-40.5375)">
        <path d="M2397.23,215.75L2397.23,244.573C2397.23,244.573 2384.14,315.117 2348.86,341.881C2343.73,345.773 2336.31,342.583 2335.57,336.187L2331.47,301.05C2330.53,293.004 2331.61,284.852 2334.59,277.322L2354.48,227.117C2354.48,227.117 2376.59,212.571 2385.9,204.425C2392.16,204.425 2397.23,209.496 2397.23,215.75Z" style="fill:rgb(237,25,82);fill-rule:nonzero;"/>
    </g>
    <g transform="matrix(4.16667,0,0,4.16667,-9564.3,-40.5375)">
        <path d="M2335.64,249.414C2337.26,248.129 2339.47,250.036 2338.47,251.844C2333.81,260.211 2326.76,274.733 2325.64,287.691C2324.54,300.461 2324.87,318.506 2325.24,329.548C2325.32,331.894 2322.17,332.724 2321.08,330.644L2315.67,320.294C2313.37,315.884 2312.24,310.953 2312.45,305.982C2313.01,292.255 2316.61,264.484 2335.64,249.414Z" style="fill:rgb(245,132,102);fill-rule:nonzero;"/>
    </g>
    <g transform="matrix(4.16667,0,0,4.16667,-9564.3,-40.5375)">
        <path d="M2399.41,270.349L2399.41,279.134C2399.41,282.921 2398.75,286.674 2397.42,290.219C2394.56,297.813 2388.55,311.016 2378.68,319.839C2377.63,320.776 2376.05,319.579 2376.67,318.317C2381.32,308.804 2391.31,287.574 2396.74,269.939C2397.2,268.438 2399.41,268.778 2399.41,270.349Z" style="fill:rgb(245,132,102);fill-rule:nonzero;"/>
    </g>
    <g transform="matrix(4.16667,0,0,4.16667,-9564.3,-40.5375)">
        <path d="M2537.18,279.47L2537.18,318.079C2537.18,320.994 2534.82,323.358 2531.9,323.358L2497.29,323.358C2493.89,323.358 2490.74,321.541 2489.03,318.591L2485.01,311.627C2481.24,305.108 2482.79,296.822 2488.66,292.105C2497.67,284.861 2512.55,275.702 2531.43,274.209C2534.52,273.965 2537.18,276.368 2537.18,279.47Z" style="fill:rgb(159,171,206);fill-rule:nonzero;"/>
    </g>
    <g transform="matrix(4.16667,0,0,4.16667,-9564.3,-40.5375)">
        <path d="M2530.8,400.163L2506.2,400.163C2499.96,400.163 2494.9,395.105 2494.9,388.867L2494.9,343.995C2494.9,337.756 2499.96,332.699 2506.2,332.699L2530.8,332.699C2534.32,332.699 2537.18,335.557 2537.18,339.082L2537.18,393.78C2537.18,397.305 2534.32,400.163 2530.8,400.163Z" style="fill:rgb(159,171,206);fill-rule:nonzero;"/>
    </g>
    <g transform="matrix(4.16667,0,0,4.16667,-9564.3,-40.5375)">
        <path d="M2444.77,302.806L2460.69,320.881C2467.4,328.497 2471.1,338.297 2471.1,348.444L2471.1,370.507C2471.1,372.242 2469.06,373.175 2467.74,372.044L2453.85,360.079C2445.83,353.176 2441.22,343.123 2441.22,332.545L2441.22,304.145C2441.22,302.276 2443.54,301.403 2444.77,302.806Z" style="fill:rgb(159,171,206);fill-rule:nonzero;"/>
    </g>
    <g transform="matrix(4.16667,0,0,4.16667,-9564.3,-40.5375)">
        <path d="M2447.37,365.265L2463.13,379.872C2468.21,384.576 2471.1,391.184 2471.1,398.106L2471.1,414.622C2471.1,417.933 2467.05,419.539 2464.78,417.128L2448.55,399.887C2443.84,394.888 2441.22,388.281 2441.22,381.416L2441.22,367.947C2441.22,364.757 2445.03,363.097 2447.37,365.265Z" style="fill:rgb(159,171,206);fill-rule:nonzero;"/>
    </g>
    <g transform="matrix(4.16667,0,0,4.16667,-9564.3,-40.5375)">
        <path d="M2578.19,32.68L2565.67,49.001C2563.27,52.128 2561.42,55.641 2560.2,59.389L2544.66,107.017C2544.48,107.561 2544.39,108.13 2544.39,108.702C2544.39,114.004 2551.2,116.164 2554.26,111.834C2566.64,94.317 2585.84,61.927 2582.16,33.717C2581.9,31.768 2579.39,31.121 2578.19,32.68Z" style="fill:rgb(159,171,206);fill-rule:nonzero;"/>
    </g>
    <g transform="matrix(4.16667,0,0,4.16667,-9564.3,-40.5375)">
        <path d="M2652.43,81.854L2601.57,56.823C2596.18,54.17 2589.73,57.185 2588.31,63.021C2586.43,70.69 2583.15,81.25 2577.6,91.877C2574.76,97.309 2579.38,103.628 2585.41,102.532L2651.21,90.568C2655.61,89.769 2656.44,83.826 2652.43,81.854Z" style="fill:rgb(159,171,206);fill-rule:nonzero;"/>
    </g>
    <g transform="matrix(4.16667,0,0,4.16667,-9564.3,-40.5375)">
        <path d="M2628.96,106.674C2628.96,106.674 2666.19,88.056 2692.38,99.693C2718.56,111.329 2749.4,131.112 2733.69,221.299C2733.69,221.299 2692.38,190.461 2686.56,167.769C2680.74,145.077 2655.72,108.42 2628.96,106.674Z" style="fill:rgb(159,171,206);fill-rule:nonzero;"/>
    </g>
    <g transform="matrix(4.16667,0,0,4.16667,-9564.3,-40.5375)">
        <path d="M2556.76,128.826C2552.1,131.58 2549.24,136.592 2549.24,142.011L2549.24,188.731C2549.24,197.435 2555.29,204.726 2563.41,206.632C2568.11,207.733 2572.8,208.852 2577.37,210.386L2627.22,227.117C2636.83,227.117 2645.9,222.629 2651.68,214.949C2657.83,206.777 2668.46,197.061 2685.16,194.562C2688.67,194.037 2690.38,190.022 2688.28,187.163C2682.63,179.452 2674.08,166.518 2671.43,155.55C2667.36,138.676 2635.36,109.584 2613.25,107.838C2596.93,106.55 2569.84,121.108 2556.76,128.826Z" style="fill:rgb(159,171,206);fill-rule:nonzero;"/>
    </g>
    <g transform="matrix(4.16667,0,0,4.16667,-9564.3,-40.5375)">
        <path d="M2689.2,215.75L2689.2,244.573C2689.2,244.573 2702.29,315.117 2737.56,341.881C2742.69,345.773 2750.11,342.583 2750.86,336.187L2754.95,301.05C2755.89,293.004 2754.82,284.852 2751.84,277.322L2731.94,227.117C2731.94,227.117 2709.83,212.571 2700.52,204.425C2694.27,204.425 2689.2,209.496 2689.2,215.75Z" style="fill:rgb(237,25,82);fill-rule:nonzero;"/>
    </g>
    <g transform="matrix(4.16667,0,0,4.16667,-9564.3,-40.5375)">
        <path d="M2750.79,249.414C2749.17,248.129 2746.95,250.036 2747.96,251.844C2752.61,260.211 2759.66,274.733 2760.78,287.691C2761.89,300.461 2761.55,318.506 2761.19,329.548C2761.11,331.894 2764.26,332.724 2765.34,330.644L2770.75,320.294C2773.06,315.884 2774.18,310.953 2773.98,305.982C2773.41,292.255 2769.82,264.484 2750.79,249.414Z" style="fill:rgb(245,132,102);fill-rule:nonzero;"/>
    </g>
    <g transform="matrix(4.16667,0,0,4.16667,-9564.3,-40.5375)">
        <path d="M2687.01,270.349L2687.01,279.134C2687.01,282.921 2687.68,286.674 2689.01,290.219C2691.86,297.813 2697.87,311.016 2707.75,319.839C2708.79,320.776 2710.37,319.579 2709.76,318.317C2705.1,308.804 2695.11,287.574 2689.69,269.939C2689.22,268.438 2687.01,268.778 2687.01,270.349Z" style="fill:rgb(245,132,102);fill-rule:nonzero;"/>
    </g>
    <g transform="matrix(4.16667,0,0,4.16667,-9564.3,-40.5375)">
        <path d="M2549.24,279.47L2549.24,318.079C2549.24,320.994 2551.61,323.358 2554.52,323.358L2589.13,323.358C2592.54,323.358 2595.69,321.541 2597.39,318.591L2601.42,311.627C2605.19,305.108 2603.64,296.822 2597.77,292.105C2588.75,284.861 2573.87,275.702 2554.99,274.209C2551.9,273.965 2549.24,276.368 2549.24,279.47Z" style="fill:rgb(159,171,206);fill-rule:nonzero;"/>
    </g>
    <g transform="matrix(4.16667,0,0,4.16667,-9564.3,-40.5375)">
        <path d="M2555.63,400.163L2580.23,400.163C2586.47,400.163 2591.52,395.105 2591.52,388.867L2591.52,343.995C2591.52,337.756 2586.47,332.699 2580.23,332.699L2555.63,332.699C2552.1,332.699 2549.24,335.557 2549.24,339.082L2549.24,393.78C2549.24,397.305 2552.1,400.163 2555.63,400.163Z" style="fill:rgb(159,171,206);fill-rule:nonzero;"/>
    </g>
    <g transform="matrix(4.16667,0,0,4.16667,-9564.3,-40.5375)">
        <path d="M2641.65,302.806L2625.73,320.881C2619.03,328.497 2615.33,338.297 2615.33,348.444L2615.33,370.507C2615.33,372.242 2617.37,373.175 2618.68,372.044L2632.57,360.079C2640.59,353.176 2645.2,343.123 2645.2,332.545L2645.2,304.145C2645.2,302.276 2642.89,301.403 2641.65,302.806Z" style="fill:rgb(159,171,206);fill-rule:nonzero;"/>
    </g>
    <g transform="matrix(4.16667,0,0,4.16667,-9564.3,-40.5375)">
        <path d="M2639.06,365.265L2623.29,379.872C2618.22,384.576 2615.33,391.184 2615.33,398.106L2615.33,414.622C2615.33,417.933 2619.38,419.539 2621.65,417.128L2637.87,399.887C2642.58,394.888 2645.2,388.281 2645.2,381.416L2645.2,367.947C2645.2,364.757 2641.4,363.097 2639.06,365.265Z" style="fill:rgb(159,171,206);fill-rule:nonzero;"/>
    </g>
    <g transform="matrix(4.16667,0,0,4.16667,-9564.3,-40.5375)">
        <path d="M2537.42,222.362L2537.42,258.481C2537.42,261.224 2535.41,263.614 2532.55,264.275L2511.67,269.107C2500.89,271.6 2483.72,279.684 2483.72,279.684C2477.75,285.847 2447.61,236.392 2471.25,236.392L2531.01,216.392C2534.55,216.392 2537.42,219.065 2537.42,222.362Z" style="fill:rgb(159,171,206);fill-rule:nonzero;"/>
    </g>
    <g transform="matrix(4.16667,0,0,4.16667,-9564.3,-40.5375)">
        <path d="M2549.48,222.362L2549.48,258.481C2549.48,261.224 2551.48,263.614 2554.34,264.275L2575.23,269.107C2586,271.6 2603.17,279.684 2603.17,279.684C2609.15,285.847 2640.42,236.392 2615.65,236.392L2555.88,216.392C2552.35,216.392 2549.48,219.065 2549.48,222.362Z" style="fill:rgb(159,171,206);fill-rule:nonzero;"/>
    </g>
</svg>
