<?xml version="1.0" encoding="UTF-8" standalone="no"?>
<!DOCTYPE svg PUBLIC "-//W3C//DTD SVG 1.1//EN" "http://www.w3.org/Graphics/SVG/1.1/DTD/svg11.dtd">
<svg width="100%" height="100%" viewBox="0 0 2014 5047" version="1.1" xmlns="http://www.w3.org/2000/svg" xmlns:xlink="http://www.w3.org/1999/xlink" xml:space="preserve" xmlns:serif="http://www.serif.com/" style="fill-rule:evenodd;clip-rule:evenodd;stroke-linejoin:round;stroke-miterlimit:2;">
    <g transform="matrix(4.16667,0,0,4.16667,0.00021028,-2843.15)">
        <path d="M95.642,819.492L95.642,848.315C95.642,848.315 82.552,918.859 47.28,945.623C42.15,949.516 34.727,946.325 33.982,939.929L29.888,904.792C28.951,896.747 30.022,888.595 33.005,881.064L52.898,830.86C52.898,830.86 75.008,816.313 84.318,808.167C90.572,808.167 95.642,813.238 95.642,819.492Z" style="fill:rgb(237,26,82);fill-rule:nonzero;"/>
    </g>
    <g transform="matrix(4.16667,0,0,4.16667,0.00021028,-2843.15)">
        <path d="M34.052,853.156C35.674,851.872 37.889,853.778 36.883,855.586C32.227,863.953 25.18,878.475 24.059,891.433C22.954,904.203 23.287,922.248 23.655,933.29C23.733,935.636 20.582,936.466 19.496,934.386L14.089,924.036C11.785,919.626 10.66,914.695 10.865,909.724C11.43,895.997 15.025,868.227 34.052,853.156Z" style="fill:rgb(245,132,102);fill-rule:nonzero;"/>
    </g>
    <g transform="matrix(4.16667,0,0,4.16667,0.00021028,-2843.15)">
        <path d="M97.829,874.091L97.829,882.877C97.829,886.663 97.163,890.416 95.832,893.961C92.981,901.556 86.967,914.758 77.094,923.582C76.046,924.518 74.467,923.321 75.084,922.059C79.739,912.546 89.726,891.316 95.155,873.681C95.617,872.18 97.829,872.52 97.829,874.091Z" style="fill:rgb(245,132,102);fill-rule:nonzero;"/>
    </g>
    <g transform="matrix(4.16667,0,0,4.16667,0.00021028,-2843.15)">
        <path d="M387.615,819.492L387.615,848.315C387.615,848.315 400.705,918.859 435.977,945.623C441.107,949.516 448.53,946.325 449.276,939.929L453.369,904.792C454.307,896.747 453.236,888.595 450.252,881.064L430.36,830.86C430.36,830.86 408.249,816.313 398.94,808.167C392.685,808.167 387.615,813.238 387.615,819.492Z" style="fill:rgb(237,26,82);fill-rule:nonzero;"/>
    </g>
    <g transform="matrix(4.16667,0,0,4.16667,0.00021028,-2843.15)">
        <path d="M449.205,853.156C447.583,851.872 445.369,853.778 446.375,855.586C451.03,863.953 458.077,878.475 459.198,891.433C460.303,904.203 459.97,922.248 459.602,933.29C459.524,935.636 462.675,936.466 463.762,934.386L469.168,924.036C471.472,919.626 472.597,914.695 472.392,909.724C471.827,895.997 468.232,868.227 449.205,853.156Z" style="fill:rgb(245,132,102);fill-rule:nonzero;"/>
    </g>
    <g transform="matrix(4.16667,0,0,4.16667,0.00021028,-2843.15)">
        <path d="M385.428,874.091L385.428,882.877C385.428,886.663 386.094,890.416 387.425,893.961C390.276,901.556 396.29,914.758 406.163,923.582C407.211,924.518 408.79,923.321 408.173,922.059C403.518,912.546 393.531,891.316 388.103,873.681C387.64,872.18 385.428,872.52 385.428,874.091Z" style="fill:rgb(245,132,102);fill-rule:nonzero;"/>
    </g>
</svg>
