<?xml version="1.0" encoding="UTF-8" standalone="no"?>
<!DOCTYPE svg PUBLIC "-//W3C//DTD SVG 1.1//EN" "http://www.w3.org/Graphics/SVG/1.1/DTD/svg11.dtd">
<svg width="100%" height="100%" viewBox="0 0 1918 5047" version="1.1" xmlns="http://www.w3.org/2000/svg" xmlns:xlink="http://www.w3.org/1999/xlink" xml:space="preserve" xmlns:serif="http://www.serif.com/" style="fill-rule:evenodd;clip-rule:evenodd;stroke-linejoin:round;stroke-miterlimit:2;">
    <g transform="matrix(4.16667,0,0,4.16667,-48.8337,-5782.13)">
        <path d="M101.073,1498C107.1,1495.12 114.055,1494.91 120.308,1497.25C130.731,1501.15 146.665,1507.52 154.378,1524.05C159.389,1534.79 106.335,1530.64 101.184,1570.85C100.482,1576.34 97.644,1581.34 93.29,1584.76C89.819,1587.48 89.036,1587.48 65.51,1608.64C62.132,1611.68 56.725,1610.03 55.651,1605.61C50.113,1582.82 43.024,1525.68 101.073,1498Z" style="fill:rgb(237,26,82);fill-rule:nonzero;"/>
    </g>
    <g transform="matrix(4.16667,0,0,4.16667,-48.8337,-5782.13)">
        <path d="M381.921,1498C375.893,1495.12 368.939,1494.91 362.685,1497.25C352.262,1501.15 336.329,1507.52 328.615,1524.05C323.614,1534.76 377.995,1531.23 382.041,1570.7C382.615,1576.31 385.444,1581.45 389.894,1584.91C393.211,1587.48 394.396,1587.87 417.483,1608.64C420.861,1611.68 426.268,1610.03 427.342,1605.61C432.88,1582.82 439.969,1525.68 381.921,1498Z" style="fill:rgb(237,26,82);fill-rule:nonzero;"/>
    </g>
</svg>
