<?xml version="1.0" encoding="UTF-8" standalone="no"?>
<!DOCTYPE svg PUBLIC "-//W3C//DTD SVG 1.1//EN" "http://www.w3.org/Graphics/SVG/1.1/DTD/svg11.dtd">
<svg width="100%" height="100%" viewBox="0 0 1918 2093" version="1.1" xmlns="http://www.w3.org/2000/svg" xmlns:xlink="http://www.w3.org/1999/xlink" xml:space="preserve" xmlns:serif="http://www.serif.com/" style="fill-rule:evenodd;clip-rule:evenodd;stroke-linejoin:round;stroke-miterlimit:2;">
    <g transform="matrix(4.16667,0,0,4.16667,-12822.7,-5784.75)">
        <path d="M3307.52,1890.51C3254.46,1890.51 3194.31,1854.74 3191.78,1853.22C3190.61,1852.52 3189.88,1851.28 3189.84,1849.92L3188.44,1806.33C3188.44,1806.07 3188.45,1805.81 3188.49,1805.56L3196.83,1754.6C3199.03,1741.17 3195.4,1727.6 3186.88,1717.37C3181.42,1710.82 3177.89,1704.94 3175.74,1700.76L3157.09,1724.86C3157.68,1732.17 3158.56,1761.31 3139.37,1794.21C3138.75,1795.26 3137.69,1795.98 3136.49,1796.15C3135.29,1796.33 3134.06,1795.94 3133.17,1795.11L3078.71,1743.96C3077.91,1743.2 3077.45,1742.15 3077.45,1741.04L3077.45,1700.04C3079.25,1649.77 3105.66,1625.56 3113.57,1619.41C3112.03,1609.65 3107.72,1573.91 3119.98,1539.17C3132.87,1502.66 3177.42,1487 3182.77,1485.24L3254.43,1442.58L3261.22,1397.99C3261.47,1396.31 3262.75,1394.98 3264.42,1394.66L3286.99,1390.33C3300.6,1387.72 3314.42,1387.68 3328.04,1390.2L3352.12,1394.66C3353.8,1394.97 3355.09,1396.3 3355.35,1397.99L3362.13,1442.58L3433.8,1485.24C3439.14,1487 3483.69,1502.65 3496.58,1539.17C3508.96,1574.22 3503.13,1609 3501.23,1618.14C3508.43,1625.5 3535.76,1656.69 3537.58,1707.69L3537.58,1741.04C3537.58,1742.13 3537.14,1743.17 3536.36,1743.92L3483.43,1795.07C3482.55,1795.92 3481.33,1796.32 3480.1,1796.16C3478.89,1795.99 3477.82,1795.27 3477.2,1794.21C3458,1761.31 3458.88,1732.17 3459.47,1724.86L3440.82,1700.76C3438.67,1704.94 3435.14,1710.82 3429.68,1717.37C3421.16,1727.6 3417.53,1741.17 3419.73,1754.6L3428.07,1805.56C3428.11,1805.81 3428.13,1806.07 3428.12,1806.33L3426.73,1849.92C3426.68,1851.29 3425.94,1852.55 3424.75,1853.24C3422.16,1854.77 3360.55,1890.51 3307.52,1890.51Z" style="fill:rgb(72,80,106);fill-rule:nonzero;"/>
    </g>
    <g transform="matrix(4.16667,0,0,4.16667,-12822.7,-5784.75)">
        <path d="M3303.16,1409.64L3303.16,1450.21C3303.16,1461.32 3298.63,1471.91 3290.69,1479.41L3283.91,1485.81L3290.91,1491.74C3298.66,1498.3 3303.16,1508.1 3303.16,1518.43L3303.16,1686.61C3303.16,1689.7 3299.16,1690.78 3297.69,1688.08L3244.54,1611.08C3242.63,1607.58 3241.85,1603.55 3242.29,1599.56C3244.46,1579.79 3245.61,1516.41 3200,1497.66C3195.37,1495.76 3195,1489.17 3199.43,1486.81L3258.97,1455.11L3293.64,1406.43C3296.65,1402.2 3303.16,1404.39 3303.16,1409.64Z" style="fill:rgb(159,171,206);fill-rule:nonzero;"/>
    </g>
    <g transform="matrix(4.16667,0,0,4.16667,-12822.7,-5784.75)">
        <path d="M3166.96,1498C3172.99,1495.12 3179.94,1494.91 3186.19,1497.25C3196.62,1501.15 3212.55,1507.52 3220.26,1524.05C3225.28,1534.79 3172.22,1530.64 3167.07,1570.85C3166.37,1576.34 3163.53,1581.34 3159.18,1584.76C3155.71,1587.48 3154.92,1587.48 3131.4,1608.64C3128.02,1611.68 3122.61,1610.03 3121.54,1605.61C3116,1582.82 3108.91,1525.68 3166.96,1498Z" style="fill:rgb(237,25,82);fill-rule:nonzero;"/>
    </g>
    <g transform="matrix(4.16667,0,0,4.16667,-12822.7,-5784.75)">
        <path d="M3172.69,1582.17C3172.65,1564.63 3183.67,1548.98 3200.2,1543.11L3219.59,1536.23C3224.23,1534.02 3228.84,1537.31 3229.95,1542.34C3233.04,1556.24 3236.88,1573.63 3233.44,1600.94C3232.97,1604.66 3230.42,1607.79 3226.87,1608.99L3181,1624.53C3176.76,1625.96 3172.41,1622.71 3172.59,1618.25C3172.74,1614.52 3172.73,1597.77 3172.69,1582.17Z" style="fill:rgb(159,171,206);fill-rule:nonzero;"/>
    </g>
    <g transform="matrix(4.16667,0,0,4.16667,-12822.7,-5784.75)">
        <path d="M3183.36,1629.67C3178.61,1630.71 3175.3,1635 3175.38,1639.86C3175.57,1650.58 3176.72,1669.18 3181.9,1684.5C3193.55,1718.98 3220.67,1744 3223.3,1770.05C3223.46,1771.65 3225.31,1772.47 3226.63,1771.53L3286.25,1704.23C3290.61,1701.13 3291.86,1695.2 3289.13,1690.6L3239.62,1619.64C3236.77,1615.97 3231.89,1614.54 3227.51,1616.11C3217.03,1619.86 3197.47,1626.57 3183.36,1629.67Z" style="fill:rgb(159,171,206);fill-rule:nonzero;"/>
    </g>
    <g transform="matrix(4.16667,0,0,4.16667,-12822.7,-5784.75)">
        <path d="M3140.05,1616.87C3134.82,1628.43 3127.54,1646.86 3125.61,1663.51C3124.76,1670.9 3121.95,1677.93 3117.21,1683.67C3114.29,1687.2 3111.35,1692.2 3109.77,1699.02C3107.63,1708.3 3101.05,1716.78 3095.73,1722.41C3092.62,1725.69 3087.09,1723.84 3086.59,1719.34C3084.23,1698.05 3084.77,1647.5 3134.63,1612.37C3137.66,1610.24 3141.57,1613.5 3140.05,1616.87Z" style="fill:rgb(159,171,206);fill-rule:nonzero;"/>
    </g>
    <g transform="matrix(4.16667,0,0,4.16667,-12822.7,-5784.75)">
        <path d="M3162.28,1595.7C3164.23,1593.33 3168.08,1594.89 3167.83,1597.95C3166.65,1612.72 3165.08,1641.25 3168.71,1658.5C3172.89,1678.39 3147.26,1713.57 3127.92,1727.54C3124.31,1730.16 3119.51,1726.44 3121.11,1722.27L3126.77,1707.47C3131.04,1696.31 3133.37,1684.48 3133.44,1672.53C3133.54,1655.28 3137.9,1625.22 3162.28,1595.7Z" style="fill:rgb(159,171,206);fill-rule:nonzero;"/>
    </g>
    <g transform="matrix(4.16667,0,0,4.16667,-12822.7,-5784.75)">
        <path d="M3303.16,1709.78L3303.16,1868.88C3303.16,1873.09 3298.4,1875.4 3295.25,1872.71L3277.77,1857.8C3267.2,1848.77 3253.9,1843.84 3240.17,1843.84C3234.15,1843.84 3229.17,1839 3228.81,1832.8L3226.31,1789.31C3226.02,1784.15 3228.31,1779.2 3232.39,1776.19L3295.52,1705.73C3298.72,1703.38 3303.16,1705.73 3303.16,1709.78Z" style="fill:rgb(159,171,206);fill-rule:nonzero;"/>
    </g>
    <g transform="matrix(4.16667,0,0,4.16667,-12822.7,-5784.75)">
        <path d="M3207.5,1748.08C3207.5,1748.08 3218.6,1793.35 3222.59,1836.62C3222.9,1839.95 3219.73,1842.63 3216.39,1842.9L3207.82,1843.77C3204.25,1844.06 3201.07,1841.52 3200.57,1837.97L3198.75,1825.08C3197.13,1813.68 3197.67,1802.08 3200.33,1790.88L3207.5,1748.08Z" style="fill:rgb(159,171,206);fill-rule:nonzero;"/>
    </g>
    <g transform="matrix(4.16667,0,0,4.16667,-12822.7,-5784.75)">
        <path d="M3311.61,1409.64L3311.61,1450.21C3311.61,1461.32 3316.13,1471.91 3324.08,1479.41L3330.86,1485.81L3323.85,1491.74C3316.1,1498.3 3311.61,1508.1 3311.61,1518.43L3311.61,1686.61C3311.61,1689.7 3315.6,1690.78 3317.08,1688.08L3370.22,1611.08C3372.13,1607.58 3372.91,1603.55 3372.48,1599.56C3370.31,1579.79 3369.16,1516.41 3414.77,1497.66C3419.4,1495.76 3419.76,1489.17 3415.33,1486.81L3355.8,1455.11L3321.13,1406.43C3318.12,1402.2 3311.61,1404.39 3311.61,1409.64Z" style="fill:rgb(159,171,206);fill-rule:nonzero;"/>
    </g>
    <g transform="matrix(4.16667,0,0,4.16667,-12822.7,-5784.75)">
        <path d="M3447.81,1498C3441.78,1495.12 3434.83,1494.91 3428.57,1497.25C3418.15,1501.15 3402.22,1507.52 3394.5,1524.05C3389.5,1534.76 3443.88,1531.23 3447.93,1570.7C3448.5,1576.31 3451.33,1581.45 3455.78,1584.91C3459.1,1587.48 3460.28,1587.87 3483.37,1608.64C3486.75,1611.68 3492.16,1610.03 3493.23,1605.61C3498.77,1582.82 3505.86,1525.68 3447.81,1498Z" style="fill:rgb(237,25,82);fill-rule:nonzero;"/>
    </g>
    <g transform="matrix(4.16667,0,0,4.16667,-12822.7,-5784.75)">
        <path d="M3442.07,1582.17C3442.12,1564.63 3431.09,1548.98 3414.57,1543.11L3395.18,1536.23C3390.53,1534.02 3385.93,1537.31 3384.81,1542.34C3381.73,1556.24 3377.88,1573.63 3381.33,1600.94C3381.8,1604.66 3384.35,1607.79 3387.9,1608.99L3433.77,1624.53C3438,1625.96 3442.36,1622.71 3442.18,1618.25C3442.03,1614.52 3442.03,1597.77 3442.07,1582.17Z" style="fill:rgb(159,171,206);fill-rule:nonzero;"/>
    </g>
    <g transform="matrix(4.16667,0,0,4.16667,-12822.7,-5784.75)">
        <path d="M3431.41,1629.67C3436.15,1630.71 3439.47,1635 3439.39,1639.86C3439.2,1650.58 3438.05,1669.18 3432.87,1684.5C3421.22,1718.98 3394.09,1744 3391.47,1770.05C3391.31,1771.65 3389.46,1772.47 3388.14,1771.53L3328.51,1705.23C3324.15,1702.13 3322.9,1696.2 3325.63,1691.6L3375.14,1619.64C3378,1615.97 3382.88,1614.54 3387.26,1616.11C3397.73,1619.86 3417.3,1626.57 3431.41,1629.67Z" style="fill:rgb(159,171,206);fill-rule:nonzero;"/>
    </g>
    <g transform="matrix(4.16667,0,0,4.16667,-12822.7,-5784.75)">
        <path d="M3474.72,1616.87C3479.95,1628.43 3487.23,1646.86 3489.15,1663.51C3490.01,1670.9 3492.82,1677.93 3497.56,1683.67C3500.47,1687.2 3503.42,1692.2 3504.99,1699.02C3507.14,1708.3 3513.71,1716.78 3519.04,1722.41C3522.14,1725.69 3527.68,1723.84 3528.17,1719.34C3530.54,1698.05 3529.99,1647.5 3480.14,1612.37C3477.11,1610.24 3473.19,1613.5 3474.72,1616.87Z" style="fill:rgb(159,171,206);fill-rule:nonzero;"/>
    </g>
    <g transform="matrix(4.16667,0,0,4.16667,-12822.7,-5784.75)">
        <path d="M3452.49,1595.7C3450.53,1593.33 3446.69,1594.89 3446.93,1597.95C3448.11,1612.72 3449.69,1641.25 3446.06,1658.5C3441.87,1678.39 3467.5,1713.57 3486.84,1727.54C3490.46,1730.16 3495.25,1726.44 3493.66,1722.27L3488,1707.47C3483.73,1696.31 3481.4,1684.48 3481.33,1672.53C3481.23,1655.28 3476.86,1625.22 3452.49,1595.7Z" style="fill:rgb(159,171,206);fill-rule:nonzero;"/>
    </g>
    <g transform="matrix(4.16667,0,0,4.16667,-12822.7,-5784.75)">
        <path d="M3311.61,1709.78L3311.61,1868.88C3311.61,1873.09 3316.37,1875.4 3319.52,1872.71L3336.99,1857.8C3347.57,1848.77 3360.87,1843.84 3374.59,1843.84C3380.62,1843.84 3385.6,1839 3385.95,1832.8L3388.45,1789.31C3388.75,1784.15 3386.45,1779.2 3382.37,1776.19L3319.25,1705.73C3316.05,1703.38 3311.61,1705.73 3311.61,1709.78Z" style="fill:rgb(159,171,206);fill-rule:nonzero;"/>
    </g>
    <g transform="matrix(4.16667,0,0,4.16667,-12822.7,-5784.75)">
        <path d="M3407.26,1748.08C3407.26,1748.08 3396.17,1793.35 3392.18,1836.62C3391.87,1839.95 3395.04,1842.63 3398.38,1842.9L3406.95,1843.77C3410.52,1844.06 3413.7,1841.52 3414.2,1837.97L3416.02,1825.08C3417.63,1813.68 3417.09,1802.08 3414.43,1790.88L3407.26,1748.08Z" style="fill:rgb(159,171,206);fill-rule:nonzero;"/>
    </g>
</svg>
