<?xml version="1.0" encoding="UTF-8" standalone="no"?>
<!DOCTYPE svg PUBLIC "-//W3C//DTD SVG 1.1//EN" "http://www.w3.org/Graphics/SVG/1.1/DTD/svg11.dtd">
<svg width="100%" height="100%" viewBox="0 0 2014 1827" version="1.1" xmlns="http://www.w3.org/2000/svg" xmlns:xlink="http://www.w3.org/1999/xlink" xml:space="preserve" xmlns:serif="http://www.serif.com/" style="fill-rule:evenodd;clip-rule:evenodd;stroke-linejoin:round;stroke-miterlimit:2;">
    <g transform="matrix(4.16667,0,0,4.16667,-6394.48,-40.5375)">
        <path d="M1821.57,9.729C1820.48,9.729 1819.38,9.953 1818.35,10.407L1798.37,19.196C1791.21,22.343 1783.63,23.938 1775.81,23.938C1767.62,23.938 1759.69,22.191 1752.25,18.745L1734.4,10.471C1733.33,9.975 1732.18,9.729 1731.04,9.729C1729.53,9.729 1728.04,10.153 1726.73,10.987C1724.43,12.457 1723.04,14.999 1723.04,17.729L1723.04,40.283L1643.25,79.177C1636.99,81.255 1589.06,98.318 1575.01,138.126C1562.64,173.149 1569.21,210.082 1572.45,223.868C1561.54,232.676 1536.47,258.252 1534.68,308.446C1534.62,310.003 1535.02,311.543 1535.83,312.876L1591.2,404.308C1592.66,406.706 1595.25,408.164 1598.05,408.164C1598.12,408.164 1598.2,408.163 1598.27,408.161C1601.15,408.08 1603.76,406.46 1605.11,403.918C1621.77,372.562 1621.99,345.049 1621.44,335.545L1636.63,315.917C1638.92,319.728 1641.96,324.176 1645.91,328.926C1654.16,338.823 1657.66,351.962 1655.53,364.972L1646.78,418.477C1646.09,422.71 1648.86,426.737 1653.06,427.604L1729.58,443.384C1744.67,446.497 1760.14,448.076 1775.55,448.076C1790.67,448.076 1805.85,446.556 1820.68,443.557L1899.52,427.61C1903.74,426.757 1906.52,422.722 1905.83,418.477L1897.07,364.972C1894.94,351.962 1898.45,338.823 1906.69,328.926C1910.65,324.176 1913.68,319.728 1915.97,315.917L1931.16,335.544C1930.59,345.57 1930.86,375.624 1950.38,409.089C1951.81,411.548 1954.44,413.058 1957.29,413.058C1957.32,413.058 1957.36,413.058 1957.4,413.057C1960.28,413.017 1962.92,411.426 1964.31,408.894L2016.95,312.569C2017.64,311.307 2017.98,309.883 2017.93,308.446C2016.13,258.252 1991.07,232.676 1980.15,223.868C1983.4,210.082 1989.96,173.149 1977.6,138.126C1963.55,98.318 1915.62,81.255 1909.35,79.177L1829.57,40.283L1829.57,17.729C1829.57,15.027 1828.2,12.507 1825.94,11.03C1824.62,10.168 1823.1,9.729 1821.57,9.729Z" style="fill:rgb(72,80,106);fill-rule:nonzero;"/>
    </g>
    <g transform="matrix(4.16667,0,0,4.16667,-6394.48,-40.5375)">
        <path d="M1770.03,222.362L1770.03,258.481C1770.03,261.224 1768.02,263.614 1765.16,264.275L1744.28,269.107C1733.5,271.6 1716.33,279.684 1716.33,279.684C1710.36,285.847 1680.22,236.392 1703.86,236.392L1763.62,216.392C1767.16,216.392 1770.03,219.065 1770.03,222.362Z" style="fill:rgb(159,171,206);fill-rule:nonzero;"/>
    </g>
    <g transform="matrix(4.16667,0,0,4.16667,-6394.48,-40.5375)">
        <path d="M1782.09,222.362L1782.09,258.481C1782.09,261.224 1784.09,263.614 1786.95,264.275L1807.84,269.107C1818.61,271.6 1835.78,279.684 1835.78,279.684C1841.76,285.847 1873.03,236.392 1848.26,236.392L1788.49,216.392C1784.96,216.392 1782.09,219.065 1782.09,222.362Z" style="fill:rgb(159,171,206);fill-rule:nonzero;"/>
    </g>
    <g transform="matrix(4.16667,0,0,4.16667,-6394.48,-40.5375)">
        <path d="M1741.32,32.68L1753.85,49.001C1756.25,52.128 1758.1,55.641 1759.32,59.389L1774.86,107.017C1775.03,107.561 1775.12,108.13 1775.12,108.702C1775.12,114.004 1768.31,116.164 1765.25,111.834C1752.87,94.317 1733.67,61.927 1737.36,33.717C1737.61,31.768 1740.12,31.121 1741.32,32.68Z" style="fill:rgb(159,171,206);fill-rule:nonzero;"/>
    </g>
    <g transform="matrix(4.16667,0,0,4.16667,-6394.48,-40.5375)">
        <path d="M1667.09,81.854L1717.94,56.823C1723.33,54.17 1729.78,57.185 1731.21,63.021C1733.08,70.69 1736.37,81.25 1741.92,91.877C1744.76,97.309 1740.14,103.628 1734.11,102.532L1668.3,90.568C1663.91,89.769 1663.08,83.826 1667.09,81.854Z" style="fill:rgb(159,171,206);fill-rule:nonzero;"/>
    </g>
    <g transform="matrix(4.16667,0,0,4.16667,-6394.48,-40.5375)">
        <path d="M1690.56,106.674C1690.56,106.674 1653.32,88.056 1627.14,99.693C1600.96,111.329 1570.12,131.112 1585.83,221.299C1585.83,221.299 1627.14,190.461 1632.96,167.769C1638.78,145.077 1663.8,108.42 1690.56,106.674Z" style="fill:rgb(237,25,82);fill-rule:nonzero;"/>
    </g>
    <g transform="matrix(4.16667,0,0,4.16667,-6394.48,-40.5375)">
        <path d="M1762.75,128.826C1767.42,131.58 1770.27,136.592 1770.27,142.011L1770.27,188.731C1770.27,197.435 1764.23,204.726 1756.1,206.632C1751.41,207.733 1746.72,208.852 1742.15,210.386L1692.3,227.117C1682.69,227.117 1673.62,222.629 1667.83,214.949C1661.68,206.777 1651.06,197.061 1634.36,194.562C1630.85,194.037 1629.13,190.022 1631.23,187.163C1636.89,179.452 1645.44,166.518 1648.08,155.55C1652.16,138.676 1684.16,109.584 1706.27,107.838C1722.59,106.55 1749.68,121.108 1762.75,128.826Z" style="fill:rgb(159,171,206);fill-rule:nonzero;"/>
    </g>
    <g transform="matrix(4.16667,0,0,4.16667,-6394.48,-40.5375)">
        <path d="M1630.32,215.75L1630.32,244.573C1630.32,244.573 1617.23,315.117 1581.95,341.881C1576.82,345.773 1569.4,342.583 1568.66,336.187L1564.56,301.05C1563.63,293.004 1564.7,284.852 1567.68,277.322L1587.57,227.117C1587.57,227.117 1609.68,212.571 1618.99,204.425C1625.25,204.425 1630.32,209.496 1630.32,215.75Z" style="fill:rgb(159,171,206);fill-rule:nonzero;"/>
    </g>
    <g transform="matrix(4.16667,0,0,4.16667,-6394.48,-40.5375)">
        <path d="M1568.73,249.414C1570.35,248.129 1572.56,250.036 1571.56,251.844C1566.9,260.211 1559.86,274.733 1558.73,287.691C1557.63,300.461 1557.96,318.506 1558.33,329.548C1558.41,331.894 1555.26,332.724 1554.17,330.644L1548.76,320.294C1546.46,315.884 1545.33,310.953 1545.54,305.982C1546.1,292.255 1549.7,264.484 1568.73,249.414Z" style="fill:rgb(159,171,206);fill-rule:nonzero;"/>
    </g>
    <g transform="matrix(4.16667,0,0,4.16667,-6394.48,-40.5375)">
        <path d="M1632.5,270.349L1632.5,279.134C1632.5,282.921 1631.84,286.674 1630.51,290.219C1627.66,297.813 1621.64,311.016 1611.77,319.839C1610.72,320.776 1609.14,319.579 1609.76,318.317C1614.41,308.804 1624.4,287.574 1629.83,269.939C1630.29,268.438 1632.5,268.778 1632.5,270.349Z" style="fill:rgb(159,171,206);fill-rule:nonzero;"/>
    </g>
    <g transform="matrix(4.16667,0,0,4.16667,-6394.48,-40.5375)">
        <path d="M1770.27,279.47L1770.27,318.079C1770.27,320.994 1767.91,323.358 1764.99,323.358L1730.38,323.358C1726.98,323.358 1723.83,321.541 1722.12,318.591L1718.1,311.627C1714.33,305.108 1715.88,296.822 1721.75,292.105C1730.76,284.861 1745.64,275.702 1764.52,274.209C1767.61,273.965 1770.27,276.368 1770.27,279.47Z" style="fill:rgb(159,171,206);fill-rule:nonzero;"/>
    </g>
    <g transform="matrix(4.16667,0,0,4.16667,-6394.48,-40.5375)">
        <path d="M1763.89,400.163L1739.29,400.163C1733.05,400.163 1727.99,395.105 1727.99,388.867L1727.99,343.995C1727.99,337.756 1733.05,332.699 1739.29,332.699L1763.89,332.699C1767.42,332.699 1770.27,335.557 1770.27,339.082L1770.27,393.78C1770.27,397.305 1767.42,400.163 1763.89,400.163Z" style="fill:rgb(159,171,206);fill-rule:nonzero;"/>
    </g>
    <g transform="matrix(4.16667,0,0,4.16667,-6394.48,-40.5375)">
        <path d="M1677.86,302.806L1693.78,320.881C1700.49,328.497 1704.19,338.297 1704.19,348.444L1704.19,370.507C1704.19,372.242 1702.15,373.175 1700.84,372.044L1686.94,360.079C1678.93,353.176 1674.32,343.123 1674.32,332.545L1674.32,304.145C1674.32,302.276 1676.63,301.403 1677.86,302.806Z" style="fill:rgb(159,171,206);fill-rule:nonzero;"/>
    </g>
    <g transform="matrix(4.16667,0,0,4.16667,-6394.48,-40.5375)">
        <path d="M1680.46,365.265L1696.22,379.872C1701.3,384.576 1704.19,391.184 1704.19,398.106L1704.19,414.622C1704.19,417.933 1700.14,419.539 1697.87,417.128L1681.64,399.887C1676.94,394.888 1674.32,388.281 1674.32,381.416L1674.32,367.947C1674.32,364.757 1678.12,363.097 1680.46,365.265Z" style="fill:rgb(159,171,206);fill-rule:nonzero;"/>
    </g>
    <g transform="matrix(4.16667,0,0,4.16667,-6394.48,-40.5375)">
        <path d="M1811.29,32.68L1798.76,49.001C1796.36,52.128 1794.51,55.641 1793.29,59.389L1777.75,107.017C1777.57,107.561 1777.48,108.13 1777.48,108.702C1777.48,114.004 1784.29,116.164 1787.35,111.834C1799.74,94.317 1818.93,61.927 1815.25,33.717C1814.99,31.768 1812.48,31.121 1811.29,32.68Z" style="fill:rgb(159,171,206);fill-rule:nonzero;"/>
    </g>
    <g transform="matrix(4.16667,0,0,4.16667,-6394.48,-40.5375)">
        <path d="M1885.52,81.854L1834.67,56.823C1829.28,54.17 1822.82,57.185 1821.4,63.021C1819.52,70.69 1816.24,81.25 1810.69,91.877C1807.85,97.309 1812.47,103.628 1818.5,102.532L1884.3,90.568C1888.7,89.769 1889.53,83.826 1885.52,81.854Z" style="fill:rgb(159,171,206);fill-rule:nonzero;"/>
    </g>
    <g transform="matrix(4.16667,0,0,4.16667,-6394.48,-40.5375)">
        <path d="M1862.05,106.674C1862.05,106.674 1899.28,88.056 1925.47,99.693C1951.65,111.329 1982.49,131.112 1966.78,221.299C1966.78,221.299 1925.47,190.461 1919.65,167.769C1913.83,145.077 1888.81,108.42 1862.05,106.674Z" style="fill:rgb(237,25,82);fill-rule:nonzero;"/>
    </g>
    <g transform="matrix(4.16667,0,0,4.16667,-6394.48,-40.5375)">
        <path d="M1789.85,128.826C1785.19,131.58 1782.33,136.592 1782.33,142.011L1782.33,188.731C1782.33,197.435 1788.38,204.726 1796.5,206.632C1801.2,207.733 1805.89,208.852 1810.46,210.386L1860.31,227.117C1869.92,227.117 1878.99,222.629 1884.77,214.949C1890.92,206.777 1901.55,197.061 1918.25,194.562C1921.76,194.037 1923.47,190.022 1921.38,187.163C1915.72,179.452 1907.17,166.518 1904.52,155.55C1900.45,138.676 1868.45,109.584 1846.34,107.838C1830.02,106.55 1802.93,121.108 1789.85,128.826Z" style="fill:rgb(159,171,206);fill-rule:nonzero;"/>
    </g>
    <g transform="matrix(4.16667,0,0,4.16667,-6394.48,-40.5375)">
        <path d="M1922.29,215.75L1922.29,244.573C1922.29,244.573 1935.38,315.117 1970.65,341.881C1975.78,345.773 1983.2,342.583 1983.95,336.187L1988.04,301.05C1988.98,293.004 1987.91,284.852 1984.93,277.322L1965.03,227.117C1965.03,227.117 1942.92,212.571 1933.61,204.425C1927.36,204.425 1922.29,209.496 1922.29,215.75Z" style="fill:rgb(159,171,206);fill-rule:nonzero;"/>
    </g>
    <g transform="matrix(4.16667,0,0,4.16667,-6394.48,-40.5375)">
        <path d="M1983.88,249.414C1982.26,248.129 1980.04,250.036 1981.05,251.844C1985.7,260.211 1992.75,274.733 1993.87,287.691C1994.98,300.461 1994.64,318.506 1994.28,329.548C1994.2,331.894 1997.35,332.724 1998.44,330.644L2003.84,320.294C2006.15,315.884 2007.27,310.953 2007.07,305.982C2006.5,292.255 2002.91,264.484 1983.88,249.414Z" style="fill:rgb(159,171,206);fill-rule:nonzero;"/>
    </g>
    <g transform="matrix(4.16667,0,0,4.16667,-6394.48,-40.5375)">
        <path d="M1920.1,270.349L1920.1,279.134C1920.1,282.921 1920.77,286.674 1922.1,290.219C1924.95,297.813 1930.96,311.016 1940.84,319.839C1941.89,320.776 1943.46,319.579 1942.85,318.317C1938.19,308.804 1928.21,287.574 1922.78,269.939C1922.31,268.438 1920.1,268.778 1920.1,270.349Z" style="fill:rgb(159,171,206);fill-rule:nonzero;"/>
    </g>
    <g transform="matrix(4.16667,0,0,4.16667,-6394.48,-40.5375)">
        <path d="M1782.33,279.47L1782.33,318.079C1782.33,320.994 1784.7,323.358 1787.61,323.358L1822.22,323.358C1825.63,323.358 1828.78,321.541 1830.48,318.591L1834.51,311.627C1838.28,305.108 1836.73,296.822 1830.86,292.105C1821.84,284.861 1806.96,275.702 1788.08,274.209C1784.99,273.965 1782.33,276.368 1782.33,279.47Z" style="fill:rgb(159,171,206);fill-rule:nonzero;"/>
    </g>
    <g transform="matrix(4.16667,0,0,4.16667,-6394.48,-40.5375)">
        <path d="M1788.72,400.163L1813.32,400.163C1819.56,400.163 1824.61,395.105 1824.61,388.867L1824.61,343.995C1824.61,337.756 1819.56,332.699 1813.32,332.699L1788.72,332.699C1785.19,332.699 1782.33,335.557 1782.33,339.082L1782.33,393.78C1782.33,397.305 1785.19,400.163 1788.72,400.163Z" style="fill:rgb(159,171,206);fill-rule:nonzero;"/>
    </g>
    <g transform="matrix(4.16667,0,0,4.16667,-6394.48,-40.5375)">
        <path d="M1874.74,302.806L1858.83,320.881C1852.12,328.497 1848.42,338.297 1848.42,348.444L1848.42,370.507C1848.42,372.242 1850.46,373.175 1851.77,372.044L1865.67,360.079C1873.68,353.176 1878.29,343.123 1878.29,332.545L1878.29,304.145C1878.29,302.276 1875.98,301.403 1874.74,302.806Z" style="fill:rgb(159,171,206);fill-rule:nonzero;"/>
    </g>
    <g transform="matrix(4.16667,0,0,4.16667,-6394.48,-40.5375)">
        <path d="M1872.15,365.265L1856.38,379.872C1851.31,384.576 1848.42,391.184 1848.42,398.106L1848.42,414.622C1848.42,417.933 1852.47,419.539 1854.74,417.128L1870.97,399.887C1875.67,394.888 1878.29,388.281 1878.29,381.416L1878.29,367.947C1878.29,364.757 1874.49,363.097 1872.15,365.265Z" style="fill:rgb(159,171,206);fill-rule:nonzero;"/>
    </g>
</svg>
