<?xml version="1.0" encoding="UTF-8" standalone="no"?>
<!DOCTYPE svg PUBLIC "-//W3C//DTD SVG 1.1//EN" "http://www.w3.org/Graphics/SVG/1.1/DTD/svg11.dtd">
<svg width="100%" height="100%" viewBox="0 0 2014 5047" version="1.1" xmlns="http://www.w3.org/2000/svg" xmlns:xlink="http://www.w3.org/1999/xlink" xml:space="preserve" xmlns:serif="http://www.serif.com/" style="fill-rule:evenodd;clip-rule:evenodd;stroke-linejoin:round;stroke-miterlimit:2;">
    <g transform="matrix(4.16667,0,0,4.16667,0.00021028,-2843.15)">
        <path d="M155.886,710.417C155.886,710.417 118.647,691.797 92.464,703.434C66.28,715.071 35.442,734.854 51.152,825.041C51.152,825.041 92.464,794.203 98.282,771.511C104.101,748.819 129.119,712.162 155.886,710.417Z" style="fill:rgb(237,26,82);fill-rule:nonzero;"/>
    </g>
    <g transform="matrix(4.16667,0,0,4.16667,0.00021028,-2843.15)">
        <path d="M327.372,710.417C327.372,710.417 364.611,691.797 390.794,703.434C416.977,715.071 447.815,734.854 432.105,825.041C432.105,825.041 390.794,794.203 384.975,771.511C379.157,748.819 354.137,712.162 327.372,710.417Z" style="fill:rgb(237,26,82);fill-rule:nonzero;"/>
    </g>
</svg>
