<?xml version="1.0" encoding="UTF-8" standalone="no"?>
<!DOCTYPE svg PUBLIC "-//W3C//DTD SVG 1.1//EN" "http://www.w3.org/Graphics/SVG/1.1/DTD/svg11.dtd">
<svg width="100%" height="100%" viewBox="0 0 1398 2043" version="1.1" xmlns="http://www.w3.org/2000/svg" xmlns:xlink="http://www.w3.org/1999/xlink" xml:space="preserve" xmlns:serif="http://www.serif.com/" style="fill-rule:evenodd;clip-rule:evenodd;stroke-linejoin:round;stroke-miterlimit:2;">
    <g transform="matrix(4.16667,0,0,4.16667,-307.956,-8743.83)">
        <path d="M363.262,2098.52L119.999,2098.52C117.857,2098.52 115.804,2099.38 114.301,2100.91C112.797,2102.43 111.968,2104.5 111.999,2106.64L113.432,2204.66C110.622,2209.96 102.736,2225.68 94.692,2249.21C85.664,2275.61 74.739,2317.3 73.967,2365.95C72.941,2430.58 85.875,2500.95 93.603,2542.99C96.903,2560.94 99.51,2575.12 99.51,2580.44C99.51,2584.85 103.075,2588.43 107.482,2588.44L197.034,2588.77L197.063,2588.77C199.908,2588.77 202.54,2587.26 203.974,2584.8C218.407,2560.03 229.816,2524.06 237.882,2477.87C239.285,2469.84 240.527,2461.85 241.628,2453.97C242.728,2461.85 243.971,2469.84 245.373,2477.87C253.44,2524.06 264.848,2560.03 279.281,2584.8C280.715,2587.26 283.348,2588.77 286.193,2588.77L286.222,2588.77L375.774,2588.44C380.181,2588.43 383.745,2584.85 383.745,2580.44C383.745,2575.12 386.352,2560.94 389.652,2542.99C393.493,2522.1 398.753,2493.48 402.799,2462.74C407.618,2426.13 409.741,2394.47 409.288,2365.95C408.516,2317.3 397.592,2275.61 388.563,2249.21C380.519,2225.68 372.633,2209.96 369.824,2204.66L371.253,2106.85C371.258,2106.74 371.26,2106.63 371.26,2106.52C371.26,2102.1 367.68,2098.52 363.262,2098.52Z" style="fill:rgb(72,80,106);fill-rule:nonzero;"/>
    </g>
    <g transform="matrix(4.16667,0,0,4.16667,-307.956,-8743.83)">
        <path d="M230.523,2106.52L206.929,2106.52C200.367,2106.52 195.046,2111.84 195.046,2118.41L195.046,2139.46C195.046,2171.69 202.792,2203.45 217.632,2232.06L226.017,2248.23C228.464,2252.95 235.598,2251.21 235.598,2245.9L235.598,2111.6C235.598,2108.8 233.326,2106.52 230.523,2106.52Z" style="fill:rgb(159,171,206);fill-rule:nonzero;"/>
    </g>
    <g transform="matrix(4.16667,0,0,4.16667,-307.956,-8743.83)">
        <path d="M151.951,2111.71L153.764,2113.64C171.557,2132.66 181.811,2157.5 182.609,2183.53L182.92,2193.69C183.055,2198.1 177.561,2200.23 174.682,2196.88L143.472,2160.55C135.523,2151.29 131.598,2139.25 132.568,2127.08L133.273,2118.24C134.02,2108.87 145.532,2104.85 151.951,2111.71Z" style="fill:rgb(159,171,206);fill-rule:nonzero;"/>
    </g>
    <g transform="matrix(4.16667,0,0,4.16667,-307.956,-8743.83)">
        <path d="M190.385,2250.16L220.743,2293.31C225.035,2299.41 227.089,2306.8 226.557,2314.24L218.913,2421.26C218.796,2422.89 216.504,2423.16 216.018,2421.59L193.317,2348.47L184.154,2252.46C183.819,2248.95 188.356,2247.28 190.385,2250.16Z" style="fill:rgb(159,171,206);fill-rule:nonzero;"/>
    </g>
    <g transform="matrix(4.16667,0,0,4.16667,-307.956,-8743.83)">
        <path d="M98.557,2316.01C99.391,2313.02 103.823,2313.79 103.58,2316.88C101.269,2346.37 99.068,2404.28 112.59,2443.6C119.887,2464.82 124.889,2477.07 128.279,2484.11C132.368,2492.61 133.908,2502.1 132.772,2511.46L131.459,2522.29C130.59,2529.45 121.361,2531.7 117.232,2525.79C105.972,2509.66 90.765,2477.29 89.434,2419.14C88.205,2365.45 93.685,2333.48 98.557,2316.01Z" style="fill:rgb(245,132,102);fill-rule:nonzero;"/>
    </g>
    <g transform="matrix(4.16667,0,0,4.16667,-307.956,-8743.83)">
        <path d="M194.283,2384.23L198.146,2396.05C208.901,2428.96 212.655,2463.75 209.165,2498.2L205.685,2532.54C203.93,2549.87 186.575,2561.1 170.053,2555.61C157.33,2551.38 149.587,2538.51 151.814,2525.29L153.017,2518.14C155.247,2504.89 160.508,2492.28 168.727,2481.65C177.606,2470.16 188.788,2444.02 189.974,2384.87C190.024,2382.38 193.511,2381.87 194.283,2384.23Z" style="fill:rgb(245,132,102);fill-rule:nonzero;"/>
    </g>
    <g transform="matrix(4.16667,0,0,4.16667,-307.956,-8743.83)">
        <path d="M252.733,2106.52L276.326,2106.52C282.889,2106.52 288.209,2111.84 288.209,2118.41L288.209,2139.46C288.209,2171.69 280.463,2203.45 265.624,2232.06L257.239,2248.23C254.792,2252.95 247.658,2251.21 247.658,2245.9L247.658,2111.6C247.658,2108.8 249.93,2106.52 252.733,2106.52Z" style="fill:rgb(159,171,206);fill-rule:nonzero;"/>
    </g>
    <g transform="matrix(4.16667,0,0,4.16667,-307.956,-8743.83)">
        <path d="M331.304,2111.71L329.492,2113.64C311.699,2132.66 301.444,2157.5 300.647,2183.53L300.336,2193.69C300.201,2198.1 305.694,2200.23 308.573,2196.88L339.783,2160.55C347.732,2151.29 351.658,2139.25 350.688,2127.08L349.983,2118.24C349.236,2108.87 337.724,2104.85 331.304,2111.71Z" style="fill:rgb(159,171,206);fill-rule:nonzero;"/>
    </g>
    <g transform="matrix(4.16667,0,0,4.16667,-307.956,-8743.83)">
        <path d="M292.871,2250.16L262.513,2293.31C258.221,2299.41 256.167,2306.8 256.699,2314.24L264.343,2421.26C264.459,2422.89 266.752,2423.16 267.238,2421.59L289.939,2348.47L299.101,2252.46C299.436,2248.95 294.9,2247.28 292.871,2250.16Z" style="fill:rgb(159,171,206);fill-rule:nonzero;"/>
    </g>
    <g transform="matrix(4.16667,0,0,4.16667,-307.956,-8743.83)">
        <path d="M390.406,2317.65C389.697,2314.63 385.237,2315.22 385.352,2318.32C386.441,2347.88 386.245,2405.83 371.108,2444.56C362.939,2465.46 357.435,2477.49 353.756,2484.38C349.32,2492.7 347.389,2502.12 348.136,2511.52L349.001,2522.39C349.573,2529.58 358.7,2532.22 363.071,2526.48C374.988,2510.83 391.52,2479.12 395.255,2421.07C398.704,2367.48 394.551,2335.31 390.406,2317.65Z" style="fill:rgb(245,132,102);fill-rule:nonzero;"/>
    </g>
    <g transform="matrix(4.16667,0,0,4.16667,-307.956,-8743.83)">
        <path d="M288.973,2384.23L285.109,2396.05C274.354,2428.96 270.601,2463.75 274.091,2498.2L277.571,2532.54C279.326,2549.87 296.68,2561.1 313.203,2555.61C325.926,2551.38 333.668,2538.51 331.442,2525.29L330.239,2518.14C328.008,2504.89 322.748,2492.28 314.529,2481.65C305.649,2470.16 294.468,2444.02 293.281,2384.87C293.232,2382.38 289.744,2381.87 288.973,2384.23Z" style="fill:rgb(245,132,102);fill-rule:nonzero;"/>
    </g>
    <g transform="matrix(4.16667,0,0,4.16667,-307.956,-8743.83)">
        <path d="M136.034,2159.5L148.941,2178.3C151.676,2182.29 152.125,2187.41 150.119,2191.8C140.832,2212.16 114.147,2271.54 104.059,2303.59C103.234,2306.21 99.387,2305.81 99.152,2303.08C98.434,2294.71 99.339,2280.88 106.963,2260.84C116.957,2234.58 125.821,2211.35 129.955,2200.52C131.588,2196.24 132.423,2191.71 132.423,2187.13L132.423,2160.62C132.423,2158.67 134.933,2157.9 136.034,2159.5Z" style="fill:rgb(159,171,206);fill-rule:nonzero;"/>
    </g>
    <g transform="matrix(4.16667,0,0,4.16667,-307.956,-8743.83)">
        <path d="M349.973,2159.5L337.065,2178.3C334.331,2182.29 333.881,2187.41 335.887,2191.8C345.174,2212.16 371.859,2271.54 381.948,2303.59C382.772,2306.21 386.619,2305.81 386.854,2303.08C387.572,2294.71 386.667,2280.88 379.043,2260.84C369.05,2234.58 360.186,2211.35 356.051,2200.52C354.418,2196.24 353.584,2191.71 353.584,2187.13L353.584,2160.62C353.584,2158.67 351.073,2157.9 349.973,2159.5Z" style="fill:rgb(159,171,206);fill-rule:nonzero;"/>
    </g>
    <g transform="matrix(4.16667,0,0,4.16667,-307.956,-8743.83)">
        <path d="M317.73,2461.96L316.721,2458.7C299.949,2404.52 297.784,2346.4 310.475,2290.97L324.65,2229.05C326.479,2221.06 336.811,2220.23 339.757,2227.83C351.357,2257.77 369.705,2309.63 371.492,2342.3C375.567,2416.79 362.517,2419.05 353.027,2460.48C348.646,2479.61 323.518,2480.66 317.73,2461.96Z" style="fill:rgb(237,25,82);fill-rule:nonzero;"/>
    </g>
    <g transform="matrix(4.16667,0,0,4.16667,-307.956,-8743.83)">
        <path d="M166.617,2461.96L167.626,2458.7C184.398,2404.52 186.563,2346.4 173.872,2290.97L159.697,2229.05C157.868,2221.06 147.536,2220.23 144.59,2227.83C132.99,2257.77 114.642,2309.63 112.855,2342.3C108.78,2416.79 121.83,2419.05 131.32,2460.48C135.701,2479.61 160.829,2480.66 166.617,2461.96Z" style="fill:rgb(237,25,82);fill-rule:nonzero;"/>
    </g>
</svg>
