<?xml version="1.0" encoding="UTF-8" standalone="no"?>
<!DOCTYPE svg PUBLIC "-//W3C//DTD SVG 1.1//EN" "http://www.w3.org/Graphics/SVG/1.1/DTD/svg11.dtd">
<svg width="100%" height="100%" viewBox="0 0 2014 5047" version="1.1" xmlns="http://www.w3.org/2000/svg" xmlns:xlink="http://www.w3.org/1999/xlink" xml:space="preserve" xmlns:serif="http://www.serif.com/" style="fill-rule:evenodd;clip-rule:evenodd;stroke-linejoin:round;stroke-miterlimit:2;">
    <g transform="matrix(4.16667,0,0,4.16667,2.10671,-7418.88)">
        <path d="M317.73,2461.96L316.721,2458.7C299.949,2404.52 297.784,2346.4 310.475,2290.97L324.65,2229.05C326.479,2221.06 336.811,2220.23 339.757,2227.83C351.357,2257.77 369.705,2309.63 371.492,2342.3C375.567,2416.79 362.517,2419.05 353.027,2460.48C348.646,2479.61 323.518,2480.66 317.73,2461.96Z" style="fill:rgb(237,26,82);fill-rule:nonzero;"/>
    </g>
    <g transform="matrix(4.16667,0,0,4.16667,2.10671,-7418.88)">
        <path d="M166.617,2461.96L167.626,2458.7C184.398,2404.52 186.563,2346.4 173.872,2290.97L159.697,2229.05C157.868,2221.06 147.536,2220.23 144.59,2227.83C132.99,2257.77 114.642,2309.63 112.855,2342.3C108.78,2416.79 121.83,2419.05 131.32,2460.48C135.701,2479.61 160.829,2480.66 166.617,2461.96Z" style="fill:rgb(237,26,82);fill-rule:nonzero;"/>
    </g>
</svg>
