<?xml version="1.0" encoding="UTF-8" standalone="no"?>
<!DOCTYPE svg PUBLIC "-//W3C//DTD SVG 1.1//EN" "http://www.w3.org/Graphics/SVG/1.1/DTD/svg11.dtd">
<svg width="100%" height="100%" viewBox="0 0 1398 2033" version="1.1" xmlns="http://www.w3.org/2000/svg" xmlns:xlink="http://www.w3.org/1999/xlink" xml:space="preserve" xmlns:serif="http://www.serif.com/" style="fill-rule:evenodd;clip-rule:evenodd;stroke-linejoin:round;stroke-miterlimit:2;">
    <g transform="matrix(4.16667,0,0,4.16667,-6702.43,-8748.71)">
        <path d="M1897.94,2099.69L1654.67,2099.69C1652.53,2099.69 1650.47,2100.55 1648.97,2102.08C1647.47,2103.61 1646.64,2105.68 1646.67,2107.83L1648.1,2193.49C1645.29,2198.81 1637.41,2214.52 1629.37,2238.04C1620.34,2264.44 1609.41,2306.13 1608.64,2354.78C1607.62,2419.42 1620.55,2494.65 1628.28,2539.59C1631.58,2558.77 1634.18,2573.92 1634.18,2579.27C1634.18,2583.68 1637.75,2587.26 1642.16,2587.27L1731.71,2587.6L1731.74,2587.6C1734.58,2587.6 1737.21,2586.09 1738.65,2583.63C1753.05,2558.92 1764.46,2521.75 1772.57,2473.16C1773.91,2465.1 1775.16,2456.71 1776.3,2448.07C1777.45,2456.71 1778.69,2465.1 1780.04,2473.16C1788.14,2521.75 1799.55,2558.92 1813.96,2583.63C1815.39,2586.09 1818.02,2587.6 1820.87,2587.6L1820.9,2587.6L1910.45,2587.27C1914.86,2587.26 1918.42,2583.68 1918.42,2579.27C1918.42,2573.92 1921.02,2558.77 1924.32,2539.59C1928.16,2517.26 1933.42,2486.68 1937.47,2454.37C1942.29,2415.88 1944.42,2383.3 1943.96,2354.78C1943.19,2306.13 1932.27,2264.44 1923.24,2238.04C1915.2,2214.52 1907.32,2198.81 1904.5,2193.49L1905.93,2108.03L1905.93,2107.69C1905.93,2103.27 1902.35,2099.69 1897.94,2099.69Z" style="fill:rgb(72,80,106);fill-rule:nonzero;"/>
    </g>
    <g transform="matrix(4.16667,0,0,4.16667,-6702.43,-8748.71)">
        <path d="M1676.63,2155.11C1697.1,2154.6 1743.45,2158.65 1770.92,2201.83L1770.92,2289.47C1770.92,2289.47 1746.26,2338.09 1699.06,2318.32C1659.49,2301.75 1663.3,2198.81 1665.56,2165.95C1665.98,2159.93 1670.77,2155.26 1676.63,2155.11Z" style="fill:rgb(237,25,82);fill-rule:nonzero;"/>
    </g>
    <g transform="matrix(4.16667,0,0,4.16667,-6702.43,-8748.71)">
        <path d="M1735.53,2332.51C1742.22,2329.82 1750.75,2326.11 1757.29,2322.3C1760.27,2320.57 1763.93,2322.98 1763.49,2326.4L1751.79,2455.84C1751.43,2459.74 1745.75,2459.79 1745.32,2455.9C1741.7,2422.85 1735.48,2373.73 1728.16,2347.33C1726.47,2341.24 1729.66,2334.86 1735.53,2332.51Z" style="fill:rgb(159,171,206);fill-rule:nonzero;"/>
    </g>
    <g transform="matrix(4.16667,0,0,4.16667,-6702.43,-8748.71)">
        <path d="M1715.98,2341.73L1741.27,2480.63C1743.5,2492.87 1742.19,2505.5 1737.5,2517.03L1715.96,2569.97C1713.61,2575.75 1705.14,2574.76 1704.19,2568.6C1697.51,2525.26 1684.74,2424.52 1695.26,2342.25C1696.1,2335.64 1702.84,2331.51 1709.13,2333.71C1712.69,2334.96 1715.31,2338.02 1715.98,2341.73Z" style="fill:rgb(159,171,206);fill-rule:nonzero;"/>
    </g>
    <g transform="matrix(4.16667,0,0,4.16667,-6702.43,-8748.71)">
        <path d="M1686.75,2327.11C1688.02,2328.64 1688.62,2330.61 1688.43,2332.58C1686.74,2350.07 1678.52,2437.68 1679.31,2481.59C1679.87,2512.43 1668.77,2543.26 1660.49,2561.84C1657.91,2567.62 1649.42,2566.55 1648.34,2560.32C1643.45,2532.09 1635.1,2480.34 1635.73,2459.8C1636.44,2436.73 1663.2,2359.59 1673.99,2329.36C1675.93,2323.91 1683.06,2322.66 1686.75,2327.11Z" style="fill:rgb(159,171,206);fill-rule:nonzero;"/>
    </g>
    <g transform="matrix(4.16667,0,0,4.16667,-6702.43,-8748.71)">
        <path d="M1647.52,2252.03C1648.67,2249.36 1652.5,2249.52 1653.39,2252.28C1658.64,2268.52 1670.25,2305.79 1669.55,2315.62C1668.82,2325.91 1643.74,2387.92 1633.98,2419.16C1633.01,2422.25 1628.49,2421.79 1628.18,2418.56C1625.05,2386.19 1621.69,2311.93 1647.52,2252.03Z" style="fill:rgb(159,171,206);fill-rule:nonzero;"/>
    </g>
    <g transform="matrix(4.16667,0,0,4.16667,-6702.43,-8748.71)">
        <path d="M1874.09,2155.11C1853.61,2154.6 1807.27,2158.65 1779.8,2201.83L1779.8,2289.47C1779.8,2289.47 1804.45,2338.09 1851.66,2318.32C1891.23,2301.75 1887.42,2198.81 1885.15,2165.95C1884.74,2159.93 1879.94,2155.26 1874.09,2155.11Z" style="fill:rgb(237,25,82);fill-rule:nonzero;"/>
    </g>
    <g transform="matrix(4.16667,0,0,4.16667,-6702.43,-8748.71)">
        <path d="M1815.19,2332.51C1808.5,2329.82 1799.97,2326.11 1793.43,2322.3C1790.45,2320.57 1786.78,2322.98 1787.22,2326.4L1798.93,2455.84C1799.28,2459.74 1804.97,2459.79 1805.39,2455.9C1809.02,2422.85 1815.23,2373.73 1822.56,2347.33C1824.25,2341.24 1821.06,2334.86 1815.19,2332.51Z" style="fill:rgb(159,171,206);fill-rule:nonzero;"/>
    </g>
    <g transform="matrix(4.16667,0,0,4.16667,-6702.43,-8748.71)">
        <path d="M1834.73,2341.73L1809.45,2480.63C1807.22,2492.87 1808.52,2505.5 1813.21,2517.03L1834.76,2569.97C1837.11,2575.75 1845.58,2574.76 1846.53,2568.6C1853.21,2525.26 1865.98,2424.52 1855.46,2342.25C1854.62,2335.64 1847.87,2331.51 1841.59,2333.71C1838.03,2334.96 1835.41,2338.02 1834.73,2341.73Z" style="fill:rgb(159,171,206);fill-rule:nonzero;"/>
    </g>
    <g transform="matrix(4.16667,0,0,4.16667,-6702.43,-8748.71)">
        <path d="M1863.96,2327.11C1862.7,2328.64 1862.1,2330.61 1862.29,2332.58C1863.98,2350.07 1872.2,2437.68 1871.4,2481.59C1870.84,2512.43 1881.95,2543.26 1890.23,2561.84C1892.8,2567.62 1901.3,2566.55 1902.38,2560.32C1907.26,2532.09 1915.61,2480.34 1914.98,2459.8C1914.27,2436.73 1887.52,2359.59 1876.73,2329.36C1874.79,2323.91 1867.65,2322.66 1863.96,2327.11Z" style="fill:rgb(159,171,206);fill-rule:nonzero;"/>
    </g>
    <g transform="matrix(4.16667,0,0,4.16667,-6702.43,-8748.71)">
        <path d="M1903.2,2252.03C1902.05,2249.36 1898.22,2249.52 1897.33,2252.28C1892.08,2268.52 1880.47,2305.79 1881.17,2315.62C1881.9,2325.91 1906.98,2387.92 1916.74,2419.16C1917.71,2422.25 1922.23,2421.79 1922.54,2418.56C1925.67,2386.19 1929.02,2311.93 1903.2,2252.03Z" style="fill:rgb(159,171,206);fill-rule:nonzero;"/>
    </g>
    <g transform="matrix(4.16667,0,0,4.16667,-6702.43,-8748.71)">
        <path d="M1692.86,2135.62C1693.24,2142.13 1698.46,2147.2 1704.79,2147.2C1719.2,2147.2 1733.17,2152.39 1744.27,2161.86L1762.62,2177.52C1765.92,2180.34 1770.92,2177.92 1770.92,2173.5L1770.92,2119.44L1691.93,2119.44L1692.86,2135.62Z" style="fill:rgb(159,171,206);fill-rule:nonzero;"/>
    </g>
    <g transform="matrix(4.16667,0,0,4.16667,-6702.43,-8748.71)">
        <path d="M1661.29,2127.52L1663.21,2141.04C1663.73,2144.77 1667.07,2147.44 1670.82,2147.13L1681.92,2146.23C1685.42,2145.94 1688.75,2143.13 1688.43,2139.63C1687.81,2132.89 1687.04,2126.11 1686.2,2119.44L1660.51,2119.44C1660.66,2122.14 1660.91,2124.83 1661.29,2127.52Z" style="fill:rgb(159,171,206);fill-rule:nonzero;"/>
    </g>
    <g transform="matrix(4.16667,0,0,4.16667,-6702.43,-8748.71)">
        <path d="M1779.8,2173.5C1779.8,2177.92 1784.8,2180.34 1788.1,2177.52L1806.45,2161.86C1817.55,2152.39 1831.51,2147.2 1845.93,2147.2C1852.25,2147.2 1857.48,2142.13 1857.86,2135.62L1858.79,2119.44L1779.8,2119.44L1779.8,2173.5Z" style="fill:rgb(159,171,206);fill-rule:nonzero;"/>
    </g>
    <g transform="matrix(4.16667,0,0,4.16667,-6702.43,-8748.71)">
        <path d="M1862.29,2139.63C1861.97,2143.13 1865.3,2145.94 1868.8,2146.23L1879.9,2147.13C1883.65,2147.44 1886.98,2144.77 1887.51,2141.04L1889.42,2127.52C1889.8,2124.83 1890.05,2122.14 1890.21,2119.44L1864.52,2119.44C1863.67,2126.11 1862.91,2132.89 1862.29,2139.63Z" style="fill:rgb(159,171,206);fill-rule:nonzero;"/>
    </g>
</svg>
