<?xml version="1.0" encoding="UTF-8" standalone="no"?>
<!DOCTYPE svg PUBLIC "-//W3C//DTD SVG 1.1//EN" "http://www.w3.org/Graphics/SVG/1.1/DTD/svg11.dtd">
<svg width="100%" height="100%" viewBox="0 0 1918 5047" version="1.1" xmlns="http://www.w3.org/2000/svg" xmlns:xlink="http://www.w3.org/1999/xlink" xml:space="preserve" xmlns:serif="http://www.serif.com/" style="fill-rule:evenodd;clip-rule:evenodd;stroke-linejoin:round;stroke-miterlimit:2;">
    <g transform="matrix(4.16667,0,0,4.16667,-6444.55,-7051.02)">
        <path d="M1676.63,2155.11C1697.1,2154.6 1743.45,2158.65 1770.92,2201.83L1770.92,2289.47C1770.92,2289.47 1746.26,2338.09 1699.06,2318.32C1659.49,2301.75 1663.3,2198.81 1665.56,2165.95C1665.98,2159.93 1670.77,2155.26 1676.63,2155.11Z" style="fill:rgb(237,26,82);fill-rule:nonzero;"/>
    </g>
    <g transform="matrix(4.16667,0,0,4.16667,-6444.55,-7051.02)">
        <path d="M1874.09,2155.11C1853.61,2154.6 1807.27,2158.65 1779.8,2201.83L1779.8,2289.47C1779.8,2289.47 1804.45,2338.09 1851.66,2318.32C1891.23,2301.75 1887.42,2198.81 1885.15,2165.95C1884.74,2159.93 1879.94,2155.26 1874.09,2155.11Z" style="fill:rgb(237,26,82);fill-rule:nonzero;"/>
    </g>
</svg>
