<?xml version="1.0" encoding="UTF-8" standalone="no"?>
<!DOCTYPE svg PUBLIC "-//W3C//DTD SVG 1.1//EN" "http://www.w3.org/Graphics/SVG/1.1/DTD/svg11.dtd">
<svg width="100%" height="100%" viewBox="0 0 1927 1904" version="1.1" xmlns="http://www.w3.org/2000/svg" xmlns:xlink="http://www.w3.org/1999/xlink" xml:space="preserve" xmlns:serif="http://www.serif.com/" style="fill-rule:evenodd;clip-rule:evenodd;stroke-linejoin:round;stroke-miterlimit:2;">
    <g transform="matrix(4.16667,0,0,4.16667,-12818.2,-2.00341)">
        <path d="M3536.72,387.016L3479.38,343.864C3459.66,364.458 3433.18,356.791 3433.18,356.791C3448.44,360.181 3470.75,337.866 3470.75,337.866L3493.23,342.194C3502.41,343.489 3511.06,337.55 3513.15,328.514C3513.72,325.683 3512.03,322.889 3509.26,322.075L3469.92,310.506C3462.22,307.301 3453.57,306.816 3445.72,309.598C3439.03,311.966 3429.97,312.366 3419.42,309.25C3381.39,298.02 3368.34,257.295 3344.53,220.387C3314.12,173.254 3280.3,170.223 3280.3,170.223C3255.73,116.159 3213.71,112.028 3213.71,112.028C3213.71,112.028 3199.98,58.962 3170.81,26.366C3152.74,6.188 3116.98,1.423 3095.03,0.497C3084.85,0.067 3076.38,8.232 3076.38,18.419L3076.38,433.494C3076.38,446.801 3091.01,454.923 3102.3,447.887L3112.88,441.299C3123.91,434.43 3131.44,423.145 3133.56,410.326L3144.54,343.888L3143.71,289.173C3143.48,273.858 3150.21,259.475 3161.47,249.091C3173.7,237.815 3180.41,208.531 3180.41,208.531L3211.93,234.038C3211.93,234.038 3220.85,265.575 3256.13,292.503C3282.21,312.414 3337.9,327.424 3363.31,335.972C3372.58,339.089 3379.91,346.254 3383.24,355.447L3386.79,365.265C3387.53,367.321 3388.53,369.277 3389.75,371.089L3444.19,449.804C3448.52,456.207 3456.45,458.764 3463.49,456.532C3465.67,455.844 3466.62,453.292 3465.44,451.342L3436.57,398.878L3474.1,443.999C3479.07,450.916 3487.89,453.438 3495.54,450.728C3498.07,449.834 3499.03,446.762 3497.48,444.576L3459.42,385.789L3497.97,423.341C3504.41,429.686 3514.11,430.631 3521.52,426.297C3524.03,424.826 3524.33,421.295 3522.14,419.375L3473.29,372.326L3514.54,396.257C3521.95,400.663 3531.14,399.494 3537.22,393.966C3539.32,392.045 3539.06,388.644 3536.72,387.016Z" style="fill:rgb(72,80,106);fill-rule:nonzero;"/>
    </g>
    <g transform="matrix(4.16667,0,0,4.16667,-12818.2,-2.00341)">
        <path d="M3100.7,56.037C3083.56,47.104 3088.16,21.247 3107.3,18.661C3109.5,18.365 3111.71,18.232 3113.93,18.293C3142.57,19.08 3178.62,25.625 3198.44,114.997C3198.44,114.997 3148.5,102.219 3134.48,83.454C3127.5,74.119 3114.81,63.398 3100.7,56.037Z" style="fill:rgb(159,171,206);fill-rule:nonzero;"/>
    </g>
    <g transform="matrix(4.16667,0,0,4.16667,-12818.2,-2.00341)">
        <path d="M3155.19,126.813L3166.17,153.463C3166.17,153.463 3205.15,213.703 3247.95,225.014C3254.18,226.659 3259.83,220.882 3258.08,214.684L3248.48,180.636C3246.28,172.84 3242.19,165.711 3236.56,159.885L3199.05,121.042C3199.05,121.042 3173.06,116.014 3161.35,112.028C3155.57,114.41 3152.81,121.03 3155.19,126.813Z" style="fill:rgb(159,171,206);fill-rule:nonzero;"/>
    </g>
    <g transform="matrix(4.16667,0,0,4.16667,-12818.2,-2.00341)">
        <path d="M3224.96,134.479C3222.97,133.909 3221.65,136.516 3223.27,137.804C3230.76,143.767 3242.81,154.51 3248.78,166.064C3254.67,177.451 3261.23,194.262 3265.1,204.612C3265.92,206.811 3269.15,206.378 3269.36,204.041L3270.42,192.412C3270.87,187.457 3270.03,182.469 3267.95,177.951C3262.2,165.473 3248.3,141.166 3224.96,134.479Z" style="fill:rgb(159,171,206);fill-rule:nonzero;"/>
    </g>
    <g transform="matrix(4.16667,0,0,4.16667,-12818.2,-2.00341)">
        <path d="M3173.97,178.129L3177.31,186.252C3178.76,189.753 3180.8,192.97 3183.38,195.74C3188.91,201.676 3199.5,211.593 3211.99,215.99C3213.32,216.457 3214.32,214.749 3213.27,213.817C3205.34,206.794 3188.02,190.968 3176.29,176.731C3175.29,175.519 3173.37,176.676 3173.97,178.129Z" style="fill:rgb(159,171,206);fill-rule:nonzero;"/>
    </g>
    <g transform="matrix(4.16667,0,0,4.16667,-12818.2,-2.00341)">
        <path d="M3284.95,187.675C3280.78,186.082 3276.27,189.131 3276.28,193.591C3276.29,201.622 3277.62,214.742 3283.97,231.2C3294.01,257.2 3310.48,287.413 3381.25,307.307C3385.85,308.6 3389.2,302.991 3385.87,299.568C3376.48,289.924 3363.7,274.954 3353.18,256.011C3335.18,223.589 3325.16,203.061 3284.95,187.675Z" style="fill:rgb(237,25,82);fill-rule:nonzero;"/>
    </g>
    <g transform="matrix(4.16667,0,0,4.16667,-12818.2,-2.00341)">
        <path d="M3233.71,229.351C3231.78,228.204 3229.45,230.02 3230.16,232.153C3232.92,240.53 3238.5,253.403 3248.88,263.918C3265.8,281.052 3327.16,307.056 3340.91,312.889C3354.66,318.722 3379.16,320.172 3379.24,318.722C3379.44,315.104 3376.9,311.907 3373.33,311.293C3359.28,308.878 3339.21,300.327 3319.9,288.86C3287.55,269.64 3283.24,237.742 3256.86,235.429C3244.97,234.387 3237.89,231.837 3233.71,229.351Z" style="fill:rgb(237,25,82);fill-rule:nonzero;"/>
    </g>
    <g transform="matrix(4.16667,0,0,4.16667,-12818.2,-2.00341)">
        <path d="M3170.23,204.371C3164.88,222.442 3152.65,252.893 3127.46,272.68C3122.85,276.3 3116.35,271.685 3118.23,266.134L3124.23,248.413C3125.9,243.469 3128.59,238.927 3132.11,235.075L3163.62,200.62C3166.42,197.562 3171.41,200.397 3170.23,204.371Z" style="fill:rgb(159,171,206);fill-rule:nonzero;"/>
    </g>
    <g transform="matrix(4.16667,0,0,4.16667,-12818.2,-2.00341)">
        <path d="M3160.31,170.192C3155.4,161.1 3148.14,145.951 3146.71,133.614C3144.51,114.634 3115.02,79.152 3092.49,74.794C3092.46,74.788 3092.43,74.782 3092.39,74.776C3086.95,73.747 3081.95,78.073 3081.95,83.612L3081.95,198.119C3081.95,202.696 3085.41,206.536 3089.96,207.025L3092.8,207.33C3102.68,208.391 3112.54,204.462 3119.39,196.667C3126.69,188.363 3138.78,178.855 3156.28,177.97C3159.93,177.786 3162.12,173.542 3160.31,170.192Z" style="fill:rgb(159,171,206);fill-rule:nonzero;"/>
    </g>
</svg>
