<?xml version="1.0" encoding="UTF-8" standalone="no"?>
<!DOCTYPE svg PUBLIC "-//W3C//DTD SVG 1.1//EN" "http://www.w3.org/Graphics/SVG/1.1/DTD/svg11.dtd">
<svg width="100%" height="100%" viewBox="0 0 1927 1904" version="1.1" xmlns="http://www.w3.org/2000/svg" xmlns:xlink="http://www.w3.org/1999/xlink" xml:space="preserve" xmlns:serif="http://www.serif.com/" style="fill-rule:evenodd;clip-rule:evenodd;stroke-linejoin:round;stroke-miterlimit:2;">
    <g transform="matrix(4.16667,0,0,4.16667,-16010.1,-2.00341)">
        <path d="M4302.77,387.016L4236.8,337.866L4259.27,342.194C4268.46,343.489 4277.11,337.55 4279.2,328.514C4279.77,325.683 4278.08,322.889 4275.31,322.075L4235.96,310.506C4228.27,307.301 4219.62,306.816 4211.76,309.598C4205.07,311.966 4196.01,312.366 4185.46,309.25C4147.44,298.02 4134.39,257.295 4110.57,220.387C4080.16,173.254 4046.34,170.223 4046.34,170.223C4021.78,116.159 3979.75,112.028 3979.75,112.028C3979.75,112.028 3966.03,58.962 3936.85,26.366C3918.79,6.188 3883.03,1.423 3861.07,0.497C3850.9,0.067 3842.43,8.232 3842.43,18.419L3842.43,433.494C3842.43,446.801 3857.05,454.923 3868.35,447.887L3878.92,441.299C3889.95,434.43 3897.49,423.145 3899.6,410.326L3910.59,343.888L3909.76,289.173C3909.53,273.858 3916.26,259.475 3927.52,249.091C3939.74,237.815 3946.46,208.531 3946.46,208.531L3977.97,234.038C3977.97,234.038 3986.89,265.575 4022.17,292.503C4048.26,312.414 4103.94,327.424 4129.35,335.972C4138.62,339.089 4145.95,346.254 4149.28,355.447L4152.84,365.265C4153.58,367.321 4154.58,369.277 4155.8,371.089L4210.24,449.804C4214.56,456.207 4222.49,458.764 4229.54,456.532C4231.71,455.844 4232.66,453.292 4231.48,451.342L4202.62,398.878L4240.15,443.999C4245.12,450.916 4253.94,453.438 4261.59,450.728C4264.11,449.834 4265.08,446.762 4263.53,444.576L4225.47,385.789L4264.02,423.341C4270.45,429.686 4280.15,430.631 4287.56,426.297C4290.08,424.826 4290.37,421.295 4288.18,419.375L4239.34,372.326L4280.59,396.257C4288,400.663 4297.19,399.494 4303.26,393.966C4305.37,392.045 4305.11,388.644 4302.77,387.016Z" style="fill:rgb(72,80,106);fill-rule:nonzero;"/>
    </g>
    <g transform="matrix(4.16667,0,0,4.16667,-16010.1,-2.00341)">
        <path d="M3944.89,112.023C3954.34,121.414 3968.36,136.784 3976.47,152.403C3980.07,159.336 3985.46,165.183 3992.25,169.042C3996.43,171.414 4001.19,175.226 4005.28,181.325C4010.85,189.638 4020.47,195.503 4027.8,199.037C4032.07,201.098 4036.81,197.207 4035.62,192.615C4029.98,170.837 4010.57,121.432 3948.53,105.587C3944.76,104.625 3942.13,109.282 3944.89,112.023Z" style="fill:rgb(159,171,206);fill-rule:nonzero;"/>
    </g>
    <g transform="matrix(4.16667,0,0,4.16667,-16010.1,-2.00341)">
        <path d="M3914.19,99.926C3911.39,98.334 3908.19,101.301 3909.58,104.21C3916.25,118.261 3928.45,145.668 3931.33,163.95C3934.65,185.031 3972.95,209.978 3997.14,216.471C4001.66,217.685 4004.98,212.244 4001.86,208.752L3990.78,196.344C3982.42,186.986 3975.72,176.25 3971.19,164.551C3964.64,147.657 3949.13,119.793 3914.19,99.926Z" style="fill:rgb(159,171,206);fill-rule:nonzero;"/>
    </g>
    <g transform="matrix(4.16667,0,0,4.16667,-16010.1,-2.00341)">
        <path d="M4054.37,183.475C4049.47,180.639 4043.38,184.353 4043.72,190.005C4044.66,205.579 4049.1,234.47 4067.91,259.908C4087.07,285.83 4118.47,314.543 4135.56,329.415C4142.14,335.144 4152.1,334.535 4157.93,328.041C4164.02,321.249 4163.18,310.76 4156.11,304.991C4144.38,295.422 4128.21,280.3 4121.56,265.09C4111.82,242.809 4082.66,199.844 4054.37,183.475Z" style="fill:rgb(237,25,82);fill-rule:nonzero;"/>
    </g>
    <g transform="matrix(4.16667,0,0,4.16667,-16010.1,-2.00341)">
        <path d="M4091.38,303.366C4093.49,306.482 4090.24,310.424 4086.78,308.943C4066.19,300.134 4024.09,280.734 4011.85,264.558C4002.4,252.063 3996.93,239.45 3994,231.005C3992.35,226.277 3996.51,221.562 4001.42,222.582C4013.13,225.02 4027.39,240.852 4039.23,251.908C4052.43,264.226 4079.96,286.525 4091.38,303.366Z" style="fill:rgb(237,25,82);fill-rule:nonzero;"/>
    </g>
    <g transform="matrix(4.16667,0,0,4.16667,-16010.1,-2.00341)">
        <path d="M3893.18,312.638C3887.06,327.782 3874.69,359.65 3865.68,391.24C3864.61,394.993 3866.82,398.901 3870.59,399.923L3881.33,402.841C3884.96,403.827 3888.73,401.813 3889.93,398.248L3894.29,385.299C3898.14,373.839 3899.81,361.76 3899.21,349.685L3897.42,313.362C3897.3,311.008 3894.07,310.453 3893.18,312.638Z" style="fill:rgb(159,171,206);fill-rule:nonzero;"/>
    </g>
    <g transform="matrix(4.16667,0,0,4.16667,-16010.1,-2.00341)">
        <path d="M3958.85,94.061C3955.78,69.656 3941.41,11.017 3874.27,5.441C3867.27,4.86 3860.33,7.122 3855.06,11.763C3853.98,12.711 3852.83,13.728 3851.65,14.816L3851.65,57.268C3870.16,58.614 3895.82,60.988 3903.36,84.477C3922.11,91.746 3906.48,83.776 3950.31,100.715C3954.75,102.434 3959.44,98.791 3958.85,94.061Z" style="fill:rgb(159,171,206);fill-rule:nonzero;"/>
    </g>
    <g transform="matrix(4.16667,0,0,4.16667,-16010.1,-2.00341)">
        <path d="M3901.3,148.697C3905.91,149.575 3909.97,145.562 3909.13,140.944C3908.44,137.092 3906.02,119.673 3903.8,103.438C3901.3,85.198 3887.57,70.517 3869.54,66.81L3851.65,63.134L3851.65,139.24L3901.3,148.697Z" style="fill:rgb(159,171,206);fill-rule:nonzero;"/>
    </g>
    <g transform="matrix(4.16667,0,0,4.16667,-16010.1,-2.00341)">
        <path d="M3877.46,310.435C3879.66,312.428 3884.02,312.249 3884.49,309.387C3895.2,243.866 3919.09,255.931 3922.95,219.522C3926.1,189.743 3917.37,176.348 3916.59,165.637C3916.23,160.782 3912.39,156.828 3907.36,156.243C3892.41,154.502 3871.45,149.679 3860.21,146.942C3857.24,146.217 3854.17,146.711 3851.65,148.166L3851.65,285.655L3877.46,310.435Z" style="fill:rgb(159,171,206);fill-rule:nonzero;"/>
    </g>
    <g transform="matrix(4.16667,0,0,4.16667,-16010.1,-2.00341)">
        <path d="M3861.16,376.503L3875.93,329.133C3876.46,323.731 3874.26,318.435 3870.1,315.111L3851.65,299.665L3851.65,387.348C3856.67,386.287 3860.63,381.979 3861.16,376.503Z" style="fill:rgb(159,171,206);fill-rule:nonzero;"/>
    </g>
    <g transform="matrix(4.16667,0,0,4.16667,-16010.1,-2.00341)">
        <path d="M4036.72,215.297C4037.34,218.936 4041.25,228.082 4045.08,236.942C4046.25,239.638 4042.73,241.877 4040.78,239.676L4020.08,216.278C4017.08,213.218 4019.24,208.05 4023.53,208.05L4028.2,208.05C4032.43,208.05 4036.02,211.121 4036.72,215.297Z" style="fill:rgb(237,25,82);fill-rule:nonzero;"/>
    </g>
</svg>
