<?xml version="1.0" encoding="UTF-8" standalone="no"?>
<!DOCTYPE svg PUBLIC "-//W3C//DTD SVG 1.1//EN" "http://www.w3.org/Graphics/SVG/1.1/DTD/svg11.dtd">
<svg width="100%" height="100%" viewBox="0 0 2014 5047" version="1.1" xmlns="http://www.w3.org/2000/svg" xmlns:xlink="http://www.w3.org/1999/xlink" xml:space="preserve" xmlns:serif="http://www.serif.com/" style="fill-rule:evenodd;clip-rule:evenodd;stroke-linejoin:round;stroke-miterlimit:2;">
    <g transform="matrix(4.16667,0,0,4.16667,2.10671,-7418.88)">
        <path d="M363.262,2098.52L363.257,2098.52C282.171,2209.51 201.085,2211.13 119.999,2100.89C117.857,2100.89 117.984,2101.56 116.481,2103.09C114.977,2104.61 115.475,2108.01 115.506,2110.15L113.432,2204.66C110.622,2209.96 102.736,2225.68 94.692,2249.21C85.664,2275.61 74.739,2317.3 73.967,2365.95C72.941,2430.58 93.541,2509.05 109.169,2548.83C116.358,2567.13 114.986,2575.6 111.801,2580.44C109.378,2584.12 113.309,2588.43 117.716,2588.44L197.034,2588.77L197.063,2588.77C199.908,2588.77 187.665,2595.8 189.099,2593.35C203.532,2568.58 229.816,2524.06 237.882,2477.87C239.285,2469.84 240.527,2461.85 241.628,2453.97C242.728,2461.85 243.255,2470 245.373,2477.87C259.407,2530.03 281.535,2568.99 287.012,2584.8C287.944,2587.49 283.348,2588.77 286.193,2588.77L286.222,2588.77L375.774,2588.44C380.181,2588.43 369.58,2584.85 369.58,2580.44C369.58,2575.12 374.51,2560.94 377.81,2542.99C381.651,2522.1 398.753,2493.48 402.799,2462.74C407.618,2426.13 409.741,2394.47 409.288,2365.95C408.516,2317.3 397.592,2275.61 388.563,2249.21C380.519,2225.68 372.633,2209.96 369.824,2204.66C370.653,2173.15 367.68,2098.52 363.262,2098.52Z" style="fill:rgb(72,80,106);fill-rule:nonzero;"/>
    </g>
    <g transform="matrix(4.16667,0,0,4.16667,2.10671,-7418.88)">
        <path d="M190.385,2250.16L220.743,2293.31C225.035,2299.41 227.089,2306.8 226.557,2314.24L218.913,2421.26C218.796,2422.89 216.504,2423.16 216.018,2421.59L193.317,2348.47L184.154,2252.46C183.819,2248.95 188.356,2247.28 190.385,2250.16Z" style="fill:rgb(159,171,206);fill-rule:nonzero;"/>
    </g>
    <g transform="matrix(4.16667,0,0,4.16667,2.10671,-7418.88)">
        <path d="M98.557,2316.01C99.391,2313.02 103.823,2313.79 103.58,2316.88C101.269,2346.37 99.068,2404.28 112.59,2443.6C119.887,2464.82 124.889,2477.07 128.279,2484.11C132.368,2492.61 133.908,2502.1 132.772,2511.46L131.459,2522.29C130.59,2529.45 121.361,2531.7 117.232,2525.79C105.972,2509.66 90.765,2477.29 89.434,2419.14C88.205,2365.45 93.685,2333.48 98.557,2316.01Z" style="fill:rgb(159,171,206);fill-rule:nonzero;"/>
    </g>
    <g transform="matrix(4.16667,0,0,4.16667,2.10671,-7418.88)">
        <path d="M194.283,2384.23L198.146,2396.05C208.901,2428.96 212.655,2463.75 209.165,2498.2L205.685,2532.54C203.93,2549.87 186.575,2561.1 170.053,2555.61C157.33,2551.38 149.587,2538.51 151.814,2525.29L153.017,2518.14C155.247,2504.89 160.508,2492.28 168.727,2481.65C177.606,2470.16 188.788,2444.02 189.974,2384.87C190.024,2382.38 193.511,2381.87 194.283,2384.23Z" style="fill:rgb(159,171,206);fill-rule:nonzero;"/>
    </g>
    <g transform="matrix(4.16667,0,0,4.16667,2.10671,-7418.88)">
        <path d="M292.871,2250.16L262.513,2293.31C258.221,2299.41 256.167,2306.8 256.699,2314.24L264.343,2421.26C264.459,2422.89 266.752,2423.16 267.238,2421.59L289.939,2348.47L299.101,2252.46C299.436,2248.95 294.9,2247.28 292.871,2250.16Z" style="fill:rgb(159,171,206);fill-rule:nonzero;"/>
    </g>
    <g transform="matrix(4.16667,0,0,4.16667,2.10671,-7418.88)">
        <path d="M390.406,2317.65C389.697,2314.63 385.237,2315.22 385.352,2318.32C386.441,2347.88 386.245,2405.83 371.108,2444.56C362.939,2465.46 357.435,2477.49 353.756,2484.38C349.32,2492.7 347.389,2502.12 348.136,2511.52L349.001,2522.39C349.573,2529.58 358.7,2532.22 363.071,2526.48C374.988,2510.83 391.52,2479.12 395.255,2421.07C398.704,2367.48 394.551,2335.31 390.406,2317.65Z" style="fill:rgb(159,171,206);fill-rule:nonzero;"/>
    </g>
    <g transform="matrix(4.16667,0,0,4.16667,2.10671,-7418.88)">
        <path d="M288.973,2384.23L285.109,2396.05C274.354,2428.96 270.601,2463.75 274.091,2498.2L277.571,2532.54C279.326,2549.87 296.68,2561.1 313.203,2555.61C325.926,2551.38 333.668,2538.51 331.442,2525.29L330.239,2518.14C328.008,2504.89 322.748,2492.28 314.529,2481.65C305.649,2470.16 294.468,2444.02 293.281,2384.87C293.232,2382.38 289.744,2381.87 288.973,2384.23Z" style="fill:rgb(159,171,206);fill-rule:nonzero;"/>
    </g>
    <g transform="matrix(4.16667,0,0,4.16667,2.10671,-7418.88)">
        <path d="M317.73,2461.96L316.721,2458.7C299.949,2404.52 297.784,2346.4 310.475,2290.97L324.65,2229.05C326.479,2221.06 336.811,2220.23 339.757,2227.83C351.357,2257.77 369.705,2309.63 371.492,2342.3C375.567,2416.79 362.517,2419.05 353.027,2460.48C348.646,2479.61 323.518,2480.66 317.73,2461.96Z" style="fill:rgb(159,171,206);fill-rule:nonzero;"/>
    </g>
    <g transform="matrix(4.16667,0,0,4.16667,2.10671,-7418.88)">
        <path d="M166.617,2461.96L167.626,2458.7C184.398,2404.52 186.563,2346.4 173.872,2290.97L159.697,2229.05C157.868,2221.06 147.536,2220.23 144.59,2227.83C132.99,2257.77 114.642,2309.63 112.855,2342.3C108.78,2416.79 121.83,2419.05 131.32,2460.48C135.701,2479.61 160.829,2480.66 166.617,2461.96Z" style="fill:rgb(159,171,206);fill-rule:nonzero;"/>
    </g>
    <g transform="matrix(4.16667,0,0,4.16667,0.00021028,-2843.15)">
        <path d="M371.674,682.355C371.246,682.355 370.816,682.389 370.391,682.458L293.792,694.913C276.598,697.709 259.048,699.126 241.629,699.126C224.21,699.126 206.659,697.709 189.465,694.913L112.867,682.458C112.441,682.389 112.012,682.355 111.583,682.355C110.772,682.355 109.964,682.478 109.185,682.722C106.982,683.414 55.059,700.152 40.333,741.868C27.97,776.891 34.532,813.824 37.778,827.61C26.862,836.418 1.797,861.994 0.005,912.188C-0.046,913.625 0.29,915.049 0.979,916.311L53.625,1012.64C55.009,1015.17 57.649,1016.76 60.534,1016.8L60.646,1016.8C63.488,1016.8 66.121,1015.29 67.556,1012.83C87.077,979.366 87.344,949.312 86.767,939.286L101.958,919.659C104.247,923.47 107.285,927.918 111.24,932.668C119.483,942.565 122.989,955.704 120.86,968.714L112.105,1022.22C112.027,1022.69 111.992,1023.17 112.001,1023.66L113.464,1104.58C113.491,1106.07 113.934,1107.52 114.743,1108.77C115.229,1109.53 157.098,1097.25 178.164,1115.28C190.597,1125.92 196.047,1142.12 209.573,1148.24C226.658,1155.96 221.873,1165.27 239.679,1165.27C257.459,1165.27 257.53,1160.65 275.001,1152.95C288.819,1146.86 288.802,1124.78 301.783,1114.18C323.782,1096.21 367.817,1109.78 368.344,1109.03C369.26,1107.72 369.765,1106.17 369.794,1104.58L371.257,1023.66C371.266,1023.17 371.231,1022.69 371.153,1022.22L362.398,968.714C360.269,955.704 363.775,942.565 372.017,932.668C375.973,927.918 379.01,923.47 381.3,919.659L396.49,939.286C395.913,949.312 396.181,979.366 415.702,1012.83C417.137,1015.29 419.769,1016.8 422.612,1016.8L422.723,1016.8C425.608,1016.76 428.248,1015.17 429.632,1012.64L482.278,916.311C482.967,915.049 483.304,913.625 483.253,912.188C481.46,861.994 456.395,836.418 445.48,827.61C448.725,813.824 455.288,776.891 442.924,741.868C428.198,700.152 376.275,683.414 374.072,682.722C373.294,682.478 372.485,682.355 371.674,682.355Z" style="fill:rgb(72,80,106);fill-rule:nonzero;"/>
    </g>
    <g transform="matrix(4.16667,0,0,4.16667,0.00021028,-2843.15)">
        <path d="M155.886,710.417C155.886,710.417 118.647,691.797 92.464,703.434C66.28,715.071 35.442,734.854 51.152,825.041C51.152,825.041 92.464,794.203 98.282,771.511C104.101,748.819 129.119,712.162 155.886,710.417Z" style="fill:rgb(159,171,206);fill-rule:nonzero;"/>
    </g>
    <g transform="matrix(4.16667,0,0,4.16667,0.00021028,-2843.15)">
        <path d="M228.08,732.568C232.746,735.322 235.599,740.335 235.599,745.753L235.599,792.473C235.599,801.177 229.551,808.468 221.428,810.374C216.735,811.475 212.045,812.594 207.475,814.128L157.624,830.86C148.011,830.86 138.943,826.371 133.16,818.691C127.007,810.519 116.386,800.804 99.682,798.304C96.174,797.779 94.458,793.764 96.556,790.905C102.216,783.194 110.763,770.26 113.411,759.292C117.483,742.418 149.485,713.326 171.596,711.58C187.912,710.292 215.003,724.85 228.08,732.568Z" style="fill:rgb(159,171,206);fill-rule:nonzero;"/>
    </g>
    <g transform="matrix(4.16667,0,0,4.16667,0.00021028,-2843.15)">
        <path d="M95.642,819.492L95.642,848.315C95.642,848.315 82.552,918.859 47.28,945.623C42.15,949.516 34.727,946.325 33.982,939.929L29.888,904.792C28.951,896.747 30.022,888.595 33.005,881.064L52.898,830.86C52.898,830.86 75.008,816.313 84.318,808.167C90.572,808.167 95.642,813.238 95.642,819.492Z" style="fill:rgb(159,171,206);fill-rule:nonzero;"/>
    </g>
    <g transform="matrix(4.16667,0,0,4.16667,0.00021028,-2843.15)">
        <path d="M34.052,853.156C35.674,851.872 37.889,853.778 36.883,855.586C32.227,863.953 25.18,878.475 24.059,891.433C22.954,904.203 23.287,922.248 23.655,933.29C23.733,935.636 20.582,936.466 19.496,934.386L14.089,924.036C11.785,919.626 10.66,914.695 10.865,909.724C11.43,895.997 15.025,868.227 34.052,853.156Z" style="fill:rgb(159,171,206);fill-rule:nonzero;"/>
    </g>
    <g transform="matrix(4.16667,0,0,4.16667,0.00021028,-2843.15)">
        <path d="M97.829,874.091L97.829,882.877C97.829,886.663 97.163,890.416 95.832,893.961C92.981,901.556 86.967,914.758 77.094,923.582C76.046,924.518 74.467,923.321 75.084,922.059C79.739,912.546 89.726,891.316 95.155,873.681C95.617,872.18 97.829,872.52 97.829,874.091Z" style="fill:rgb(159,171,206);fill-rule:nonzero;"/>
    </g>
    <g transform="matrix(4.16667,0,0,4.16667,0.00021028,-2843.15)">
        <path d="M235.599,883.212L235.599,921.821C235.599,924.736 233.236,927.1 230.32,927.1L195.71,927.1C192.303,927.1 189.154,925.283 187.448,922.333L183.422,915.369C179.653,908.85 181.204,900.564 187.074,895.847C196.089,888.603 210.97,879.444 229.848,877.951C232.94,877.707 235.599,880.11 235.599,883.212Z" style="fill:rgb(159,171,206);fill-rule:nonzero;"/>
    </g>
    <g transform="matrix(4.16667,0,0,4.16667,0.00021028,-2843.15)">
        <path d="M229.216,1003.91L204.614,1003.91C198.375,1003.91 193.318,998.848 193.318,992.609L193.318,947.737C193.318,941.498 198.375,936.441 204.614,936.441L229.216,936.441C232.741,936.441 235.599,939.299 235.599,942.824L235.599,997.522C235.599,1001.05 232.741,1003.91 229.216,1003.91Z" style="fill:rgb(159,171,206);fill-rule:nonzero;"/>
    </g>
    <g transform="matrix(4.16667,0,0,4.16667,0.00021028,-2843.15)">
        <path d="M230.524,1011.17L206.93,1011.17C200.368,1011.17 195.048,1016.49 195.048,1023.05L195.048,1044.11C195.048,1076.34 202.793,1108.1 217.632,1136.71L226.018,1152.88C228.465,1157.6 235.599,1155.86 235.599,1150.54L235.599,1016.25C235.599,1013.44 233.327,1011.17 230.524,1011.17Z" style="fill:rgb(159,171,206);fill-rule:nonzero;"/>
    </g>
    <g transform="matrix(4.16667,0,0,4.16667,0.00021028,-2843.15)">
        <path d="M143.19,906.548L159.106,924.624C165.812,932.24 169.512,942.039 169.512,952.187L169.512,974.249C169.512,975.984 167.476,976.917 166.161,975.786L152.267,963.821C144.251,956.918 139.641,946.865 139.641,936.287L139.641,907.887C139.641,906.019 141.955,905.145 143.19,906.548Z" style="fill:rgb(159,171,206);fill-rule:nonzero;"/>
    </g>
    <g transform="matrix(4.16667,0,0,4.16667,0.00021028,-2843.15)">
        <path d="M145.782,969.007L161.548,983.614C166.626,988.318 169.512,994.927 169.512,1001.85L169.512,1018.36C169.512,1021.68 165.463,1023.28 163.193,1020.87L146.966,1003.63C142.261,998.63 139.641,992.024 139.641,985.159L139.641,971.689C139.641,968.499 143.442,966.839 145.782,969.007Z" style="fill:rgb(159,171,206);fill-rule:nonzero;"/>
    </g>
    <g transform="matrix(4.16667,0,0,4.16667,0.00021028,-2843.15)">
        <path d="M141.151,1009.81L153.765,1023.29C171.558,1042.31 181.812,1067.15 182.61,1093.18L182.921,1103.33C183.056,1107.75 177.563,1109.88 174.683,1106.53L143.473,1070.19C135.524,1060.94 131.599,1048.89 132.569,1036.73L134.531,1012.13C134.795,1008.81 138.875,1007.38 141.151,1009.81Z" style="fill:rgb(159,171,206);fill-rule:nonzero;"/>
    </g>
    <g transform="matrix(4.16667,0,0,4.16667,0.00021028,-2843.15)">
        <path d="M327.372,710.417C327.372,710.417 364.611,691.797 390.794,703.434C416.977,715.071 447.815,734.854 432.105,825.041C432.105,825.041 390.794,794.203 384.975,771.511C379.157,748.819 354.137,712.162 327.372,710.417Z" style="fill:rgb(159,171,206);fill-rule:nonzero;"/>
    </g>
    <g transform="matrix(4.16667,0,0,4.16667,0.00021028,-2843.15)">
        <path d="M255.178,732.568C250.512,735.322 247.659,740.335 247.659,745.753L247.659,792.473C247.659,801.177 253.707,808.468 261.829,810.374C266.523,811.475 271.212,812.594 275.783,814.128L325.633,830.86C335.247,830.86 344.315,826.371 350.097,818.691C356.25,810.519 366.872,800.804 383.575,798.304C387.083,797.779 388.799,793.764 386.701,790.905C381.042,783.194 372.495,770.26 369.847,759.292C365.774,742.418 333.772,713.326 311.662,711.58C295.345,710.292 268.255,724.85 255.178,732.568Z" style="fill:rgb(159,171,206);fill-rule:nonzero;"/>
    </g>
    <g transform="matrix(4.16667,0,0,4.16667,0.00021028,-2843.15)">
        <path d="M387.615,819.492L387.615,848.315C387.615,848.315 400.705,918.859 435.977,945.623C441.107,949.516 448.53,946.325 449.276,939.929L453.369,904.792C454.307,896.747 453.236,888.595 450.252,881.064L430.36,830.86C430.36,830.86 408.249,816.313 398.94,808.167C392.685,808.167 387.615,813.238 387.615,819.492Z" style="fill:rgb(159,171,206);fill-rule:nonzero;"/>
    </g>
    <g transform="matrix(4.16667,0,0,4.16667,0.00021028,-2843.15)">
        <path d="M449.205,853.156C447.583,851.872 445.369,853.778 446.375,855.586C451.03,863.953 458.077,878.475 459.198,891.433C460.303,904.203 459.97,922.248 459.602,933.29C459.524,935.636 462.675,936.466 463.762,934.386L469.168,924.036C471.472,919.626 472.597,914.695 472.392,909.724C471.827,895.997 468.232,868.227 449.205,853.156Z" style="fill:rgb(159,171,206);fill-rule:nonzero;"/>
    </g>
    <g transform="matrix(4.16667,0,0,4.16667,0.00021028,-2843.15)">
        <path d="M385.428,874.091L385.428,882.877C385.428,886.663 386.094,890.416 387.425,893.961C390.276,901.556 396.29,914.758 406.163,923.582C407.211,924.518 408.79,923.321 408.173,922.059C403.518,912.546 393.531,891.316 388.103,873.681C387.64,872.18 385.428,872.52 385.428,874.091Z" style="fill:rgb(159,171,206);fill-rule:nonzero;"/>
    </g>
    <g transform="matrix(4.16667,0,0,4.16667,0.00021028,-2843.15)">
        <path d="M247.659,883.212L247.659,921.821C247.659,924.736 250.022,927.1 252.938,927.1L287.547,927.1C290.955,927.1 294.104,925.283 295.81,922.333L299.835,915.369C303.604,908.85 302.054,900.564 296.184,895.847C287.168,888.603 272.288,879.444 253.41,877.951C250.318,877.707 247.659,880.11 247.659,883.212Z" style="fill:rgb(159,171,206);fill-rule:nonzero;"/>
    </g>
    <g transform="matrix(4.16667,0,0,4.16667,0.00021028,-2843.15)">
        <path d="M254.042,1003.91L278.644,1003.91C284.883,1003.91 289.94,998.848 289.94,992.609L289.94,947.737C289.94,941.498 284.883,936.441 278.644,936.441L254.042,936.441C250.517,936.441 247.659,939.299 247.659,942.824L247.659,997.522C247.659,1001.05 250.517,1003.91 254.042,1003.91Z" style="fill:rgb(159,171,206);fill-rule:nonzero;"/>
    </g>
    <g transform="matrix(4.16667,0,0,4.16667,0.00021028,-2843.15)">
        <path d="M252.734,1011.17L276.327,1011.17C282.89,1011.17 288.21,1016.49 288.21,1023.05L288.21,1044.11C288.21,1076.34 280.464,1108.1 265.625,1136.71L257.239,1152.88C254.793,1157.6 247.659,1155.86 247.659,1150.54L247.659,1016.25C247.659,1013.44 249.931,1011.17 252.734,1011.17Z" style="fill:rgb(159,171,206);fill-rule:nonzero;"/>
    </g>
    <g transform="matrix(4.16667,0,0,4.16667,0.00021028,-2843.15)">
        <path d="M340.067,906.548L324.151,924.624C317.445,932.24 313.746,942.039 313.746,952.187L313.746,974.249C313.746,975.984 315.782,976.917 317.096,975.786L330.991,963.821C339.007,956.918 343.616,946.865 343.616,936.287L343.616,907.887C343.616,906.019 341.302,905.145 340.067,906.548Z" style="fill:rgb(159,171,206);fill-rule:nonzero;"/>
    </g>
    <g transform="matrix(4.16667,0,0,4.16667,0.00021028,-2843.15)">
        <path d="M337.475,969.007L321.71,983.614C316.632,988.318 313.746,994.927 313.746,1001.85L313.746,1018.36C313.746,1021.68 317.795,1023.28 320.064,1020.87L336.292,1003.63C340.996,998.63 343.616,992.024 343.616,985.159L343.616,971.689C343.616,968.499 339.816,966.839 337.475,969.007Z" style="fill:rgb(159,171,206);fill-rule:nonzero;"/>
    </g>
    <g transform="matrix(4.16667,0,0,4.16667,0.00021028,-2843.15)">
        <path d="M342.107,1009.81L329.493,1023.29C311.7,1042.31 301.445,1067.15 300.648,1093.18L300.337,1103.33C300.202,1107.75 305.695,1109.88 308.574,1106.53L339.784,1070.19C347.733,1060.94 351.659,1048.89 350.689,1036.73L348.727,1012.13C348.462,1008.81 344.382,1007.38 342.107,1009.81Z" style="fill:rgb(159,171,206);fill-rule:nonzero;"/>
    </g>
    <g transform="matrix(4.16667,0,0,4.16667,0.00021028,-2843.15)">
        <path d="M235.353,826.383L235.353,862.502C235.353,865.245 233.347,867.635 230.49,868.296L209.602,873.128C198.827,875.62 181.657,883.704 181.657,883.704C175.684,889.868 145.549,840.412 169.183,840.412L228.946,820.412C232.484,820.412 235.353,823.085 235.353,826.383Z" style="fill:rgb(159,171,206);fill-rule:nonzero;"/>
    </g>
    <g transform="matrix(4.16667,0,0,4.16667,0.00021028,-2843.15)">
        <path d="M247.412,826.383L247.412,862.502C247.412,865.245 249.418,867.635 252.276,868.296L273.164,873.128C283.938,875.62 301.108,883.704 301.108,883.704C307.081,889.868 338.352,840.412 313.582,840.412L253.819,820.412C250.281,820.412 247.412,823.085 247.412,826.383Z" style="fill:rgb(159,171,206);fill-rule:nonzero;"/>
    </g>
    <g transform="matrix(4.16667,0,0,4.16667,2.10671,-7418.88)">
        <path d="M349.973,2159.5L337.065,2178.3C334.331,2182.29 333.881,2187.41 335.887,2191.8C345.174,2212.16 371.859,2271.54 381.948,2303.59C382.772,2306.21 386.619,2305.81 386.854,2303.08C387.572,2294.71 386.667,2280.88 379.043,2260.84C369.05,2234.58 360.186,2211.35 356.051,2200.52C354.418,2196.24 353.584,2191.71 353.584,2187.13L353.584,2160.62C353.584,2158.67 351.073,2157.9 349.973,2159.5Z" style="fill:rgb(159,171,206);fill-rule:nonzero;"/>
    </g>
    <g transform="matrix(-4.16667,0,0,4.16667,2028.31,-7399.66)">
        <path d="M349.973,2159.5L337.065,2178.3C334.331,2182.29 333.881,2187.41 335.887,2191.8C345.174,2212.16 371.859,2271.54 381.948,2303.59C382.772,2306.21 386.619,2305.81 386.854,2303.08C387.572,2294.71 386.667,2280.88 379.043,2260.84C369.05,2234.58 360.186,2211.35 356.051,2200.52C354.418,2196.24 353.584,2191.71 353.584,2187.13L353.584,2160.62C353.584,2158.67 351.073,2157.9 349.973,2159.5Z" style="fill:rgb(159,171,206);fill-rule:nonzero;"/>
    </g>
    <g transform="matrix(3.79858,0,0,3.76139,-11547.5,-4659.71)">
        <path d="M3245.8,2107.02C3251.85,2107.04 3256.98,2111.51 3257.8,2117.51C3261.95,2147.88 3278.21,2220.44 3278.94,2275.77C3279.79,2339.22 3250.18,2391.67 3250.18,2436.51C3250.18,2465.88 3258.55,2511.57 3264.32,2539.61C3267.01,2552.66 3257.55,2565.06 3244.26,2565.95L3228.78,2561.68C3223.18,2560.13 3217.19,2561.72 3213.08,2565.82C3207.01,2571.9 3198.91,2575.51 3190.33,2575.98L3106.93,2580.5C3100.19,2580.87 3094.52,2575.5 3094.52,2568.75C3094.52,2559.19 3099.7,2550.38 3108.06,2545.74L3166.42,2513.37C3177.11,2507.43 3183.35,2495.79 3182.37,2483.59C3179.22,2444.63 3173.71,2405.88 3165.55,2367.65C3136.86,2233.26 3154.03,2164.52 3165.15,2116.2C3166.43,2110.66 3171.37,2106.75 3177.05,2106.77L3245.8,2107.02Z" style="fill:rgb(72,80,106);fill-rule:nonzero;"/>
    </g>
    <g transform="matrix(3.79858,0,0,3.76139,-11547.5,-4659.71)">
        <path d="M3240.75,2198.64C3241.92,2193.72 3248.7,2193.16 3250.63,2197.83C3256.21,2211.28 3263.23,2234.18 3262.49,2263.03C3261.77,2291.36 3254.08,2318.72 3248.04,2336.08C3246.24,2341.25 3238.72,2340.52 3237.96,2335.1L3232.29,2294.61C3228.79,2269.57 3229.98,2244.09 3235.81,2219.48L3240.75,2198.64Z" style="fill:rgb(159,171,206);fill-rule:nonzero;"/>
    </g>
    <g transform="matrix(3.79858,0,0,3.76139,-11547.5,-4659.71)">
        <path d="M3180.51,2173.22L3186.6,2190.93C3199.49,2228.45 3206.93,2268.68 3208.56,2309.63L3213.11,2424.37C3213.4,2431.84 3205.41,2434.28 3203.04,2427.44L3185.67,2377.21C3174.92,2346.1 3168.81,2312.67 3167.89,2278.67C3167.12,2250.53 3168.3,2214.72 3174.5,2174.07C3175.09,2170.17 3179.26,2169.59 3180.51,2173.22Z" style="fill:rgb(159,171,206);fill-rule:nonzero;"/>
    </g>
    <g transform="matrix(3.79858,0,0,3.76139,-11547.5,-4659.71)">
        <path d="M3369.23,2107.02C3363.18,2107.04 3358.05,2111.51 3357.23,2117.51C3353.08,2147.88 3336.82,2220.44 3336.09,2275.77C3335.24,2339.22 3364.85,2391.67 3364.85,2436.51C3364.85,2465.88 3356.48,2511.57 3350.71,2539.61C3348.02,2552.66 3357.48,2565.06 3370.77,2565.95L3386.25,2561.68C3391.85,2560.13 3397.84,2561.72 3401.95,2565.82C3408.02,2571.9 3416.12,2575.51 3424.7,2575.98L3508.1,2580.5C3514.85,2580.87 3520.51,2575.5 3520.51,2568.75C3520.51,2559.19 3515.33,2550.38 3506.97,2545.74L3448.61,2513.37C3437.92,2507.43 3431.68,2495.79 3432.66,2483.59C3435.81,2444.63 3441.32,2405.88 3449.48,2367.65C3478.17,2233.26 3461,2164.52 3449.88,2116.2C3448.6,2110.66 3443.66,2106.75 3437.98,2106.77L3369.23,2107.02Z" style="fill:rgb(72,80,106);fill-rule:nonzero;"/>
    </g>
    <g transform="matrix(3.79858,0,0,3.76139,-11547.5,-4659.71)">
        <path d="M3374.28,2198.64C3373.11,2193.72 3366.33,2193.16 3364.4,2197.83C3358.82,2211.28 3351.8,2234.18 3352.54,2263.03C3353.26,2291.36 3360.95,2318.72 3366.99,2336.08C3368.79,2341.25 3376.31,2340.52 3377.07,2335.1L3382.74,2294.61C3386.24,2269.57 3385.05,2244.09 3379.22,2219.48L3374.28,2198.64Z" style="fill:rgb(159,171,206);fill-rule:nonzero;"/>
    </g>
    <g transform="matrix(3.79858,0,0,3.76139,-11547.5,-4659.71)">
        <path d="M3434.52,2173.22L3428.44,2190.93C3415.54,2228.45 3408.1,2268.68 3406.48,2309.63L3401.93,2424.37C3401.63,2431.84 3409.62,2434.28 3411.99,2427.44L3429.36,2377.21C3440.11,2346.1 3446.22,2312.67 3447.14,2278.67C3447.91,2250.53 3446.73,2214.72 3440.53,2174.07C3439.94,2170.17 3435.77,2169.59 3434.52,2173.22Z" style="fill:rgb(159,171,206);fill-rule:nonzero;"/>
    </g>
</svg>
