<?xml version="1.0" encoding="UTF-8" standalone="no"?>
<!DOCTYPE svg PUBLIC "-//W3C//DTD SVG 1.1//EN" "http://www.w3.org/Graphics/SVG/1.1/DTD/svg11.dtd">
<svg width="100%" height="100%" viewBox="0 0 1918 5047" version="1.1" xmlns="http://www.w3.org/2000/svg" xmlns:xlink="http://www.w3.org/1999/xlink" xml:space="preserve" xmlns:serif="http://www.serif.com/" style="fill-rule:evenodd;clip-rule:evenodd;stroke-linejoin:round;stroke-miterlimit:2;">
    <g transform="matrix(4.16667,0,0,4.16667,-48.8337,-5782.13)">
        <path d="M106.808,1582.17C106.764,1564.63 117.787,1548.98 134.311,1543.11L153.703,1536.23C158.347,1534.02 162.951,1537.31 164.066,1542.34C167.152,1556.24 170.996,1573.63 167.549,1600.94C167.08,1604.66 164.531,1607.79 160.985,1608.99L115.109,1624.53C110.877,1625.96 106.525,1622.71 106.703,1618.25C106.851,1614.52 106.848,1597.77 106.808,1582.17Z" style="fill:rgb(237,26,82);fill-rule:nonzero;"/>
    </g>
    <g transform="matrix(4.16667,0,0,4.16667,-48.8337,-5782.13)">
        <path d="M376.185,1582.17C376.229,1564.63 365.207,1548.98 348.683,1543.11L329.29,1536.23C324.646,1534.02 320.043,1537.31 318.928,1542.34C315.841,1556.24 311.998,1573.63 315.444,1600.94C315.913,1604.66 318.462,1607.79 322.008,1608.99L367.884,1624.53C372.116,1625.96 376.469,1622.71 376.291,1618.25C376.142,1614.52 376.146,1597.77 376.185,1582.17Z" style="fill:rgb(237,26,82);fill-rule:nonzero;"/>
    </g>
</svg>
