<?xml version="1.0" encoding="UTF-8" standalone="no"?>
<!DOCTYPE svg PUBLIC "-//W3C//DTD SVG 1.1//EN" "http://www.w3.org/Graphics/SVG/1.1/DTD/svg11.dtd">
<svg width="100%" height="100%" viewBox="0 0 1918 5047" version="1.1" xmlns="http://www.w3.org/2000/svg" xmlns:xlink="http://www.w3.org/1999/xlink" xml:space="preserve" xmlns:serif="http://www.serif.com/" style="fill-rule:evenodd;clip-rule:evenodd;stroke-linejoin:round;stroke-miterlimit:2;">
    <g transform="matrix(4.16667,0,0,4.16667,-6444.55,-7051.02)">
        <path d="M1735.53,2332.51C1742.22,2329.82 1750.75,2326.11 1757.29,2322.3C1760.27,2320.57 1763.93,2322.98 1763.49,2326.4L1751.79,2455.84C1751.43,2459.74 1745.75,2459.79 1745.32,2455.9C1741.7,2422.85 1735.48,2373.73 1728.16,2347.33C1726.47,2341.24 1729.66,2334.86 1735.53,2332.51Z" style="fill:rgb(237,26,82);fill-rule:nonzero;"/>
    </g>
    <g transform="matrix(4.16667,0,0,4.16667,-6444.55,-7051.02)">
        <path d="M1715.98,2341.73L1741.27,2480.63C1743.5,2492.87 1742.19,2505.5 1737.5,2517.03L1715.96,2569.97C1713.61,2575.75 1705.14,2574.76 1704.19,2568.6C1697.51,2525.26 1684.74,2424.52 1695.26,2342.25C1696.1,2335.64 1702.84,2331.51 1709.13,2333.71C1712.69,2334.96 1715.31,2338.02 1715.98,2341.73Z" style="fill:rgb(237,26,82);fill-rule:nonzero;"/>
    </g>
    <g transform="matrix(4.16667,0,0,4.16667,-6444.55,-7051.02)">
        <path d="M1686.75,2327.11C1688.02,2328.64 1688.62,2330.61 1688.43,2332.58C1686.74,2350.07 1678.52,2437.68 1679.31,2481.59C1679.87,2512.43 1668.77,2543.26 1660.49,2561.84C1657.91,2567.62 1649.42,2566.55 1648.34,2560.32C1643.45,2532.09 1635.1,2480.34 1635.73,2459.8C1636.44,2436.73 1663.2,2359.59 1673.99,2329.36C1675.93,2323.91 1683.06,2322.66 1686.75,2327.11Z" style="fill:rgb(237,26,82);fill-rule:nonzero;"/>
    </g>
    <g transform="matrix(4.16667,0,0,4.16667,-6444.55,-7051.02)">
        <path d="M1815.19,2332.51C1808.5,2329.82 1799.97,2326.11 1793.43,2322.3C1790.45,2320.57 1786.78,2322.98 1787.22,2326.4L1798.93,2455.84C1799.28,2459.74 1804.97,2459.79 1805.39,2455.9C1809.02,2422.85 1815.23,2373.73 1822.56,2347.33C1824.25,2341.24 1821.06,2334.86 1815.19,2332.51Z" style="fill:rgb(237,26,82);fill-rule:nonzero;"/>
    </g>
    <g transform="matrix(4.16667,0,0,4.16667,-6444.55,-7051.02)">
        <path d="M1834.73,2341.73L1809.45,2480.63C1807.22,2492.87 1808.52,2505.5 1813.21,2517.03L1834.76,2569.97C1837.11,2575.75 1845.58,2574.76 1846.53,2568.6C1853.21,2525.26 1865.98,2424.52 1855.46,2342.25C1854.62,2335.64 1847.87,2331.51 1841.59,2333.71C1838.03,2334.96 1835.41,2338.02 1834.73,2341.73Z" style="fill:rgb(237,26,82);fill-rule:nonzero;"/>
    </g>
    <g transform="matrix(4.16667,0,0,4.16667,-6444.55,-7051.02)">
        <path d="M1863.96,2327.11C1862.7,2328.64 1862.1,2330.61 1862.29,2332.58C1863.98,2350.07 1872.2,2437.68 1871.4,2481.59C1870.84,2512.43 1881.95,2543.26 1890.23,2561.84C1892.8,2567.62 1901.3,2566.55 1902.38,2560.32C1907.26,2532.09 1915.61,2480.34 1914.98,2459.8C1914.27,2436.73 1887.52,2359.59 1876.73,2329.36C1874.79,2323.91 1867.65,2322.66 1863.96,2327.11Z" style="fill:rgb(237,26,82);fill-rule:nonzero;"/>
    </g>
</svg>
