<?xml version="1.0" encoding="UTF-8" standalone="no"?>
<!DOCTYPE svg PUBLIC "-//W3C//DTD SVG 1.1//EN" "http://www.w3.org/Graphics/SVG/1.1/DTD/svg11.dtd">
<svg width="100%" height="100%" viewBox="0 0 1398 2033" version="1.1" xmlns="http://www.w3.org/2000/svg" xmlns:xlink="http://www.w3.org/1999/xlink" xml:space="preserve" xmlns:serif="http://www.serif.com/" style="fill-rule:evenodd;clip-rule:evenodd;stroke-linejoin:round;stroke-miterlimit:2;">
    <g transform="matrix(4.16667,0,0,4.16667,-9892.13,-8748.71)">
        <path d="M2663.46,2099.69L2420.2,2099.69C2418.05,2099.69 2416,2100.55 2414.5,2102.08C2412.99,2103.61 2412.16,2105.68 2412.2,2107.83L2413.63,2193.49C2410.82,2198.81 2402.93,2214.52 2394.89,2238.04C2385.86,2264.44 2374.94,2306.13 2374.17,2354.78C2373.14,2419.42 2386.08,2494.65 2393.81,2539.59C2397.11,2558.77 2399.71,2573.92 2399.71,2579.27C2399.71,2583.68 2403.28,2587.26 2407.68,2587.27L2497.23,2587.6L2497.26,2587.6C2500.11,2587.6 2502.74,2586.09 2504.17,2583.63C2518.58,2558.92 2529.99,2521.75 2538.09,2473.16C2539.44,2465.1 2540.69,2456.71 2541.83,2448.07C2542.97,2456.71 2544.22,2465.1 2545.56,2473.16C2553.67,2521.75 2565.08,2558.92 2579.48,2583.63C2580.92,2586.09 2583.55,2587.6 2586.39,2587.6L2586.42,2587.6L2675.97,2587.27C2680.38,2587.26 2683.95,2583.68 2683.95,2579.27C2683.95,2573.92 2686.55,2558.77 2689.85,2539.59C2693.69,2517.26 2698.95,2486.68 2703,2454.37C2707.82,2415.88 2709.94,2383.3 2709.49,2354.78C2708.72,2306.13 2697.79,2264.44 2688.76,2238.04C2680.72,2214.52 2672.84,2198.81 2670.03,2193.49L2671.45,2108.03C2671.46,2107.92 2671.46,2107.81 2671.46,2107.69C2671.46,2103.27 2667.88,2099.69 2663.46,2099.69Z" style="fill:rgb(72,80,106);fill-rule:nonzero;"/>
    </g>
    <g transform="matrix(4.16667,0,0,4.16667,-9892.13,-8748.71)">
        <path d="M2442.16,2155.11C2462.63,2154.6 2508.97,2158.65 2536.45,2201.83L2536.45,2289.47C2536.45,2289.47 2511.79,2338.09 2464.59,2318.32C2425.02,2301.75 2428.82,2198.81 2431.09,2165.95C2431.51,2159.93 2436.3,2155.26 2442.16,2155.11Z" style="fill:rgb(159,171,206);fill-rule:nonzero;"/>
    </g>
    <g transform="matrix(4.16667,0,0,4.16667,-9892.13,-8748.71)">
        <path d="M2501.05,2332.51C2507.75,2329.82 2516.28,2326.11 2522.82,2322.3C2525.79,2320.57 2529.46,2322.98 2529.02,2326.4L2517.31,2455.84C2516.96,2459.74 2511.28,2459.79 2510.85,2455.9C2507.23,2422.85 2501.01,2373.73 2493.69,2347.33C2492,2341.24 2495.18,2334.86 2501.05,2332.51Z" style="fill:rgb(237,25,82);fill-rule:nonzero;"/>
    </g>
    <g transform="matrix(4.16667,0,0,4.16667,-9892.13,-8748.71)">
        <path d="M2481.51,2341.73L2506.8,2480.63C2509.03,2492.87 2507.72,2505.5 2503.03,2517.03L2481.49,2569.97C2479.14,2575.75 2470.67,2574.76 2469.72,2568.6C2463.04,2525.26 2450.27,2424.52 2460.78,2342.25C2461.63,2335.64 2468.37,2331.51 2474.65,2333.71C2478.22,2334.96 2480.83,2338.02 2481.51,2341.73Z" style="fill:rgb(237,25,82);fill-rule:nonzero;"/>
    </g>
    <g transform="matrix(4.16667,0,0,4.16667,-9892.13,-8748.71)">
        <path d="M2452.28,2327.11C2453.54,2328.64 2454.15,2330.61 2453.96,2332.58C2452.26,2350.07 2444.04,2437.68 2444.84,2481.59C2445.4,2512.43 2434.3,2543.26 2426.01,2561.84C2423.44,2567.62 2414.94,2566.55 2413.86,2560.32C2408.98,2532.09 2400.63,2480.34 2401.26,2459.8C2401.97,2436.73 2428.73,2359.59 2439.51,2329.36C2441.46,2323.91 2448.59,2322.66 2452.28,2327.11Z" style="fill:rgb(237,25,82);fill-rule:nonzero;"/>
    </g>
    <g transform="matrix(4.16667,0,0,4.16667,-9892.13,-8748.71)">
        <path d="M2413.05,2252.03C2414.19,2249.36 2418.02,2249.52 2418.92,2252.28C2424.16,2268.52 2435.78,2305.79 2435.08,2315.62C2434.35,2325.91 2409.27,2387.92 2399.5,2419.16C2398.53,2422.25 2394.01,2421.79 2393.7,2418.56C2390.57,2386.19 2387.22,2311.93 2413.05,2252.03Z" style="fill:rgb(245,132,102);fill-rule:nonzero;"/>
    </g>
    <g transform="matrix(4.16667,0,0,4.16667,-9892.13,-8748.71)">
        <path d="M2639.61,2155.11C2619.14,2154.6 2572.79,2158.65 2545.32,2201.83L2545.32,2289.47C2545.32,2289.47 2569.98,2338.09 2617.18,2318.32C2656.75,2301.75 2652.95,2198.81 2650.68,2165.95C2650.26,2159.93 2645.47,2155.26 2639.61,2155.11Z" style="fill:rgb(159,171,206);fill-rule:nonzero;"/>
    </g>
    <g transform="matrix(4.16667,0,0,4.16667,-9892.13,-8748.71)">
        <path d="M2580.72,2332.51C2574.02,2329.82 2565.49,2326.11 2558.95,2322.3C2555.98,2320.57 2552.31,2322.98 2552.75,2326.4L2564.46,2455.84C2564.81,2459.74 2570.49,2459.79 2570.92,2455.9C2574.54,2422.85 2580.76,2373.73 2588.08,2347.33C2589.77,2341.24 2586.59,2334.86 2580.72,2332.51Z" style="fill:rgb(237,25,82);fill-rule:nonzero;"/>
    </g>
    <g transform="matrix(4.16667,0,0,4.16667,-9892.13,-8748.71)">
        <path d="M2600.26,2341.73L2574.97,2480.63C2572.74,2492.87 2574.05,2505.5 2578.74,2517.03L2600.28,2569.97C2602.63,2575.75 2611.1,2574.76 2612.05,2568.6C2618.73,2525.26 2631.5,2424.52 2620.99,2342.25C2620.14,2335.64 2613.4,2331.51 2607.12,2333.71C2603.55,2334.96 2600.94,2338.02 2600.26,2341.73Z" style="fill:rgb(237,25,82);fill-rule:nonzero;"/>
    </g>
    <g transform="matrix(4.16667,0,0,4.16667,-9892.13,-8748.71)">
        <path d="M2629.49,2327.11C2628.23,2328.64 2627.62,2330.61 2627.81,2332.58C2629.51,2350.07 2637.73,2437.68 2636.93,2481.59C2636.37,2512.43 2647.47,2543.26 2655.76,2561.84C2658.33,2567.62 2666.83,2566.55 2667.91,2560.32C2672.79,2532.09 2681.14,2480.34 2680.51,2459.8C2679.8,2436.73 2653.04,2359.59 2642.26,2329.36C2640.31,2323.91 2633.18,2322.66 2629.49,2327.11Z" style="fill:rgb(237,25,82);fill-rule:nonzero;"/>
    </g>
    <g transform="matrix(4.16667,0,0,4.16667,-9892.13,-8748.71)">
        <path d="M2668.72,2252.03C2667.58,2249.36 2663.75,2249.52 2662.85,2252.28C2657.61,2268.52 2645.99,2305.79 2646.69,2315.62C2647.42,2325.91 2672.5,2387.92 2682.27,2419.16C2683.24,2422.25 2687.76,2421.79 2688.07,2418.56C2691.2,2386.19 2694.55,2311.93 2668.72,2252.03Z" style="fill:rgb(245,132,102);fill-rule:nonzero;"/>
    </g>
    <g transform="matrix(4.16667,0,0,4.16667,-9892.13,-8748.71)">
        <path d="M2458.39,2135.62C2458.76,2142.13 2463.99,2147.2 2470.31,2147.2C2484.73,2147.2 2498.69,2152.39 2509.8,2161.86L2528.14,2177.52C2531.45,2180.34 2536.45,2177.92 2536.45,2173.5L2536.45,2119.44L2457.46,2119.44L2458.39,2135.62Z" style="fill:rgb(159,171,206);fill-rule:nonzero;"/>
    </g>
    <g transform="matrix(4.16667,0,0,4.16667,-9892.13,-8748.71)">
        <path d="M2426.82,2127.52L2428.73,2141.04C2429.26,2144.77 2432.6,2147.44 2436.35,2147.13L2447.44,2146.23C2450.95,2145.94 2454.28,2143.13 2453.96,2139.63C2453.33,2132.89 2452.57,2126.11 2451.72,2119.44L2426.04,2119.44C2426.19,2122.14 2426.44,2124.83 2426.82,2127.52Z" style="fill:rgb(159,171,206);fill-rule:nonzero;"/>
    </g>
    <g transform="matrix(4.16667,0,0,4.16667,-9892.13,-8748.71)">
        <path d="M2545.32,2173.5C2545.32,2177.92 2550.32,2180.34 2553.63,2177.52L2571.97,2161.86C2583.08,2152.39 2597.04,2147.2 2611.45,2147.2L2611.46,2147.2C2617.78,2147.2 2623.01,2142.13 2623.38,2135.62L2624.31,2119.44L2545.32,2119.44L2545.32,2173.5Z" style="fill:rgb(159,171,206);fill-rule:nonzero;"/>
    </g>
    <g transform="matrix(4.16667,0,0,4.16667,-9892.13,-8748.71)">
        <path d="M2627.81,2139.63C2627.49,2143.13 2630.82,2145.94 2634.33,2146.23L2645.42,2147.13C2649.17,2147.44 2652.51,2144.77 2653.04,2141.04L2654.95,2127.52C2655.33,2124.83 2655.58,2122.14 2655.73,2119.44L2630.05,2119.44C2629.2,2126.11 2628.44,2132.89 2627.81,2139.63Z" style="fill:rgb(159,171,206);fill-rule:nonzero;"/>
    </g>
    <g transform="matrix(4.16667,0,0,4.16667,-9892.13,-8748.71)">
        <path d="M2457.46,2119.44L2536.45,2119.44" style="fill:none;fill-rule:nonzero;"/>
    </g>
    <g transform="matrix(4.16667,0,0,4.16667,-9892.13,-8748.71)">
        <path d="M2545.32,2119.44L2624.31,2119.44" style="fill:none;fill-rule:nonzero;"/>
    </g>
</svg>
