<?xml version="1.0" encoding="UTF-8" standalone="no"?>
<!DOCTYPE svg PUBLIC "-//W3C//DTD SVG 1.1//EN" "http://www.w3.org/Graphics/SVG/1.1/DTD/svg11.dtd">
<svg width="100%" height="100%" viewBox="0 0 1918 5047" version="1.1" xmlns="http://www.w3.org/2000/svg" xmlns:xlink="http://www.w3.org/1999/xlink" xml:space="preserve" xmlns:serif="http://www.serif.com/" style="fill-rule:evenodd;clip-rule:evenodd;stroke-linejoin:round;stroke-miterlimit:2;">
    <g transform="matrix(4.16667,0,0,4.16667,-48.8337,-5782.13)">
        <path d="M117.473,1629.67C112.725,1630.71 109.409,1635 109.495,1639.86C109.685,1650.58 110.834,1669.18 116.01,1684.5C127.66,1718.98 154.787,1744 157.411,1770.05C157.573,1771.65 159.424,1772.47 160.739,1771.53L220.367,1704.23C224.725,1701.13 225.977,1695.2 223.247,1690.6L173.738,1619.64C170.885,1615.97 166,1614.54 161.62,1616.11C151.148,1619.86 131.58,1626.57 117.473,1629.67Z" style="fill:rgb(237,26,82);fill-rule:nonzero;"/>
    </g>
    <g transform="matrix(4.16667,0,0,4.16667,-48.8337,-5782.13)">
        <path d="M365.52,1629.67C370.268,1630.71 373.585,1635 373.499,1639.86C373.309,1650.58 372.159,1669.18 366.983,1684.5C355.334,1718.98 328.207,1744 325.583,1770.05C325.421,1771.65 323.569,1772.47 322.254,1771.53L262.626,1705.23C258.268,1702.13 257.015,1696.2 259.746,1691.6L309.256,1619.64C312.108,1615.97 316.993,1614.54 321.374,1616.11C331.845,1619.86 351.414,1626.57 365.52,1629.67Z" style="fill:rgb(237,26,82);fill-rule:nonzero;"/>
    </g>
</svg>
