<?xml version="1.0" encoding="UTF-8" standalone="no"?>
<!DOCTYPE svg PUBLIC "-//W3C//DTD SVG 1.1//EN" "http://www.w3.org/Graphics/SVG/1.1/DTD/svg11.dtd">
<svg width="100%" height="100%" viewBox="0 0 1918 2093" version="1.1" xmlns="http://www.w3.org/2000/svg" xmlns:xlink="http://www.w3.org/1999/xlink" xml:space="preserve" xmlns:serif="http://www.serif.com/" style="fill-rule:evenodd;clip-rule:evenodd;stroke-linejoin:round;stroke-miterlimit:2;">
    <g transform="matrix(4.16667,0,0,4.16667,-3244.91,-5784.75)">
        <path d="M1008.84,1890.51C955.789,1890.51 895.638,1854.74 893.104,1853.22C891.939,1852.52 891.209,1851.28 891.166,1849.92L889.772,1806.33C889.764,1806.07 889.781,1805.81 889.823,1805.56L898.162,1754.6C900.359,1741.17 896.732,1727.6 888.209,1717.37C882.75,1710.81 879.222,1704.94 877.072,1700.76L858.418,1724.86C859.012,1732.17 859.889,1761.31 840.697,1794.21C840.083,1795.26 839.023,1795.98 837.817,1796.15C836.611,1796.33 835.392,1795.94 834.503,1795.11L780.041,1743.96C779.236,1743.2 778.779,1742.15 778.779,1741.04L778.779,1700.18C778.779,1700.14 778.78,1700.09 778.782,1700.04C780.577,1649.77 806.983,1625.56 814.894,1619.41C813.361,1609.65 809.046,1573.91 821.309,1539.17C834.199,1502.66 878.745,1487 884.095,1485.24L955.762,1442.58L962.544,1397.99C962.799,1396.31 964.082,1394.98 965.746,1394.66L988.315,1390.33C1001.93,1387.72 1015.74,1387.68 1029.37,1390.2L1053.45,1394.66C1055.13,1394.97 1056.42,1396.3 1056.68,1397.99L1063.46,1442.58L1135.13,1485.24C1140.48,1487 1185.02,1502.66 1197.91,1539.17C1210.29,1574.22 1204.45,1609 1202.56,1618.14C1209.76,1625.5 1237.08,1656.69 1238.91,1707.69L1238.91,1741.04C1238.91,1742.13 1238.47,1743.17 1237.69,1743.92L1184.76,1795.07C1183.88,1795.92 1182.65,1796.32 1181.43,1796.16C1180.22,1795.99 1179.14,1795.27 1178.53,1794.21C1159.33,1761.31 1160.21,1732.17 1160.8,1724.86L1142.15,1700.76C1140,1704.94 1136.47,1710.81 1131.01,1717.37C1122.49,1727.6 1118.86,1741.17 1121.06,1754.6L1129.4,1805.56C1129.44,1805.81 1129.46,1806.07 1129.45,1806.33L1128.06,1849.92C1128.01,1851.29 1127.27,1852.55 1126.08,1853.24C1123.48,1854.77 1061.88,1890.51 1008.84,1890.51Z" style="fill:rgb(72,80,106);fill-rule:nonzero;"/>
    </g>
    <g transform="matrix(4.16667,0,0,4.16667,-3244.91,-5784.75)">
        <path d="M1004.49,1409.64L1004.49,1450.21C1004.49,1461.32 999.96,1471.91 992.014,1479.41L985.237,1485.81L992.241,1491.74C999.993,1498.3 1004.49,1508.1 1004.49,1518.43L1004.49,1686.61C1004.49,1689.7 1000.49,1690.78 999.016,1688.08L945.872,1611.08C943.961,1607.58 943.181,1603.55 943.619,1599.56C945.789,1579.79 946.935,1516.41 901.325,1497.66C896.695,1495.76 896.333,1489.17 900.762,1486.81L960.296,1455.11L994.968,1406.43C997.98,1402.2 1004.49,1404.39 1004.49,1409.64Z" style="fill:rgb(159,171,206);fill-rule:nonzero;"/>
    </g>
    <g transform="matrix(4.16667,0,0,4.16667,-3244.91,-5784.75)">
        <path d="M868.288,1498C874.315,1495.12 881.27,1494.91 887.523,1497.25C897.947,1501.15 913.88,1507.52 921.593,1524.05C926.605,1534.79 873.55,1530.64 868.4,1570.85C867.697,1576.34 864.86,1581.34 860.506,1584.76C857.034,1587.48 856.251,1587.48 832.726,1608.64C829.348,1611.68 823.94,1610.03 822.867,1605.61C817.328,1582.82 810.24,1525.68 868.288,1498Z" style="fill:rgb(159,171,206);fill-rule:nonzero;"/>
    </g>
    <g transform="matrix(4.16667,0,0,4.16667,-3244.91,-5784.75)">
        <path d="M874.023,1582.17C873.979,1564.63 885.002,1548.98 901.526,1543.11L920.919,1536.23C925.562,1534.02 930.166,1537.31 931.281,1542.34C934.367,1556.24 938.211,1573.63 934.764,1600.94C934.296,1604.66 931.746,1607.79 928.2,1608.99L882.324,1624.53C878.092,1625.96 873.74,1622.71 873.918,1618.25C874.066,1614.52 874.063,1597.77 874.023,1582.17Z" style="fill:rgb(237,25,82);fill-rule:nonzero;"/>
    </g>
    <g transform="matrix(4.16667,0,0,4.16667,-3244.91,-5784.75)">
        <path d="M884.688,1629.67C879.941,1630.71 876.624,1635 876.71,1639.86C876.9,1650.58 878.049,1669.18 883.225,1684.5C894.875,1718.98 922.002,1744 924.626,1770.05C924.788,1771.65 926.639,1772.47 927.954,1771.53L987.582,1704.23C991.941,1701.13 993.193,1695.2 990.463,1690.6L940.953,1619.64C938.1,1615.97 933.215,1614.54 928.835,1616.11C918.364,1619.86 898.795,1626.57 884.688,1629.67Z" style="fill:rgb(237,25,82);fill-rule:nonzero;"/>
    </g>
    <g transform="matrix(4.16667,0,0,4.16667,-3244.91,-5784.75)">
        <path d="M841.376,1616.87C836.147,1628.43 828.87,1646.86 826.943,1663.51C826.088,1670.9 823.274,1677.93 818.536,1683.67C815.622,1687.2 812.676,1692.2 811.103,1699.02C808.96,1708.3 802.383,1716.78 797.058,1722.41C793.953,1725.69 788.419,1723.84 787.921,1719.34C785.56,1698.05 786.103,1647.5 835.958,1612.37C838.984,1610.24 842.902,1613.5 841.376,1616.87Z" style="fill:rgb(159,171,206);fill-rule:nonzero;"/>
    </g>
    <g transform="matrix(4.16667,0,0,4.16667,-3244.91,-5784.75)">
        <path d="M863.608,1595.7C865.562,1593.33 869.408,1594.89 869.163,1597.95C867.98,1612.72 866.405,1641.25 870.036,1658.5C874.223,1678.39 848.59,1713.57 829.252,1727.54C825.639,1730.16 820.843,1726.44 822.436,1722.27L828.095,1707.47C832.364,1696.31 834.696,1684.48 834.767,1672.53C834.869,1655.28 839.231,1625.22 863.608,1595.7Z" style="fill:rgb(159,171,206);fill-rule:nonzero;"/>
    </g>
    <g transform="matrix(4.16667,0,0,4.16667,-3244.91,-5784.75)">
        <path d="M1004.49,1709.78L1004.49,1868.88C1004.49,1873.09 999.725,1875.4 996.577,1872.71L979.102,1857.8C968.528,1848.77 955.23,1843.84 941.501,1843.84C935.478,1843.84 930.498,1839 930.142,1832.8L927.641,1789.31C927.344,1784.15 929.641,1779.2 933.723,1776.19L996.849,1705.73C1000.04,1703.38 1004.49,1705.73 1004.49,1709.78Z" style="fill:rgb(159,171,206);fill-rule:nonzero;"/>
    </g>
    <g transform="matrix(4.16667,0,0,4.16667,-3244.91,-5784.75)">
        <path d="M908.832,1748.08C908.832,1748.08 919.926,1793.35 923.919,1836.62C924.227,1839.95 921.054,1842.63 917.717,1842.9L909.148,1843.77C905.578,1844.06 902.399,1841.52 901.897,1837.97L900.075,1825.08C898.462,1813.68 899.001,1802.08 901.662,1790.88L908.832,1748.08Z" style="fill:rgb(159,171,206);fill-rule:nonzero;"/>
    </g>
    <g transform="matrix(4.16667,0,0,4.16667,-3244.91,-5784.75)">
        <path d="M1012.94,1409.64L1012.94,1450.21C1012.94,1461.32 1017.46,1471.91 1025.41,1479.41L1032.19,1485.81L1025.18,1491.74C1017.43,1498.3 1012.94,1508.1 1012.94,1518.43L1012.94,1686.61C1012.94,1689.7 1016.93,1690.78 1018.41,1688.08L1071.55,1611.08C1073.46,1607.58 1074.24,1603.55 1073.8,1599.56C1071.63,1579.79 1070.49,1516.41 1116.1,1497.66C1120.73,1495.76 1121.09,1489.17 1116.66,1486.81L1057.13,1455.11L1022.46,1406.43C1019.44,1402.2 1012.94,1404.39 1012.94,1409.64Z" style="fill:rgb(159,171,206);fill-rule:nonzero;"/>
    </g>
    <g transform="matrix(4.16667,0,0,4.16667,-3244.91,-5784.75)">
        <path d="M1149.14,1498C1143.11,1495.12 1136.15,1494.91 1129.9,1497.25C1119.48,1501.15 1103.54,1507.52 1095.83,1524.05C1090.83,1534.76 1145.21,1531.23 1149.26,1570.7C1149.83,1576.31 1152.66,1581.45 1157.11,1584.91C1160.43,1587.48 1161.61,1587.87 1184.7,1608.64C1188.08,1611.68 1193.48,1610.03 1194.56,1605.61C1200.1,1582.82 1207.18,1525.68 1149.14,1498Z" style="fill:rgb(159,171,206);fill-rule:nonzero;"/>
    </g>
    <g transform="matrix(4.16667,0,0,4.16667,-3244.91,-5784.75)">
        <path d="M1143.4,1582.17C1143.44,1564.63 1132.42,1548.98 1115.9,1543.11L1096.51,1536.23C1091.86,1534.02 1087.26,1537.31 1086.14,1542.34C1083.06,1556.24 1079.21,1573.63 1082.66,1600.94C1083.13,1604.66 1085.68,1607.79 1089.22,1608.99L1135.1,1624.53C1139.33,1625.96 1143.68,1622.71 1143.51,1618.25C1143.36,1614.52 1143.36,1597.77 1143.4,1582.17Z" style="fill:rgb(237,25,82);fill-rule:nonzero;"/>
    </g>
    <g transform="matrix(4.16667,0,0,4.16667,-3244.91,-5784.75)">
        <path d="M1132.74,1629.67C1137.48,1630.71 1140.8,1635 1140.71,1639.86C1140.52,1650.58 1139.37,1669.18 1134.2,1684.5C1122.55,1718.98 1095.42,1744 1092.8,1770.05C1092.64,1771.65 1090.78,1772.47 1089.47,1771.53L1029.84,1705.23C1025.48,1702.13 1024.23,1696.2 1026.96,1691.6L1076.47,1619.64C1079.32,1615.97 1084.21,1614.54 1088.59,1616.11C1099.06,1619.86 1118.63,1626.57 1132.74,1629.67Z" style="fill:rgb(237,25,82);fill-rule:nonzero;"/>
    </g>
    <g transform="matrix(4.16667,0,0,4.16667,-3244.91,-5784.75)">
        <path d="M1176.05,1616.87C1181.28,1628.43 1188.55,1646.86 1190.48,1663.51C1191.34,1670.9 1194.15,1677.93 1198.89,1683.67C1201.8,1687.2 1204.75,1692.2 1206.32,1699.02C1208.46,1708.3 1215.04,1716.78 1220.37,1722.41C1223.47,1725.69 1229,1723.84 1229.5,1719.34C1231.86,1698.05 1231.32,1647.5 1181.47,1612.37C1178.44,1610.24 1174.52,1613.5 1176.05,1616.87Z" style="fill:rgb(159,171,206);fill-rule:nonzero;"/>
    </g>
    <g transform="matrix(4.16667,0,0,4.16667,-3244.91,-5784.75)">
        <path d="M1153.82,1595.7C1151.86,1593.33 1148.02,1594.89 1148.26,1597.95C1149.44,1612.72 1151.02,1641.25 1147.39,1658.5C1143.2,1678.39 1168.83,1713.57 1188.17,1727.54C1191.79,1730.16 1196.58,1726.44 1194.99,1722.27L1189.33,1707.47C1185.06,1696.31 1182.73,1684.48 1182.66,1672.53C1182.55,1655.28 1178.19,1625.22 1153.82,1595.7Z" style="fill:rgb(159,171,206);fill-rule:nonzero;"/>
    </g>
    <g transform="matrix(4.16667,0,0,4.16667,-3244.91,-5784.75)">
        <path d="M1012.94,1709.78L1012.94,1868.88C1012.94,1873.09 1017.7,1875.4 1020.85,1872.71L1038.32,1857.8C1048.9,1848.77 1062.19,1843.84 1075.92,1843.84C1081.95,1843.84 1086.93,1839 1087.28,1832.8L1089.78,1789.31C1090.08,1784.15 1087.78,1779.2 1083.7,1776.19L1020.57,1705.73C1017.38,1703.38 1012.94,1705.73 1012.94,1709.78Z" style="fill:rgb(159,171,206);fill-rule:nonzero;"/>
    </g>
    <g transform="matrix(4.16667,0,0,4.16667,-3244.91,-5784.75)">
        <path d="M1108.59,1748.08C1108.59,1748.08 1097.5,1793.35 1093.5,1836.62C1093.2,1839.95 1096.37,1842.63 1099.71,1842.9L1108.28,1843.77C1111.85,1844.06 1115.02,1841.52 1115.53,1837.97L1117.35,1825.08C1118.96,1813.68 1118.42,1802.08 1115.76,1790.88L1108.59,1748.08Z" style="fill:rgb(159,171,206);fill-rule:nonzero;"/>
    </g>
</svg>
