<?xml version="1.0" encoding="UTF-8" standalone="no"?>
<!DOCTYPE svg PUBLIC "-//W3C//DTD SVG 1.1//EN" "http://www.w3.org/Graphics/SVG/1.1/DTD/svg11.dtd">
<svg width="100%" height="100%" viewBox="0 0 1918 2093" version="1.1" xmlns="http://www.w3.org/2000/svg" xmlns:xlink="http://www.w3.org/1999/xlink" xml:space="preserve" xmlns:serif="http://www.serif.com/" style="fill-rule:evenodd;clip-rule:evenodd;stroke-linejoin:round;stroke-miterlimit:2;">
    <g transform="matrix(4.16667,0,0,4.16667,-6442.67,-5784.75)">
        <path d="M1776.3,1890.51C1723.25,1890.51 1663.1,1854.74 1660.56,1853.22C1659.4,1852.52 1658.67,1851.28 1658.63,1849.92L1657.23,1806.33C1657.22,1806.07 1657.24,1805.81 1657.28,1805.56L1665.62,1754.6C1667.82,1741.17 1664.19,1727.6 1655.67,1717.37C1650.21,1710.81 1646.68,1704.94 1644.53,1700.76L1625.88,1724.86C1626.47,1732.17 1627.35,1761.31 1608.16,1794.21C1607.54,1795.26 1606.48,1795.98 1605.28,1796.15C1604.07,1796.33 1602.85,1795.94 1601.96,1795.11L1547.5,1743.96C1546.69,1743.2 1546.24,1742.15 1546.24,1741.04L1546.24,1700.04C1548.04,1649.77 1574.44,1625.56 1582.35,1619.41C1580.82,1609.65 1576.51,1573.91 1588.77,1539.17C1601.66,1502.66 1646.2,1487 1651.55,1485.24L1723.22,1442.58L1730,1397.99C1730.26,1396.31 1731.54,1394.98 1733.21,1394.66L1755.78,1390.33C1769.39,1387.72 1783.2,1387.68 1796.83,1390.2L1820.91,1394.66C1822.58,1394.97 1823.88,1396.3 1824.14,1397.99L1830.92,1442.58L1902.58,1485.24C1907.93,1487 1952.48,1502.65 1965.37,1539.17C1977.75,1574.22 1971.91,1609 1970.02,1618.14C1977.22,1625.5 2004.54,1656.69 2006.37,1707.69L2006.37,1741.04C2006.37,1742.13 2005.93,1743.17 2005.15,1743.92L1952.22,1795.07C1951.34,1795.92 1950.11,1796.32 1948.89,1796.16C1947.68,1795.99 1946.6,1795.27 1945.98,1794.21C1926.79,1761.31 1927.67,1732.17 1928.26,1724.86L1909.61,1700.76C1907.46,1704.94 1903.93,1710.82 1898.47,1717.37C1889.95,1727.6 1886.32,1741.17 1888.52,1754.6L1896.86,1805.56C1896.9,1805.81 1896.92,1806.07 1896.91,1806.33L1895.51,1849.92C1895.47,1851.29 1894.72,1852.55 1893.54,1853.24C1890.94,1854.77 1829.33,1890.51 1776.3,1890.51Z" style="fill:rgb(72,80,106);fill-rule:nonzero;"/>
    </g>
    <g transform="matrix(4.16667,0,0,4.16667,-6442.67,-5784.75)">
        <path d="M1771.94,1409.64L1771.94,1450.21C1771.94,1461.32 1767.42,1471.91 1759.47,1479.41L1752.7,1485.81L1759.7,1491.74C1767.45,1498.3 1771.94,1508.1 1771.94,1518.43L1771.94,1686.61C1771.94,1689.7 1767.95,1690.78 1766.48,1688.08L1713.33,1611.08C1711.42,1607.58 1710.64,1603.55 1711.08,1599.56C1713.25,1579.79 1714.39,1516.41 1668.78,1497.66C1664.15,1495.76 1663.79,1489.17 1668.22,1486.81L1727.75,1455.11L1762.43,1406.43C1765.44,1402.2 1771.94,1404.39 1771.94,1409.64Z" style="fill:rgb(159,171,206);fill-rule:nonzero;"/>
    </g>
    <g transform="matrix(4.16667,0,0,4.16667,-6442.67,-5784.75)">
        <path d="M1635.75,1498C1641.77,1495.12 1648.73,1494.91 1654.98,1497.25C1665.41,1501.15 1681.34,1507.52 1689.05,1524.05C1694.06,1534.79 1641.01,1530.64 1635.86,1570.85C1635.16,1576.34 1632.32,1581.34 1627.97,1584.76C1624.49,1587.48 1623.71,1587.48 1600.19,1608.64C1596.81,1611.68 1591.4,1610.03 1590.33,1605.61C1584.79,1582.82 1577.7,1525.68 1635.75,1498Z" style="fill:rgb(159,171,206);fill-rule:nonzero;"/>
    </g>
    <g transform="matrix(4.16667,0,0,4.16667,-6442.67,-5784.75)">
        <path d="M1641.48,1582.17C1641.44,1564.63 1652.46,1548.98 1668.98,1543.11L1688.38,1536.23C1693.02,1534.02 1697.63,1537.31 1698.74,1542.34C1701.83,1556.24 1705.67,1573.63 1702.22,1600.94C1701.76,1604.66 1699.21,1607.79 1695.66,1608.99L1649.78,1624.53C1645.55,1625.96 1641.2,1622.71 1641.38,1618.25C1641.53,1614.52 1641.52,1597.77 1641.48,1582.17Z" style="fill:rgb(159,171,206);fill-rule:nonzero;"/>
    </g>
    <g transform="matrix(4.16667,0,0,4.16667,-6442.67,-5784.75)">
        <path d="M1652.15,1629.67C1647.4,1630.71 1644.08,1635 1644.17,1639.86C1644.36,1650.58 1645.51,1669.18 1650.68,1684.5C1662.33,1718.98 1689.46,1744 1692.09,1770.05C1692.25,1771.65 1694.1,1772.47 1695.41,1771.53L1755.04,1704.23C1759.4,1701.13 1760.65,1695.2 1757.92,1690.6L1708.41,1619.64C1705.56,1615.97 1700.67,1614.54 1696.29,1616.11C1685.82,1619.86 1666.25,1626.57 1652.15,1629.67Z" style="fill:rgb(159,171,206);fill-rule:nonzero;"/>
    </g>
    <g transform="matrix(4.16667,0,0,4.16667,-6442.67,-5784.75)">
        <path d="M1608.84,1616.87C1603.61,1628.43 1596.33,1646.86 1594.4,1663.51C1593.55,1670.9 1590.73,1677.93 1585.99,1683.67C1583.08,1687.2 1580.14,1692.2 1578.56,1699.02C1576.42,1708.3 1569.84,1716.78 1564.52,1722.41C1561.41,1725.69 1555.88,1723.84 1555.38,1719.34C1553.02,1698.05 1553.56,1647.5 1603.42,1612.37C1606.44,1610.24 1610.36,1613.5 1608.84,1616.87Z" style="fill:rgb(159,171,206);fill-rule:nonzero;"/>
    </g>
    <g transform="matrix(4.16667,0,0,4.16667,-6442.67,-5784.75)">
        <path d="M1631.07,1595.7C1633.02,1593.33 1636.87,1594.89 1636.62,1597.95C1635.44,1612.72 1633.86,1641.25 1637.5,1658.5C1641.68,1678.39 1616.05,1713.57 1596.71,1727.54C1593.1,1730.16 1588.3,1726.44 1589.89,1722.27L1595.55,1707.47C1599.82,1696.31 1602.16,1684.48 1602.23,1672.53C1602.33,1655.28 1606.69,1625.22 1631.07,1595.7Z" style="fill:rgb(159,171,206);fill-rule:nonzero;"/>
    </g>
    <g transform="matrix(4.16667,0,0,4.16667,-6442.67,-5784.75)">
        <path d="M1771.94,1709.78L1771.94,1868.88C1771.94,1873.09 1767.18,1875.4 1764.04,1872.71L1746.56,1857.8C1735.99,1848.77 1722.69,1843.84 1708.96,1843.84C1702.94,1843.84 1697.96,1839 1697.6,1832.8L1695.1,1789.31C1694.8,1784.15 1697.1,1779.2 1701.18,1776.19L1764.31,1705.73C1767.5,1703.38 1771.94,1705.73 1771.94,1709.78Z" style="fill:rgb(237,25,82);fill-rule:nonzero;"/>
    </g>
    <g transform="matrix(4.16667,0,0,4.16667,-6442.67,-5784.75)">
        <path d="M1676.29,1748.08C1676.29,1748.08 1687.39,1793.35 1691.38,1836.62C1691.69,1839.95 1688.51,1842.63 1685.18,1842.9L1676.61,1843.77C1673.04,1844.06 1669.86,1841.52 1669.36,1837.97L1667.53,1825.08C1665.92,1813.68 1666.46,1802.08 1669.12,1790.88L1676.29,1748.08Z" style="fill:rgb(159,171,206);fill-rule:nonzero;"/>
    </g>
    <g transform="matrix(4.16667,0,0,4.16667,-6442.67,-5784.75)">
        <path d="M1780.4,1409.64L1780.4,1450.21C1780.4,1461.32 1784.92,1471.91 1792.87,1479.41L1799.65,1485.81L1792.64,1491.74C1784.89,1498.3 1780.4,1508.1 1780.4,1518.43L1780.4,1686.61C1780.4,1689.7 1784.39,1690.78 1785.87,1688.08L1839.01,1611.08C1840.92,1607.58 1841.7,1603.55 1841.26,1599.56C1839.09,1579.79 1837.95,1516.41 1883.56,1497.66C1888.19,1495.76 1888.55,1489.17 1884.12,1486.81L1824.59,1455.11L1789.92,1406.43C1786.9,1402.2 1780.4,1404.39 1780.4,1409.64Z" style="fill:rgb(159,171,206);fill-rule:nonzero;"/>
    </g>
    <g transform="matrix(4.16667,0,0,4.16667,-6442.67,-5784.75)">
        <path d="M1916.6,1498C1910.57,1495.12 1903.61,1494.91 1897.36,1497.25C1886.94,1501.15 1871,1507.52 1863.29,1524.05C1858.29,1534.76 1912.67,1531.23 1916.72,1570.7C1917.29,1576.31 1920.12,1581.45 1924.57,1584.91C1927.89,1587.48 1929.07,1587.87 1952.16,1608.64C1955.54,1611.68 1960.94,1610.03 1962.02,1605.61C1967.55,1582.82 1974.64,1525.68 1916.6,1498Z" style="fill:rgb(159,171,206);fill-rule:nonzero;"/>
    </g>
    <g transform="matrix(4.16667,0,0,4.16667,-6442.67,-5784.75)">
        <path d="M1910.86,1582.17C1910.9,1564.63 1899.88,1548.98 1883.36,1543.11L1863.96,1536.23C1859.32,1534.02 1854.72,1537.31 1853.6,1542.34C1850.52,1556.24 1846.67,1573.63 1850.12,1600.94C1850.59,1604.66 1853.14,1607.79 1856.68,1608.99L1902.56,1624.53C1906.79,1625.96 1911.14,1622.71 1910.97,1618.25C1910.82,1614.52 1910.82,1597.77 1910.86,1582.17Z" style="fill:rgb(159,171,206);fill-rule:nonzero;"/>
    </g>
    <g transform="matrix(4.16667,0,0,4.16667,-6442.67,-5784.75)">
        <path d="M1900.19,1629.67C1904.94,1630.71 1908.26,1635 1908.17,1639.86C1907.98,1650.58 1906.83,1669.18 1901.66,1684.5C1890.01,1718.98 1862.88,1744 1860.26,1770.05C1860.1,1771.65 1858.24,1772.47 1856.93,1771.53L1797.3,1705.23C1792.94,1702.13 1791.69,1696.2 1794.42,1691.6L1843.93,1619.64C1846.78,1615.97 1851.67,1614.54 1856.05,1616.11C1866.52,1619.86 1886.09,1626.57 1900.19,1629.67Z" style="fill:rgb(159,171,206);fill-rule:nonzero;"/>
    </g>
    <g transform="matrix(4.16667,0,0,4.16667,-6442.67,-5784.75)">
        <path d="M1943.51,1616.87C1948.74,1628.43 1956.01,1646.86 1957.94,1663.51C1958.79,1670.9 1961.61,1677.93 1966.35,1683.67C1969.26,1687.2 1972.21,1692.2 1973.78,1699.02C1975.92,1708.3 1982.5,1716.78 1987.83,1722.41C1990.93,1725.69 1996.46,1723.84 1996.96,1719.34C1999.32,1698.05 1998.78,1647.5 1948.93,1612.37C1945.9,1610.24 1941.98,1613.5 1943.51,1616.87Z" style="fill:rgb(159,171,206);fill-rule:nonzero;"/>
    </g>
    <g transform="matrix(4.16667,0,0,4.16667,-6442.67,-5784.75)">
        <path d="M1921.27,1595.7C1919.32,1593.33 1915.47,1594.89 1915.72,1597.95C1916.9,1612.72 1918.48,1641.25 1914.85,1658.5C1910.66,1678.39 1936.29,1713.57 1955.63,1727.54C1959.24,1730.16 1964.04,1726.44 1962.45,1722.27L1956.79,1707.47C1952.52,1696.31 1950.19,1684.48 1950.12,1672.53C1950.01,1655.28 1945.65,1625.22 1921.27,1595.7Z" style="fill:rgb(159,171,206);fill-rule:nonzero;"/>
    </g>
    <g transform="matrix(4.16667,0,0,4.16667,-6442.67,-5784.75)">
        <path d="M1780.4,1709.78L1780.4,1868.88C1780.4,1873.09 1785.16,1875.4 1788.31,1872.71L1805.78,1857.8C1816.35,1848.77 1829.65,1843.84 1843.38,1843.84C1849.41,1843.84 1854.39,1839 1854.74,1832.8L1857.24,1789.31C1857.54,1784.15 1855.24,1779.2 1851.16,1776.19L1788.03,1705.73C1784.84,1703.38 1780.4,1705.73 1780.4,1709.78Z" style="fill:rgb(237,25,82);fill-rule:nonzero;"/>
    </g>
    <g transform="matrix(4.16667,0,0,4.16667,-6442.67,-5784.75)">
        <path d="M1876.05,1748.08C1876.05,1748.08 1864.96,1793.35 1860.96,1836.62C1860.66,1839.95 1863.83,1842.63 1867.17,1842.9L1875.74,1843.77C1879.31,1844.06 1882.48,1841.52 1882.99,1837.97L1884.81,1825.08C1886.42,1813.68 1885.88,1802.08 1883.22,1790.88L1876.05,1748.08Z" style="fill:rgb(159,171,206);fill-rule:nonzero;"/>
    </g>
</svg>
