<?xml version="1.0" encoding="UTF-8" standalone="no"?>
<!DOCTYPE svg PUBLIC "-//W3C//DTD SVG 1.1//EN" "http://www.w3.org/Graphics/SVG/1.1/DTD/svg11.dtd">
<svg width="100%" height="100%" viewBox="0 0 1918 5047" version="1.1" xmlns="http://www.w3.org/2000/svg" xmlns:xlink="http://www.w3.org/1999/xlink" xml:space="preserve" xmlns:serif="http://www.serif.com/" style="fill-rule:evenodd;clip-rule:evenodd;stroke-linejoin:round;stroke-miterlimit:2;">
    <g transform="matrix(4.16667,0,0,4.16667,-48.8337,-5782.13)">
        <path d="M237.27,1709.78L237.27,1868.88C237.27,1873.09 232.509,1875.4 229.362,1872.71L211.887,1857.8C201.313,1848.77 188.014,1843.84 174.285,1843.84C168.262,1843.84 163.283,1839 162.927,1832.8L160.426,1789.31C160.129,1784.15 162.426,1779.2 166.508,1776.19L229.634,1705.73C232.83,1703.38 237.27,1705.73 237.27,1709.78Z" style="fill:rgb(237,26,82);fill-rule:nonzero;"/>
    </g>
    <g transform="matrix(4.16667,0,0,4.16667,-48.8337,-5782.13)">
        <path d="M245.723,1709.78L245.723,1868.88C245.723,1873.09 250.484,1875.4 253.632,1872.71L271.106,1857.8C281.68,1848.77 294.979,1843.84 308.708,1843.84C314.731,1843.84 319.711,1839 320.067,1832.8L322.568,1789.31C322.865,1784.15 320.568,1779.2 316.486,1776.19L253.36,1705.73C250.164,1703.38 245.723,1705.73 245.723,1709.78Z" style="fill:rgb(237,26,82);fill-rule:nonzero;"/>
    </g>
</svg>
