<?xml version="1.0" encoding="UTF-8" standalone="no"?>
<!DOCTYPE svg PUBLIC "-//W3C//DTD SVG 1.1//EN" "http://www.w3.org/Graphics/SVG/1.1/DTD/svg11.dtd">
<svg width="100%" height="100%" viewBox="0 0 1918 5047" version="1.1" xmlns="http://www.w3.org/2000/svg" xmlns:xlink="http://www.w3.org/1999/xlink" xml:space="preserve" xmlns:serif="http://www.serif.com/" style="fill-rule:evenodd;clip-rule:evenodd;stroke-linejoin:round;stroke-miterlimit:2;">
    <g transform="matrix(4.18744,0,0,3.37155,-16102.9,-3398.83)">
        <path d="M3981.67,2126.95C3981.67,2126.95 3965.59,2332.75 4002.02,2367.84C4028.43,2393.27 4034.14,2264.91 4024.97,2226.96C4014.98,2185.63 3990.79,2073.67 3981.67,2126.95Z" style="fill:rgb(237,26,82);fill-rule:nonzero;"/>
    </g>
    <g transform="matrix(4.18744,0,0,3.37155,-16102.9,-3398.83)">
        <path d="M3972.82,2126.95C3972.82,2126.95 3968.09,2228.52 3972.82,2286.81C3976.58,2333.11 3982.94,2371.34 3962.42,2364.19C3941.9,2357.04 3922.29,2267.1 3932.96,2212.36C3943.63,2157.61 3970.63,2089.72 3972.82,2126.95Z" style="fill:rgb(237,26,82);fill-rule:nonzero;"/>
    </g>
    <g transform="matrix(4.18744,0,0,3.37155,-16102.9,-3398.83)">
        <path d="M4163.56,2126.95C4163.56,2126.95 4179.99,2333.11 4143.21,2367.84C4118.27,2391.39 4111.09,2264.91 4120.27,2226.96C4130.25,2185.63 4154.45,2073.67 4163.56,2126.95Z" style="fill:rgb(237,26,82);fill-rule:nonzero;"/>
    </g>
    <g transform="matrix(4.18744,0,0,3.37155,-16102.9,-3398.83)">
        <path d="M4172.41,2126.95C4172.41,2126.95 4177.14,2228.52 4172.41,2286.81C4168.65,2333.11 4161.65,2371.34 4182.17,2364.19C4202.69,2357.04 4222.94,2267.1 4212.27,2212.36C4201.61,2157.61 4174.6,2089.72 4172.41,2126.95Z" style="fill:rgb(237,26,82);fill-rule:nonzero;"/>
    </g>
</svg>
