<?xml version="1.0" encoding="UTF-8" standalone="no"?>
<!DOCTYPE svg PUBLIC "-//W3C//DTD SVG 1.1//EN" "http://www.w3.org/Graphics/SVG/1.1/DTD/svg11.dtd">
<svg width="100%" height="100%" viewBox="0 0 1775 1974" version="1.1" xmlns="http://www.w3.org/2000/svg" xmlns:xlink="http://www.w3.org/1999/xlink" xml:space="preserve" xmlns:serif="http://www.serif.com/" style="fill-rule:evenodd;clip-rule:evenodd;stroke-linejoin:round;stroke-miterlimit:2;">
    <g transform="matrix(4.16667,0,0,4.16667,-12893.8,-8778.21)">
        <path d="M3245.8,2107.02C3251.85,2107.04 3256.98,2111.51 3257.8,2117.51C3261.95,2147.88 3278.21,2220.44 3278.94,2275.77C3279.79,2339.22 3250.18,2391.67 3250.18,2436.51C3250.18,2465.88 3258.55,2511.57 3264.32,2539.61C3267.01,2552.66 3257.55,2565.06 3244.26,2565.95L3228.78,2561.68C3223.18,2560.13 3217.19,2561.72 3213.08,2565.82C3207.01,2571.9 3198.91,2575.51 3190.33,2575.98L3106.93,2580.5C3100.19,2580.87 3094.52,2575.5 3094.52,2568.75C3094.52,2559.19 3099.7,2550.38 3108.06,2545.74L3166.42,2513.37C3177.11,2507.43 3183.35,2495.79 3182.37,2483.59C3179.22,2444.63 3173.71,2405.88 3165.55,2367.65C3136.86,2233.26 3154.03,2164.52 3165.15,2116.2C3166.43,2110.66 3171.37,2106.75 3177.05,2106.77L3245.8,2107.02Z" style="fill:rgb(72,80,106);fill-rule:nonzero;"/>
    </g>
    <g transform="matrix(4.16667,0,0,4.16667,-12893.8,-8778.21)">
        <path d="M3240.75,2198.64C3241.92,2193.72 3248.7,2193.16 3250.63,2197.83C3256.21,2211.28 3263.23,2234.18 3262.49,2263.03C3261.77,2291.36 3254.08,2318.72 3248.04,2336.08C3246.24,2341.25 3238.72,2340.52 3237.96,2335.1L3232.29,2294.61C3228.79,2269.57 3229.98,2244.09 3235.81,2219.48L3240.75,2198.64Z" style="fill:rgb(237,25,82);fill-rule:nonzero;"/>
    </g>
    <g transform="matrix(4.16667,0,0,4.16667,-12893.8,-8778.21)">
        <path d="M3180.51,2173.22L3186.6,2190.93C3199.49,2228.45 3206.93,2268.68 3208.56,2309.63L3213.11,2424.37C3213.4,2431.84 3205.41,2434.28 3203.04,2427.44L3185.67,2377.21C3174.92,2346.1 3168.81,2312.67 3167.89,2278.67C3167.12,2250.53 3168.3,2214.72 3174.5,2174.07C3175.09,2170.17 3179.26,2169.59 3180.51,2173.22Z" style="fill:rgb(237,25,82);fill-rule:nonzero;"/>
    </g>
    <g transform="matrix(4.16667,0,0,4.16667,-12893.8,-8778.21)">
        <path d="M3369.23,2107.02C3363.18,2107.04 3358.05,2111.51 3357.23,2117.51C3353.08,2147.88 3336.82,2220.44 3336.09,2275.77C3335.24,2339.22 3364.85,2391.67 3364.85,2436.51C3364.85,2465.88 3356.48,2511.57 3350.71,2539.61C3348.02,2552.66 3357.48,2565.06 3370.77,2565.95L3386.25,2561.68C3391.85,2560.13 3397.84,2561.72 3401.95,2565.82C3408.02,2571.9 3416.12,2575.51 3424.7,2575.98L3508.1,2580.5C3514.85,2580.87 3520.51,2575.5 3520.51,2568.75C3520.51,2559.19 3515.33,2550.38 3506.97,2545.74L3448.61,2513.37C3437.92,2507.43 3431.68,2495.79 3432.66,2483.59C3435.81,2444.63 3441.32,2405.88 3449.48,2367.65C3478.17,2233.26 3461,2164.52 3449.88,2116.2C3448.6,2110.66 3443.66,2106.75 3437.98,2106.77L3369.23,2107.02Z" style="fill:rgb(72,80,106);fill-rule:nonzero;"/>
    </g>
    <g transform="matrix(4.16667,0,0,4.16667,-12893.8,-8778.21)">
        <path d="M3374.28,2198.64C3373.11,2193.72 3366.33,2193.16 3364.4,2197.83C3358.82,2211.28 3351.8,2234.18 3352.54,2263.03C3353.26,2291.36 3360.95,2318.72 3366.99,2336.08C3368.79,2341.25 3376.31,2340.52 3377.07,2335.1L3382.74,2294.61C3386.24,2269.57 3385.05,2244.09 3379.22,2219.48L3374.28,2198.64Z" style="fill:rgb(237,25,82);fill-rule:nonzero;"/>
    </g>
    <g transform="matrix(4.16667,0,0,4.16667,-12893.8,-8778.21)">
        <path d="M3434.52,2173.22L3428.44,2190.93C3415.54,2228.45 3408.1,2268.68 3406.48,2309.63L3401.93,2424.37C3401.63,2431.84 3409.62,2434.28 3411.99,2427.44L3429.36,2377.21C3440.11,2346.1 3446.22,2312.67 3447.14,2278.67C3447.91,2250.53 3446.73,2214.72 3440.53,2174.07C3439.94,2170.17 3435.77,2169.59 3434.52,2173.22Z" style="fill:rgb(237,25,82);fill-rule:nonzero;"/>
    </g>
</svg>
