<?xml version="1.0" encoding="UTF-8" standalone="no"?>
<!DOCTYPE svg PUBLIC "-//W3C//DTD SVG 1.1//EN" "http://www.w3.org/Graphics/SVG/1.1/DTD/svg11.dtd">
<svg width="100%" height="100%" viewBox="0 0 1725 2045" version="1.1" xmlns="http://www.w3.org/2000/svg" xmlns:xlink="http://www.w3.org/1999/xlink" xml:space="preserve" xmlns:serif="http://www.serif.com/" style="fill-rule:evenodd;clip-rule:evenodd;stroke-linejoin:round;stroke-miterlimit:2;">
    <g transform="matrix(4.16667,0,0,4.16667,-16111.1,-8742.87)">
        <path d="M4019.28,2098.55C4024.6,2098.57 4029.09,2102.49 4029.82,2107.76C4033.74,2136.17 4050.35,2204.02 4051.09,2259.96C4051.94,2323.41 4022.33,2375.87 4022.33,2420.7C4022.33,2450.07 4024.02,2523.91 4029.8,2551.95C4032.48,2564.99 4030.51,2589 4013.41,2589C3950.7,2589 3886.55,2566.04 3879.08,2564.69C3871.6,2563.35 3866.66,2559.69 3866.66,2552.94C3866.66,2543.38 3871.85,2534.57 3880.21,2529.94L3947.85,2509.9C3963.93,2503.41 3954.42,2466.54 3954.42,2466.54C3951.26,2427.54 3945.52,2388.78 3937.41,2350.5C3908.91,2215.97 3926.48,2154.04 3937.56,2106.55C3938.69,2101.7 3943.02,2098.27 3948,2098.29L4019.28,2098.55Z" style="fill:rgb(72,80,106);fill-rule:nonzero;"/>
    </g>
    <g transform="matrix(4.16667,0,0,4.16667,-16111.1,-8742.87)">
        <path d="M4199.12,2098.29C4204.1,2098.27 4208.43,2101.7 4209.56,2106.55C4220.64,2154.04 4238.21,2215.97 4209.71,2350.5C4201.6,2388.78 4195.86,2427.54 4192.71,2466.54C4192.71,2466.54 4186.95,2503.41 4209.64,2514.83L4266.91,2529.94C4275.27,2534.57 4280.46,2543.38 4280.46,2552.94C4280.46,2559.69 4274.79,2565.06 4268.04,2564.69C4268.04,2564.69 4174.45,2589 4159.49,2589C4144.52,2589 4123.14,2581.16 4123.51,2553.12C4129.29,2525.08 4124.79,2450.07 4124.79,2420.7C4124.79,2375.87 4095.18,2323.41 4096.03,2259.96C4096.78,2204.02 4113.38,2136.17 4117.3,2107.76C4118.03,2102.49 4122.52,2098.57 4127.84,2098.55L4199.12,2098.29Z" style="fill:rgb(72,80,106);fill-rule:nonzero;"/>
    </g>
    <g transform="matrix(4.16667,0,0,4.16667,-16111.1,-8742.87)">
        <path d="M3981.67,2126.95C3981.67,2126.95 3965.59,2332.75 4002.02,2367.84C4028.43,2393.27 4034.14,2264.91 4024.97,2226.96C4014.98,2185.63 3990.79,2073.67 3981.67,2126.95Z" style="fill:rgb(237,25,82);fill-rule:nonzero;"/>
    </g>
    <g transform="matrix(4.16667,0,0,4.16667,-16111.1,-8742.87)">
        <path d="M3972.82,2126.95C3972.82,2126.95 3968.09,2228.52 3972.82,2286.81C3976.58,2333.11 3982.94,2371.34 3962.42,2364.19C3941.9,2357.04 3922.29,2267.1 3932.96,2212.36C3943.63,2157.61 3970.63,2089.72 3972.82,2126.95Z" style="fill:rgb(237,25,82);fill-rule:nonzero;"/>
    </g>
    <g transform="matrix(4.16667,0,0,4.16667,-16111.1,-8742.87)">
        <path d="M4163.56,2126.95C4163.56,2126.95 4179.99,2333.11 4143.21,2367.84C4118.27,2391.39 4111.09,2264.91 4120.27,2226.96C4130.25,2185.63 4154.45,2073.67 4163.56,2126.95Z" style="fill:rgb(237,25,82);fill-rule:nonzero;"/>
    </g>
    <g transform="matrix(4.16667,0,0,4.16667,-16111.1,-8742.87)">
        <path d="M4172.41,2126.95C4172.41,2126.95 4177.14,2228.52 4172.41,2286.81C4168.65,2333.11 4161.65,2371.34 4182.17,2364.19C4202.69,2357.04 4222.94,2267.1 4212.27,2212.36C4201.61,2157.61 4174.6,2089.72 4172.41,2126.95Z" style="fill:rgb(237,25,82);fill-rule:nonzero;"/>
    </g>
</svg>
