<?xml version="1.0" encoding="UTF-8" standalone="no"?>
<!DOCTYPE svg PUBLIC "-//W3C//DTD SVG 1.1//EN" "http://www.w3.org/Graphics/SVG/1.1/DTD/svg11.dtd">
<svg width="100%" height="100%" viewBox="0 0 2014 1827" version="1.1" xmlns="http://www.w3.org/2000/svg" xmlns:xlink="http://www.w3.org/1999/xlink" xml:space="preserve" xmlns:serif="http://www.serif.com/" style="fill-rule:evenodd;clip-rule:evenodd;stroke-linejoin:round;stroke-miterlimit:2;">
    <g transform="matrix(4.16667,0,0,4.16667,3.03881e-05,-40.5375)">
        <path d="M286.894,9.729C285.801,9.729 284.704,9.953 283.673,10.407L263.694,19.196C256.54,22.343 248.951,23.938 241.136,23.938C232.941,23.938 225.015,22.191 217.58,18.745L199.727,10.471C198.656,9.975 197.508,9.729 196.363,9.729C194.86,9.729 193.363,10.153 192.057,10.987C189.756,12.457 188.363,14.999 188.363,17.729L188.363,40.283L108.58,79.177C102.313,81.255 54.386,98.318 40.333,138.126C27.97,173.149 34.532,210.082 37.778,223.868C26.862,232.676 1.797,258.252 0.005,308.446C-0.05,310.003 0.349,311.543 1.157,312.876L56.528,404.308C57.98,406.706 60.578,408.164 63.371,408.164C63.446,408.164 63.521,408.163 63.596,408.161C66.473,408.08 69.086,406.46 70.436,403.918C87.094,372.562 87.311,345.049 86.766,335.545L101.958,315.917C104.247,319.728 107.285,324.176 111.24,328.926C119.483,338.823 122.989,351.962 120.86,364.972L112.105,418.477C111.412,422.71 114.182,426.737 118.384,427.604L194.901,443.384C209.995,446.497 225.463,448.076 240.876,448.076C255.997,448.076 271.18,446.556 286.002,443.557L364.844,427.61C369.061,426.757 371.848,422.722 371.153,418.477L362.398,364.972C360.269,351.962 363.775,338.823 372.018,328.926C375.973,324.176 379.01,319.728 381.3,315.917L396.49,335.544C395.913,345.57 396.181,375.624 415.702,409.089C417.137,411.548 419.77,413.058 422.612,413.058C422.649,413.058 422.686,413.058 422.724,413.057C425.609,413.017 428.248,411.426 429.632,408.894L482.278,312.569C482.967,311.307 483.304,309.883 483.253,308.446C481.46,258.252 456.395,232.676 445.48,223.868C448.725,210.082 455.287,173.149 442.924,138.126C428.871,98.318 380.945,81.255 374.678,79.177L294.895,40.283L294.895,17.729C294.895,15.027 293.53,12.507 291.267,11.03C289.946,10.168 288.424,9.729 286.894,9.729Z" style="fill:rgb(72,80,106);fill-rule:nonzero;"/>
    </g>
    <g transform="matrix(4.16667,0,0,4.16667,3.03881e-05,-40.5375)">
        <path d="M206.085,32.68L217.021,49.001C219.117,52.128 220.733,55.641 221.801,59.389L235.365,107.017C235.52,107.561 235.599,108.13 235.599,108.702C235.599,114.004 229.653,116.164 226.981,111.834C216.17,94.317 199.409,61.927 202.626,33.717C202.849,31.768 205.04,31.121 206.085,32.68Z" style="fill:rgb(237,25,82);fill-rule:nonzero;"/>
    </g>
    <g transform="matrix(4.16667,0,0,4.16667,3.03881e-05,-40.5375)">
        <path d="M132.412,81.854L183.267,56.823C188.657,54.17 195.109,57.185 196.534,63.021C198.408,70.69 201.694,81.25 207.245,91.877C210.083,97.309 205.463,103.628 199.434,102.532L133.629,90.568C129.233,89.769 128.404,83.826 132.412,81.854Z" style="fill:rgb(245,132,102);fill-rule:nonzero;"/>
    </g>
    <g transform="matrix(4.16667,0,0,4.16667,3.03881e-05,-40.5375)">
        <path d="M155.886,106.674C155.886,106.674 118.647,88.056 92.464,99.693C66.28,111.329 35.442,131.112 51.152,221.299C51.152,221.299 92.464,190.461 98.282,167.769C104.101,145.077 129.119,108.42 155.886,106.674Z" style="fill:rgb(159,171,206);fill-rule:nonzero;"/>
    </g>
    <g transform="matrix(4.16667,0,0,4.16667,3.03881e-05,-40.5375)">
        <path d="M228.08,128.826C232.746,131.58 235.599,136.592 235.599,142.011L235.599,188.731C235.599,197.435 229.551,204.726 221.428,206.632C216.735,207.733 212.045,208.852 207.475,210.386L157.624,227.117C148.011,227.117 138.943,222.629 133.16,214.949C127.007,206.777 116.386,197.061 99.682,194.562C96.174,194.037 94.458,190.022 96.556,187.163C102.216,179.452 110.763,166.518 113.411,155.55C117.483,138.676 149.485,109.584 171.596,107.838C187.912,106.55 215.003,121.108 228.08,128.826Z" style="fill:rgb(159,171,206);fill-rule:nonzero;"/>
    </g>
    <g transform="matrix(4.16667,0,0,4.16667,3.03881e-05,-40.5375)">
        <path d="M95.642,215.75L95.642,244.573C95.642,244.573 82.552,315.117 47.28,341.881C42.15,345.773 34.727,342.583 33.982,336.187L29.888,301.05C28.951,293.004 30.022,284.852 33.005,277.322L52.898,227.117C52.898,227.117 75.008,212.571 84.318,204.425C90.572,204.425 95.642,209.496 95.642,215.75Z" style="fill:rgb(159,171,206);fill-rule:nonzero;"/>
    </g>
    <g transform="matrix(4.16667,0,0,4.16667,3.03881e-05,-40.5375)">
        <path d="M34.052,249.414C35.674,248.129 37.889,250.036 36.883,251.844C32.227,260.211 25.18,274.733 24.059,287.691C22.954,300.461 23.287,318.506 23.655,329.548C23.733,331.894 20.582,332.724 19.496,330.644L14.089,320.294C11.785,315.884 10.66,310.953 10.865,305.982C11.43,292.255 15.025,264.484 34.052,249.414Z" style="fill:rgb(159,171,206);fill-rule:nonzero;"/>
    </g>
    <g transform="matrix(4.16667,0,0,4.16667,3.03881e-05,-40.5375)">
        <path d="M97.829,270.349L97.829,279.134C97.829,282.921 97.163,286.674 95.832,290.219C92.981,297.813 86.967,311.016 77.094,319.839C76.046,320.776 74.467,319.579 75.084,318.317C79.739,308.804 89.726,287.574 95.155,269.939C95.617,268.438 97.829,268.778 97.829,270.349Z" style="fill:rgb(159,171,206);fill-rule:nonzero;"/>
    </g>
    <g transform="matrix(4.16667,0,0,4.16667,3.03881e-05,-40.5375)">
        <path d="M235.599,222.362L235.599,258.481C235.599,261.224 233.593,263.614 230.736,264.275L209.848,269.107C199.074,271.6 181.903,279.684 181.903,279.684C175.93,285.847 145.795,236.392 169.43,236.392L229.192,216.392C232.731,216.392 235.599,219.065 235.599,222.362Z" style="fill:rgb(159,171,206);fill-rule:nonzero;"/>
    </g>
    <g transform="matrix(4.16667,0,0,4.16667,3.03881e-05,-40.5375)">
        <path d="M235.599,279.47L235.599,318.079C235.599,320.994 233.236,323.358 230.32,323.358L195.71,323.358C192.303,323.358 189.154,321.541 187.448,318.591L183.422,311.627C179.653,305.108 181.204,296.822 187.074,292.105C196.089,284.861 210.97,275.702 229.848,274.209C232.94,273.965 235.599,276.368 235.599,279.47Z" style="fill:rgb(159,171,206);fill-rule:nonzero;"/>
    </g>
    <g transform="matrix(4.16667,0,0,4.16667,3.03881e-05,-40.5375)">
        <path d="M229.216,400.163L204.614,400.163C198.375,400.163 193.318,395.105 193.318,388.867L193.318,343.995C193.318,337.756 198.375,332.699 204.614,332.699L229.216,332.699C232.741,332.699 235.599,335.557 235.599,339.082L235.599,393.78C235.599,397.305 232.741,400.163 229.216,400.163Z" style="fill:rgb(159,171,206);fill-rule:nonzero;"/>
    </g>
    <g transform="matrix(4.16667,0,0,4.16667,3.03881e-05,-40.5375)">
        <path d="M143.19,302.806L159.106,320.881C165.812,328.497 169.512,338.297 169.512,348.444L169.512,370.507C169.512,372.242 167.476,373.175 166.161,372.044L152.267,360.079C144.251,353.176 139.641,343.123 139.641,332.545L139.641,304.145C139.641,302.276 141.955,301.403 143.19,302.806Z" style="fill:rgb(159,171,206);fill-rule:nonzero;"/>
    </g>
    <g transform="matrix(4.16667,0,0,4.16667,3.03881e-05,-40.5375)">
        <path d="M145.782,365.265L161.548,379.872C166.626,384.576 169.512,391.184 169.512,398.106L169.512,414.622C169.512,417.933 165.463,419.539 163.193,417.128L146.966,399.887C142.261,394.888 139.641,388.281 139.641,381.416L139.641,367.947C139.641,364.757 143.442,363.097 145.782,365.265Z" style="fill:rgb(159,171,206);fill-rule:nonzero;"/>
    </g>
    <g transform="matrix(4.16667,0,0,4.16667,3.03881e-05,-40.5375)">
        <path d="M277.173,32.68L266.236,49.001C264.141,52.128 262.524,55.641 261.457,59.389L247.892,107.017C247.738,107.561 247.659,108.13 247.659,108.702C247.659,114.004 253.605,116.164 256.277,111.834C267.088,94.317 283.849,61.927 280.631,33.717C280.409,31.768 278.217,31.121 277.173,32.68Z" style="fill:rgb(237,25,82);fill-rule:nonzero;"/>
    </g>
    <g transform="matrix(4.16667,0,0,4.16667,3.03881e-05,-40.5375)">
        <path d="M350.846,81.854L299.991,56.823C294.601,54.17 288.149,57.185 286.724,63.021C284.85,70.69 281.564,81.25 276.012,91.877C273.175,97.309 277.795,103.628 283.824,102.532L349.629,90.568C354.024,89.769 354.854,83.826 350.846,81.854Z" style="fill:rgb(245,132,102);fill-rule:nonzero;"/>
    </g>
    <g transform="matrix(4.16667,0,0,4.16667,3.03881e-05,-40.5375)">
        <path d="M327.372,106.674C327.372,106.674 364.611,88.056 390.794,99.693C416.977,111.329 447.815,131.112 432.105,221.299C432.105,221.299 390.794,190.461 384.975,167.769C379.157,145.077 354.137,108.42 327.372,106.674Z" style="fill:rgb(159,171,206);fill-rule:nonzero;"/>
    </g>
    <g transform="matrix(4.16667,0,0,4.16667,3.03881e-05,-40.5375)">
        <path d="M255.178,128.826C250.512,131.58 247.659,136.592 247.659,142.011L247.659,188.731C247.659,197.435 253.707,204.726 261.829,206.632C266.523,207.733 271.212,208.852 275.783,210.386L325.633,227.117C335.247,227.117 344.315,222.629 350.097,214.949C356.25,206.777 366.872,197.061 383.575,194.562C387.083,194.037 388.799,190.022 386.701,187.163C381.042,179.452 372.495,166.518 369.847,155.55C365.774,138.676 333.772,109.584 311.662,107.838C295.345,106.55 268.255,121.108 255.178,128.826Z" style="fill:rgb(159,171,206);fill-rule:nonzero;"/>
    </g>
    <g transform="matrix(4.16667,0,0,4.16667,3.03881e-05,-40.5375)">
        <path d="M387.615,215.75L387.615,244.573C387.615,244.573 400.705,315.117 435.977,341.881C441.107,345.773 448.53,342.583 449.276,336.187L453.369,301.05C454.307,293.004 453.236,284.852 450.252,277.322L430.36,227.117C430.36,227.117 408.249,212.571 398.94,204.425C392.685,204.425 387.615,209.496 387.615,215.75Z" style="fill:rgb(159,171,206);fill-rule:nonzero;"/>
    </g>
    <g transform="matrix(4.16667,0,0,4.16667,3.03881e-05,-40.5375)">
        <path d="M449.205,249.414C447.583,248.129 445.369,250.036 446.375,251.844C451.03,260.211 458.077,274.733 459.198,287.691C460.303,300.461 459.97,318.506 459.602,329.548C459.524,331.894 462.675,332.724 463.762,330.644L469.168,320.294C471.472,315.884 472.597,310.953 472.392,305.982C471.827,292.255 468.232,264.484 449.205,249.414Z" style="fill:rgb(159,171,206);fill-rule:nonzero;"/>
    </g>
    <g transform="matrix(4.16667,0,0,4.16667,3.03881e-05,-40.5375)">
        <path d="M385.428,270.349L385.428,279.134C385.428,282.921 386.094,286.674 387.425,290.219C390.276,297.813 396.29,311.016 406.163,319.839C407.211,320.776 408.79,319.579 408.173,318.317C403.518,308.804 393.531,287.574 388.103,269.939C387.64,268.438 385.428,268.778 385.428,270.349Z" style="fill:rgb(159,171,206);fill-rule:nonzero;"/>
    </g>
    <g transform="matrix(4.16667,0,0,4.16667,3.03881e-05,-40.5375)">
        <path d="M247.659,222.362L247.659,258.481C247.659,261.224 249.665,263.614 252.522,264.275L273.41,269.107C284.184,271.6 301.355,279.684 301.355,279.684C307.327,285.847 338.598,236.392 313.828,236.392L254.065,216.392C250.527,216.392 247.659,219.065 247.659,222.362Z" style="fill:rgb(159,171,206);fill-rule:nonzero;"/>
    </g>
    <g transform="matrix(4.16667,0,0,4.16667,3.03881e-05,-40.5375)">
        <path d="M247.659,279.47L247.659,318.079C247.659,320.994 250.022,323.358 252.938,323.358L287.547,323.358C290.955,323.358 294.104,321.541 295.81,318.591L299.835,311.627C303.604,305.108 302.054,296.822 296.184,292.105C287.168,284.861 272.288,275.702 253.41,274.209C250.318,273.965 247.659,276.368 247.659,279.47Z" style="fill:rgb(159,171,206);fill-rule:nonzero;"/>
    </g>
    <g transform="matrix(4.16667,0,0,4.16667,3.03881e-05,-40.5375)">
        <path d="M254.042,400.163L278.644,400.163C284.883,400.163 289.94,395.105 289.94,388.867L289.94,343.995C289.94,337.756 284.883,332.699 278.644,332.699L254.042,332.699C250.517,332.699 247.659,335.557 247.659,339.082L247.659,393.78C247.659,397.305 250.517,400.163 254.042,400.163Z" style="fill:rgb(159,171,206);fill-rule:nonzero;"/>
    </g>
    <g transform="matrix(4.16667,0,0,4.16667,3.03881e-05,-40.5375)">
        <path d="M340.067,302.806L324.151,320.881C317.445,328.497 313.746,338.297 313.746,348.444L313.746,370.507C313.746,372.242 315.782,373.175 317.096,372.044L330.991,360.079C339.007,353.176 343.616,343.123 343.616,332.545L343.616,304.145C343.616,302.276 341.302,301.403 340.067,302.806Z" style="fill:rgb(159,171,206);fill-rule:nonzero;"/>
    </g>
    <g transform="matrix(4.16667,0,0,4.16667,3.03881e-05,-40.5375)">
        <path d="M337.475,365.265L321.71,379.872C316.632,384.576 313.746,391.184 313.746,398.106L313.746,414.622C313.746,417.933 317.795,419.539 320.064,417.128L336.292,399.887C340.996,394.888 343.616,388.281 343.616,381.416L343.616,367.947C343.616,364.757 339.816,363.097 337.475,365.265Z" style="fill:rgb(159,171,206);fill-rule:nonzero;"/>
    </g>
</svg>
