<?xml version="1.0" encoding="UTF-8" standalone="no"?>
<!DOCTYPE svg PUBLIC "-//W3C//DTD SVG 1.1//EN" "http://www.w3.org/Graphics/SVG/1.1/DTD/svg11.dtd">
<svg width="100%" height="100%" viewBox="0 0 2014 5047" version="1.1" xmlns="http://www.w3.org/2000/svg" xmlns:xlink="http://www.w3.org/1999/xlink" xml:space="preserve" xmlns:serif="http://www.serif.com/" style="fill-rule:evenodd;clip-rule:evenodd;stroke-linejoin:round;stroke-miterlimit:2;">
    <g transform="matrix(4.16667,0,0,4.16667,0.00021028,-2843.15)">
        <path d="M143.19,906.548L159.106,924.624C165.812,932.24 169.512,942.039 169.512,952.187L169.512,974.249C169.512,975.984 167.476,976.917 166.161,975.786L152.267,963.821C144.251,956.918 139.641,946.865 139.641,936.287L139.641,907.887C139.641,906.019 141.955,905.145 143.19,906.548Z" style="fill:rgb(237,26,82);fill-rule:nonzero;"/>
    </g>
    <g transform="matrix(4.16667,0,0,4.16667,0.00021028,-2843.15)">
        <path d="M145.782,969.007L161.548,983.614C166.626,988.318 169.512,994.927 169.512,1001.85L169.512,1018.36C169.512,1021.68 165.463,1023.28 163.193,1020.87L146.966,1003.63C142.261,998.63 139.641,992.024 139.641,985.159L139.641,971.689C139.641,968.499 143.442,966.839 145.782,969.007Z" style="fill:rgb(237,26,82);fill-rule:nonzero;"/>
    </g>
    <g transform="matrix(4.16667,0,0,4.16667,0.00021028,-2843.15)">
        <path d="M141.151,1009.81L153.765,1023.29C171.558,1042.31 181.812,1067.15 182.61,1093.18L182.921,1103.33C183.056,1107.75 177.563,1109.88 174.683,1106.53L143.473,1070.19C135.524,1060.94 131.599,1048.89 132.569,1036.73L134.531,1012.13C134.795,1008.81 138.875,1007.38 141.151,1009.81Z" style="fill:rgb(237,26,82);fill-rule:nonzero;"/>
    </g>
    <g transform="matrix(4.16667,0,0,4.16667,0.00021028,-2843.15)">
        <path d="M340.067,906.548L324.151,924.624C317.445,932.24 313.746,942.039 313.746,952.187L313.746,974.249C313.746,975.984 315.782,976.917 317.096,975.786L330.991,963.821C339.007,956.918 343.616,946.865 343.616,936.287L343.616,907.887C343.616,906.019 341.302,905.145 340.067,906.548Z" style="fill:rgb(237,26,82);fill-rule:nonzero;"/>
    </g>
    <g transform="matrix(4.16667,0,0,4.16667,0.00021028,-2843.15)">
        <path d="M337.475,969.007L321.71,983.614C316.632,988.318 313.746,994.927 313.746,1001.85L313.746,1018.36C313.746,1021.68 317.795,1023.28 320.064,1020.87L336.292,1003.63C340.996,998.63 343.616,992.024 343.616,985.159L343.616,971.689C343.616,968.499 339.816,966.839 337.475,969.007Z" style="fill:rgb(237,26,82);fill-rule:nonzero;"/>
    </g>
    <g transform="matrix(4.16667,0,0,4.16667,0.00021028,-2843.15)">
        <path d="M342.107,1009.81L329.493,1023.29C311.7,1042.31 301.445,1067.15 300.648,1093.18L300.337,1103.33C300.202,1107.75 305.695,1109.88 308.574,1106.53L339.784,1070.19C347.733,1060.94 351.659,1048.89 350.689,1036.73L348.727,1012.13C348.462,1008.81 344.382,1007.38 342.107,1009.81Z" style="fill:rgb(237,26,82);fill-rule:nonzero;"/>
    </g>
</svg>
