<?xml version="1.0" encoding="UTF-8" standalone="no"?>
<!DOCTYPE svg PUBLIC "-//W3C//DTD SVG 1.1//EN" "http://www.w3.org/Graphics/SVG/1.1/DTD/svg11.dtd">
<svg width="100%" height="100%" viewBox="0 0 2014 1827" version="1.1" xmlns="http://www.w3.org/2000/svg" xmlns:xlink="http://www.w3.org/1999/xlink" xml:space="preserve" xmlns:serif="http://www.serif.com/" style="fill-rule:evenodd;clip-rule:evenodd;stroke-linejoin:round;stroke-miterlimit:2;">
    <g transform="matrix(4.16667,0,0,4.16667,-3196.73,-40.5375)">
        <path d="M1054.11,9.729C1053.02,9.729 1051.92,9.953 1050.89,10.407L1030.91,19.196C1023.76,22.343 1016.17,23.938 1008.35,23.938C1000.16,23.938 992.231,22.191 984.795,18.745L966.942,10.471C965.871,9.975 964.723,9.729 963.579,9.729C962.075,9.729 960.578,10.153 959.272,10.987C956.971,12.457 955.578,14.999 955.578,17.729L955.578,40.283L875.795,79.177C869.528,81.255 821.601,98.318 807.549,138.126C795.185,173.149 801.747,210.082 804.993,223.868C794.077,232.676 769.013,258.252 767.22,308.446C767.165,310.003 767.565,311.543 768.372,312.876L823.744,404.308C825.196,406.706 827.794,408.164 830.586,408.164C830.661,408.164 830.736,408.163 830.812,408.161C833.689,408.08 836.301,406.46 837.652,403.918C854.31,372.562 854.526,345.049 853.982,335.545L869.173,315.917C871.462,319.728 874.5,324.176 878.455,328.926C886.698,338.823 890.204,351.962 888.075,364.972L879.32,418.477C878.627,422.71 881.397,426.737 885.599,427.604L962.116,443.384C977.21,446.497 992.678,448.076 1008.09,448.076C1023.21,448.076 1038.4,446.556 1053.22,443.557L1132.06,427.61C1136.28,426.757 1139.06,422.722 1138.37,418.477L1129.61,364.972C1127.48,351.962 1130.99,338.823 1139.23,328.926C1143.19,324.176 1146.23,319.728 1148.52,315.917L1163.71,335.544C1163.13,345.57 1163.4,375.624 1182.92,409.089C1184.35,411.548 1186.98,413.058 1189.83,413.058C1189.86,413.058 1189.9,413.058 1189.94,413.057C1192.82,413.017 1195.46,411.426 1196.85,408.894L1249.49,312.569C1250.18,311.307 1250.52,309.883 1250.47,308.446C1248.68,258.252 1223.61,232.676 1212.69,223.868C1215.94,210.082 1222.5,173.149 1210.14,138.126C1196.09,98.318 1148.16,81.255 1141.89,79.177L1062.11,40.283L1062.11,17.729C1062.11,15.027 1060.75,12.507 1058.48,11.03C1057.16,10.168 1055.64,9.729 1054.11,9.729Z" style="fill:rgb(72,80,106);fill-rule:nonzero;"/>
    </g>
    <g transform="matrix(4.16667,0,0,4.16667,-3196.73,-40.5375)">
        <path d="M973.861,32.68L986.387,49.001C988.787,52.128 990.638,55.641 991.861,59.389L1007.4,107.017C1007.57,107.561 1007.66,108.13 1007.66,108.702C1007.66,114.004 1000.85,116.164 997.794,111.834C985.412,94.317 966.215,61.927 969.9,33.717C970.155,31.768 972.665,31.121 973.861,32.68Z" style="fill:rgb(159,171,206);fill-rule:nonzero;"/>
    </g>
    <g transform="matrix(4.16667,0,0,4.16667,-3196.73,-40.5375)">
        <path d="M899.627,81.854L950.482,56.823C955.872,54.17 962.324,57.185 963.749,63.021C965.623,70.69 968.909,81.25 974.461,91.877C977.298,97.309 972.678,103.628 966.649,102.532L900.844,90.568C896.449,89.769 895.619,83.826 899.627,81.854Z" style="fill:rgb(159,171,206);fill-rule:nonzero;"/>
    </g>
    <g transform="matrix(4.16667,0,0,4.16667,-3196.73,-40.5375)">
        <path d="M923.101,106.674C923.101,106.674 885.862,88.056 859.679,99.693C833.496,111.329 802.658,131.112 818.368,221.299C818.368,221.299 859.679,190.461 865.498,167.769C871.316,145.077 896.336,108.42 923.101,106.674Z" style="fill:rgb(159,171,206);fill-rule:nonzero;"/>
    </g>
    <g transform="matrix(4.16667,0,0,4.16667,-3196.73,-40.5375)">
        <path d="M995.295,128.826C999.961,131.58 1002.81,136.592 1002.81,142.011L1002.81,188.731C1002.81,197.435 996.766,204.726 988.643,206.632C983.95,207.733 979.26,208.852 974.69,210.386L924.84,227.117C915.226,227.117 906.158,222.629 900.376,214.949C894.222,206.777 883.601,197.061 866.897,194.562C863.39,194.037 861.674,190.022 863.772,187.163C869.431,179.452 877.978,166.518 880.626,155.55C884.699,138.676 916.701,109.584 938.811,107.838C955.128,106.55 982.218,121.108 995.295,128.826Z" style="fill:rgb(237,25,82);fill-rule:nonzero;"/>
    </g>
    <g transform="matrix(4.16667,0,0,4.16667,-3196.73,-40.5375)">
        <path d="M862.858,215.75L862.858,244.573C862.858,244.573 849.768,315.117 814.495,341.881C809.365,345.773 801.942,342.583 801.197,336.187L797.103,301.05C796.166,293.004 797.237,284.852 800.221,277.322L820.113,227.117C820.113,227.117 842.224,212.571 851.533,204.425C857.788,204.425 862.858,209.496 862.858,215.75Z" style="fill:rgb(159,171,206);fill-rule:nonzero;"/>
    </g>
    <g transform="matrix(4.16667,0,0,4.16667,-3196.73,-40.5375)">
        <path d="M801.268,249.414C802.89,248.129 805.104,250.036 804.098,251.844C799.443,260.211 792.396,274.733 791.274,287.691C790.169,300.461 790.503,318.506 790.87,329.548C790.948,331.894 787.798,332.724 786.711,330.644L781.305,320.294C779.001,315.884 777.876,310.953 778.081,305.982C778.646,292.255 782.241,264.484 801.268,249.414Z" style="fill:rgb(159,171,206);fill-rule:nonzero;"/>
    </g>
    <g transform="matrix(4.16667,0,0,4.16667,-3196.73,-40.5375)">
        <path d="M865.045,270.349L865.045,279.134C865.045,282.921 864.379,286.674 863.048,290.219C860.197,297.813 854.183,311.016 844.31,319.839C843.262,320.776 841.682,319.579 842.3,318.317C846.954,308.804 856.942,287.574 862.37,269.939C862.832,268.438 865.045,268.778 865.045,270.349Z" style="fill:rgb(159,171,206);fill-rule:nonzero;"/>
    </g>
    <g transform="matrix(4.16667,0,0,4.16667,-3196.73,-40.5375)">
        <path d="M1002.81,279.47L1002.81,318.079C1002.81,320.994 1000.45,323.358 997.535,323.358L962.925,323.358C959.518,323.358 956.369,321.541 954.663,318.591L950.637,311.627C946.868,305.108 948.419,296.822 954.289,292.105C963.304,284.861 978.185,275.702 997.063,274.209C1000.15,273.965 1002.81,276.368 1002.81,279.47Z" style="fill:rgb(159,171,206);fill-rule:nonzero;"/>
    </g>
    <g transform="matrix(4.16667,0,0,4.16667,-3196.73,-40.5375)">
        <path d="M996.431,400.163L971.829,400.163C965.59,400.163 960.533,395.105 960.533,388.867L960.533,343.995C960.533,337.756 965.59,332.699 971.829,332.699L996.431,332.699C999.956,332.699 1002.81,335.557 1002.81,339.082L1002.81,393.78C1002.81,397.305 999.956,400.163 996.431,400.163Z" style="fill:rgb(159,171,206);fill-rule:nonzero;"/>
    </g>
    <g transform="matrix(4.16667,0,0,4.16667,-3196.73,-40.5375)">
        <path d="M910.405,302.806L926.322,320.881C933.028,328.497 936.727,338.297 936.727,348.444L936.727,370.507C936.727,372.242 934.691,373.175 933.377,372.044L919.482,360.079C911.466,353.176 906.857,343.123 906.857,332.545L906.857,304.145C906.857,302.276 909.17,301.403 910.405,302.806Z" style="fill:rgb(159,171,206);fill-rule:nonzero;"/>
    </g>
    <g transform="matrix(4.16667,0,0,4.16667,-3196.73,-40.5375)">
        <path d="M912.997,365.265L928.763,379.872C933.841,384.576 936.727,391.184 936.727,398.106L936.727,414.622C936.727,417.933 932.678,419.539 930.409,417.128L914.181,399.887C909.476,394.888 906.857,388.281 906.857,381.416L906.857,367.947C906.857,364.757 910.657,363.097 912.997,365.265Z" style="fill:rgb(159,171,206);fill-rule:nonzero;"/>
    </g>
    <g transform="matrix(4.16667,0,0,4.16667,-3196.73,-40.5375)">
        <path d="M1043.83,32.68L1031.3,49.001C1028.9,52.128 1027.05,55.641 1025.83,59.389L1010.29,107.017C1010.11,107.561 1010.02,108.13 1010.02,108.702C1010.02,114.004 1016.83,116.164 1019.89,111.834C1032.28,94.317 1051.47,61.927 1047.79,33.717C1047.53,31.768 1045.02,31.121 1043.83,32.68Z" style="fill:rgb(159,171,206);fill-rule:nonzero;"/>
    </g>
    <g transform="matrix(4.16667,0,0,4.16667,-3196.73,-40.5375)">
        <path d="M1118.06,81.854L1067.21,56.823C1061.82,54.17 1055.36,57.185 1053.94,63.021C1052.07,70.69 1048.78,81.25 1043.23,91.877C1040.39,97.309 1045.01,103.628 1051.04,102.532L1116.84,90.568C1121.24,89.769 1122.07,83.826 1118.06,81.854Z" style="fill:rgb(159,171,206);fill-rule:nonzero;"/>
    </g>
    <g transform="matrix(4.16667,0,0,4.16667,-3196.73,-40.5375)">
        <path d="M1094.59,106.674C1094.59,106.674 1131.83,88.056 1158.01,99.693C1184.19,111.329 1215.03,131.112 1199.32,221.299C1199.32,221.299 1158.01,190.461 1152.19,167.769C1146.37,145.077 1121.35,108.42 1094.59,106.674Z" style="fill:rgb(159,171,206);fill-rule:nonzero;"/>
    </g>
    <g transform="matrix(4.16667,0,0,4.16667,-3196.73,-40.5375)">
        <path d="M1022.39,128.826C1017.73,131.58 1014.87,136.592 1014.87,142.011L1014.87,188.731C1014.87,197.435 1020.92,204.726 1029.04,206.632C1033.74,207.733 1038.43,208.852 1043,210.386L1092.85,227.117C1102.46,227.117 1111.53,222.629 1117.31,214.949C1123.47,206.777 1134.09,197.061 1150.79,194.562C1154.3,194.037 1156.01,190.022 1153.92,187.163C1148.26,179.452 1139.71,166.518 1137.06,155.55C1132.99,138.676 1100.99,109.584 1078.88,107.838C1062.56,106.55 1035.47,121.108 1022.39,128.826Z" style="fill:rgb(237,25,82);fill-rule:nonzero;"/>
    </g>
    <g transform="matrix(4.16667,0,0,4.16667,-3196.73,-40.5375)">
        <path d="M1154.83,215.75L1154.83,244.573C1154.83,244.573 1167.92,315.117 1203.19,341.881C1208.32,345.773 1215.75,342.583 1216.49,336.187L1220.58,301.05C1221.52,293.004 1220.45,284.852 1217.47,277.322L1197.57,227.117C1197.57,227.117 1175.46,212.571 1166.15,204.425C1159.9,204.425 1154.83,209.496 1154.83,215.75Z" style="fill:rgb(159,171,206);fill-rule:nonzero;"/>
    </g>
    <g transform="matrix(4.16667,0,0,4.16667,-3196.73,-40.5375)">
        <path d="M1216.42,249.414C1214.8,248.129 1212.58,250.036 1213.59,251.844C1218.25,260.211 1225.29,274.733 1226.41,287.691C1227.52,300.461 1227.19,318.506 1226.82,329.548C1226.74,331.894 1229.89,332.724 1230.98,330.644L1236.38,320.294C1238.69,315.884 1239.81,310.953 1239.61,305.982C1239.04,292.255 1235.45,264.484 1216.42,249.414Z" style="fill:rgb(159,171,206);fill-rule:nonzero;"/>
    </g>
    <g transform="matrix(4.16667,0,0,4.16667,-3196.73,-40.5375)">
        <path d="M1152.64,270.349L1152.64,279.134C1152.64,282.921 1153.31,286.674 1154.64,290.219C1157.49,297.813 1163.51,311.016 1173.38,319.839C1174.43,320.776 1176.01,319.579 1175.39,318.317C1170.73,308.804 1160.75,287.574 1155.32,269.939C1154.86,268.438 1152.64,268.778 1152.64,270.349Z" style="fill:rgb(159,171,206);fill-rule:nonzero;"/>
    </g>
    <g transform="matrix(4.16667,0,0,4.16667,-3196.73,-40.5375)">
        <path d="M1014.87,279.47L1014.87,318.079C1014.87,320.994 1017.24,323.358 1020.15,323.358L1054.76,323.358C1058.17,323.358 1061.32,321.541 1063.03,318.591L1067.05,311.627C1070.82,305.108 1069.27,296.822 1063.4,292.105C1054.38,284.861 1039.5,275.702 1020.63,274.209C1017.53,273.965 1014.87,276.368 1014.87,279.47Z" style="fill:rgb(159,171,206);fill-rule:nonzero;"/>
    </g>
    <g transform="matrix(4.16667,0,0,4.16667,-3196.73,-40.5375)">
        <path d="M1021.26,400.163L1045.86,400.163C1052.1,400.163 1057.16,395.105 1057.16,388.867L1057.16,343.995C1057.16,337.756 1052.1,332.699 1045.86,332.699L1021.26,332.699C1017.73,332.699 1014.87,335.557 1014.87,339.082L1014.87,393.78C1014.87,397.305 1017.73,400.163 1021.26,400.163Z" style="fill:rgb(159,171,206);fill-rule:nonzero;"/>
    </g>
    <g transform="matrix(4.16667,0,0,4.16667,-3196.73,-40.5375)">
        <path d="M1107.28,302.806L1091.37,320.881C1084.66,328.497 1080.96,338.297 1080.96,348.444L1080.96,370.507C1080.96,372.242 1083,373.175 1084.31,372.044L1098.21,360.079C1106.22,353.176 1110.83,343.123 1110.83,332.545L1110.83,304.145C1110.83,302.276 1108.52,301.403 1107.28,302.806Z" style="fill:rgb(159,171,206);fill-rule:nonzero;"/>
    </g>
    <g transform="matrix(4.16667,0,0,4.16667,-3196.73,-40.5375)">
        <path d="M1104.69,365.265L1088.92,379.872C1083.85,384.576 1080.96,391.184 1080.96,398.106L1080.96,414.622C1080.96,417.933 1085.01,419.539 1087.28,417.128L1103.51,399.887C1108.21,394.888 1110.83,388.281 1110.83,381.416L1110.83,367.947C1110.83,364.757 1107.03,363.097 1104.69,365.265Z" style="fill:rgb(159,171,206);fill-rule:nonzero;"/>
    </g>
    <g transform="matrix(4.16667,0,0,4.16667,-3196.73,-40.5375)">
        <path d="M1002.57,222.362L1002.57,258.481C1002.57,261.224 1000.56,263.614 997.705,264.275L976.817,269.107C966.042,271.6 948.872,279.684 948.872,279.684C942.899,285.847 912.764,236.392 936.399,236.392L996.161,216.392C999.7,216.392 1002.57,219.065 1002.57,222.362Z" style="fill:rgb(159,171,206);fill-rule:nonzero;"/>
    </g>
    <g transform="matrix(4.16667,0,0,4.16667,-3196.73,-40.5375)">
        <path d="M1014.63,222.362L1014.63,258.481C1014.63,261.224 1016.63,263.614 1019.49,264.275L1040.38,269.107C1051.15,271.6 1068.32,279.684 1068.32,279.684C1074.3,285.847 1105.57,236.392 1080.8,236.392L1021.03,216.392C1017.5,216.392 1014.63,219.065 1014.63,222.362Z" style="fill:rgb(159,171,206);fill-rule:nonzero;"/>
    </g>
</svg>
