<?xml version="1.0" encoding="UTF-8" standalone="no"?>
<!DOCTYPE svg PUBLIC "-//W3C//DTD SVG 1.1//EN" "http://www.w3.org/Graphics/SVG/1.1/DTD/svg11.dtd">
<svg width="100%" height="100%" viewBox="0 0 2014 5047" version="1.1" xmlns="http://www.w3.org/2000/svg" xmlns:xlink="http://www.w3.org/1999/xlink" xml:space="preserve" xmlns:serif="http://www.serif.com/" style="fill-rule:evenodd;clip-rule:evenodd;stroke-linejoin:round;stroke-miterlimit:2;">
    <g transform="matrix(4.16667,0,0,4.16667,0.00021028,-2843.15)">
        <path d="M228.08,732.568C232.746,735.322 235.599,740.335 235.599,745.753L235.599,792.473C235.599,801.177 229.551,808.468 221.428,810.374C216.735,811.475 212.045,812.594 207.475,814.128L157.624,830.86C148.011,830.86 138.943,826.371 133.16,818.691C127.007,810.519 116.386,800.804 99.682,798.304C96.174,797.779 94.458,793.764 96.556,790.905C102.216,783.194 110.763,770.26 113.411,759.292C117.483,742.418 149.485,713.326 171.596,711.58C187.912,710.292 215.003,724.85 228.08,732.568Z" style="fill:rgb(237,26,82);fill-rule:nonzero;"/>
    </g>
    <g transform="matrix(4.16667,0,0,4.16667,0.00021028,-2843.15)">
        <path d="M255.178,732.568C250.512,735.322 247.659,740.335 247.659,745.753L247.659,792.473C247.659,801.177 253.707,808.468 261.829,810.374C266.523,811.475 271.212,812.594 275.783,814.128L325.633,830.86C335.247,830.86 344.315,826.371 350.097,818.691C356.25,810.519 366.872,800.804 383.575,798.304C387.083,797.779 388.799,793.764 386.701,790.905C381.042,783.194 372.495,770.26 369.847,759.292C365.774,742.418 333.772,713.326 311.662,711.58C295.345,710.292 268.255,724.85 255.178,732.568Z" style="fill:rgb(237,26,82);fill-rule:nonzero;"/>
    </g>
</svg>
