<?xml version="1.0" encoding="UTF-8" standalone="no"?>
<!DOCTYPE svg PUBLIC "-//W3C//DTD SVG 1.1//EN" "http://www.w3.org/Graphics/SVG/1.1/DTD/svg11.dtd">
<svg width="100%" height="100%" viewBox="0 0 1918 5047" version="1.1" xmlns="http://www.w3.org/2000/svg" xmlns:xlink="http://www.w3.org/1999/xlink" xml:space="preserve" xmlns:serif="http://www.serif.com/" style="fill-rule:evenodd;clip-rule:evenodd;stroke-linejoin:round;stroke-miterlimit:2;">
    <g transform="matrix(4.16667,0,0,4.16667,-48.8337,-5782.13)">
        <path d="M237.27,1409.64L237.27,1450.21C237.27,1461.32 232.745,1471.91 224.799,1479.41L218.022,1485.81L225.026,1491.74C232.778,1498.3 237.27,1508.1 237.27,1518.43L237.27,1686.61C237.27,1689.7 233.275,1690.78 231.801,1688.08L178.656,1611.08C176.746,1607.58 175.966,1603.55 176.404,1599.56C178.574,1579.79 179.72,1516.41 134.11,1497.66C129.479,1495.76 129.118,1489.17 133.547,1486.81L193.08,1455.11L227.753,1406.43C230.765,1402.2 237.27,1404.39 237.27,1409.64Z" style="fill:rgb(237,26,82);fill-rule:nonzero;"/>
    </g>
    <g transform="matrix(4.16667,0,0,4.16667,-48.8337,-5782.13)">
        <path d="M245.723,1409.64L245.723,1450.21C245.723,1461.32 250.248,1471.91 258.195,1479.41L264.972,1485.81L257.967,1491.74C250.216,1498.3 245.723,1508.1 245.723,1518.43L245.723,1686.61C245.723,1689.7 249.718,1690.78 251.193,1688.08L304.337,1611.08C306.248,1607.58 307.027,1603.55 306.59,1599.56C304.42,1579.79 303.274,1516.41 348.883,1497.66C353.513,1495.76 353.875,1489.17 349.447,1486.81L289.913,1455.11L255.241,1406.43C252.229,1402.2 245.723,1404.39 245.723,1409.64Z" style="fill:rgb(237,26,82);fill-rule:nonzero;"/>
    </g>
</svg>
