<?xml version="1.0" encoding="UTF-8" standalone="no"?>
<!DOCTYPE svg PUBLIC "-//W3C//DTD SVG 1.1//EN" "http://www.w3.org/Graphics/SVG/1.1/DTD/svg11.dtd">
<svg width="100%" height="100%" viewBox="0 0 1918 2093" version="1.1" xmlns="http://www.w3.org/2000/svg" xmlns:xlink="http://www.w3.org/1999/xlink" xml:space="preserve" xmlns:serif="http://www.serif.com/" style="fill-rule:evenodd;clip-rule:evenodd;stroke-linejoin:round;stroke-miterlimit:2;">
    <g transform="matrix(4.16667,0,0,4.16667,-48.1833,-5784.75)">
        <path d="M241.629,1890.51C188.574,1890.51 128.423,1854.74 125.888,1853.22C124.724,1852.52 123.994,1851.28 123.95,1849.92L122.557,1806.33C122.549,1806.07 122.566,1805.81 122.608,1805.56L130.947,1754.6C133.144,1741.17 129.516,1727.6 120.994,1717.37C115.535,1710.82 112.007,1704.94 109.857,1700.76L91.203,1724.86C91.797,1732.17 92.674,1761.31 73.481,1794.21C72.867,1795.26 71.807,1795.98 70.601,1796.15C69.395,1796.33 68.176,1795.94 67.288,1795.11L12.825,1743.96C12.02,1743.2 11.564,1742.15 11.564,1741.04L11.564,1700.18C11.564,1700.14 11.565,1700.09 11.566,1700.04C13.362,1649.77 39.768,1625.56 47.678,1619.41C46.145,1609.65 41.83,1573.91 54.093,1539.17C66.984,1502.66 111.53,1487 116.88,1485.24L188.548,1442.58L195.329,1397.99C195.584,1396.31 196.866,1394.98 198.531,1394.66L221.1,1390.33C234.714,1387.72 248.527,1387.68 262.156,1390.2L286.235,1394.66C287.91,1394.97 289.205,1396.3 289.462,1397.99L296.243,1442.58L367.911,1485.24C373.261,1487 417.807,1502.66 430.697,1539.17C443.071,1574.22 437.24,1609 435.341,1618.14C442.547,1625.5 469.87,1656.69 471.691,1707.69C471.693,1707.74 471.694,1707.78 471.694,1707.83L471.694,1741.04C471.694,1742.13 471.253,1743.17 470.473,1743.92L417.545,1795.07C416.662,1795.92 415.439,1796.32 414.218,1796.16C413.001,1795.99 411.929,1795.27 411.31,1794.21C392.117,1761.31 392.994,1732.17 393.588,1724.86L374.934,1700.76C372.784,1704.94 369.256,1710.81 363.797,1717.37C355.275,1727.6 351.648,1741.17 353.844,1754.6L362.183,1805.56C362.225,1805.81 362.242,1806.07 362.234,1806.33L360.84,1849.92C360.797,1851.29 360.051,1852.55 358.865,1853.24C356.268,1854.77 294.66,1890.51 241.629,1890.51Z" style="fill:rgb(72,80,106);fill-rule:nonzero;"/>
    </g>
    <g transform="matrix(4.16667,0,0,4.16667,-48.1833,-5784.75)">
        <path d="M237.27,1409.64L237.27,1450.21C237.27,1461.32 232.745,1471.91 224.799,1479.41L218.022,1485.81L225.026,1491.74C232.778,1498.3 237.27,1508.1 237.27,1518.43L237.27,1686.61C237.27,1689.7 233.275,1690.78 231.801,1688.08L178.656,1611.08C176.746,1607.58 175.966,1603.55 176.404,1599.56C178.574,1579.79 179.72,1516.41 134.11,1497.66C129.479,1495.76 129.118,1489.17 133.547,1486.81L193.08,1455.11L227.753,1406.43C230.765,1402.2 237.27,1404.39 237.27,1409.64Z" style="fill:rgb(237,25,82);fill-rule:nonzero;"/>
    </g>
    <g transform="matrix(4.16667,0,0,4.16667,-48.1833,-5784.75)">
        <path d="M101.073,1498C107.1,1495.12 114.055,1494.91 120.308,1497.25C130.731,1501.15 146.665,1507.52 154.378,1524.05C159.389,1534.79 106.335,1530.64 101.184,1570.85C100.482,1576.34 97.644,1581.34 93.29,1584.76C89.819,1587.48 89.036,1587.48 65.51,1608.64C62.132,1611.68 56.725,1610.03 55.651,1605.61C50.113,1582.82 43.024,1525.68 101.073,1498Z" style="fill:rgb(159,171,206);fill-rule:nonzero;"/>
    </g>
    <g transform="matrix(4.16667,0,0,4.16667,-48.1833,-5784.75)">
        <path d="M106.808,1582.17C106.764,1564.63 117.787,1548.98 134.311,1543.11L153.703,1536.23C158.347,1534.02 162.951,1537.31 164.066,1542.34C167.152,1556.24 170.996,1573.63 167.549,1600.94C167.08,1604.66 164.531,1607.79 160.985,1608.99L115.109,1624.53C110.877,1625.96 106.525,1622.71 106.703,1618.25C106.851,1614.52 106.848,1597.77 106.808,1582.17Z" style="fill:rgb(159,171,206);fill-rule:nonzero;"/>
    </g>
    <g transform="matrix(4.16667,0,0,4.16667,-48.1833,-5784.75)">
        <path d="M117.473,1629.67C112.725,1630.71 109.409,1635 109.495,1639.86C109.685,1650.58 110.834,1669.18 116.01,1684.5C127.66,1718.98 154.787,1744 157.411,1770.05C157.573,1771.65 159.424,1772.47 160.739,1771.53L220.367,1704.23C224.725,1701.13 225.977,1695.2 223.247,1690.6L173.738,1619.64C170.885,1615.97 166,1614.54 161.62,1616.11C151.148,1619.86 131.58,1626.57 117.473,1629.67Z" style="fill:rgb(159,171,206);fill-rule:nonzero;"/>
    </g>
    <g transform="matrix(4.16667,0,0,4.16667,-48.1833,-5784.75)">
        <path d="M74.16,1616.87C68.932,1628.43 61.655,1646.86 59.728,1663.51C58.873,1670.9 56.058,1677.93 51.32,1683.67C48.406,1687.2 45.46,1692.2 43.888,1699.02C41.745,1708.3 35.168,1716.78 29.842,1722.41C26.737,1725.69 21.204,1723.84 20.706,1719.34C18.344,1698.05 18.887,1647.5 68.742,1612.37C71.769,1610.24 75.686,1613.5 74.16,1616.87Z" style="fill:rgb(159,171,206);fill-rule:nonzero;"/>
    </g>
    <g transform="matrix(4.16667,0,0,4.16667,-48.1833,-5784.75)">
        <path d="M96.393,1595.7C98.346,1593.33 102.193,1594.89 101.948,1597.95C100.765,1612.72 99.189,1641.25 102.821,1658.5C107.008,1678.39 81.375,1713.57 62.036,1727.54C58.423,1730.16 53.627,1726.44 55.22,1722.27L60.88,1707.47C65.148,1696.31 67.481,1684.48 67.551,1672.53C67.653,1655.28 72.016,1625.22 96.393,1595.7Z" style="fill:rgb(159,171,206);fill-rule:nonzero;"/>
    </g>
    <g transform="matrix(4.16667,0,0,4.16667,-48.1833,-5784.75)">
        <path d="M237.27,1709.78L237.27,1868.88C237.27,1873.09 232.509,1875.4 229.362,1872.71L211.887,1857.8C201.313,1848.77 188.014,1843.84 174.285,1843.84C168.262,1843.84 163.283,1839 162.927,1832.8L160.426,1789.31C160.129,1784.15 162.426,1779.2 166.508,1776.19L229.634,1705.73C232.83,1703.38 237.27,1705.73 237.27,1709.78Z" style="fill:rgb(159,171,206);fill-rule:nonzero;"/>
    </g>
    <g transform="matrix(4.16667,0,0,4.16667,-48.1833,-5784.75)">
        <path d="M141.617,1748.08C141.617,1748.08 152.71,1793.35 156.704,1836.62C157.012,1839.95 153.839,1842.63 150.501,1842.9L141.933,1843.77C138.362,1844.06 135.184,1841.52 134.682,1837.97L132.86,1825.08C131.247,1813.68 131.785,1802.08 134.447,1790.88L141.617,1748.08Z" style="fill:rgb(159,171,206);fill-rule:nonzero;"/>
    </g>
    <g transform="matrix(4.16667,0,0,4.16667,-48.1833,-5784.75)">
        <path d="M245.723,1409.64L245.723,1450.21C245.723,1461.32 250.248,1471.91 258.195,1479.41L264.972,1485.81L257.967,1491.74C250.216,1498.3 245.723,1508.1 245.723,1518.43L245.723,1686.61C245.723,1689.7 249.718,1690.78 251.193,1688.08L304.337,1611.08C306.248,1607.58 307.027,1603.55 306.59,1599.56C304.42,1579.79 303.274,1516.41 348.883,1497.66C353.513,1495.76 353.875,1489.17 349.447,1486.81L289.913,1455.11L255.241,1406.43C252.229,1402.2 245.723,1404.39 245.723,1409.64Z" style="fill:rgb(237,25,82);fill-rule:nonzero;"/>
    </g>
    <g transform="matrix(4.16667,0,0,4.16667,-48.1833,-5784.75)">
        <path d="M381.921,1498C375.893,1495.12 368.939,1494.91 362.685,1497.25C352.262,1501.15 336.329,1507.52 328.615,1524.05C323.614,1534.76 377.995,1531.23 382.041,1570.7C382.615,1576.31 385.444,1581.45 389.894,1584.91C393.211,1587.48 394.396,1587.87 417.483,1608.64C420.861,1611.68 426.268,1610.03 427.342,1605.61C432.88,1582.82 439.969,1525.68 381.921,1498Z" style="fill:rgb(159,171,206);fill-rule:nonzero;"/>
    </g>
    <g transform="matrix(4.16667,0,0,4.16667,-48.1833,-5784.75)">
        <path d="M376.185,1582.17C376.229,1564.63 365.207,1548.98 348.683,1543.11L329.29,1536.23C324.646,1534.02 320.043,1537.31 318.928,1542.34C315.841,1556.24 311.998,1573.63 315.444,1600.94C315.913,1604.66 318.462,1607.79 322.008,1608.99L367.884,1624.53C372.116,1625.96 376.469,1622.71 376.291,1618.25C376.142,1614.52 376.146,1597.77 376.185,1582.17Z" style="fill:rgb(159,171,206);fill-rule:nonzero;"/>
    </g>
    <g transform="matrix(4.16667,0,0,4.16667,-48.1833,-5784.75)">
        <path d="M365.52,1629.67C370.268,1630.71 373.585,1635 373.499,1639.86C373.309,1650.58 372.159,1669.18 366.983,1684.5C355.334,1718.98 328.207,1744 325.583,1770.05C325.421,1771.65 323.569,1772.47 322.254,1771.53L262.626,1705.23C258.268,1702.13 257.015,1696.2 259.746,1691.6L309.256,1619.64C312.108,1615.97 316.993,1614.54 321.374,1616.11C331.845,1619.86 351.414,1626.57 365.52,1629.67Z" style="fill:rgb(159,171,206);fill-rule:nonzero;"/>
    </g>
    <g transform="matrix(4.16667,0,0,4.16667,-48.1833,-5784.75)">
        <path d="M408.833,1616.87C414.061,1628.43 421.338,1646.86 423.265,1663.51C424.12,1670.9 426.935,1677.93 431.673,1683.67C434.586,1687.2 437.533,1692.2 439.105,1699.02C441.249,1708.3 447.825,1716.78 453.151,1722.41C456.256,1725.69 461.789,1723.84 462.287,1719.34C464.649,1698.05 464.106,1647.5 414.251,1612.37C411.224,1610.24 407.307,1613.5 408.833,1616.87Z" style="fill:rgb(159,171,206);fill-rule:nonzero;"/>
    </g>
    <g transform="matrix(4.16667,0,0,4.16667,-48.1833,-5784.75)">
        <path d="M386.6,1595.7C384.647,1593.33 380.8,1594.89 381.045,1597.95C382.228,1612.72 383.804,1641.25 380.172,1658.5C375.985,1678.39 401.618,1713.57 420.957,1727.54C424.57,1730.16 429.366,1726.44 427.773,1722.27L422.113,1707.47C417.845,1696.31 415.512,1684.48 415.442,1672.53C415.339,1655.28 410.977,1625.22 386.6,1595.7Z" style="fill:rgb(159,171,206);fill-rule:nonzero;"/>
    </g>
    <g transform="matrix(4.16667,0,0,4.16667,-48.1833,-5784.75)">
        <path d="M245.723,1709.78L245.723,1868.88C245.723,1873.09 250.484,1875.4 253.632,1872.71L271.106,1857.8C281.68,1848.77 294.979,1843.84 308.708,1843.84C314.731,1843.84 319.711,1839 320.067,1832.8L322.568,1789.31C322.865,1784.15 320.568,1779.2 316.486,1776.19L253.36,1705.73C250.164,1703.38 245.723,1705.73 245.723,1709.78Z" style="fill:rgb(159,171,206);fill-rule:nonzero;"/>
    </g>
    <g transform="matrix(4.16667,0,0,4.16667,-48.1833,-5784.75)">
        <path d="M341.376,1748.08C341.376,1748.08 330.283,1793.35 326.289,1836.62C325.981,1839.95 329.155,1842.63 332.492,1842.9L341.061,1843.77C344.631,1844.06 347.81,1841.52 348.311,1837.97L350.134,1825.08C351.746,1813.68 351.208,1802.08 348.546,1790.88L341.376,1748.08Z" style="fill:rgb(159,171,206);fill-rule:nonzero;"/>
    </g>
</svg>
