<?xml version="1.0" encoding="UTF-8" standalone="no"?>
<!DOCTYPE svg PUBLIC "-//W3C//DTD SVG 1.1//EN" "http://www.w3.org/Graphics/SVG/1.1/DTD/svg11.dtd">
<svg width="100%" height="100%" viewBox="0 0 1918 2093" version="1.1" xmlns="http://www.w3.org/2000/svg" xmlns:xlink="http://www.w3.org/1999/xlink" xml:space="preserve" xmlns:serif="http://www.serif.com/" style="fill-rule:evenodd;clip-rule:evenodd;stroke-linejoin:round;stroke-miterlimit:2;">
    <g transform="matrix(4.16667,0,0,4.16667,-9632.33,-5784.75)">
        <path d="M2541.83,1890.51C2488.77,1890.51 2428.62,1854.74 2426.09,1853.22C2424.92,1852.52 2424.2,1851.28 2424.15,1849.92L2422.76,1806.33C2422.75,1806.07 2422.77,1805.81 2422.81,1805.56L2431.15,1754.6C2433.34,1741.17 2429.72,1727.6 2421.2,1717.37C2415.74,1710.82 2412.21,1704.94 2410.06,1700.76L2391.4,1724.86C2392,1732.17 2392.88,1761.31 2373.68,1794.21C2373.07,1795.26 2372.01,1795.98 2370.8,1796.15C2369.6,1796.33 2368.38,1795.94 2367.49,1795.11L2313.03,1743.96C2312.22,1743.2 2311.76,1742.15 2311.76,1741.04L2311.76,1700.18C2311.76,1700.14 2311.77,1700.09 2311.77,1700.04C2313.56,1649.77 2339.97,1625.56 2347.88,1619.41C2346.35,1609.65 2342.03,1573.91 2354.29,1539.17C2367.19,1502.66 2411.73,1487 2417.08,1485.24L2488.75,1442.58L2495.53,1397.99C2495.78,1396.31 2497.07,1394.98 2498.73,1394.66L2521.3,1390.33C2534.91,1387.72 2548.73,1387.68 2562.36,1390.2L2586.44,1394.66C2588.11,1394.97 2589.41,1396.3 2589.66,1397.99L2596.44,1442.58L2668.11,1485.24C2673.46,1487 2718.01,1502.65 2730.9,1539.17C2743.27,1574.22 2737.44,1609 2735.54,1618.14C2742.75,1625.5 2770.07,1656.69 2771.89,1707.69L2771.89,1741.04C2771.89,1742.13 2771.45,1743.17 2770.67,1743.92L2717.75,1795.07C2716.86,1795.92 2715.64,1796.32 2714.42,1796.16C2713.2,1795.99 2712.13,1795.27 2711.51,1794.21C2692.32,1761.31 2693.19,1732.17 2693.79,1724.86L2675.13,1700.76C2672.99,1704.94 2669.46,1710.82 2664,1717.37C2655.48,1727.6 2651.85,1741.17 2654.04,1754.6L2662.38,1805.56C2662.43,1805.81 2662.44,1806.07 2662.43,1806.33L2661.04,1849.92C2661,1851.29 2660.25,1852.55 2659.07,1853.24C2656.47,1854.77 2594.86,1890.51 2541.83,1890.51Z" style="fill:rgb(72,80,106);fill-rule:nonzero;"/>
    </g>
    <g transform="matrix(4.16667,0,0,4.16667,-9632.33,-5784.75)">
        <path d="M2537.47,1409.64L2537.47,1450.21C2537.47,1461.32 2532.95,1471.91 2525,1479.41L2518.22,1485.81L2525.23,1491.74C2532.98,1498.3 2537.47,1508.1 2537.47,1518.43L2537.47,1686.61C2537.47,1689.7 2533.48,1690.78 2532,1688.08L2478.86,1611.08C2476.95,1607.58 2476.17,1603.55 2476.6,1599.56C2478.77,1579.79 2479.92,1516.41 2434.31,1497.66C2429.68,1495.76 2429.32,1489.17 2433.75,1486.81L2493.28,1455.11L2527.95,1406.43C2530.97,1402.2 2537.47,1404.39 2537.47,1409.64Z" style="fill:rgb(159,171,206);fill-rule:nonzero;"/>
    </g>
    <g transform="matrix(4.16667,0,0,4.16667,-9632.33,-5784.75)">
        <path d="M2401.27,1498C2407.3,1495.12 2414.26,1494.91 2420.51,1497.25C2430.93,1501.15 2446.87,1507.52 2454.58,1524.05C2459.59,1534.79 2406.54,1530.64 2401.39,1570.85C2400.68,1576.34 2397.85,1581.34 2393.49,1584.76C2390.02,1587.48 2389.24,1587.48 2365.71,1608.64C2362.33,1611.68 2356.93,1610.03 2355.85,1605.61C2350.31,1582.82 2343.23,1525.68 2401.27,1498Z" style="fill:rgb(159,171,206);fill-rule:nonzero;"/>
    </g>
    <g transform="matrix(4.16667,0,0,4.16667,-9632.33,-5784.75)">
        <path d="M2407.01,1582.17C2406.96,1564.63 2417.99,1548.98 2434.51,1543.11L2453.9,1536.23C2458.55,1534.02 2463.15,1537.31 2464.27,1542.34C2467.35,1556.24 2471.2,1573.63 2467.75,1600.94C2467.28,1604.66 2464.73,1607.79 2461.19,1608.99L2415.31,1624.53C2411.08,1625.96 2406.73,1622.71 2406.9,1618.25C2407.05,1614.52 2407.05,1597.77 2407.01,1582.17Z" style="fill:rgb(159,171,206);fill-rule:nonzero;"/>
    </g>
    <g transform="matrix(4.16667,0,0,4.16667,-9632.33,-5784.75)">
        <path d="M2417.67,1629.67C2412.93,1630.71 2409.61,1635 2409.7,1639.86C2409.89,1650.58 2411.04,1669.18 2416.21,1684.5C2427.86,1718.98 2454.99,1744 2457.61,1770.05C2457.77,1771.65 2459.63,1772.47 2460.94,1771.53L2520.57,1704.23C2524.93,1701.13 2526.18,1695.2 2523.45,1690.6L2473.94,1619.64C2471.09,1615.97 2466.2,1614.54 2461.82,1616.11C2451.35,1619.86 2431.78,1626.57 2417.67,1629.67Z" style="fill:rgb(159,171,206);fill-rule:nonzero;"/>
    </g>
    <g transform="matrix(4.16667,0,0,4.16667,-9632.33,-5784.75)">
        <path d="M2374.36,1616.87C2369.13,1628.43 2361.86,1646.86 2359.93,1663.51C2359.07,1670.9 2356.26,1677.93 2351.52,1683.67C2348.61,1687.2 2345.66,1692.2 2344.09,1699.02C2341.95,1708.3 2335.37,1716.78 2330.04,1722.41C2326.94,1725.69 2321.41,1723.84 2320.91,1719.34C2318.55,1698.05 2319.09,1647.5 2368.94,1612.37C2371.97,1610.24 2375.89,1613.5 2374.36,1616.87Z" style="fill:rgb(237,25,82);fill-rule:nonzero;"/>
    </g>
    <g transform="matrix(4.16667,0,0,4.16667,-9632.33,-5784.75)">
        <path d="M2396.59,1595.7C2398.55,1593.33 2402.39,1594.89 2402.15,1597.95C2400.97,1612.72 2399.39,1641.25 2403.02,1658.5C2407.21,1678.39 2381.58,1713.57 2362.24,1727.54C2358.62,1730.16 2353.83,1726.44 2355.42,1722.27L2361.08,1707.47C2365.35,1696.31 2367.68,1684.48 2367.75,1672.53C2367.85,1655.28 2372.22,1625.22 2396.59,1595.7Z" style="fill:rgb(237,25,82);fill-rule:nonzero;"/>
    </g>
    <g transform="matrix(4.16667,0,0,4.16667,-9632.33,-5784.75)">
        <path d="M2537.47,1709.78L2537.47,1868.88C2537.47,1873.09 2532.71,1875.4 2529.56,1872.71L2512.09,1857.8C2501.51,1848.77 2488.22,1843.84 2474.49,1843.84C2468.46,1843.84 2463.48,1839 2463.13,1832.8L2460.63,1789.31C2460.33,1784.15 2462.63,1779.2 2466.71,1776.19L2529.83,1705.73C2533.03,1703.38 2537.47,1705.73 2537.47,1709.78Z" style="fill:rgb(159,171,206);fill-rule:nonzero;"/>
    </g>
    <g transform="matrix(4.16667,0,0,4.16667,-9632.33,-5784.75)">
        <path d="M2441.82,1748.08C2441.82,1748.08 2452.91,1793.35 2456.91,1836.62C2457.21,1839.95 2454.04,1842.63 2450.7,1842.9L2442.13,1843.77C2438.56,1844.06 2435.38,1841.52 2434.88,1837.97L2433.06,1825.08C2431.45,1813.68 2431.99,1802.08 2434.65,1790.88L2441.82,1748.08Z" style="fill:rgb(159,171,206);fill-rule:nonzero;"/>
    </g>
    <g transform="matrix(4.16667,0,0,4.16667,-9632.33,-5784.75)">
        <path d="M2545.92,1409.64L2545.92,1450.21C2545.92,1461.32 2550.45,1471.91 2558.4,1479.41L2565.17,1485.81L2558.17,1491.74C2550.42,1498.3 2545.92,1508.1 2545.92,1518.43L2545.92,1686.61C2545.92,1689.7 2549.92,1690.78 2551.39,1688.08L2604.54,1611.08C2606.45,1607.58 2607.23,1603.55 2606.79,1599.56C2604.62,1579.79 2603.47,1516.41 2649.08,1497.66C2653.71,1495.76 2654.08,1489.17 2649.65,1486.81L2590.11,1455.11L2555.44,1406.43C2552.43,1402.2 2545.92,1404.39 2545.92,1409.64Z" style="fill:rgb(159,171,206);fill-rule:nonzero;"/>
    </g>
    <g transform="matrix(4.16667,0,0,4.16667,-9632.33,-5784.75)">
        <path d="M2682.12,1498C2676.09,1495.12 2669.14,1494.91 2662.89,1497.25C2652.46,1501.15 2636.53,1507.52 2628.82,1524.05C2623.82,1534.76 2678.2,1531.23 2682.24,1570.7C2682.82,1576.31 2685.65,1581.45 2690.09,1584.91C2693.41,1587.48 2694.6,1587.87 2717.68,1608.64C2721.06,1611.68 2726.47,1610.03 2727.54,1605.61C2733.08,1582.82 2740.17,1525.68 2682.12,1498Z" style="fill:rgb(159,171,206);fill-rule:nonzero;"/>
    </g>
    <g transform="matrix(4.16667,0,0,4.16667,-9632.33,-5784.75)">
        <path d="M2676.39,1582.17C2676.43,1564.63 2665.41,1548.98 2648.88,1543.11L2629.49,1536.23C2624.85,1534.02 2620.24,1537.31 2619.13,1542.34C2616.04,1556.24 2612.2,1573.63 2615.65,1600.94C2616.11,1604.66 2618.66,1607.79 2622.21,1608.99L2668.08,1624.53C2672.32,1625.96 2676.67,1622.71 2676.49,1618.25C2676.34,1614.52 2676.35,1597.77 2676.39,1582.17Z" style="fill:rgb(159,171,206);fill-rule:nonzero;"/>
    </g>
    <g transform="matrix(4.16667,0,0,4.16667,-9632.33,-5784.75)">
        <path d="M2665.72,1629.67C2670.47,1630.71 2673.79,1635 2673.7,1639.86C2673.51,1650.58 2672.36,1669.18 2667.18,1684.5C2655.53,1718.98 2628.41,1744 2625.78,1770.05C2625.62,1771.65 2623.77,1772.47 2622.46,1771.53L2562.83,1705.23C2558.47,1702.13 2557.22,1696.2 2559.95,1691.6L2609.46,1619.64C2612.31,1615.97 2617.19,1614.54 2621.57,1616.11C2632.05,1619.86 2651.61,1626.57 2665.72,1629.67Z" style="fill:rgb(159,171,206);fill-rule:nonzero;"/>
    </g>
    <g transform="matrix(4.16667,0,0,4.16667,-9632.33,-5784.75)">
        <path d="M2709.03,1616.87C2714.26,1628.43 2721.54,1646.86 2723.47,1663.51C2724.32,1670.9 2727.14,1677.93 2731.87,1683.67C2734.79,1687.2 2737.73,1692.2 2739.31,1699.02C2741.45,1708.3 2748.03,1716.78 2753.35,1722.41C2756.46,1725.69 2761.99,1723.84 2762.49,1719.34C2764.85,1698.05 2764.31,1647.5 2714.45,1612.37C2711.42,1610.24 2707.51,1613.5 2709.03,1616.87Z" style="fill:rgb(237,25,82);fill-rule:nonzero;"/>
    </g>
    <g transform="matrix(4.16667,0,0,4.16667,-9632.33,-5784.75)">
        <path d="M2686.8,1595.7C2684.85,1593.33 2681,1594.89 2681.25,1597.95C2682.43,1612.72 2684,1641.25 2680.37,1658.5C2676.19,1678.39 2701.82,1713.57 2721.16,1727.54C2724.77,1730.16 2729.57,1726.44 2727.97,1722.27L2722.31,1707.47C2718.05,1696.31 2715.71,1684.48 2715.64,1672.53C2715.54,1655.28 2711.18,1625.22 2686.8,1595.7Z" style="fill:rgb(237,25,82);fill-rule:nonzero;"/>
    </g>
    <g transform="matrix(4.16667,0,0,4.16667,-9632.33,-5784.75)">
        <path d="M2545.92,1709.78L2545.92,1868.88C2545.92,1873.09 2550.68,1875.4 2553.83,1872.71L2571.31,1857.8C2581.88,1848.77 2595.18,1843.84 2608.91,1843.84C2614.93,1843.84 2619.91,1839 2620.27,1832.8L2622.77,1789.31C2623.07,1784.15 2620.77,1779.2 2616.69,1776.19L2553.56,1705.73C2550.36,1703.38 2545.92,1705.73 2545.92,1709.78Z" style="fill:rgb(159,171,206);fill-rule:nonzero;"/>
    </g>
    <g transform="matrix(4.16667,0,0,4.16667,-9632.33,-5784.75)">
        <path d="M2641.58,1748.08C2641.58,1748.08 2630.48,1793.35 2626.49,1836.62C2626.18,1839.95 2629.36,1842.63 2632.69,1842.9L2641.26,1843.77C2644.83,1844.06 2648.01,1841.52 2648.51,1837.97L2650.33,1825.08C2651.95,1813.68 2651.41,1802.08 2648.75,1790.88L2641.58,1748.08Z" style="fill:rgb(159,171,206);fill-rule:nonzero;"/>
    </g>
</svg>
