<?xml version="1.0" encoding="UTF-8" standalone="no"?>
<!DOCTYPE svg PUBLIC "-//W3C//DTD SVG 1.1//EN" "http://www.w3.org/Graphics/SVG/1.1/DTD/svg11.dtd">
<svg width="100%" height="100%" viewBox="0 0 1918 5047" version="1.1" xmlns="http://www.w3.org/2000/svg" xmlns:xlink="http://www.w3.org/1999/xlink" xml:space="preserve" xmlns:serif="http://www.serif.com/" style="fill-rule:evenodd;clip-rule:evenodd;stroke-linejoin:round;stroke-miterlimit:2;">
    <g transform="matrix(4.16667,0,0,4.16667,-48.8337,-5782.13)">
        <path d="M74.16,1616.87C68.932,1628.43 61.655,1646.86 59.728,1663.51C58.873,1670.9 56.058,1677.93 51.32,1683.67C48.406,1687.2 45.46,1692.2 43.888,1699.02C41.745,1708.3 35.168,1716.78 29.842,1722.41C26.737,1725.69 21.204,1723.84 20.706,1719.34C18.344,1698.05 18.887,1647.5 68.742,1612.37C71.769,1610.24 75.686,1613.5 74.16,1616.87Z" style="fill:rgb(237,26,82);fill-rule:nonzero;"/>
    </g>
    <g transform="matrix(4.16667,0,0,4.16667,-48.8337,-5782.13)">
        <path d="M96.393,1595.7C98.346,1593.33 102.193,1594.89 101.948,1597.95C100.765,1612.72 99.189,1641.25 102.821,1658.5C107.008,1678.39 81.375,1713.57 62.036,1727.54C58.423,1730.16 53.627,1726.44 55.22,1722.27L60.88,1707.47C65.148,1696.31 67.481,1684.48 67.551,1672.53C67.653,1655.28 72.016,1625.22 96.393,1595.7Z" style="fill:rgb(237,26,82);fill-rule:nonzero;"/>
    </g>
    <g transform="matrix(4.16667,0,0,4.16667,-48.8337,-5782.13)">
        <path d="M408.833,1616.87C414.061,1628.43 421.338,1646.86 423.265,1663.51C424.12,1670.9 426.935,1677.93 431.673,1683.67C434.586,1687.2 437.533,1692.2 439.105,1699.02C441.249,1708.3 447.825,1716.78 453.151,1722.41C456.256,1725.69 461.789,1723.84 462.287,1719.34C464.649,1698.05 464.106,1647.5 414.251,1612.37C411.224,1610.24 407.307,1613.5 408.833,1616.87Z" style="fill:rgb(237,26,82);fill-rule:nonzero;"/>
    </g>
    <g transform="matrix(4.16667,0,0,4.16667,-48.8337,-5782.13)">
        <path d="M386.6,1595.7C384.647,1593.33 380.8,1594.89 381.045,1597.95C382.228,1612.72 383.804,1641.25 380.172,1658.5C375.985,1678.39 401.618,1713.57 420.957,1727.54C424.57,1730.16 429.366,1726.44 427.773,1722.27L422.113,1707.47C417.845,1696.31 415.512,1684.48 415.442,1672.53C415.339,1655.28 410.977,1625.22 386.6,1595.7Z" style="fill:rgb(237,26,82);fill-rule:nonzero;"/>
    </g>
</svg>
