<?xml version="1.0" encoding="UTF-8" standalone="no"?>
<!DOCTYPE svg PUBLIC "-//W3C//DTD SVG 1.1//EN" "http://www.w3.org/Graphics/SVG/1.1/DTD/svg11.dtd">
<svg width="100%" height="100%" viewBox="0 0 1398 2043" version="1.1" xmlns="http://www.w3.org/2000/svg" xmlns:xlink="http://www.w3.org/1999/xlink" xml:space="preserve" xmlns:serif="http://www.serif.com/" style="fill-rule:evenodd;clip-rule:evenodd;stroke-linejoin:round;stroke-miterlimit:2;">
    <g transform="matrix(4.16667,0,0,4.16667,-3504.69,-8743.83)">
        <path d="M1130.48,2098.52L887.214,2098.52C885.072,2098.52 883.019,2099.38 881.516,2100.91C880.012,2102.43 879.183,2104.5 879.215,2106.64L880.647,2204.66C877.838,2209.96 869.952,2225.68 861.908,2249.21C852.879,2275.61 841.955,2317.3 841.182,2365.95C840.156,2430.58 853.091,2500.95 860.819,2542.99C864.119,2560.94 866.726,2575.12 866.726,2580.44C866.726,2584.85 870.29,2588.43 874.697,2588.44L964.249,2588.77L964.278,2588.77C967.123,2588.77 969.756,2587.26 971.189,2584.8C985.622,2560.03 997.031,2524.06 1005.1,2477.87C1006.5,2469.84 1007.74,2461.85 1008.84,2453.97C1009.94,2461.85 1011.19,2469.84 1012.59,2477.87C1020.66,2524.06 1032.06,2560.03 1046.5,2584.8C1047.93,2587.26 1050.56,2588.77 1053.41,2588.77L1053.44,2588.77L1142.99,2588.44C1147.4,2588.43 1150.96,2584.85 1150.96,2580.44C1150.96,2575.12 1153.57,2560.94 1156.87,2542.99C1160.71,2522.1 1165.97,2493.48 1170.01,2462.74C1174.83,2426.13 1176.96,2394.47 1176.5,2365.95C1175.73,2317.3 1164.81,2275.61 1155.78,2249.21C1147.73,2225.68 1139.85,2209.96 1137.04,2204.66L1138.47,2106.85L1138.47,2106.52C1138.47,2102.1 1134.9,2098.52 1130.48,2098.52Z" style="fill:rgb(72,80,106);fill-rule:nonzero;"/>
    </g>
    <g transform="matrix(4.16667,0,0,4.16667,-3504.69,-8743.83)">
        <path d="M997.738,2106.52L974.144,2106.52C967.582,2106.52 962.262,2111.84 962.262,2118.41L962.262,2139.46C962.262,2171.69 970.008,2203.45 984.847,2232.06L993.232,2248.23C995.679,2252.95 1002.81,2251.21 1002.81,2245.9L1002.81,2111.6C1002.81,2108.8 1000.54,2106.52 997.738,2106.52Z" style="fill:rgb(159,171,206);fill-rule:nonzero;"/>
    </g>
    <g transform="matrix(4.16667,0,0,4.16667,-3504.69,-8743.83)">
        <path d="M919.167,2111.71L920.979,2113.64C938.772,2132.66 949.027,2157.5 949.824,2183.53L950.135,2193.69C950.27,2198.1 944.777,2200.23 941.897,2196.88L910.687,2160.55C902.738,2151.29 898.813,2139.25 899.783,2127.08L900.488,2118.24C901.235,2108.87 912.747,2104.85 919.167,2111.71Z" style="fill:rgb(159,171,206);fill-rule:nonzero;"/>
    </g>
    <g transform="matrix(4.16667,0,0,4.16667,-3504.69,-8743.83)">
        <path d="M957.6,2250.16L987.958,2293.31C992.25,2299.41 994.304,2306.8 993.772,2314.24L986.128,2421.26C986.011,2422.89 983.719,2423.16 983.233,2421.59L960.532,2348.47L951.369,2252.46C951.034,2248.95 955.571,2247.28 957.6,2250.16Z" style="fill:rgb(159,171,206);fill-rule:nonzero;"/>
    </g>
    <g transform="matrix(4.16667,0,0,4.16667,-3504.69,-8743.83)">
        <path d="M865.773,2316.01C866.607,2313.02 871.038,2313.79 870.795,2316.88C868.485,2346.37 866.283,2404.28 879.805,2443.6C887.102,2464.82 892.105,2477.07 895.495,2484.11C899.583,2492.61 901.123,2502.1 899.988,2511.46L898.674,2522.29C897.805,2529.45 888.576,2531.7 884.447,2525.79C873.187,2509.66 857.981,2477.29 856.65,2419.14C855.421,2365.45 860.901,2333.48 865.773,2316.01Z" style="fill:rgb(245,132,102);fill-rule:nonzero;"/>
    </g>
    <g transform="matrix(4.16667,0,0,4.16667,-3504.69,-8743.83)">
        <path d="M961.498,2384.23L965.361,2396.05C976.117,2428.96 979.87,2463.75 976.38,2498.2L972.9,2532.54C971.145,2549.87 953.79,2561.1 937.268,2555.61C924.545,2551.38 916.803,2538.51 919.029,2525.29L920.232,2518.14C922.463,2504.89 927.723,2492.28 935.942,2481.65C944.822,2470.16 956.003,2444.02 957.189,2384.87C957.239,2382.38 960.726,2381.87 961.498,2384.23Z" style="fill:rgb(237,25,82);fill-rule:nonzero;"/>
    </g>
    <g transform="matrix(4.16667,0,0,4.16667,-3504.69,-8743.83)">
        <path d="M1019.95,2106.52L1043.54,2106.52C1050.1,2106.52 1055.42,2111.84 1055.42,2118.41L1055.42,2139.46C1055.42,2171.69 1047.68,2203.45 1032.84,2232.06L1024.45,2248.23C1022.01,2252.95 1014.87,2251.21 1014.87,2245.9L1014.87,2111.6C1014.87,2108.8 1017.15,2106.52 1019.95,2106.52Z" style="fill:rgb(159,171,206);fill-rule:nonzero;"/>
    </g>
    <g transform="matrix(4.16667,0,0,4.16667,-3504.69,-8743.83)">
        <path d="M1098.52,2111.71L1096.71,2113.64C1078.91,2132.66 1068.66,2157.5 1067.86,2183.53L1067.55,2193.69C1067.42,2198.1 1072.91,2200.23 1075.79,2196.88L1107,2160.55C1114.95,2151.29 1118.87,2139.25 1117.9,2127.08L1117.2,2118.24C1116.45,2108.87 1104.94,2104.85 1098.52,2111.71Z" style="fill:rgb(159,171,206);fill-rule:nonzero;"/>
    </g>
    <g transform="matrix(4.16667,0,0,4.16667,-3504.69,-8743.83)">
        <path d="M1060.09,2250.16L1029.73,2293.31C1025.44,2299.41 1023.38,2306.8 1023.91,2314.24L1031.56,2421.26C1031.67,2422.89 1033.97,2423.16 1034.45,2421.59L1057.15,2348.47L1066.32,2252.46C1066.65,2248.95 1062.11,2247.28 1060.09,2250.16Z" style="fill:rgb(159,171,206);fill-rule:nonzero;"/>
    </g>
    <g transform="matrix(4.16667,0,0,4.16667,-3504.69,-8743.83)">
        <path d="M1157.62,2317.65C1156.91,2314.63 1152.45,2315.22 1152.57,2318.32C1153.66,2347.88 1153.46,2405.83 1138.32,2444.56C1130.15,2465.46 1124.65,2477.49 1120.97,2484.38C1116.54,2492.7 1114.6,2502.12 1115.35,2511.52L1116.22,2522.39C1116.79,2529.58 1125.92,2532.22 1130.29,2526.48C1142.2,2510.83 1158.74,2479.12 1162.47,2421.07C1165.92,2367.48 1161.77,2335.31 1157.62,2317.65Z" style="fill:rgb(245,132,102);fill-rule:nonzero;"/>
    </g>
    <g transform="matrix(4.16667,0,0,4.16667,-3504.69,-8743.83)">
        <path d="M1056.19,2384.23L1052.32,2396.05C1041.57,2428.96 1037.82,2463.75 1041.31,2498.2L1044.79,2532.54C1046.54,2549.87 1063.9,2561.1 1080.42,2555.61C1093.14,2551.38 1100.88,2538.51 1098.66,2525.29L1097.45,2518.14C1095.22,2504.89 1089.96,2492.28 1081.74,2481.65C1072.86,2470.16 1061.68,2444.02 1060.5,2384.87C1060.45,2382.38 1056.96,2381.87 1056.19,2384.23Z" style="fill:rgb(237,25,82);fill-rule:nonzero;"/>
    </g>
    <g transform="matrix(4.16667,0,0,4.16667,-3504.69,-8743.83)">
        <path d="M903.249,2159.5L916.156,2178.3C918.891,2182.29 919.34,2187.41 917.334,2191.8C908.047,2212.16 881.363,2271.54 871.274,2303.59C870.449,2306.21 866.603,2305.81 866.368,2303.08C865.649,2294.71 866.555,2280.88 874.179,2260.84C884.172,2234.58 893.036,2211.35 897.171,2200.52C898.803,2196.24 899.638,2191.71 899.638,2187.13L899.638,2160.62C899.638,2158.67 902.148,2157.9 903.249,2159.5Z" style="fill:rgb(159,171,206);fill-rule:nonzero;"/>
    </g>
    <g transform="matrix(4.16667,0,0,4.16667,-3504.69,-8743.83)">
        <path d="M1117.19,2159.5L1104.28,2178.3C1101.55,2182.29 1101.1,2187.41 1103.1,2191.8C1112.39,2212.16 1139.07,2271.54 1149.16,2303.59C1149.99,2306.21 1153.83,2305.81 1154.07,2303.08C1154.79,2294.71 1153.88,2280.88 1146.26,2260.84C1136.26,2234.58 1127.4,2211.35 1123.27,2200.52C1121.63,2196.24 1120.8,2191.71 1120.8,2187.13L1120.8,2160.62C1120.8,2158.67 1118.29,2157.9 1117.19,2159.5Z" style="fill:rgb(159,171,206);fill-rule:nonzero;"/>
    </g>
    <g transform="matrix(4.16667,0,0,4.16667,-3504.69,-8743.83)">
        <path d="M1084.95,2461.96L1083.94,2458.7C1067.16,2404.52 1065,2346.4 1077.69,2290.97L1091.86,2229.05C1093.69,2221.06 1104.03,2220.23 1106.97,2227.83C1118.57,2257.77 1136.92,2309.63 1138.71,2342.3C1142.78,2416.79 1129.73,2419.05 1120.24,2460.48C1115.86,2479.61 1090.73,2480.66 1084.95,2461.96Z" style="fill:rgb(245,132,102);fill-rule:nonzero;"/>
    </g>
    <g transform="matrix(4.16667,0,0,4.16667,-3504.69,-8743.83)">
        <path d="M933.832,2461.96L934.841,2458.7C951.614,2404.52 953.778,2346.4 941.087,2290.97L926.913,2229.05C925.083,2221.06 914.751,2220.23 911.806,2227.83C900.206,2257.77 881.857,2309.63 880.07,2342.3C875.995,2416.79 889.045,2419.05 898.535,2460.48C902.916,2479.61 928.044,2480.66 933.832,2461.96Z" style="fill:rgb(245,132,102);fill-rule:nonzero;"/>
    </g>
</svg>
