<?xml version="1.0" encoding="UTF-8" standalone="no"?>
<!DOCTYPE svg PUBLIC "-//W3C//DTD SVG 1.1//EN" "http://www.w3.org/Graphics/SVG/1.1/DTD/svg11.dtd">
<svg width="100%" height="100%" viewBox="0 0 2014 5047" version="1.1" xmlns="http://www.w3.org/2000/svg" xmlns:xlink="http://www.w3.org/1999/xlink" xml:space="preserve" xmlns:serif="http://www.serif.com/" style="fill-rule:evenodd;clip-rule:evenodd;stroke-linejoin:round;stroke-miterlimit:2;">
    <g transform="matrix(4.16667,0,0,4.16667,2.10671,-7418.88)">
        <path d="M194.283,2384.23L198.146,2396.05C208.901,2428.96 212.655,2463.75 209.165,2498.2L205.685,2532.54C203.93,2549.87 186.575,2561.1 170.053,2555.61C157.33,2551.38 149.587,2538.51 151.814,2525.29L153.017,2518.14C155.247,2504.89 160.508,2492.28 168.727,2481.65C177.606,2470.16 188.788,2444.02 189.974,2384.87C190.024,2382.38 193.511,2381.87 194.283,2384.23Z" style="fill:rgb(237,26,82);fill-rule:nonzero;"/>
    </g>
    <g transform="matrix(4.16667,0,0,4.16667,2.10671,-7418.88)">
        <path d="M288.973,2384.23L285.109,2396.05C274.354,2428.96 270.601,2463.75 274.091,2498.2L277.571,2532.54C279.326,2549.87 296.68,2561.1 313.203,2555.61C325.926,2551.38 333.668,2538.51 331.442,2525.29L330.239,2518.14C328.008,2504.89 322.748,2492.28 314.529,2481.65C305.649,2470.16 294.468,2444.02 293.281,2384.87C293.232,2382.38 289.744,2381.87 288.973,2384.23Z" style="fill:rgb(237,26,82);fill-rule:nonzero;"/>
    </g>
</svg>
