<?xml version="1.0" encoding="UTF-8" standalone="no"?>
<!DOCTYPE svg PUBLIC "-//W3C//DTD SVG 1.1//EN" "http://www.w3.org/Graphics/SVG/1.1/DTD/svg11.dtd">
<svg width="100%" height="100%" viewBox="0 0 2014 5047" version="1.1" xmlns="http://www.w3.org/2000/svg" xmlns:xlink="http://www.w3.org/1999/xlink" xml:space="preserve" xmlns:serif="http://www.serif.com/" style="fill-rule:evenodd;clip-rule:evenodd;stroke-linejoin:round;stroke-miterlimit:2;">
    <g transform="matrix(4.16667,0,0,4.16667,2.10671,-7418.88)">
        <path d="M98.557,2316.01C99.391,2313.02 103.823,2313.79 103.58,2316.88C101.269,2346.37 99.068,2404.28 112.59,2443.6C119.887,2464.82 124.889,2477.07 128.279,2484.11C132.368,2492.61 133.908,2502.1 132.772,2511.46L131.459,2522.29C130.59,2529.45 121.361,2531.7 117.232,2525.79C105.972,2509.66 90.765,2477.29 89.434,2419.14C88.205,2365.45 93.685,2333.48 98.557,2316.01Z" style="fill:rgb(237,26,82);fill-rule:nonzero;"/>
    </g>
    <g transform="matrix(4.16667,0,0,4.16667,2.10671,-7418.88)">
        <path d="M390.406,2317.65C389.697,2314.63 385.237,2315.22 385.352,2318.32C386.441,2347.88 386.245,2405.83 371.108,2444.56C362.939,2465.46 357.435,2477.49 353.756,2484.38C349.32,2492.7 347.389,2502.12 348.136,2511.52L349.001,2522.39C349.573,2529.58 358.7,2532.22 363.071,2526.48C374.988,2510.83 391.52,2479.12 395.255,2421.07C398.704,2367.48 394.551,2335.31 390.406,2317.65Z" style="fill:rgb(237,26,82);fill-rule:nonzero;"/>
    </g>
</svg>
