<?xml version="1.0" encoding="utf-8"?>
<!-- Generator: Adobe Illustrator 25.3.0, SVG Export Plug-In . SVG Version: 6.00 Build 0)  -->
<svg version="1.1" id="Calque_1" xmlns="http://www.w3.org/2000/svg" xmlns:xlink="http://www.w3.org/1999/xlink" x="0px" y="0px"
	 viewBox="0 0 68.04 15.63" style="enable-background:new 0 0 68.04 15.63;" xml:space="preserve">
<style type="text/css">
	.st0{fill:#FCC00E;}
</style>
<g>
	<path class="st0" d="M1.56,10.63C1.3,10.46,1.1,10.21,0.96,9.9C0.83,9.59,0.75,9.29,0.73,9c0.03-0.24,0.08-0.43,0.16-0.57
		C0.97,8.3,1.07,8.19,1.18,8.1C1.3,8.01,1.41,7.95,1.53,7.9c0.12-0.05,0.24-0.08,0.35-0.11l0.19,0.08C2.12,7.92,2.16,7.96,2.21,8
		S2.3,8.08,2.35,8.12c0.09-0.04,0.14-0.1,0.16-0.18C2.53,7.86,2.55,7.78,2.58,7.7c0.03-0.11,0.06-0.22,0.09-0.33
		C2.71,7.25,2.75,7.14,2.8,7.03c-0.01-0.09,0-0.17,0.01-0.24c0.02-0.07,0.03-0.13,0.05-0.18C2.81,6.55,2.78,6.53,2.76,6.52
		c-0.02,0-0.06-0.02-0.11-0.04c-0.03,0-0.05,0-0.08-0.01C2.54,6.47,2.51,6.46,2.48,6.45C2.35,6.34,2.26,6.25,2.22,6.17
		C2.19,6.1,2.14,6.02,2.1,5.94C2.06,5.86,2.02,5.79,1.99,5.72C1.95,5.66,1.91,5.61,1.87,5.56L1.71,5.44l0.08-0.18
		c0.02-0.02,0.03-0.05,0.03-0.08c0-0.04-0.02-0.09-0.05-0.16C1.74,4.88,1.74,4.78,1.75,4.72l0.03-0.18
		c0.09-0.13,0.13-0.21,0.14-0.23l0.13-0.15c0.2-0.06,0.4-0.13,0.61-0.2C2.87,3.88,3.07,3.8,3.27,3.72c0.2-0.08,0.4-0.16,0.61-0.24
		S4.29,3.33,4.5,3.27C4.56,3.2,4.64,3.15,4.72,3.14S4.88,3.11,4.95,3.1c0.06,0,0.12-0.01,0.17-0.02c0.05-0.01,0.09-0.04,0.12-0.08
		C5.38,2.95,5.52,2.9,5.66,2.86c0.26-0.08,0.6-0.18,1.02-0.29c0.42-0.11,0.9-0.19,1.42-0.24l0.27-0.02c0.05,0.01,0.1,0.01,0.16,0.01
		s0.1-0.01,0.16-0.01c0.45,0,0.75,0.16,0.89,0.49c0.09,0.05,0.16,0.11,0.23,0.19c0.07,0.08,0.13,0.15,0.19,0.22
		c0.04,0.05,0.08,0.09,0.12,0.13c0.03,0.04,0.06,0.06,0.09,0.08l0.1,0.12c0.1,0.24,0.11,0.48,0.05,0.71
		c-0.05,0.12-0.11,0.19-0.17,0.21c-0.06,0.02-0.12,0.04-0.18,0.06L9.85,4.63C9.74,4.62,9.66,4.62,9.6,4.62c-0.06,0-0.12,0-0.19,0
		c-0.26,0-0.56,0.02-0.9,0.05C8.17,4.71,7.83,4.76,7.47,4.82c-0.35,0.07-0.7,0.15-1.04,0.24s-0.63,0.2-0.88,0.31
		C5.49,5.44,5.4,5.49,5.29,5.54C5.26,5.55,5.22,5.58,5.17,5.62c0.01,0.08,0.01,0.16,0,0.24C5.16,5.93,5.15,6,5.13,6.07
		c-0.01,0.05-0.02,0.1-0.02,0.16c0,0.06-0.01,0.11-0.02,0.17C4.91,6.66,4.82,6.96,4.83,7.3L4.77,7.46C4.73,7.5,4.7,7.55,4.68,7.63
		C4.66,7.71,4.66,7.78,4.68,7.87l0.05,0.18C4.9,8.03,5.07,8,5.24,7.98C5.41,7.95,5.59,7.93,5.78,7.9C6.02,7.85,6.26,7.8,6.51,7.77
		c0.25-0.04,0.5-0.05,0.77-0.05h0.5L7.67,7.85l0.14,0.02L7.73,8.11c0.06,0.03,0.11,0.05,0.14,0.07C7.9,8.19,7.92,8.21,7.95,8.23
		l0.09,0.15c0.04,0.03,0.08,0.08,0.12,0.14c0.03,0.07,0.06,0.15,0.06,0.27L8.18,8.94L7.58,9.85L7.5,9.97L7.37,9.93
		C7.2,9.92,7.05,9.94,6.9,9.99c-0.07,0.02-0.14,0.04-0.22,0.07C6.6,10.08,6.53,10.1,6.45,10.1c-0.21,0.04-0.38,0.07-0.52,0.1
		c-0.14,0.03-0.28,0.05-0.41,0.07c-0.19,0.04-0.37,0.08-0.55,0.11c-0.18,0.04-0.34,0.09-0.5,0.16c-0.09,0.01-0.15,0.01-0.17,0.01
		c-0.02,0-0.03-0.01-0.05-0.01c-0.09,0-0.17,0.02-0.26,0.05c-0.09,0.03-0.17,0.06-0.25,0.09c-0.05,0.05-0.09,0.1-0.1,0.16
		c-0.02,0.06-0.03,0.11-0.05,0.17c-0.02,0.07-0.04,0.14-0.07,0.21c-0.03,0.07-0.07,0.13-0.11,0.2l0.01,0.27
		c-0.08,0.02-0.12,0.03-0.12,0.04c0,0,0,0.01-0.01,0.01c0,0.08-0.01,0.16-0.03,0.23c-0.02,0.07-0.04,0.14-0.06,0.2
		c-0.02,0.04-0.03,0.08-0.04,0.11c-0.01,0.03-0.01,0.06-0.01,0.09c0.09,0.18,0.11,0.39,0.06,0.62c-0.03,0.19-0.1,0.36-0.19,0.51
		c-0.09,0.15-0.21,0.26-0.34,0.34c-0.14,0.02-0.24,0.02-0.3-0.02c-0.06-0.03-0.13-0.06-0.2-0.09c-0.04-0.02-0.09-0.04-0.13-0.05
		c-0.04-0.02-0.09-0.03-0.13-0.04l-0.16-0.15c-0.03-0.06-0.06-0.12-0.09-0.17c-0.03-0.06-0.07-0.11-0.1-0.17
		c-0.04-0.07-0.09-0.14-0.13-0.21c-0.04-0.07-0.08-0.15-0.12-0.24c-0.06-0.35-0.07-0.65-0.03-0.89c0.04-0.24,0.09-0.47,0.16-0.71
		c0.02-0.08,0.03-0.16,0.05-0.23C1.52,10.78,1.54,10.71,1.56,10.63z"/>
	<path class="st0" d="M11.35,12.65c0.04,0.3,0.03,0.54-0.05,0.71c-0.07,0.17-0.18,0.3-0.31,0.39s-0.29,0.13-0.46,0.14
		c-0.17,0.01-0.34,0-0.49-0.03c-0.09-0.14-0.16-0.32-0.23-0.53c-0.07-0.21-0.13-0.43-0.19-0.66c-0.06-0.23-0.11-0.45-0.16-0.68
		c-0.05-0.22-0.09-0.42-0.12-0.59c0.04-0.12,0.07-0.26,0.08-0.42c0.01-0.16,0.02-0.32,0.03-0.48c0-0.16,0.01-0.33,0.01-0.49
		c0-0.17,0.01-0.33,0.03-0.48C9.55,9.11,9.64,8.7,9.76,8.32c0.12-0.38,0.21-0.78,0.28-1.2c0.02-0.09,0.01-0.18-0.02-0.26
		C9.98,6.78,9.98,6.71,9.99,6.64C10,6.6,10.03,6.57,10.07,6.55c0.04-0.02,0.07-0.05,0.08-0.1c0.03-0.11,0.03-0.2,0.02-0.27
		c-0.01-0.07,0-0.16,0.05-0.26c0.04-0.08,0.1-0.2,0.16-0.36c0.06-0.16,0.09-0.32,0.07-0.49c0.08-0.06,0.15-0.13,0.22-0.21
		c0.07-0.08,0.14-0.15,0.21-0.22c0.07-0.07,0.16-0.12,0.25-0.17c0.09-0.05,0.2-0.08,0.33-0.08c0.07,0.1,0.11,0.21,0.14,0.33
		c0.02,0.12,0.04,0.24,0.06,0.36c0.02,0.12,0.05,0.24,0.1,0.34c0.04,0.11,0.12,0.19,0.22,0.25c0,0.08,0,0.18,0,0.3
		c0,0.12,0,0.24,0.01,0.36c0.01,0.12,0.03,0.22,0.06,0.32c0.03,0.1,0.08,0.16,0.15,0.19c-0.16,0.49-0.3,0.97-0.43,1.44
		c-0.13,0.48-0.24,0.95-0.33,1.43c-0.09,0.48-0.14,0.96-0.16,1.45C11.25,11.66,11.28,12.15,11.35,12.65z"/>
	<path class="st0" d="M20.22,6.41c-0.22,0-0.45,0.02-0.7,0.05c-0.25,0.04-0.5,0.07-0.74,0.11c-0.17,0.03-0.34,0.06-0.5,0.08
		c-0.16,0.02-0.3,0.04-0.43,0.05c-0.06,0.22-0.12,0.42-0.18,0.59c-0.06,0.17-0.12,0.34-0.19,0.5c-0.07,0.17-0.13,0.35-0.19,0.52
		s-0.11,0.37-0.16,0.57c-0.09,0.16-0.16,0.31-0.21,0.45c-0.06,0.14-0.1,0.29-0.14,0.46c-0.1,0.15-0.18,0.31-0.23,0.48
		c-0.05,0.17-0.09,0.31-0.12,0.43l-0.05,0.18c-0.05,0.06-0.08,0.11-0.09,0.14c-0.01,0.04-0.03,0.07-0.06,0.1
		c-0.01,0.11-0.04,0.22-0.09,0.33c-0.02,0.05-0.03,0.1-0.04,0.14c-0.01,0.05-0.01,0.08-0.01,0.1c0,0.1-0.02,0.17-0.06,0.2
		c0.01,0.05,0.01,0.1,0,0.16c-0.01,0.06-0.02,0.11-0.03,0.16c-0.03,0.12-0.03,0.22-0.03,0.29c0.03,0.04,0.05,0.08,0.07,0.11
		c0.02,0.03,0.04,0.07,0.04,0.12c0.05,0.04,0.09,0.07,0.12,0.08c0.03,0.03,0.09,0.07,0.16,0.11l0.12,0.15c0.04,0.29,0,0.53-0.12,0.7
		c-0.13,0.19-0.35,0.29-0.66,0.29h-0.16c-0.04-0.05-0.07-0.09-0.08-0.12c-0.07-0.03-0.12-0.06-0.17-0.08
		c-0.04-0.02-0.08-0.06-0.12-0.12c-0.11-0.06-0.2-0.11-0.27-0.15l-0.12-0.08c0-0.11,0-0.17,0-0.18c-0.06-0.09-0.11-0.19-0.14-0.3
		c-0.03-0.11-0.05-0.22-0.07-0.33c-0.02-0.09-0.04-0.18-0.06-0.26s-0.05-0.15-0.08-0.21c-0.02-0.59,0.03-1.08,0.14-1.49
		c0.11-0.4,0.23-0.79,0.35-1.17c0.07-0.2,0.14-0.41,0.21-0.61c0.07-0.21,0.13-0.42,0.18-0.65l0.12-0.15c0.06-0.16,0.11-0.3,0.15-0.4
		c0.04-0.11,0.08-0.21,0.12-0.33c0.03-0.07,0.05-0.14,0.07-0.2c0.02-0.07,0.04-0.12,0.06-0.17c-0.05,0-0.1,0-0.14,0.01
		c-0.04,0.01-0.09,0.01-0.13,0.02c-0.05,0.01-0.1,0.02-0.14,0.02c-0.04,0.01-0.09,0.01-0.13,0.01c-0.06,0-0.1-0.01-0.13-0.02
		c-0.1,0.05-0.2,0.08-0.31,0.08h-0.13c-0.03,0-0.05,0-0.07-0.01c-0.02,0-0.04-0.01-0.06-0.01c-0.09,0-0.16,0.02-0.21,0.05
		c-0.1,0-0.2,0-0.3,0h-0.13c-0.02,0-0.04,0-0.06,0.01c-0.03,0-0.05,0.01-0.06,0.01c-0.06,0-0.12-0.01-0.19-0.02
		c-0.07-0.02-0.14-0.05-0.22-0.1c-0.1-0.16-0.17-0.25-0.21-0.26l-0.12-0.18c-0.01-0.06-0.02-0.12-0.04-0.17
		C13.03,6.42,13.01,6.36,13,6.29c-0.03-0.1-0.07-0.21-0.1-0.33c-0.03-0.12-0.05-0.26-0.05-0.42c0.01-0.08,0.03-0.14,0.05-0.18
		s0.05-0.08,0.06-0.11l0.04-0.23l0.17,0.02h0.36c0.28,0,0.56-0.01,0.84-0.04s0.58-0.05,0.88-0.08c0.17-0.02,0.35-0.04,0.52-0.06
		c0.18-0.02,0.36-0.04,0.55-0.06c0.03-0.09,0.07-0.18,0.1-0.26l0.13-0.08c0.16-0.01,0.27,0.01,0.33,0.07
		c0.06,0.06,0.12,0.11,0.16,0.16c0.19-0.02,0.38-0.04,0.58-0.07c0.19-0.02,0.39-0.06,0.59-0.1c0.29-0.05,0.59-0.1,0.89-0.14
		c0.3-0.04,0.58-0.06,0.86-0.06c0.12,0,0.24,0.01,0.35,0.02c0.11,0.01,0.22,0.03,0.31,0.05l0.13,0.11c0.03,0.06,0.06,0.12,0.11,0.17
		c0.05,0.05,0.1,0.1,0.15,0.15c0.1,0.11,0.21,0.24,0.31,0.39s0.14,0.37,0.12,0.67C21.38,6,21.33,6.07,21.29,6.09l-0.12,0.18
		l-0.13-0.02c-0.05,0-0.1,0.01-0.14,0.02c-0.04,0.02-0.09,0.03-0.13,0.05c-0.03,0.02-0.07,0.04-0.1,0.05
		c-0.03,0.02-0.07,0.03-0.12,0.04c-0.08,0-0.14,0-0.19-0.01C20.32,6.41,20.27,6.41,20.22,6.41z"/>
	<path class="st0" d="M21.86,10.95c-0.08,0.02-0.13,0.07-0.17,0.16c-0.03,0.09-0.07,0.17-0.1,0.27c-0.03,0.09-0.06,0.17-0.09,0.25
		c-0.03,0.08-0.08,0.11-0.14,0.11c-0.01,0.08-0.03,0.15-0.07,0.21c-0.04,0.06-0.08,0.12-0.11,0.19c-0.03,0.07-0.06,0.14-0.08,0.21
		c-0.02,0.08-0.01,0.16,0.03,0.27c-0.07,0.06-0.11,0.15-0.13,0.26c-0.02,0.11-0.04,0.22-0.06,0.32c-0.02,0.1-0.06,0.19-0.11,0.26
		s-0.15,0.1-0.28,0.09c-0.03,0.04-0.03,0.07-0.01,0.08c0.02,0.01,0.03,0.05,0.04,0.11c-0.1-0.02-0.17-0.01-0.21,0.02
		c-0.05,0.04-0.11,0.06-0.17,0.07c-0.16-0.06-0.3-0.17-0.41-0.32s-0.2-0.32-0.28-0.51c-0.08-0.19-0.16-0.38-0.22-0.57
		c-0.06-0.19-0.13-0.36-0.19-0.5c0.03-0.11,0.03-0.22,0.01-0.33c-0.02-0.11-0.05-0.19-0.09-0.27c0.42-1.05,0.88-2.18,1.38-3.37
		c0.5-1.19,0.97-2.37,1.42-3.54c0.2,0.09,0.39,0.19,0.59,0.31c0.19,0.12,0.37,0.25,0.53,0.4s0.3,0.33,0.41,0.52
		c0.11,0.2,0.19,0.42,0.22,0.66c-0.02,0.06-0.04,0.08-0.06,0.07s-0.04-0.01-0.06,0.02c0.03,0.05,0.05,0.09,0.06,0.11
		c0,0.02,0,0.04,0,0.06c0,0.02-0.01,0.05-0.01,0.08s0.01,0.08,0.04,0.14c-0.03-0.01-0.06,0-0.07,0.02c-0.01,0.02-0.04,0.02-0.08,0
		c0.03,0.11,0.05,0.2,0.03,0.27c-0.01,0.07-0.03,0.13-0.06,0.19S23.31,7.4,23.3,7.46c-0.02,0.07-0.01,0.15,0.01,0.25
		c-0.03,0-0.04,0.01-0.06,0.02c-0.01,0.02-0.02,0.03-0.03,0.05c-0.01,0.02-0.02,0.03-0.03,0.05c-0.01,0.02-0.03,0.02-0.06,0.01
		c0.03,0.22,0.03,0.45,0.03,0.67c-0.01,0.22-0.02,0.45-0.02,0.68c0,0.23,0,0.47,0.01,0.71c0.01,0.25,0.04,0.5,0.09,0.77
		c0.31-0.21,0.56-0.49,0.74-0.82s0.34-0.71,0.45-1.12c0.12-0.41,0.2-0.86,0.27-1.34c0.06-0.48,0.12-0.96,0.19-1.46
		c0.08-0.09,0.14-0.2,0.18-0.33c0.04-0.13,0.08-0.27,0.12-0.42c0.03-0.15,0.07-0.29,0.1-0.44c0.03-0.15,0.08-0.28,0.13-0.4
		c0.13,0.02,0.24,0.07,0.33,0.14c0.09,0.08,0.17,0.16,0.25,0.24s0.16,0.17,0.25,0.24c0.09,0.08,0.19,0.12,0.32,0.14
		c0.1,0.17,0.2,0.34,0.28,0.5c0.09,0.16,0.14,0.33,0.17,0.52c-0.04,0.08-0.08,0.17-0.1,0.27s-0.05,0.2-0.07,0.3
		c-0.03,0.1-0.06,0.2-0.1,0.28c-0.04,0.09-0.1,0.16-0.18,0.22c-0.03,0.26-0.06,0.5-0.1,0.72c-0.04,0.22-0.08,0.43-0.12,0.65
		c-0.04,0.21-0.07,0.43-0.1,0.66s-0.03,0.48-0.03,0.75c-0.07,0.23-0.14,0.48-0.22,0.74s-0.14,0.5-0.18,0.71
		c-0.14,0.13-0.25,0.29-0.32,0.47s-0.16,0.36-0.25,0.55c-0.03,0.04-0.06,0.05-0.06,0.03c-0.01-0.02-0.04-0.04-0.09-0.05
		c0.01,0.04,0.01,0.07,0,0.09c-0.01,0.02-0.02,0.04-0.03,0.05c-0.01,0.02-0.02,0.04-0.03,0.07c0,0.03,0,0.07,0.02,0.12
		c-0.12,0.06-0.23,0.15-0.32,0.26c-0.1,0.11-0.2,0.21-0.3,0.3c-0.11,0.09-0.24,0.15-0.39,0.18s-0.35,0-0.59-0.11
		c-0.35-0.3-0.67-0.65-0.94-1.05C22.26,11.96,22.03,11.49,21.86,10.95z"/>
	<path class="st0" d="M33.91,5.16c0.01,0.07,0.01,0.12,0.01,0.16c0,0.04-0.01,0.07-0.01,0.1c0,0.03-0.01,0.06-0.01,0.1
		c0,0.04,0.01,0.09,0.03,0.16c-0.18,0.34-0.39,0.58-0.63,0.71S32.8,6.6,32.52,6.66c-0.28,0.06-0.56,0.11-0.85,0.17
		c-0.29,0.06-0.58,0.19-0.86,0.39c-0.11-0.05-0.21-0.05-0.3,0c-0.09,0.05-0.22,0.07-0.4,0.05C30.06,7.33,30,7.38,29.92,7.4
		s-0.16,0.05-0.23,0.08c0.03,0.09,0.05,0.18,0.05,0.28c0,0.1,0.01,0.17,0.03,0.24c0.3,0.03,0.64,0.03,1-0.02
		c0.37-0.04,0.73-0.07,1.08-0.08c0.01,0.05,0,0.08-0.01,0.1c-0.02,0.02-0.02,0.04-0.01,0.08c0.06,0.05,0.12,0.11,0.18,0.19
		c0.06,0.08,0.12,0.15,0.18,0.22c0.06,0.07,0.12,0.13,0.19,0.17c0.06,0.05,0.14,0.06,0.23,0.05C32.63,8.81,32.66,8.9,32.67,9
		c0.01,0.1,0,0.19-0.03,0.3c-0.14,0.11-0.28,0.23-0.41,0.34c-0.14,0.12-0.28,0.22-0.43,0.31c-0.15,0.09-0.31,0.16-0.48,0.22
		c-0.17,0.06-0.36,0.08-0.56,0.07c-0.04,0-0.08,0-0.1,0s-0.05-0.02-0.08-0.05c-0.07,0.05-0.17,0.07-0.29,0.05
		c-0.13-0.02-0.22,0-0.29,0.05c-0.09-0.05-0.21-0.07-0.34-0.07c-0.13,0.01-0.25-0.01-0.36-0.05c-0.14,0.21-0.26,0.44-0.38,0.68
		c-0.11,0.24-0.21,0.5-0.3,0.77c0.29,0.05,0.54,0.07,0.73,0.06c0.19-0.01,0.38-0.03,0.55-0.05c0.17-0.02,0.35-0.05,0.53-0.08
		s0.41-0.03,0.69-0.02c0.17-0.11,0.38-0.18,0.61-0.22c0.24-0.04,0.45-0.09,0.65-0.17c0.07,0.03,0.13,0.08,0.18,0.16
		c0.05,0.08,0.1,0.15,0.15,0.21c0.05,0.07,0.1,0.12,0.15,0.17s0.12,0.07,0.19,0.06c0.03,0.04,0.06,0.09,0.07,0.14
		c0.01,0.06,0.02,0.11,0.03,0.16c0.01,0.05,0.02,0.09,0.05,0.13c0.02,0.04,0.06,0.05,0.11,0.04c-0.13,0.33-0.28,0.59-0.45,0.77
		c-0.17,0.18-0.36,0.31-0.58,0.4c-0.22,0.09-0.46,0.16-0.72,0.21c-0.26,0.05-0.55,0.11-0.87,0.18c-0.08,0.02-0.14,0.02-0.19-0.01
		c-0.05-0.03-0.11-0.04-0.18-0.04c-0.2,0.05-0.44,0.1-0.71,0.14c-0.28,0.04-0.56,0.06-0.84,0.05c-0.28-0.01-0.56-0.05-0.81-0.13
		c-0.26-0.08-0.47-0.21-0.63-0.4c-0.07-0.07-0.11-0.15-0.14-0.25c-0.02-0.1-0.08-0.17-0.17-0.22c-0.01-0.13-0.03-0.28-0.05-0.44
		c-0.03-0.16-0.05-0.33-0.08-0.51c-0.03-0.18-0.04-0.35-0.06-0.52c-0.01-0.17-0.01-0.33,0.02-0.47c0.03-0.15,0.08-0.29,0.16-0.41
		c0.08-0.12,0.11-0.25,0.08-0.4c0.04-0.01,0.07-0.04,0.08-0.08c0.01-0.05,0.04-0.06,0.1-0.05c0.05-0.18,0.11-0.35,0.17-0.52
		c0.06-0.16,0.12-0.32,0.19-0.47c0.06-0.15,0.13-0.31,0.19-0.46c0.06-0.16,0.13-0.33,0.19-0.52c-0.12-0.13-0.21-0.28-0.27-0.43
		c-0.06-0.16-0.1-0.31-0.12-0.47c-0.03-0.16-0.05-0.32-0.06-0.49c-0.02-0.17-0.05-0.34-0.09-0.51c0.09-0.15,0.19-0.28,0.32-0.37
		s0.26-0.17,0.41-0.24c0.15-0.06,0.31-0.11,0.48-0.15c0.17-0.04,0.35-0.09,0.54-0.14c0.35-0.13,0.65-0.23,0.93-0.3
		c0.27-0.07,0.54-0.13,0.8-0.17c0.26-0.05,0.54-0.09,0.82-0.13c0.28-0.04,0.61-0.1,0.97-0.18c0.08,0.09,0.15,0.14,0.22,0.14
		c0.03-0.09,0.08-0.12,0.12-0.08c0.05,0.04,0.07,0.01,0.06-0.08c0.09,0.17,0.2,0.32,0.33,0.43C33.59,4.98,33.74,5.08,33.91,5.16z"/>
	<path class="st0" d="M33.8,6.88c0.06-0.21,0.16-0.39,0.29-0.55c0.13-0.15,0.28-0.28,0.44-0.39c0.16-0.11,0.33-0.19,0.5-0.27
		c0.17-0.07,0.34-0.13,0.49-0.18c0.35-0.17,0.71-0.34,1.11-0.49c0.39-0.16,0.79-0.3,1.2-0.42c0.41-0.12,0.83-0.2,1.26-0.24
		c0.43-0.04,0.88,0.03,1.36,0.19c0.03,0.1,0.06,0.2,0.12,0.29c0.05,0.09,0.11,0.18,0.16,0.27c0.06,0.09,0.11,0.18,0.15,0.27
		c0.04,0.09,0.07,0.17,0.08,0.27c0.09,0.09,0.16,0.19,0.21,0.3c0.05,0.11,0.06,0.25,0.03,0.42c-0.09,0.08-0.17,0.15-0.25,0.22
		c-0.08,0.07-0.17,0.12-0.27,0.17c-0.32-0.09-0.64-0.12-0.97-0.09c-0.33,0.03-0.62,0.06-0.88,0.08c-0.08-0.09-0.17-0.14-0.28-0.14
		s-0.22,0.02-0.34,0.06c-0.12,0.04-0.23,0.08-0.35,0.12c-0.12,0.04-0.23,0.05-0.33,0.03c-0.09,0.08-0.19,0.13-0.32,0.16
		c-0.13,0.03-0.26,0.05-0.41,0.07c-0.01,0.05,0,0.08,0.03,0.1s0.03,0.05,0.01,0.1c0.05,0.07,0.12,0.12,0.2,0.15s0.17,0.06,0.26,0.09
		c0.09,0.03,0.17,0.07,0.24,0.11c0.07,0.05,0.12,0.12,0.14,0.22c0.13,0,0.24,0.04,0.34,0.11c0.09,0.07,0.17,0.16,0.23,0.26
		c0.06,0.1,0.11,0.21,0.14,0.33s0.05,0.22,0.05,0.31c0.03,0.08,0.06,0.12,0.09,0.11c0.03-0.01,0.07,0.01,0.12,0.06
		c0.03,0.13,0.09,0.27,0.19,0.4c0.1,0.14,0.19,0.29,0.25,0.45c0.02,0.25,0.03,0.48,0.04,0.68c0.01,0.2-0.02,0.4-0.09,0.6
		c-0.13,0.37-0.31,0.71-0.54,1s-0.49,0.55-0.78,0.78s-0.6,0.42-0.93,0.58c-0.33,0.16-0.65,0.3-0.96,0.41c-0.03-0.01-0.07-0.01-0.1,0
		c-0.03,0.01-0.04-0.02-0.03-0.08c-0.07,0.07-0.14,0.12-0.23,0.14c-0.08,0.02-0.17,0.03-0.27,0.02c-0.09-0.01-0.19-0.01-0.29-0.02
		s-0.19,0-0.28,0.02c-0.06-0.07-0.11-0.14-0.16-0.2c-0.05-0.07-0.08-0.15-0.11-0.25c-0.04,0-0.06-0.03-0.06-0.08
		c0-0.05-0.01-0.08-0.05-0.08c0.05-0.1,0.08-0.16,0.07-0.17c0-0.02-0.02-0.03-0.04-0.04s-0.04-0.02-0.06-0.04
		c-0.02-0.02-0.02-0.04-0.01-0.07c0.03-0.08,0.05-0.17,0.04-0.28c-0.01-0.11-0.02-0.21-0.03-0.33c-0.01-0.11,0-0.22,0.02-0.32
		c0.02-0.1,0.08-0.18,0.19-0.24c0.29,0.04,0.57,0.03,0.83-0.04c0.26-0.07,0.51-0.16,0.74-0.28s0.46-0.25,0.67-0.39
		c0.21-0.14,0.42-0.27,0.63-0.38c0.03-0.09,0.06-0.17,0.11-0.23c0.05-0.06,0.1-0.12,0.15-0.17s0.1-0.11,0.14-0.17
		c0.04-0.06,0.07-0.14,0.09-0.23c0.01-0.07-0.01-0.11-0.05-0.13c-0.04-0.02-0.06-0.05-0.06-0.11l-0.14-0.05
		c-0.16-0.11-0.35-0.21-0.56-0.28c-0.21-0.08-0.38-0.16-0.53-0.25c-0.09,0.06-0.18,0.08-0.27,0.05s-0.19-0.06-0.32-0.09
		C35.61,9.09,35.32,9.05,35.05,9c-0.27-0.05-0.53-0.14-0.78-0.27c-0.02-0.05-0.04-0.1-0.06-0.14s-0.07-0.05-0.14-0.03
		c-0.05-0.08-0.1-0.16-0.16-0.24c-0.05-0.08-0.1-0.16-0.14-0.25c0.02-0.12,0.03-0.23,0.04-0.31c0.01-0.09-0.02-0.17-0.08-0.25
		c0.03-0.13,0.06-0.24,0.08-0.32C33.82,7.12,33.82,7.01,33.8,6.88z"/>
	<path class="st0" d="M39.95,6.88c0.06-0.21,0.16-0.39,0.29-0.55c0.13-0.15,0.28-0.28,0.44-0.39c0.16-0.11,0.33-0.19,0.5-0.27
		c0.17-0.07,0.34-0.13,0.49-0.18c0.35-0.17,0.71-0.34,1.11-0.49c0.39-0.16,0.79-0.3,1.2-0.42c0.41-0.12,0.83-0.2,1.26-0.24
		c0.43-0.04,0.88,0.03,1.36,0.19c0.03,0.1,0.06,0.2,0.12,0.29c0.05,0.09,0.11,0.18,0.16,0.27c0.06,0.09,0.11,0.18,0.15,0.27
		c0.04,0.09,0.07,0.17,0.08,0.27c0.09,0.09,0.16,0.19,0.21,0.3c0.05,0.11,0.06,0.25,0.03,0.42c-0.09,0.08-0.17,0.15-0.25,0.22
		C47,6.63,46.92,6.69,46.82,6.74c-0.32-0.09-0.64-0.12-0.97-0.09c-0.33,0.03-0.62,0.06-0.88,0.08c-0.08-0.09-0.17-0.14-0.28-0.14
		s-0.22,0.02-0.34,0.06c-0.12,0.04-0.23,0.08-0.35,0.12c-0.12,0.04-0.23,0.05-0.33,0.03c-0.09,0.08-0.19,0.13-0.32,0.16
		c-0.13,0.03-0.26,0.05-0.41,0.07c-0.01,0.05,0,0.08,0.03,0.1s0.03,0.05,0.01,0.1c0.05,0.07,0.12,0.12,0.2,0.15s0.17,0.06,0.26,0.09
		c0.09,0.03,0.17,0.07,0.24,0.11c0.07,0.05,0.12,0.12,0.14,0.22c0.13,0,0.24,0.04,0.34,0.11c0.09,0.07,0.17,0.16,0.23,0.26
		c0.06,0.1,0.11,0.21,0.14,0.33s0.05,0.22,0.05,0.31c0.03,0.08,0.06,0.12,0.09,0.11c0.03-0.01,0.07,0.01,0.12,0.06
		c0.03,0.13,0.09,0.27,0.19,0.4c0.1,0.14,0.19,0.29,0.25,0.45c0.02,0.25,0.03,0.48,0.04,0.68c0.01,0.2-0.02,0.4-0.09,0.6
		c-0.13,0.37-0.31,0.71-0.54,1s-0.49,0.55-0.78,0.78s-0.6,0.42-0.93,0.58c-0.33,0.16-0.65,0.3-0.96,0.41c-0.03-0.01-0.07-0.01-0.1,0
		c-0.03,0.01-0.04-0.02-0.03-0.08c-0.07,0.07-0.14,0.12-0.23,0.14c-0.08,0.02-0.17,0.03-0.27,0.02c-0.09-0.01-0.19-0.01-0.29-0.02
		s-0.19,0-0.28,0.02c-0.06-0.07-0.11-0.14-0.16-0.2c-0.05-0.07-0.08-0.15-0.11-0.25c-0.04,0-0.06-0.03-0.06-0.08
		c0-0.05-0.01-0.08-0.05-0.08c0.05-0.1,0.08-0.16,0.07-0.17c0-0.02-0.02-0.03-0.04-0.04s-0.04-0.02-0.06-0.04
		c-0.02-0.02-0.02-0.04-0.01-0.07c0.03-0.08,0.05-0.17,0.04-0.28c-0.01-0.11-0.02-0.21-0.03-0.33c-0.01-0.11,0-0.22,0.02-0.32
		c0.02-0.1,0.08-0.18,0.19-0.24c0.29,0.04,0.57,0.03,0.83-0.04c0.26-0.07,0.51-0.16,0.74-0.28s0.46-0.25,0.67-0.39
		c0.21-0.14,0.42-0.27,0.63-0.38c0.03-0.09,0.06-0.17,0.11-0.23c0.05-0.06,0.1-0.12,0.15-0.17s0.1-0.11,0.14-0.17
		c0.04-0.06,0.07-0.14,0.09-0.23c0.01-0.07-0.01-0.11-0.05-0.13c-0.04-0.02-0.06-0.05-0.06-0.11l-0.14-0.05
		c-0.16-0.11-0.35-0.21-0.56-0.28c-0.21-0.08-0.38-0.16-0.53-0.25c-0.09,0.06-0.18,0.08-0.27,0.05s-0.19-0.06-0.32-0.09
		C41.75,9.09,41.47,9.05,41.2,9c-0.27-0.05-0.53-0.14-0.78-0.27c-0.02-0.05-0.04-0.1-0.06-0.14s-0.07-0.05-0.14-0.03
		c-0.05-0.08-0.1-0.16-0.16-0.24c-0.05-0.08-0.1-0.16-0.14-0.25c0.02-0.12,0.03-0.23,0.04-0.31c0.01-0.09-0.02-0.17-0.08-0.25
		c0.03-0.13,0.06-0.24,0.08-0.32C39.97,7.12,39.97,7.01,39.95,6.88z"/>
	<path class="st0" d="M53.13,12.28c-0.09,0.08-0.14,0.18-0.16,0.31c-0.02,0.13-0.04,0.25-0.06,0.37s-0.07,0.23-0.14,0.31
		c-0.06,0.09-0.18,0.12-0.34,0.11c-0.03,0.05-0.04,0.08-0.02,0.09c0.02,0.01,0.04,0.06,0.06,0.14c-0.12-0.02-0.21-0.01-0.26,0.03
		s-0.12,0.07-0.19,0.09c-0.2-0.07-0.36-0.2-0.5-0.39c-0.13-0.19-0.25-0.39-0.35-0.61c-0.1-0.22-0.19-0.45-0.26-0.68
		c-0.07-0.23-0.15-0.44-0.23-0.61c0-0.04,0.02-0.06,0.05-0.05s0.06,0.01,0.08,0.01c-0.04-0.1-0.08-0.21-0.1-0.34
		c-0.02-0.13-0.06-0.23-0.12-0.31c0.25-0.63,0.52-1.28,0.8-1.97c0.28-0.68,0.57-1.38,0.86-2.08c0.29-0.7,0.58-1.41,0.87-2.12
		s0.57-1.41,0.83-2.1c0.24,0.1,0.48,0.22,0.71,0.36c0.23,0.14,0.44,0.3,0.63,0.48c0.19,0.18,0.35,0.39,0.49,0.63
		c0.13,0.24,0.22,0.51,0.27,0.81c-0.02,0.06-0.04,0.08-0.06,0.06c-0.03-0.02-0.05-0.01-0.06,0.03c0.04,0.06,0.07,0.1,0.07,0.13
		c0,0.03,0,0.05-0.01,0.08c-0.01,0.03-0.01,0.06-0.01,0.1s0.02,0.1,0.06,0.17c-0.04-0.01-0.07,0-0.09,0.02
		c-0.02,0.03-0.05,0.03-0.09,0.01c0.04,0.14,0.06,0.25,0.04,0.33c-0.02,0.08-0.04,0.15-0.08,0.22c-0.03,0.07-0.06,0.14-0.08,0.21
		c-0.02,0.08-0.02,0.18,0.02,0.31c-0.03,0-0.06,0.01-0.07,0.02c-0.01,0.02-0.02,0.03-0.03,0.05c-0.01,0.02-0.02,0.04-0.03,0.05
		c-0.01,0.02-0.04,0.02-0.07,0.01c0.03,0.26,0.03,0.53,0.03,0.8c-0.01,0.27-0.02,0.54-0.03,0.82c-0.01,0.28-0.01,0.56,0,0.86
		c0.01,0.29,0.04,0.6,0.1,0.91c0.37-0.25,0.67-0.58,0.9-0.99s0.41-0.85,0.54-1.35c0.13-0.5,0.24-1.03,0.31-1.59
		c0.07-0.57,0.15-1.14,0.23-1.73c0.09-0.11,0.17-0.25,0.23-0.41c0.06-0.16,0.1-0.33,0.14-0.5c0.04-0.17,0.08-0.35,0.12-0.52
		c0.04-0.18,0.09-0.34,0.16-0.48c0.16,0.02,0.29,0.07,0.39,0.16s0.21,0.18,0.3,0.29c0.09,0.11,0.19,0.21,0.3,0.3
		c0.1,0.09,0.23,0.15,0.39,0.18c0.12,0.2,0.23,0.4,0.34,0.58c0.1,0.19,0.17,0.4,0.21,0.63c-0.05,0.1-0.09,0.21-0.12,0.33
		S60.03,5.09,60,5.21c-0.03,0.12-0.07,0.23-0.12,0.33s-0.12,0.19-0.22,0.26c-0.03,0.3-0.06,0.59-0.12,0.85s-0.1,0.52-0.14,0.77
		c-0.04,0.25-0.08,0.52-0.12,0.79c-0.03,0.27-0.05,0.57-0.04,0.9c-0.08,0.29-0.16,0.59-0.26,0.9c-0.09,0.31-0.16,0.59-0.21,0.86
		c-0.16,0.15-0.29,0.34-0.39,0.56c-0.09,0.22-0.19,0.45-0.3,0.67c-0.04,0.04-0.07,0.05-0.08,0.02c-0.01-0.03-0.05-0.04-0.12-0.05
		c0.01,0.09-0.01,0.15-0.04,0.17c-0.04,0.03-0.04,0.1,0.01,0.22c-0.15,0.08-0.28,0.19-0.39,0.32c-0.11,0.13-0.24,0.25-0.37,0.36
		c-0.13,0.11-0.29,0.18-0.47,0.22c-0.18,0.04-0.41-0.01-0.69-0.13c-0.42-0.36-0.8-0.78-1.14-1.26c-0.34-0.48-0.6-1.04-0.8-1.68
		c-0.09,0.03-0.15,0.1-0.19,0.2c-0.04,0.1-0.08,0.21-0.12,0.32c-0.03,0.11-0.07,0.21-0.1,0.3c-0.03,0.09-0.09,0.14-0.16,0.14
		c-0.02,0.09-0.05,0.17-0.1,0.25c-0.05,0.08-0.09,0.15-0.14,0.23c-0.04,0.08-0.08,0.16-0.1,0.25
		C53.08,12.07,53.09,12.17,53.13,12.28z"/>
	<path class="st0" d="M65.25,13.74c-0.14,0.01-0.31,0-0.51-0.02s-0.39,0.02-0.56,0.11c-0.46-0.02-0.92-0.09-1.4-0.2
		c-0.47-0.11-0.91-0.25-1.31-0.41c-0.09-0.11-0.17-0.21-0.26-0.31c-0.09-0.1-0.2-0.16-0.35-0.21c-0.21-0.19-0.38-0.43-0.5-0.71
		s-0.23-0.57-0.31-0.89s-0.13-0.63-0.16-0.96c-0.03-0.33-0.03-0.65-0.03-0.95c0.13-0.46,0.31-0.85,0.55-1.18
		c0.24-0.33,0.48-0.65,0.73-0.98c0.11-0.06,0.2-0.12,0.25-0.19s0.12-0.13,0.18-0.18c0.06-0.06,0.13-0.11,0.19-0.17
		c0.06-0.06,0.12-0.12,0.17-0.21c0.18-0.05,0.34-0.12,0.47-0.22c0.13-0.1,0.27-0.2,0.39-0.3c0.13-0.11,0.26-0.21,0.4-0.3
		c0.14-0.09,0.3-0.16,0.48-0.21c0.07-0.09,0.15-0.16,0.25-0.22c0.1-0.06,0.19-0.11,0.29-0.17c0.1-0.06,0.19-0.11,0.28-0.17
		c0.09-0.06,0.16-0.14,0.21-0.24c0.04,0.08,0.1,0.11,0.18,0.08c0.08-0.02,0.15-0.05,0.22-0.08c0.04-0.01,0.08,0,0.11,0.03
		c0.03,0.03,0.06,0.06,0.08,0.09s0.05,0.05,0.07,0.05c0.02,0,0.04-0.02,0.06-0.07c0.04,0,0.06,0.03,0.04,0.08
		c-0.02,0.05-0.03,0.09-0.04,0.11c0.07-0.01,0.13,0.01,0.17,0.05c0.05,0.05,0.12,0.07,0.23,0.08C65.89,4.94,65.9,4.98,65.88,5
		c-0.02,0.03-0.03,0.07-0.03,0.13c0.26,0.09,0.42,0.24,0.49,0.43c0.07,0.2,0.07,0.4,0.01,0.61c-0.06,0.21-0.17,0.41-0.32,0.59
		s-0.32,0.3-0.5,0.36c-0.41,0.13-0.8,0.28-1.17,0.43c-0.37,0.16-0.67,0.39-0.9,0.69c-0.21,0.07-0.39,0.16-0.55,0.28
		c-0.16,0.12-0.31,0.25-0.45,0.39c-0.14,0.15-0.28,0.3-0.4,0.46c-0.13,0.16-0.26,0.31-0.4,0.46c0.01,0.14-0.01,0.25-0.06,0.33
		s-0.09,0.15-0.14,0.24c0.02,0.15,0.05,0.29,0.09,0.4c0.04,0.12,0.09,0.23,0.14,0.34c0.57,0.2,1.18,0.33,1.82,0.38
		c0.64,0.05,1.29,0.08,1.93,0.09c0.06,0.1,0.13,0.19,0.21,0.28s0.16,0.18,0.23,0.27c0.07,0.1,0.12,0.2,0.17,0.32
		c0.04,0.12,0.05,0.26,0.03,0.43c-0.12,0.15-0.25,0.29-0.4,0.42C65.54,13.48,65.39,13.61,65.25,13.74z"/>
</g>
<g>
</g>
<g>
</g>
<g>
</g>
<g>
</g>
<g>
</g>
<g>
</g>
</svg>
