<?xml version="1.0" encoding="utf-8"?>
<!-- Generator: Adobe Illustrator 25.3.0, SVG Export Plug-In . SVG Version: 6.00 Build 0)  -->
<svg version="1.1" id="Calque_1" xmlns="http://www.w3.org/2000/svg" xmlns:xlink="http://www.w3.org/1999/xlink" x="0px" y="0px"
	 viewBox="0 0 78.46 78.46" style="enable-background:new 0 0 78.46 78.46;" xml:space="preserve">
<style type="text/css">
	.st0{fill:url(#SVGID_1_);}
	.st1{fill:#FFFFFF;}
</style>
<radialGradient id="SVGID_1_" cx="45.8242" cy="47.9341" r="57.2405" gradientUnits="userSpaceOnUse">
	<stop  offset="0.3198" style="stop-color:#FCC00E"/>
	<stop  offset="0.4757" style="stop-color:#FCBE0C"/>
	<stop  offset="0.5755" style="stop-color:#FBB706"/>
	<stop  offset="0.6595" style="stop-color:#F8AC00"/>
	<stop  offset="0.7343" style="stop-color:#F59B00"/>
	<stop  offset="0.7665" style="stop-color:#F39200"/>
</radialGradient>
<circle class="st0" cx="39.23" cy="39.23" r="39.23"/>
<g>
	<path class="st1" d="M9.82,38.29v-2.55h0.82v-6.98H9.82v-2.55h9.79v4.02h-2.9v-1.47h-1.49v2.58h2.47v1.77h-2.47v2.64h2.14v2.55
		H9.82z"/>
	<path class="st1" d="M20.14,38.29v-2.55h0.72v-3.54h-0.72v-2.55h4.49v6.08h0.72v2.55H20.14z M20.92,28.81v-2.59h3.34v2.59H20.92z"
		/>
	<path class="st1" d="M27.23,37.71c-0.58-0.53-0.88-1.43-0.88-2.69v-2.81h-0.72v-2.55c0.42,0,0.73-0.1,0.93-0.3
		c0.21-0.2,0.31-0.48,0.31-0.83v-0.7h3.47v1.83h2.21v2.55h-2.21v2.55c0,0.34,0.08,0.59,0.24,0.75c0.16,0.16,0.4,0.24,0.71,0.24
		c0.41,0,0.87-0.05,1.36-0.14v2.44c-0.31,0.11-0.72,0.22-1.24,0.32s-1.04,0.15-1.58,0.15C28.69,38.51,27.82,38.24,27.23,37.71z"/>
	<path class="st1" d="M44.06,35.75v2.55h-5.17v-2.55h0.69V33.2c0-0.34-0.08-0.59-0.23-0.75s-0.38-0.24-0.69-0.24
		c-0.65,0-0.98,0.33-0.98,0.99v2.55h0.69v2.55h-5.17v-2.55h0.72v-3.54h-0.72v-2.55h4.49v1.21c0.79-0.95,1.77-1.43,2.95-1.43
		c0.91,0,1.59,0.27,2.04,0.81c0.45,0.54,0.68,1.28,0.68,2.22v3.28H44.06z"/>
	<path class="st1" d="M45.82,37.35c-0.87-0.77-1.31-1.9-1.31-3.38c0-1.48,0.44-2.6,1.31-3.38c0.87-0.77,2.08-1.16,3.63-1.16
		c1.54,0,2.65,0.38,3.33,1.14c0.68,0.76,1.02,1.71,1.02,2.83v1.12h-5.3v0.09c0,0.38,0.12,0.67,0.36,0.85
		c0.24,0.18,0.64,0.27,1.19,0.27c0.67,0,1.3-0.05,1.9-0.14c0.6-0.09,1.12-0.21,1.57-0.36v2.48c-0.38,0.2-0.94,0.38-1.68,0.54
		c-0.74,0.16-1.54,0.24-2.4,0.24C47.91,38.51,46.7,38.13,45.82,37.35z M50.41,32.83v-0.19c0-0.35-0.08-0.61-0.24-0.76
		c-0.16-0.15-0.4-0.23-0.71-0.23c-0.32,0-0.55,0.08-0.71,0.24c-0.16,0.16-0.24,0.41-0.24,0.75v0.19H50.41z"/>
	<path class="st1" d="M54.3,37.89v-2.3h2.65v0.16c0,0.5,0.33,0.75,1,0.75c0.59,0,0.88-0.19,0.88-0.57c0-0.21-0.08-0.36-0.25-0.47
		c-0.17-0.1-0.47-0.19-0.89-0.26l-0.82-0.14c-1.71-0.29-2.57-1.21-2.57-2.76c0-0.9,0.36-1.6,1.08-2.1c0.72-0.5,1.69-0.75,2.91-0.75
		c1.36,0,2.52,0.22,3.45,0.65v2.16h-2.49V32.1c0-0.21-0.07-0.37-0.22-0.47c-0.15-0.11-0.36-0.16-0.65-0.16
		c-0.55,0-0.82,0.17-0.82,0.5c0,0.18,0.08,0.31,0.23,0.4s0.43,0.18,0.83,0.26l0.93,0.17c0.97,0.18,1.66,0.5,2.08,0.98
		c0.41,0.48,0.62,1.09,0.62,1.83c0,0.94-0.35,1.66-1.04,2.16c-0.69,0.5-1.68,0.75-2.96,0.75C56.91,38.51,55.58,38.3,54.3,37.89z"/>
	<path class="st1" d="M62.8,37.89v-2.3h2.65v0.16c0,0.5,0.33,0.75,1,0.75c0.59,0,0.88-0.19,0.88-0.57c0-0.21-0.08-0.36-0.25-0.47
		c-0.17-0.1-0.47-0.19-0.89-0.26l-0.82-0.14c-1.71-0.29-2.57-1.21-2.57-2.76c0-0.9,0.36-1.6,1.08-2.1c0.72-0.5,1.69-0.75,2.91-0.75
		c1.36,0,2.52,0.22,3.45,0.65v2.16h-2.49V32.1c0-0.21-0.07-0.37-0.22-0.47c-0.15-0.11-0.36-0.16-0.65-0.16
		c-0.55,0-0.82,0.17-0.82,0.5c0,0.18,0.08,0.31,0.23,0.4s0.43,0.18,0.83,0.26l0.93,0.17c0.97,0.18,1.66,0.5,2.08,0.98
		c0.41,0.48,0.62,1.09,0.62,1.83c0,0.94-0.35,1.66-1.04,2.16c-0.69,0.5-1.68,0.75-2.96,0.75C65.4,38.51,64.08,38.3,62.8,37.89z"/>
	<path class="st1" d="M38.9,44.84h5.37v2.55h-0.82v9.53h-4.6l-4.8-7v4.45h0.79v2.55h-5.37v-2.55h0.82v-6.98h-0.82v-2.55h5.91
		l4.31,6.22v-3.68H38.9V44.84z"/>
	<path class="st1" d="M46.1,55.98c-0.87-0.77-1.31-1.9-1.31-3.38c0-1.48,0.44-2.6,1.31-3.38c0.87-0.77,2.08-1.16,3.63-1.16
		c0.75,0,1.47,0.1,2.16,0.29c0.69,0.2,1.22,0.42,1.6,0.67v3.07h-2.82v-0.28c0-0.34-0.08-0.59-0.23-0.75s-0.39-0.24-0.72-0.24
		c-0.63,0-0.95,0.33-0.95,0.99v1.33c0,0.81,0.49,1.21,1.46,1.21c0.91,0,1.96-0.09,3.16-0.28v2.44c-0.37,0.16-0.89,0.29-1.56,0.42
		c-0.67,0.12-1.37,0.19-2.09,0.19C48.19,57.14,46.97,56.75,46.1,55.98z"/>
</g>
<g>
</g>
<g>
</g>
<g>
</g>
<g>
</g>
<g>
</g>
<g>
</g>
</svg>
